<svg xmlns="http://www.w3.org/2000/svg" viewBox="0 0 500 500"><g id="freepik--background-complete--inject-34"><rect x="87.88" y="37.94" width="99.32" height="136.73" style="fill:#e0e0e0"></rect><rect x="78.42" y="37.94" width="102.57" height="136.73" style="fill:#ebebeb"></rect><rect x="88.21" y="47.5" width="83.03" height="116.62" style="fill:#fafafa"></rect><path d="M88.21,164.12h83V133.53h-83Z" style="fill:#f5f5f5"></path><path d="M138.89,99.9l2.68,6.26s-6.13,4.47-5.24,11.37,6,20.83,6,20.83h10.73s5.37-19.42,5.24-22.62-4.73-9.45-4.73-9.45L156,99.9S146.43,94,138.89,99.9Z" style="fill:#e0e0e0"></path><path d="M138.33,120.47c-2.07-1.87-4.65-4.2-5.51-7.37a4.23,4.23,0,0,1,.47-3.71,3.76,3.76,0,0,1,3.13-1.32,9.57,9.57,0,0,1,3,.73l-.49,1.32a8.55,8.55,0,0,0-2.55-.65,2.35,2.35,0,0,0-2,.78,3,3,0,0,0-.23,2.49c.75,2.76,3.16,4.94,5.09,6.68Z" style="fill:#e0e0e0"></path><path d="M157.21,121.34l-1.05-.94a16.77,16.77,0,0,0,3.07-4.88,7.22,7.22,0,0,0,.62-2.43,3,3,0,0,0-.65-2.09,2.66,2.66,0,0,0-2.28-.83,3.94,3.94,0,0,0-2.38,1.21l-1-1a5.37,5.37,0,0,1,3.23-1.61,4.12,4.12,0,0,1,3.5,1.3,4.38,4.38,0,0,1,1,3.07,8.23,8.23,0,0,1-.72,2.92A18.18,18.18,0,0,1,157.21,121.34Z" style="fill:#e0e0e0"></path><path d="M156,100a9.07,9.07,0,0,1-2.46.62,37.64,37.64,0,0,1-12.23.1,10.06,10.06,0,0,1-2.48-.58,15.93,15.93,0,0,1,2.52.22,58.37,58.37,0,0,0,6.07.29,57.17,57.17,0,0,0,6.06-.39A18.61,18.61,0,0,1,156,100Z" style="fill:#ebebeb"></path><path d="M171.23,63.27c-1-1.41-6-3.21-7.72-3.49-7.73-1.28-15.8-1.4-23.24,1.06s-14.16,7.76-17.07,15c-1.49,3.74-2,7.9-3.92,11.43-2.49,4.48-7,7.38-10.49,11.17a27.87,27.87,0,0,0-1.46,35.81l20.84.25c-.51-8.19-.48-16.58,2-24.42S137.74,95,145.22,91.57c7.85-3.56,17.82-2.7,26.36-1.48Z" style="fill:#ebebeb"></path><path d="M118.39,47.5c2.31,3.56-.66,9.37-3.69,12.35s-6.89,5.48-8.3,9.49,0,8.46-.66,12.65a12.53,12.53,0,0,1-17.53,9.39V47.5Z" style="fill:#ebebeb"></path><path d="M110.16,123.42s1.13,1.58.68,2.6S105,134.28,107,139.26a56.6,56.6,0,0,0,6.11,10.42h12.68s6.24-9.85,6.11-13.13c-.22-5.44-4.19-11.1-4.19-11.1l1-2S117,120,110.16,123.42Z" style="fill:#e0e0e0"></path><path d="M171.23,164.12s0-.2,0-.57,0-.93,0-1.64c0-1.46,0-3.59,0-6.37,0-5.57,0-13.69-.07-24,0-20.53-.06-49.65-.11-84.08l.23.24-83,0h0l.26-.26c0,43.68,0,84.08,0,116.62l-.21-.21,60.36.11,16.74,0,4.4,0c1,0,1.52,0,1.52,0l-1.47,0-4.36,0-16.7.06-60.49.11H88v-.21c0-32.54,0-72.94,0-116.62v-.26h.27l83,0h.24v.24c-.05,34.49-.09,63.67-.12,84.23,0,10.25,0,18.36-.06,23.91,0,2.76,0,4.88,0,6.32,0,.71,0,1.24,0,1.62S171.23,164.12,171.23,164.12Z" style="fill:#e0e0e0"></path><path d="M181,37.94a36.81,36.81,0,0,1-4.7,5,57.36,57.36,0,0,1-5.06,4.59,36.81,36.81,0,0,1,4.7-5A57.36,57.36,0,0,1,181,37.94Z" style="fill:#e0e0e0"></path><path d="M78.14,37.91a45.45,45.45,0,0,1,5.25,4.61,46.66,46.66,0,0,1,4.89,5A47.24,47.24,0,0,1,83,42.9,46.72,46.72,0,0,1,78.14,37.91Z" style="fill:#e0e0e0"></path><path d="M78.42,174.67a45,45,0,0,1,4.66-5.17,46.86,46.86,0,0,1,5-4.82,46.73,46.73,0,0,1-4.66,5.18A47.2,47.2,0,0,1,78.42,174.67Z" style="fill:#e0e0e0"></path><path d="M180.66,174.84c-.13.09-1.83-2.68-4.46-5.67s-5.13-5-5-5.17a7.43,7.43,0,0,1,1.74,1.23,33.41,33.41,0,0,1,3.68,3.6,32,32,0,0,1,3.08,4.12A7.16,7.16,0,0,1,180.66,174.84Z" style="fill:#e0e0e0"></path><path d="M154,382.51a33.36,33.36,0,0,0-14.23-4.9c-2.33-.24-4.87-.17-6.73,1.24a1.38,1.38,0,0,0-.7,1.23,1.55,1.55,0,0,0,.66.84c5.79,4.41,14.55,5,21,1.59" style="fill:#e0e0e0"></path><path d="M153.61,382.1a68.77,68.77,0,0,1-9.2-8.08,23.26,23.26,0,0,1-5.76-10.66,4.32,4.32,0,0,1,.45-3.57c7.33,5.72,13.09,13.13,14.51,22.31" style="fill:#e0e0e0"></path><path d="M153.89,382.45a33.08,33.08,0,0,1,.18-12.07,16.33,16.33,0,0,1,6.42-10c1.27,3,.73,6.37-.17,9.47A45.85,45.85,0,0,1,154,383.31" style="fill:#e0e0e0"></path><path d="M161.08,395.32c-4.36.53-8.16,2.83-11.42,5.78a21.64,21.64,0,0,0-6.53,11.21c4.28-.27,7.91-3.28,10.54-6.66s4.46-7.1,7.35-10.26" style="fill:#e0e0e0"></path><path d="M162.64,397.38a28.16,28.16,0,0,1,3.25-26.63c2.48,8.84,1.57,18.82-3.25,26.63" style="fill:#e0e0e0"></path><path d="M172.13,408.68a20.35,20.35,0,0,0-19.46,11.21,1.5,1.5,0,0,0-.14,1.53,1.43,1.43,0,0,0,1.29.37c3.84-.24,7.24-2.55,10.05-5.18s5.25-5.66,8.35-7.94" style="fill:#e0e0e0"></path><path d="M171.83,408.07a36.23,36.23,0,0,1-.36-20.25c.71-2.61,1.91-5.35,4.32-6.57a.82.82,0,0,1,.66-.12,1,1,0,0,1,.42.48,12.27,12.27,0,0,1,1,5.81,35.42,35.42,0,0,1-.91,5.88c-.75,3.6-1.16,7.46-3.13,10.56a20.74,20.74,0,0,0-1.25,2.32c-.38.79-.38,1.07-.72,1.69" style="fill:#e0e0e0"></path><path d="M197,411.81c-1.86-7.08.12-15.66,4.58-21.47.33-.42.76-.88,1.3-.83.82.07,1,1.17,1,2A38.83,38.83,0,0,1,197,411.81" style="fill:#e0e0e0"></path><path d="M199.22,413.36a31.22,31.22,0,0,0,25.62-5.21,20.74,20.74,0,0,0-13.87-1.7c-4.63,1.06-8.87,3.13-11.75,6.91" style="fill:#e0e0e0"></path><path d="M201.13,408.65c4.81-7.86,14.05-13,23.25-13.45-1.06,3.74-4.13,6.65-7.6,8.41s-7.35,2.52-11.17,3.26c-1.48.29-3.52.61-4.48,1.78" style="fill:#e0e0e0"></path><path d="M197.43,385.77a67.35,67.35,0,0,0,3-13.62c.36-4.64-.3-9.49-2.71-13.47-4.5,8.7-4.95,18.88-.39,27.56" style="fill:#e0e0e0"></path><path d="M212.58,378.11c5.26-9.56,16-17.2,26.87-18.27-4.2,10.43-15.63,18.5-26.87,18.27" style="fill:#e0e0e0"></path><path d="M209.27,380c7.85,1.19,14.54,6.2,21.87,9.24a9.8,9.8,0,0,0,4.94.95,3.87,3.87,0,0,0,2.43-6.85,10.69,10.69,0,0,0-3.59-2.17c-8-3.33-16.56-3.41-25-1.4" style="fill:#e0e0e0"></path><path d="M204.73,385.49c1.78.51,2.38,1.43,3.79,2.63a40.94,40.94,0,0,0,16.58,8.52c.64.16,1.47.22,1.78-.35s-.07-1.11-.43-1.56a22.75,22.75,0,0,0-10-6.79c-3.83-1.43-7.14-3.15-11.71-2.78" style="fill:#e0e0e0"></path><path d="M199.6,352.24a31.39,31.39,0,0,0,24.07,8.19,1.67,1.67,0,0,0,1.09-.39c.61-.66-.12-1.68-.83-2.23-7.07-5.51-15.64-7.8-24.33-5.57" style="fill:#e0e0e0"></path><path d="M205.68,350a33.53,33.53,0,0,1,30-4.95,23.9,23.9,0,0,1-14.31,6.28A45.33,45.33,0,0,1,205.68,350" style="fill:#e0e0e0"></path><path d="M203.26,334.74c-.69-7.06-.24-12.63-.73-19.73,0-.56-.16-1.25-.69-1.45-.74-.29-1.35.62-1.6,1.38a22.64,22.64,0,0,0,3,19.65" style="fill:#e0e0e0"></path><path d="M202.76,335.52a41.49,41.49,0,0,0,11.69-11.37c2.31-3.16,4.26-6.94,3.74-10.82a11.16,11.16,0,0,0-8.44,4.19,23.36,23.36,0,0,0-4.3,8.65c-.94,3.11-1.59,6.3-2.69,9.35" style="fill:#e0e0e0"></path><path d="M214.25,332.33a94.39,94.39,0,0,0,28.79-17c-3.44-1.39-7.38-.56-10.82.83a34.1,34.1,0,0,0-18.12,16.06" style="fill:#e0e0e0"></path><path d="M206,339.39c5.31.58,10.71.95,16,.07s10.08-2.92,14.92-4.95a1.79,1.79,0,0,0,1-.77,1.16,1.16,0,0,0-.37-1.28,3,3,0,0,0-1.27-.6c-5.26-1.47-10.94-.78-16.12,1A74.24,74.24,0,0,0,206,339.39" style="fill:#e0e0e0"></path><path d="M175.64,352.49c-3.62-7.32-3.39-15.86-.25-23.41,2.2,3.36,2.47,7.64,2.07,11.64s-1.62,8.11-1.7,12.13" style="fill:#e0e0e0"></path><path d="M161.16,345.18a32.64,32.64,0,0,0-24.25,10.33,22.63,22.63,0,0,0,13.28-2.46,67.47,67.47,0,0,0,11.38-7.62" style="fill:#e0e0e0"></path><path d="M151.42,341.92c-4.42-.36-8.68-.9-12.94.4a15.54,15.54,0,0,0-9.87,8.37,23.38,23.38,0,0,0,12.14-2.29,69.62,69.62,0,0,0,10.67-6.48" style="fill:#e0e0e0"></path><path d="M165.84,342.07c-4-2.61-8.07-5.27-12.71-6.35s-10-.28-13.25,3.22c3.76,2.2,8.31,2.46,12.66,2.46s9.69-.06,13.8,1.4" style="fill:#e0e0e0"></path><path d="M165.87,342.28c-6.82-6.68-9.4-18.7-6.66-27.84a42.43,42.43,0,0,1,6.66,27.84" style="fill:#e0e0e0"></path><path d="M184.59,323.33c1.29-3,2.19-6.11,3.34-9.15a26.5,26.5,0,0,1,4.76-8.45,12.56,12.56,0,0,1,8.44-4.37,34,34,0,0,1-16.37,22" style="fill:#e0e0e0"></path><path d="M181.2,327.28c-2.12-2.92-4.58-6.89-7.46-9.08s-6.64-3.5-10.15-2.66a23.62,23.62,0,0,0,17.61,11.74" style="fill:#e0e0e0"></path><path d="M181.88,323.58a50.54,50.54,0,0,1-3.36-10.88,17,17,0,0,1,1.7-11.07c3.74,7.07,4.95,14.66,1.85,22" style="fill:#e0e0e0"></path><path d="M184.63,301.63c2.11-7,8.53-12.16,15.45-14.53a5.9,5.9,0,0,1,2.71-.4,2.33,2.33,0,0,1,2,1.67c.25,1.19-.73,2.25-1.66,3.05a52.5,52.5,0,0,1-18.5,10.21" style="fill:#e0e0e0"></path><path d="M184.7,295.91c.27-4.52.55-9.1,2-13.38s4.3-8.3,8.42-10.17c.7,4.56-1.31,9.1-3.74,13s-5.35,7.63-6.81,12" style="fill:#e0e0e0"></path><path d="M184.59,299c-1.75-5.1-1.93-11.59-5-16-2.13-3.11-5.56-5.23-7.4-8.52a13,13,0,0,0,.43,9.67,28.18,28.18,0,0,0,5.66,8.1c2.26,2.41,4.2,4.23,6.3,6.78" style="fill:#e0e0e0"></path><path d="M184.63,449.37c-.14,0-.26-34.06-.27-76.06s.1-76.07.23-76.07.26,34.05.27,76.07S184.76,449.37,184.63,449.37Z" style="fill:#e0e0e0"></path><path d="M214.39,347.35a7.9,7.9,0,0,1-1.28.48L209.58,349c-3,1-7.05,2.47-11.48,4.29s-8.52,3.41-10.88,5.45a7.94,7.94,0,0,0-2.18,2.89c-.34.8-.4,1.29-.45,1.28a1.16,1.16,0,0,1,0-.35,4.93,4.93,0,0,1,.25-1A7.6,7.6,0,0,1,187,358.5a18.92,18.92,0,0,1,4.72-2.93c1.89-.88,4-1.8,6.2-2.72,4.45-1.82,8.56-3.24,11.57-4.17,1.5-.46,2.72-.81,3.57-1A6.47,6.47,0,0,1,214.39,347.35Z" style="fill:#e0e0e0"></path><path d="M224.15,323.38a2.14,2.14,0,0,1-.36.39l-1.1,1-4.08,3.71L205,340.59c-5.3,4.72-9.88,9.23-13.05,12.62-1.59,1.7-2.84,3.1-3.7,4.08l-1,1.13a2.47,2.47,0,0,1-.37.37s.08-.16.29-.43.5-.69.91-1.19c.82-1,2-2.46,3.59-4.19a170.3,170.3,0,0,1,13-12.76c5.32-4.7,10.16-8.93,13.67-12l4.19-3.59,1.15-1A2.27,2.27,0,0,1,224.15,323.38Z" style="fill:#e0e0e0"></path><path d="M199.31,345.39c-.14-.06,1-2.62,2.07-5.85s1.64-6,1.78-5.94a19.73,19.73,0,0,1-1.31,6.09,41,41,0,0,1-1.65,4.1A6.43,6.43,0,0,1,199.31,345.39Z" style="fill:#e0e0e0"></path><path d="M184.66,366a5.9,5.9,0,0,1-.82-.95l-2.09-2.68c-1.76-2.27-4.19-5.41-6.91-8.84s-5.23-6.51-7.05-8.74c-.85-1.06-1.57-1.94-2.13-2.65a5.55,5.55,0,0,1-.74-1,6.82,6.82,0,0,1,.88.89c.55.59,1.32,1.46,2.26,2.55,1.88,2.17,4.43,5.22,7.16,8.65s5.12,6.61,6.81,8.94c.84,1.17,1.51,2.11,2,2.78A6.9,6.9,0,0,1,184.66,366Z" style="fill:#e0e0e0"></path><path d="M178.13,357.62a11.88,11.88,0,0,1-2.73-5.11,14.31,14.31,0,0,1-.62-5.16H175c-.1.4-.17.61-.21.6s0-.23,0-.63l.22,0a23.87,23.87,0,0,0,.87,5A37.43,37.43,0,0,0,178.13,357.62Z" style="fill:#e0e0e0"></path><path d="M169.71,347a8.75,8.75,0,0,0-1.91-1.11,12.68,12.68,0,0,0-5.3-.42,32.39,32.39,0,0,0-5.34.86,16.24,16.24,0,0,1-2.19.52,8.06,8.06,0,0,1,2.1-.86,24.12,24.12,0,0,1,5.39-1,11.63,11.63,0,0,1,5.47.58A3.44,3.44,0,0,1,169.71,347Z" style="fill:#e0e0e0"></path><path d="M167.71,344.46c0,.07-1.11-.45-2.93-1.07a29.4,29.4,0,0,0-14.73-1.12c-1.89.34-3,.69-3.05.61a2.71,2.71,0,0,1,.77-.33,17.31,17.31,0,0,1,2.21-.62,25.91,25.91,0,0,1,14.92,1.14A17.44,17.44,0,0,1,167,344,2.9,2.9,0,0,1,167.71,344.46Z" style="fill:#e0e0e0"></path><path d="M184.59,333.6a62.75,62.75,0,0,1-2.13-7.41,61,61,0,0,1-1.66-7.53,58.81,58.81,0,0,1,2.14,7.41A61.07,61.07,0,0,1,184.59,333.6Z" style="fill:#e0e0e0"></path><path d="M184.73,333.6a35.27,35.27,0,0,0-2.37-4.44,20.3,20.3,0,0,0-3.47-3.59,3.32,3.32,0,0,1,1.34.69,11,11,0,0,1,2.54,2.62A9.87,9.87,0,0,1,184.73,333.6Z" style="fill:#e0e0e0"></path><path d="M184.63,431.21c-.06,0-.16-.82-.54-2.26a31.73,31.73,0,0,0-2.28-5.9c-2.35-4.81-6.63-10.91-12.07-17-2.7-3.08-5.31-6-7.53-8.77a61.83,61.83,0,0,1-5.39-7.77,37.58,37.58,0,0,1-2.72-5.76c-.25-.71-.43-1.27-.53-1.65a2.3,2.3,0,0,1-.14-.59s.29.78.85,2.17a41.56,41.56,0,0,0,2.84,5.66,64.47,64.47,0,0,0,5.44,7.65c2.23,2.76,4.85,5.65,7.55,8.73,5.45,6.13,9.73,12.3,12,17.19a29.94,29.94,0,0,1,2.15,6c.15.74.26,1.31.3,1.71A3.36,3.36,0,0,1,184.63,431.21Z" style="fill:#e0e0e0"></path><path d="M211.52,400.83a10.85,10.85,0,0,1-1.41.79,32.45,32.45,0,0,0-3.65,2.42,42.29,42.29,0,0,0-4.81,4.38c-1.68,1.78-3.42,3.85-5.19,6.06-3.54,4.45-6.85,8.38-8.84,11.52-1,1.56-1.74,2.87-2.22,3.79a12.71,12.71,0,0,1-.77,1.42s0-.14.13-.4.24-.63.47-1.1a35.53,35.53,0,0,1,2.1-3.89c1.92-3.22,5.21-7.21,8.75-11.64,1.77-2.22,3.53-4.3,5.25-6.07a38,38,0,0,1,4.92-4.35,25.82,25.82,0,0,1,3.77-2.31c.47-.23.85-.37,1.1-.48A1.5,1.5,0,0,1,211.52,400.83Z" style="fill:#e0e0e0"></path><path d="M212.05,410.69a20.9,20.9,0,0,1-3,.43,40.25,40.25,0,0,0-7.07,1.39,21.24,21.24,0,0,0-6.32,3.32c-1.46,1.13-2.15,2.06-2.22,2a2.43,2.43,0,0,1,.44-.69,11.17,11.17,0,0,1,1.56-1.59,19.31,19.31,0,0,1,6.39-3.52,32.92,32.92,0,0,1,7.18-1.27A15.93,15.93,0,0,1,212.05,410.69Z" style="fill:#e0e0e0"></path><path d="M194.33,416.76c-.15-.09,1.19-2.14,2.23-4.9s1.21-5.23,1.38-5.2a4.56,4.56,0,0,1-.05,1.6A16.61,16.61,0,0,1,197,412a18.67,18.67,0,0,1-1.72,3.45A5,5,0,0,1,194.33,416.76Z" style="fill:#e0e0e0"></path><path d="M220.23,374.38a2.7,2.7,0,0,1-.47.25l-1.41.64c-.61.26-1.35.59-2.19,1s-1.83.89-2.85,1.5l-1.62.92c-.57.33-1.12.71-1.72,1.08-1.2.73-2.4,1.63-3.68,2.54a69.93,69.93,0,0,0-7.68,6.76,68.7,68.7,0,0,0-6.49,7.91c-.87,1.31-1.72,2.54-2.41,3.76-.35.61-.71,1.18-1,1.75l-.87,1.66c-.58,1-1,2-1.39,2.89s-.73,1.61-1,2.23-.43,1.05-.59,1.42a3.3,3.3,0,0,1-.23.49,1.78,1.78,0,0,1,.14-.52l.5-1.46c.22-.63.5-1.4.89-2.27s.78-1.88,1.34-2.94c.27-.54.55-1.1.85-1.68s.65-1.16,1-1.78c.67-1.24,1.52-2.48,2.39-3.81A60.57,60.57,0,0,1,206,382c1.3-.91,2.52-1.8,3.73-2.52.61-.37,1.17-.75,1.74-1.06l1.66-.91c1-.59,2-1,2.89-1.43s1.61-.73,2.24-1l1.44-.55A2.06,2.06,0,0,1,220.23,374.38Z" style="fill:#e0e0e0"></path><path d="M199,388.64a3.33,3.33,0,0,1,1.17-1.75,7.41,7.41,0,0,1,4.71-1.8,13,13,0,0,1,5,1,7.1,7.1,0,0,1,1.87.92,11.89,11.89,0,0,1-2-.59,15.07,15.07,0,0,0-4.83-.8,7.7,7.7,0,0,0-4.51,1.58A12.49,12.49,0,0,0,199,388.64Z" style="fill:#e0e0e0"></path><path d="M195.76,391.92a12.58,12.58,0,0,0,1-8.9c.06,0,.33.44.56,1.26a9.05,9.05,0,0,1,.23,3.34,8.75,8.75,0,0,1-1,3.19C196.18,391.57,195.81,392,195.76,391.92Z" style="fill:#e0e0e0"></path><path d="M161.1,436.09c.74,13,4.66,26.25,10.69,39.64H198c5.75-13.25,9.4-26.47,10.05-39.64Z" style="fill:#e0e0e0"></path><path d="M203.83,457.15c0,.14-8.64.25-19.29.25s-19.29-.11-19.29-.25,8.63-.24,19.29-.24S203.83,457,203.83,457.15Z" style="fill:#fafafa"></path><path d="M203.24,461.87c0,.13-8.1.24-18.08.24s-18.09-.11-18.09-.24,8.1-.25,18.09-.25S203.24,461.73,203.24,461.87Z" style="fill:#fafafa"></path><path d="M172.22,444.64a76.12,76.12,0,0,1,0,12.08,73.09,73.09,0,0,1,0-12.08Z" style="fill:#fafafa"></path><path d="M186.27,444.64a78.38,78.38,0,0,1,0,12.51,81.63,81.63,0,0,1,0-12.51Z" style="fill:#fafafa"></path><path d="M199.47,444.53a85.05,85.05,0,0,1,0,12.77,81.66,81.66,0,0,1,0-12.77Z" style="fill:#fafafa"></path><path d="M207.25,444.64c0,.13-10.13.24-22.63.24s-22.63-.11-22.63-.24,10.13-.25,22.63-.25S207.25,444.5,207.25,444.64Z" style="fill:#fafafa"></path><rect x="335.74" y="49.1" width="86.74" height="86.74" style="fill:#ebebeb"></rect><rect x="338.29" y="51.65" width="81.64" height="81.64" style="fill:#fff"></rect><rect x="367.39" y="80.75" width="23.44" height="23.44" style="fill:#e0e0e0"></rect><rect x="422.48" y="49.12" width="3.66" height="86.72" style="fill:#e0e0e0"></rect><rect x="254.42" y="48.36" width="38.4" height="10.16" style="fill:#ebebeb"></rect><path d="M276.58,69.22a.63.63,0,0,1,0-.19l0-.52c0-.48,0-1.14,0-2,0-1.75,0-4.27-.06-7.45l.12.12-38.4.08c.09-.09-.2.19.2-.2h0v1.28c0,.44,0,.87,0,1.3v7.56l-.19-.19,27.36.08,8.08.06,2.18,0,.58,0h-.53l-2.14,0-8,0-27.5.09H238v-.19c0-1.63,0-3.3,0-5V59.08h0l.2-.2,38.4.08h.12v.12c0,3.21-.05,5.75-.07,7.52q0,1.28,0,2c0,.2,0,.37,0,.5A.92.92,0,0,1,276.58,69.22Z" style="fill:#e0e0e0"></path><path d="M370.69,204.44a.63.63,0,0,1,0-.2c0-.14,0-.33,0-.56,0-.51,0-1.22,0-2.14,0-1.88,0-4.59-.07-8l.13.12-41.22.09c.09-.1-.22.21.2-.21h0v10.9l-.21-.2,29.38.09,8.67.06,2.35,0h.83l-.19,0h-.59l-2.3,0-8.63.05-29.52.1h-.2v-.21c0-1.75,0-3.54,0-5.36v-5.54h0c.42-.42.12-.12.22-.21l41.22.08h.13v.13c0,3.44-.06,6.17-.07,8.07,0,.91,0,1.62,0,2.12v.54A.86.86,0,0,1,370.69,204.44Z" style="fill:#e0e0e0"></path><path d="M376.28,193.54a1.07,1.07,0,0,1,0-.21c0-.16,0-.35,0-.58,0-.54,0-1.27,0-2.19,0-1.91,0-4.61-.08-7.93l.15.15-24.77.06c-.19.19.25-.26.21-.21h0v5.6c0,1.82,0,3.59,0,5.29l-.2-.2,17.72.09,5.16.06,1.39,0,.5,0-.45,0-1.35,0-5.12,0-17.85.1h-.2v-.2c0-1.7,0-3.47,0-5.29v-5.6h0l.21-.21,24.77.06h.15v.15c0,3.36-.06,6.09-.08,8,0,.9,0,1.62,0,2.15A6.39,6.39,0,0,1,376.28,193.54Z" style="fill:#e0e0e0"></path><path d="M154.09,272.1a1,1,0,0,1,0-.2c0-.15,0-.33,0-.56,0-.51,0-1.23,0-2.15,0-1.88,0-4.59-.07-8l.13.13-41.23.08.21-.21h0V272.1l-.21-.21,29.38.09,8.67.06,2.34,0h.62l.22,0h-.78l-2.3,0-8.63.06-29.52.09h-.2v-.2c0-1.76,0-3.55,0-5.37v-5.52h0l.21-.21,41.23.08h.12v.13c0,3.45-.05,6.18-.07,8.08,0,.9,0,1.61,0,2.12v.53C154.09,272,154.09,272.1,154.09,272.1Z" style="fill:#e0e0e0"></path><path d="M159.67,261.19s0-.08,0-.21,0-.34,0-.58c0-.53,0-1.26,0-2.18,0-1.91,0-4.61-.08-7.94l.15.16-24.76.05c-.19.19.25-.25.21-.2h0v1.41c0,.48,0,.95,0,1.42v8.06l-.2-.2,17.71.1,5.17.05,1.39,0a2.66,2.66,0,0,1,.49,0,2,2,0,0,1-.45,0l-1.35,0-5.11.05-17.85.1h-.2v-.2c0-1.69,0-3.46,0-5.29v-5.6h0s.39-.4.21-.22l24.76.06h.16v.15c0,3.36-.07,6.1-.09,8,0,.91,0,1.62,0,2.15A4.81,4.81,0,0,1,159.67,261.19Z" style="fill:#e0e0e0"></path></g><g id="freepik--character-2--inject-34"><path d="M448.78,460.72s-.89,5.6-.86,6.58l-4,3.4-10.06-2.25-.83-8.22Z" style="fill:#ffc5b0"></path><path d="M433.7,467.22v.9s-15.21,5.89-15.41,8.76l30.07.21-.34-10A17.19,17.19,0,0,1,433.7,467.22Z" style="fill:#FF725E"></path><g style="opacity:0.6000000000000001"><path d="M448.35,477.09l-.09-2.4-28.78.68s-1.34.57-1.2,1.51Z" style="fill:#fff"></path></g><path d="M433.58,468.2c0,.15.74.22,1.46.7s1.1,1.09,1.24,1-.08-.9-1-1.46S433.55,468.06,433.58,468.2Z" style="fill:#263238"></path><path d="M430.42,469.48c0,.14.6.4,1.1,1s.63,1.28.78,1.28.24-.84-.39-1.6S430.43,469.34,430.42,469.48Z" style="fill:#263238"></path><path d="M428.61,473.24c.13,0,.34-.7,0-1.5s-1.06-1.13-1.12-1,.36.55.65,1.22S428.46,473.23,428.61,473.24Z" style="fill:#263238"></path><path d="M415.37,460.72s-.89,5.6-.85,6.58l-4,3.4-10.06-2.25-.84-8.22Z" style="fill:#ffc5b0"></path><path d="M400.3,467.22l0,.9s-15.21,5.89-15.4,8.76l30.06.21-.34-10A17.17,17.17,0,0,1,400.3,467.22Z" style="fill:#FF725E"></path><g style="opacity:0.6000000000000001"><path d="M414.94,477.09l-.08-2.4-28.79.68s-1.34.57-1.19,1.51Z" style="fill:#fff"></path></g><path d="M400.18,468.2c0,.15.74.22,1.45.7s1.1,1.09,1.24,1-.08-.9-1-1.46S400.15,468.06,400.18,468.2Z" style="fill:#263238"></path><path d="M397,469.48c0,.14.6.4,1.09,1s.63,1.28.78,1.28.25-.84-.38-1.6S397,469.34,397,469.48Z" style="fill:#263238"></path><path d="M395.2,473.24c.13,0,.34-.7,0-1.5s-1.06-1.13-1.12-1,.36.55.66,1.22S395.05,473.23,395.2,473.24Z" style="fill:#263238"></path><polygon points="446.32 319.34 380.24 319.34 378.2 347.92 385.79 461.89 408.44 461.89 418.37 461.89 453.16 461.89 459.27 350.66 446.32 319.34" style="fill:#263238"></polygon><path d="M427,435.89a3.83,3.83,0,0,1-.28-.73L426,433c-.61-1.86-1.44-4.55-2.42-7.89-2-6.68-4.52-16-6.93-26.31s-4.24-19.81-5.42-26.68c-.59-3.43-1-6.21-1.32-8.14-.13-.92-.23-1.66-.31-2.22a4.49,4.49,0,0,1-.07-.78,4.17,4.17,0,0,1,.18.77l.4,2.2c.36,2,.86,4.73,1.48,8.11,1.27,6.84,3.16,16.27,5.57,26.62S422.07,418.34,424,425c.94,3.31,1.71,6,2.26,7.93.25.9.45,1.61.61,2.15A6.46,6.46,0,0,1,427,435.89Z" style="fill:#455a64"></path><path d="M409.72,436.11c-.14,0-.06-8.17.19-18.23s.55-18.21.7-18.21.06,8.16-.18,18.23S409.87,436.11,409.72,436.11Z" style="fill:#455a64"></path><path d="M445.22,175.35c-1.14-2-3.43-3.59-5.74-3.22a7.93,7.93,0,0,0-6.81-8.87c-2.23-.2-4.62.56-6.64-.4a13.85,13.85,0,0,1-3.17-2.71c-4.33-4-11.68-3.59-16.11.26s-6,10.44-4.52,16.13c.68,2.65,1.93,5.2,1.93,7.93,0,2.57-1.12,5-1.35,7.56s.89,5.62,3.41,6.1L431.47,205a10,10,0,0,0,11-3.64c1.64-2.34,2.17-5.27,2.66-8.09a76.11,76.11,0,0,0,1.35-11.15A13.4,13.4,0,0,0,445.22,175.35Z" style="fill:#e0e0e0"></path><path d="M426.81,232.62A11.14,11.14,0,0,0,438,221.81l1.1-36.44c.61-9.78-4.58-18.29-14.38-18.63l-.9,0a17.53,17.53,0,0,0-17.08,16.53c-.48,8.48-.9,17.86-.73,22.4.34,9.4,9.78,10.63,9.78,10.63s0,2.18-.06,4.94a11.14,11.14,0,0,0,11,11.36Z" style="fill:#ffc5b0"></path><path d="M415.83,216.44A22.74,22.74,0,0,0,428,212.52s-2.82,6.91-12.22,6.29Z" style="fill:#f6957f"></path><path d="M422.42,201.24a2.1,2.1,0,0,0-2.22-.5,2,2,0,0,0,0,3.76,2.53,2.53,0,0,0,1.63.05,2,2,0,0,0,1.06-.65,1.81,1.81,0,0,0,.15-1.72,2.6,2.6,0,0,0-.89-1.18" style="fill:#f6957f"></path><path d="M409.16,189.6a1.34,1.34,0,0,0,1.33,1.32,1.28,1.28,0,0,0,1.35-1.24,1.35,1.35,0,0,0-1.32-1.33A1.3,1.3,0,0,0,409.16,189.6Z" style="fill:#263238"></path><path d="M408.87,187.87c.17.17,1.17-.61,2.62-.64s2.52.67,2.67.49-.1-.39-.57-.72a3.69,3.69,0,0,0-2.15-.6,3.45,3.45,0,0,0-2.07.72C408.93,187.47,408.79,187.79,408.87,187.87Z" style="fill:#263238"></path><path d="M422.69,189.6a1.34,1.34,0,0,0,1.33,1.32,1.28,1.28,0,0,0,1.35-1.24,1.35,1.35,0,0,0-1.32-1.33A1.29,1.29,0,0,0,422.69,189.6Z" style="fill:#263238"></path><path d="M422.78,187.88c.17.17,1.17-.61,2.61-.64s2.52.67,2.68.49-.1-.39-.57-.72a3.71,3.71,0,0,0-2.15-.6,3.51,3.51,0,0,0-2.08.72C422.84,187.48,422.7,187.8,422.78,187.88Z" style="fill:#263238"></path><path d="M418.13,198.73a8.82,8.82,0,0,0-2.35-.37c-.37,0-.72-.09-.79-.34a1.88,1.88,0,0,1,.22-1.1c.32-.9.66-1.85,1-2.84,1.42-4,2.44-7.35,2.28-7.41s-1.45,3.17-2.87,7.21c-.34,1-.67,1.94-1,2.85a2.14,2.14,0,0,0-.15,1.45.91.91,0,0,0,.62.53,2.47,2.47,0,0,0,.63.07A9.83,9.83,0,0,0,418.13,198.73Z" style="fill:#263238"></path><path d="M422.41,199.62c-.23,0-.2,1.56-1.52,2.71s-3,1-3,1.23.38.3,1.08.3a3.91,3.91,0,0,0,2.51-.94,3.41,3.41,0,0,0,1.17-2.27C422.7,200,422.52,199.61,422.41,199.62Z" style="fill:#263238"></path><path d="M422.61,182.23c.15.39,1.59.17,3.29.34s3.08.59,3.3.23c.09-.17-.15-.53-.71-.9a5.7,5.7,0,0,0-5-.43C422.85,181.73,422.54,182.05,422.61,182.23Z" style="fill:#f5f5f5"></path><path d="M409.34,183.76c.26.33,1.25,0,2.45-.08s2.21.16,2.44-.18c.1-.17-.07-.5-.52-.8a3.54,3.54,0,0,0-3.94.22C409.36,183.27,409.23,183.61,409.34,183.76Z" style="fill:#f5f5f5"></path><path d="M438.54,192.46c.16-.07,6.41-2.07,6.36,4.37s-6.5,5-6.51,4.87S438.54,192.46,438.54,192.46Z" style="fill:#ffc5b0"></path><path d="M440.38,199.28s.11.08.3.16a1.09,1.09,0,0,0,.83,0,2.77,2.77,0,0,0,1.31-2.48,3.79,3.79,0,0,0-.3-1.61,1.3,1.3,0,0,0-.84-.86.56.56,0,0,0-.66.3c-.09.18,0,.31-.09.32s-.13-.11-.08-.38a.68.68,0,0,1,.26-.4.84.84,0,0,1,.62-.16,1.58,1.58,0,0,1,1.16,1,3.86,3.86,0,0,1,.38,1.79,2.93,2.93,0,0,1-1.66,2.77,1.25,1.25,0,0,1-1-.18C440.39,199.43,440.35,199.29,440.38,199.28Z" style="fill:#f6957f"></path><path d="M407.16,189.21c0,.11.35.24.78.39s.8.26.86.16-.25-.39-.73-.55S407.17,189.1,407.16,189.21Z" style="fill:#f6957f"></path><path d="M406.61,190.23c0,.11.48.14,1,.14s1,0,1-.14-.44-.27-1-.27S406.59,190.12,406.61,190.23Z" style="fill:#f6957f"></path><path d="M429,189.64c0,.11.64.14,1.41.14s1.4,0,1.42-.14-.62-.28-1.42-.27S429,189.53,429,189.64Z" style="fill:#f6957f"></path><path d="M429.09,190.94c0,.12.57.1,1.23.1s1.2,0,1.22-.09-.52-.32-1.22-.32S429.07,190.83,429.09,190.94Z" style="fill:#f6957f"></path><path d="M423.15,193s.18.3.65.55a3.47,3.47,0,0,0,2,.41,3.55,3.55,0,0,0,1.9-.78c.41-.34.57-.63.53-.66a6.29,6.29,0,0,1-2.46,1A6,6,0,0,1,423.15,193Z" style="fill:#f6957f"></path><path d="M422.49,192.73c0,.1.64.46,1.57.46a2.17,2.17,0,0,0,1.57-.45c0-.12-.73,0-1.57,0S422.53,192.62,422.49,192.73Z" style="fill:#f6957f"></path><path d="M408.53,191.83a3.83,3.83,0,0,0,2.3.78,3.78,3.78,0,0,0,2.4-.34c0-.11-1.08.06-2.37-.07S408.58,191.72,408.53,191.83Z" style="fill:#f6957f"></path><path d="M409.23,192.33a2.93,2.93,0,0,0,2,1.12,2.8,2.8,0,0,0,2.29-.36,14.83,14.83,0,0,1-2.22-.05A17.81,17.81,0,0,1,409.23,192.33Z" style="fill:#f6957f"></path><path d="M412.23,180.87a5.6,5.6,0,0,0,1.63.39,21.53,21.53,0,0,0,4,.22,22,22,0,0,0,4-.54,5.75,5.75,0,0,0,1.59-.53c0-.12-2.5.54-5.61.66S412.25,180.74,412.23,180.87Z" style="fill:#f6957f"></path><path d="M411.26,179.74a19.11,19.11,0,0,0,5.21.48,19.87,19.87,0,0,0,5.21-.51c0-.12-2.34.1-5.21.1S411.27,179.62,411.26,179.74Z" style="fill:#f6957f"></path><path d="M418.59,184.41c.11,0,.15-.31.16-.63s0-.61-.12-.64-.28.24-.29.62S418.48,184.43,418.59,184.41Z" style="fill:#f6957f"></path><path d="M416.61,184.66c0,.11.49,0,.69-.53s-.05-.92-.15-.86-.09.36-.24.71S416.55,184.55,416.61,184.66Z" style="fill:#f6957f"></path><path d="M422.62,199.21c0,.12.46.19.86.53s.59.75.7.73.1-.62-.44-1.05S422.6,199.1,422.62,199.21Z" style="fill:#f6957f"></path><path d="M424.31,199.09c0,.11.27.17.45.4s.23.45.34.49.13,0,.15-.21a.7.7,0,0,0-.18-.55.74.74,0,0,0-.53-.26C424.38,199,424.3,199,424.31,199.09Z" style="fill:#f6957f"></path><path d="M432.66,218.89s.16,0,.37-.18a1.72,1.72,0,0,0,.53-1,4.18,4.18,0,0,0-.07-1.67,3.57,3.57,0,0,1,0-1.89c.12-.3.34-.57.47-.93a1.67,1.67,0,0,0,0-1,1.31,1.31,0,0,1,0-.78,3.06,3.06,0,0,1,.35-.64,1.31,1.31,0,0,0,.21-1.13c-.11-.28-.3-.31-.3-.29s.12.1.17.33a1.19,1.19,0,0,1-.29.95,3.81,3.81,0,0,0-.42.68,1.62,1.62,0,0,0,0,.95,1.37,1.37,0,0,1,0,.85c-.11.29-.33.56-.48.92a3.76,3.76,0,0,0,0,2.08,4.49,4.49,0,0,1,.15,1.57,1.84,1.84,0,0,1-.38,1C432.77,218.8,432.64,218.87,432.66,218.89Z" style="fill:#f6957f"></path><path d="M429.15,219.56s.17,0,.41-.14a2,2,0,0,0,.66-1,17.37,17.37,0,0,0,.91-3.73,6.92,6.92,0,0,0,0-1.11,6.58,6.58,0,0,1,0-1c0-.61.61-.82,1-1.17a1.05,1.05,0,0,0,.36-.62.6.6,0,0,0-.19-.52c-.25-.23-.46-.09-.43-.08s.18,0,.33.17a.5.5,0,0,1,.1.39.85.85,0,0,1-.33.47c-.17.15-.41.26-.66.45a1.28,1.28,0,0,0-.5.87,5.89,5.89,0,0,0,0,1,9.75,9.75,0,0,1,0,1.07,26.37,26.37,0,0,1-.79,3.68,2.17,2.17,0,0,1-.51,1C429.29,219.49,429.14,219.53,429.15,219.56Z" style="fill:#f6957f"></path><path d="M403.58,175.9a11.22,11.22,0,0,0,17.14-.75,7.32,7.32,0,0,0,12.26.66,19.9,19.9,0,0,0,1,13.53,6.19,6.19,0,0,0,1.65,2.34,4.34,4.34,0,0,0,3.51.64c.8-.4.42-1.5.73-2.33a18.92,18.92,0,0,0-35.06-14.18" style="fill:#e0e0e0"></path><path d="M446.53,179.62c0-.07-.77.41-2.07.91a12.94,12.94,0,0,1-5.28.79,11.27,11.27,0,0,1-5.09-1.52,5.21,5.21,0,0,1-1.52-1.59,2.88,2.88,0,0,0,1.34,1.85,10.53,10.53,0,0,0,5.24,1.71,11.76,11.76,0,0,0,5.43-1,8.64,8.64,0,0,0,1.47-.81C446.38,179.78,446.55,179.65,446.53,179.62Z" style="fill:#fafafa"></path><path d="M445.79,182.79a21.23,21.23,0,0,1-6.86,1,21.45,21.45,0,0,1-6.72-1.72,6.22,6.22,0,0,0,1.81,1,14.61,14.61,0,0,0,9.87.54A5.75,5.75,0,0,0,445.79,182.79Z" style="fill:#fafafa"></path><path d="M402.83,172c.05,0,0-.64.1-1.76a9,9,0,0,1,1.84-4.34,8.38,8.38,0,0,1,6-3.26,13.6,13.6,0,0,1,8.24,2.13,14.43,14.43,0,0,1,1.84,1.34c.58.47,1.06,1,1.67,1.51a3,3,0,0,0,1,.54,1.9,1.9,0,0,0,1.18-.08,6.33,6.33,0,0,0,1.68-1.33,5.7,5.7,0,0,1,6.46-.86,5.86,5.86,0,0,1,2.81,3.65,9.87,9.87,0,0,1,.22,1.74,1.79,1.79,0,0,0,.06-.46,5.34,5.34,0,0,0-.11-1.32,6,6,0,0,0-2.83-3.89,5.72,5.72,0,0,0-3.32-.7,6,6,0,0,0-3.57,1.53,6,6,0,0,1-1.56,1.24,1.75,1.75,0,0,1-1.79-.41c-.55-.43-1.06-1-1.65-1.5a14.65,14.65,0,0,0-1.9-1.38,13.83,13.83,0,0,0-8.51-2.16,8.88,8.88,0,0,0-3.7,1.2,8.68,8.68,0,0,0-2.51,2.27,8.86,8.86,0,0,0-1.75,4.52,6.41,6.41,0,0,0,0,1.33A2,2,0,0,0,402.83,172Z" style="fill:#fafafa"></path><path d="M446.53,179.62a12.14,12.14,0,0,0-.23,2c-.12,1.26-.32,3-.67,4.89a44.69,44.69,0,0,1-1.16,4.79c-.37,1.2-.7,1.91-.64,1.94a5.79,5.79,0,0,0,.94-1.84,27.66,27.66,0,0,0,1.3-4.81,34.37,34.37,0,0,0,.55-4.95A8.29,8.29,0,0,0,446.53,179.62Z" style="fill:#fafafa"></path><path d="M440.49,200.15a1.94,1.94,0,1,0-.08,3.84,1.9,1.9,0,0,0,1.66-1.92c-.05-.94-.74-2.09-1.91-1.94" style="fill:#FF725E"></path><path d="M440.16,200.13s.17-.11.51-.08a1.64,1.64,0,0,1,1.17.76,2.23,2.23,0,0,1,.33,2.06,2.11,2.11,0,0,1-2.13,1.38,2.3,2.3,0,0,1-2-1.65,2.09,2.09,0,0,1,1.9-2.55c.33,0,.5.07.5.1a2.61,2.61,0,0,0-1.52.72,1.63,1.63,0,0,0-.42,1.6,1.86,1.86,0,0,0,1.53,1.27,1.71,1.71,0,0,0,1.65-1.05,1.91,1.91,0,0,0-.2-1.68,1.56,1.56,0,0,0-.9-.76C440.35,200.17,440.17,200.18,440.16,200.13Z" style="fill:#263238"></path><path d="M416,219l25.21,1.36,2.06,9.51s-7,5.59-7.65,5.82-16.54,2.45-16.54,2.45-17.08-8-16.85-7.89S416,219,416,219Z" style="fill:#ffc5b0"></path><path d="M410.13,218.87c-1,0-11.64-1.42-18.14,2.87s-24,37.4-24,37.4-5.33,17.64,2.16,21.13,27.3,14.15,27.3,14.15L402.31,277l-13.65-6.33V253.81Z" style="fill:#FF725E"></path><path d="M393.36,236.15c.07,0,0-.88,0-2.29a17.44,17.44,0,0,1,1.07-5.35,17.12,17.12,0,0,1,2.73-4.74c.89-1.09,1.55-1.67,1.5-1.72s-.2.1-.51.36a9.71,9.71,0,0,0-1.21,1.18,15.2,15.2,0,0,0-2.89,4.77,15.37,15.37,0,0,0-1,5.5,12.2,12.2,0,0,0,.14,1.69C393.28,235.94,393.33,236.16,393.36,236.15Z" style="fill:#263238"></path><path d="M440.21,221.09s-11,9.77-18.34,8.39c-9.33-1.75-10.39-9-10.39-9l-14.25,36.69,7.65,59.18,23,3,7.64-56.11Z" style="fill:#fff"></path><path d="M438.09,220.15c1.11-.5,7,.22,7.73,1.22l8.66,60.75s7.8,22.71,9.33,33.49c2,14.26-2.76,35.11-2.76,35.11l-48.44-1.65.38-57.14s-.8-17.05,4.86-30.54c2.43-5.77,6.14-13.77,9-19.25C433.22,229.77,438.09,220.15,438.09,220.15Z" style="fill:#FF725E"></path><path d="M415.76,219.15s-13.86,17.77-10.55,40.08c1.1,7.37,8.33,25.6,8.33,25.6l-.93,64.24-37.7-.14s-1.69-21.05,1.36-33.84,7.5-27.94,7.5-27.94l2.94-44.66,18.76-23.84Z" style="fill:#FF725E"></path><path d="M385,268.83a16.3,16.3,0,0,0,2.46,1.25c1.55.71,3.69,1.67,6.08,2.69s4.58,1.91,6.17,2.51c.8.3,1.44.54,1.9.68a3.16,3.16,0,0,0,.72.2A19.39,19.39,0,0,0,399.8,275l-6.11-2.62-6.13-2.58A19.87,19.87,0,0,0,385,268.83Z" style="fill:#263238"></path><path d="M370.94,280.63a8.79,8.79,0,0,0,1.17.7l3.28,1.78c2.78,1.48,6.62,3.51,10.89,5.72s8.33,4.3,11.13,5.72l.16.08.05-.17c.36-1.42.66-2.58.89-3.46a9.14,9.14,0,0,0,.27-1.28,7.25,7.25,0,0,0-.42,1.24l-1,3.42.21-.09c-2.78-1.48-6.71-3.55-11.09-5.82s-8.13-4.2-10.94-5.62l-3.33-1.66A7.91,7.91,0,0,0,370.94,280.63Z" style="fill:#263238"></path><path d="M463,339.8s-.18-.28-.53-.8a9.73,9.73,0,0,0-1.82-2.06,9.85,9.85,0,0,0-3.78-2.06,12.84,12.84,0,0,0-5.7-.14,38.2,38.2,0,0,0-6.75,1.91,62.75,62.75,0,0,1-7.73,2.46,19.84,19.84,0,0,1-4.4.5,19.4,19.4,0,0,1-4.57-.66c-3-.78-6-2.08-9.16-2.89a16.12,16.12,0,0,0-4.75-.56,12,12,0,0,0-4.47,1.11c-2.78,1.24-5.37,3-8.33,3.35a16.32,16.32,0,0,1-8-1.49c-2.36-1-4.45-2.09-6.45-2.85a15.56,15.56,0,0,0-5.6-1.21,10.08,10.08,0,0,0-4.22.9,7.67,7.67,0,0,0-2.83,2.34,3.83,3.83,0,0,1,.55-.81,6.68,6.68,0,0,1,2.2-1.71,10.08,10.08,0,0,1,4.29-1,15.79,15.79,0,0,1,5.74,1.15c2,.75,4.15,1.84,6.48,2.8a16.06,16.06,0,0,0,7.77,1.42c2.8-.33,5.33-2.06,8.17-3.35a12.64,12.64,0,0,1,4.66-1.16,17,17,0,0,1,4.9.57c3.22.83,6.17,2.14,9.15,2.91a19.14,19.14,0,0,0,4.45.65,19.58,19.58,0,0,0,4.29-.46,65.77,65.77,0,0,0,7.7-2.41,38.17,38.17,0,0,1,6.83-1.87,13,13,0,0,1,5.84.23,10.06,10.06,0,0,1,3.84,2.19,9.46,9.46,0,0,1,1.77,2.15c.17.27.27.49.35.64A.67.67,0,0,1,463,339.8Z" style="fill:#fff"></path><path d="M463.69,333.8s-.18-.29-.55-.8a8.09,8.09,0,0,0-2-1.93,13.05,13.05,0,0,0-9.7-1.93,36,36,0,0,0-6.79,1.86,70.6,70.6,0,0,1-7.75,2.51,20.55,20.55,0,0,1-4.41.55,18.23,18.23,0,0,1-4.6-.61c-3.05-.75-6-2.07-9.19-2.9a17,17,0,0,0-4.76-.62,11.88,11.88,0,0,0-4.5,1.07c-2.81,1.23-5.39,3-8.35,3.39a16.06,16.06,0,0,1-8-1.44c-2.36-1-4.46-2.1-6.47-2.87a15.64,15.64,0,0,0-5.62-1.22,10,10,0,0,0-4.23.89,7.61,7.61,0,0,0-2.85,2.35,3.83,3.83,0,0,1,.55-.81,6.85,6.85,0,0,1,2.21-1.72,10,10,0,0,1,4.32-1,15.72,15.72,0,0,1,5.75,1.17c2,.75,4.16,1.85,6.5,2.81a15.77,15.77,0,0,0,7.81,1.37c2.81-.36,5.33-2.12,8.2-3.39a12.41,12.41,0,0,1,4.69-1.11,17.11,17.11,0,0,1,4.91.63c3.22.85,6.19,2.16,9.19,2.91a17.67,17.67,0,0,0,4.47.6,19.61,19.61,0,0,0,4.3-.52,72.28,72.28,0,0,0,7.72-2.45,35.93,35.93,0,0,1,6.88-1.82,13.12,13.12,0,0,1,9.87,2.14,7.73,7.73,0,0,1,1.93,2A4.47,4.47,0,0,1,463.69,333.8Z" style="fill:#fff"></path><path d="M411.89,348.87c-.15,0-.27-12-.28-26.85s.1-26.85.24-26.85.27,12,.28,26.85S412,348.87,411.89,348.87Z" style="fill:#263238"></path><path d="M445,221.09a24.83,24.83,0,0,1,16.08,17c4.05,13.84,6.35,46.1,1.48,51.28a16.43,16.43,0,0,1-10.85,5.25Z" style="fill:#FF725E"></path><path d="M449.19,273.49a3.78,3.78,0,0,1-1.06.28l-2.93.61c-2.47.51-5.88,1.24-9.61,2.17s-7.09,1.86-9.52,2.57l-2.87.82a3.82,3.82,0,0,1-1.07.25,4.76,4.76,0,0,1,1-.44c.66-.25,1.62-.59,2.82-1,2.4-.79,5.75-1.79,9.5-2.72s7.18-1.6,9.67-2c1.25-.21,2.26-.36,3-.44A4.94,4.94,0,0,1,449.19,273.49Z" style="fill:#263238"></path><path d="M441.28,240.92c.15,0,.92,7.37,1.73,16.48s1.36,16.52,1.21,16.53-.92-7.37-1.73-16.48S441.14,240.93,441.28,240.92Z" style="fill:#263238"></path><path d="M457.93,292.73a4.14,4.14,0,0,1-1,.41c-.63.24-1.57.53-2.73.85a44.5,44.5,0,0,1-9.34,1.46,36.53,36.53,0,0,1-9.43-.73,24.14,24.14,0,0,1-2.77-.73,3.72,3.72,0,0,1-1-.39c0-.09,1.45.35,3.82.76a42.64,42.64,0,0,0,9.33.57,52.83,52.83,0,0,0,9.28-1.3C456.48,293.09,457.91,292.65,457.93,292.73Z" style="fill:#263238"></path><path d="M451,224.94a18,18,0,0,1-1.81.77,12.88,12.88,0,0,0-3.79,2.66,13.16,13.16,0,0,0-2.61,3.83c-.48,1.1-.65,1.84-.73,1.82a4.5,4.5,0,0,1,.39-2,11.37,11.37,0,0,1,6.6-6.7A4.83,4.83,0,0,1,451,224.94Z" style="fill:#263238"></path><g style="opacity:0.30000000000000004"><path d="M450.31,294.63c-19.49,1.66-33.07-4.91-50.5-8.65-.61,2.85-1.72,5.59-2.33,8.44-3.79-2.43-9.92-4.84-13.71-7.27,3.07,4.3,8,8.48,13,10.13a53.28,53.28,0,0,0,5.3,1.32L413.37,301c3.44.73,6.95,1.45,10.43,1.05,4.6-.54,8.77-3,13.33-3.76,3.55-.6,7.18-.16,10.77-.37a15.14,15.14,0,0,0,10-5.15C455.8,292.67,452.44,294.45,450.31,294.63Z"></path></g><path d="M424.67,282.1c-.2-.06-6.63-3.58-8.26-3.78s-14.26-.82-14.26-.82l-3.37,12.22s10.53,5.11,12.15,5.51,8.53,2.91,9.68,2.91,4.4-1.08,4.4-1.82a1.14,1.14,0,0,0-.48-1,22.72,22.72,0,0,1-4.4-.27,21.05,21.05,0,0,1-2.23-.95s11.57,1.76,12.39,1.49,1.42-2,1.42-2,1.35-.94,1.49-1.82-.34-1.28-1.09-1.62-5.75-2.57-7.24-3-5.41-1.08-5.41-1.08,11.91,1.28,12.65.95,1.56-1.63.34-2.37a16.56,16.56,0,0,0-4.8-2.1C426.29,282.38,424.67,282.1,424.67,282.1Z" style="fill:#ffc5b0"></path><path d="M416.2,289.39a12.72,12.72,0,0,0,2.23.91c1.41.5,3.37,1.11,5.57,1.67s4.23.94,5.7,1.17a12.74,12.74,0,0,0,2.4.26,16.05,16.05,0,0,0-2.34-.54c-1.46-.3-3.46-.74-5.66-1.29s-4.16-1.12-5.58-1.54A15.22,15.22,0,0,0,416.2,289.39Z" style="fill:#f6957f"></path><path d="M417.31,280.28a34.68,34.68,0,0,0,7.28,1.63,17.22,17.22,0,0,0-3.6-1A16.91,16.91,0,0,0,417.31,280.28Z" style="fill:#f6957f"></path><path d="M401.9,282.38s.18,0,.48.07a4.24,4.24,0,0,1,1.21.48,4,4,0,0,0,2,.62c.8-.05,1.59-.49,2.21.05a6.27,6.27,0,0,0,1,.78,2.13,2.13,0,0,0,1.26.11c.78-.15,1.37-.45,1.91-.48a1.51,1.51,0,0,1,1.16.33c.23.2.27.38.31.37s0-.21-.19-.48a1.63,1.63,0,0,0-1.3-.51,15.05,15.05,0,0,0-1.95.4,1.72,1.72,0,0,1-1-.11,7.38,7.38,0,0,1-1-.74,1.63,1.63,0,0,0-.65-.31,1.94,1.94,0,0,0-.68,0c-.43.06-.8.19-1.14.21a4.06,4.06,0,0,1-1.81-.5,3.41,3.41,0,0,0-1.31-.38C402.07,282.28,401.9,282.36,401.9,282.38Z" style="fill:#f6957f"></path><path d="M401.78,284.89a2.41,2.41,0,0,0,1.34.9,3.73,3.73,0,0,0,1.78.18,4,4,0,0,1,1-.08,1,1,0,0,1,.73.53,1.66,1.66,0,0,0,1,.73,2.71,2.71,0,0,0,1.09.05,8.13,8.13,0,0,1,1.68-.26,1.54,1.54,0,0,1,1,.41c.18.18.21.34.25.33s0-.18-.13-.43a1.5,1.5,0,0,0-1.07-.6,7.34,7.34,0,0,0-1.75.17,1.53,1.53,0,0,1-1.66-.64,2.46,2.46,0,0,0-.41-.45,1.19,1.19,0,0,0-.6-.24,3.91,3.91,0,0,0-1.07.11,3.75,3.75,0,0,1-1.63-.09A9.27,9.27,0,0,1,401.78,284.89Z" style="fill:#f6957f"></path><path d="M456.82,312.34a4.35,4.35,0,0,1-1.14.33,20.16,20.16,0,0,1-3.23.43A23.46,23.46,0,0,1,433.31,305a20.24,20.24,0,0,1-1.93-2.62,5.25,5.25,0,0,1-.56-1.05c.09-.06.93,1.42,2.76,3.42a24.58,24.58,0,0,0,18.86,8C455.15,312.67,456.8,312.24,456.82,312.34Z" style="fill:#263238"></path><path d="M396.6,299.85a2.66,2.66,0,0,1-.25.88,15.52,15.52,0,0,1-1,2.29,19.84,19.84,0,0,1-2,3.13,23.52,23.52,0,0,1-3.14,3.32,25.21,25.21,0,0,1-3.73,2.62,22.36,22.36,0,0,1-3.4,1.53,14.83,14.83,0,0,1-2.41.67,3,3,0,0,1-.92.12c0-.09,1.26-.36,3.2-1.13a25.13,25.13,0,0,0,3.29-1.61,27.4,27.4,0,0,0,3.63-2.6,26.55,26.55,0,0,0,3.11-3.21,25.3,25.3,0,0,0,2.07-3C396.06,301,396.51,299.81,396.6,299.85Z" style="fill:#263238"></path><path d="M389.77,342.85a12.45,12.45,0,0,1,.74,6.24A13.79,13.79,0,0,1,390,346,12.81,12.81,0,0,1,389.77,342.85Z" style="fill:#263238"></path><path d="M400.55,342.67a7.37,7.37,0,0,1,.79,3.26,7.15,7.15,0,0,1-.27,3.34,21.23,21.23,0,0,1-.25-3.3A22.71,22.71,0,0,1,400.55,342.67Z" style="fill:#263238"></path><path d="M422.26,350a12.57,12.57,0,0,1-.35-6.77,18.33,18.33,0,0,1,.23,3.38A19.44,19.44,0,0,1,422.26,350Z" style="fill:#263238"></path><path d="M431.21,350a12.57,12.57,0,0,1-.35-6.77,18.33,18.33,0,0,1,.23,3.38A19.44,19.44,0,0,1,431.21,350Z" style="fill:#263238"></path><path d="M440.16,350a12.57,12.57,0,0,1-.35-6.77,18.33,18.33,0,0,1,.23,3.38A19.44,19.44,0,0,1,440.16,350Z" style="fill:#263238"></path><path d="M449.11,350a12.57,12.57,0,0,1-.35-6.77,18.33,18.33,0,0,1,.23,3.38A19.44,19.44,0,0,1,449.11,350Z" style="fill:#263238"></path><path d="M458.06,350a12.57,12.57,0,0,1-.35-6.77,18.33,18.33,0,0,1,.23,3.38A19.44,19.44,0,0,1,458.06,350Z" style="fill:#263238"></path><path d="M463,247.35c0,.05-.29.14-.77.44a9.07,9.07,0,0,0-1.78,1.58,9.41,9.41,0,0,1-2.83,2.35,6.35,6.35,0,0,1-4.5,0c-1.52-.5-2.83-1.24-4.08-1.72a7.4,7.4,0,0,0-3.42-.6,4.53,4.53,0,0,0-2.2.77c-.45.33-.64.59-.68.56s.11-.31.55-.72a4.33,4.33,0,0,1,2.28-1,7.34,7.34,0,0,1,3.64.51c1.3.47,2.62,1.2,4.07,1.68a6,6,0,0,0,4.15.09,9.62,9.62,0,0,0,2.75-2.17,8,8,0,0,1,1.95-1.5A2,2,0,0,1,463,247.35Z" style="fill:#fff"></path><path d="M463,252.12s-.29.14-.77.44a9.07,9.07,0,0,0-1.78,1.58,9.41,9.41,0,0,1-2.83,2.35,6.35,6.35,0,0,1-4.5,0c-1.52-.5-2.83-1.24-4.08-1.72a7.4,7.4,0,0,0-3.42-.6,4.53,4.53,0,0,0-2.2.77c-.45.33-.64.59-.68.56s.11-.31.55-.72a4.25,4.25,0,0,1,2.28-1,7.34,7.34,0,0,1,3.64.51c1.3.47,2.62,1.2,4.07,1.68a6.12,6.12,0,0,0,4.15.09,9.62,9.62,0,0,0,2.75-2.17,8,8,0,0,1,1.95-1.5A2,2,0,0,1,463,252.12Z" style="fill:#fff"></path><path d="M387.22,246.91a3.93,3.93,0,0,1-1.79-.07,5,5,0,0,1-1.84-.73,3.76,3.76,0,0,1-1.46-2c-.29-.82-.43-1.59-.69-2.23a3.13,3.13,0,0,0-1.07-1.4,2,2,0,0,0-1.57-.33s.12-.16.44-.25a1.86,1.86,0,0,1,1.33.27,3.32,3.32,0,0,1,1.31,1.52c.31.69.47,1.49.74,2.24a3.88,3.88,0,0,0,2.9,2.51A13.35,13.35,0,0,1,387.22,246.91Z" style="fill:#fff"></path><path d="M403.8,255.51a2.79,2.79,0,0,1-.71.42,16,16,0,0,1-2.08.89,7.55,7.55,0,0,1-3.37.39,5.09,5.09,0,0,1-1.95-.64,5.43,5.43,0,0,1-1.6-1.5c-.87-1.21-1.38-2.51-2.06-3.51a4.38,4.38,0,0,0-2.39-2,2.82,2.82,0,0,0-2.07.19c-.45.24-.61.5-.65.47s.08-.32.54-.65a2.84,2.84,0,0,1,2.26-.36,4.51,4.51,0,0,1,2.7,2.06c.75,1.05,1.27,2.34,2.09,3.47a4.56,4.56,0,0,0,3.2,2,7.74,7.74,0,0,0,3.19-.28C402.69,255.93,403.76,255.42,403.8,255.51Z" style="fill:#fff"></path><path d="M404.53,250.39s-.22.18-.68.42a13.06,13.06,0,0,1-2,.89,7,7,0,0,1-3.27.38,4.7,4.7,0,0,1-1.88-.68,5.53,5.53,0,0,1-1.5-1.51c-.81-1.2-1.28-2.46-1.93-3.45a4.16,4.16,0,0,0-2.26-2,2.49,2.49,0,0,0-2,.18c-.43.24-.58.5-.62.47s.07-.31.5-.64a2.66,2.66,0,0,1,2.2-.37,4.44,4.44,0,0,1,2.57,2.06c.7,1,1.19,2.3,2,3.42A4.81,4.81,0,0,0,397,251a4.45,4.45,0,0,0,1.67.64,7,7,0,0,0,3.09-.26C403.46,250.81,404.5,250.3,404.53,250.39Z" style="fill:#fff"></path><path d="M442.6,256.15a2.47,2.47,0,0,1-.6.75,6.51,6.51,0,0,1-2.25,1.39,6.71,6.71,0,0,1-3.91.25,14.12,14.12,0,0,1-4.32-2,25.59,25.59,0,0,0-4-2.33,6.59,6.59,0,0,0-3.65-.51,4.67,4.67,0,0,0-2.28,1c-.46.38-.65.67-.69.64a1.91,1.91,0,0,1,.55-.79,4.45,4.45,0,0,1,2.36-1.2,6.78,6.78,0,0,1,3.89.42,23.24,23.24,0,0,1,4.15,2.34,14.5,14.5,0,0,0,4.15,2,6.63,6.63,0,0,0,3.68-.13A9.05,9.05,0,0,0,442.6,256.15Z" style="fill:#fff"></path><path d="M443.32,261.6a2.75,2.75,0,0,1-.69.84,7.33,7.33,0,0,1-2.55,1.57,7.6,7.6,0,0,1-4.43.28,15.81,15.81,0,0,1-4.9-2.31,28,28,0,0,0-4.61-2.65,7.52,7.52,0,0,0-4.16-.57,5.3,5.3,0,0,0-2.6,1.13c-.52.45-.73.78-.77.75a2.33,2.33,0,0,1,.63-.9,5.16,5.16,0,0,1,2.67-1.34,7.74,7.74,0,0,1,4.41.48,27.08,27.08,0,0,1,4.71,2.66,16.13,16.13,0,0,0,4.73,2.28,7.53,7.53,0,0,0,4.2-.15A9.8,9.8,0,0,0,443.32,261.6Z" style="fill:#fff"></path><path d="M394.09,236.92c.08.06-1.16,1.48-2.81,4a44.36,44.36,0,0,0-2.61,4.6,47.61,47.61,0,0,0-2.4,6,48.83,48.83,0,0,0-1.48,6.3,45.51,45.51,0,0,0-.51,5.27c-.1,3,.1,4.89,0,4.9a7.63,7.63,0,0,1-.2-1.31c-.05-.42-.1-.94-.12-1.54s-.07-1.29,0-2.06a37.46,37.46,0,0,1,.4-5.33,43.74,43.74,0,0,1,1.45-6.39,44.41,44.41,0,0,1,2.47-6.06,39.92,39.92,0,0,1,2.74-4.6c.41-.64.85-1.17,1.21-1.65a14.79,14.79,0,0,1,1-1.2A5.49,5.49,0,0,1,394.09,236.92Z" style="fill:#263238"></path><g style="opacity:0.30000000000000004"><path d="M441.33,244.78c-4,9.05-2.65,21,2.89,29.15C444.05,264.51,442.35,254.15,441.33,244.78Z"></path></g></g><g id="freepik--character-1--inject-34"><path d="M78.57,441.51l-1.77,22s23.76,8.71,23.57,13.8l-44-.27L58,463.83l-1.23-22.32Z" style="fill:#FF725E"></path><path d="M63.46,462.39a1.83,1.83,0,0,0-1.27,2.07,1.74,1.74,0,0,0,2,1.27,1.92,1.92,0,0,0,1.33-2.19,1.8,1.8,0,0,0-2.26-1.09" style="fill:#263238"></path><path d="M56.34,477l.44-3.57,42.27,1.41a3.6,3.6,0,0,1,1.32,2.43Z" style="fill:#263238"></path><path d="M77.92,464.18c0,.22-1.1.31-2.17,1s-1.65,1.6-1.85,1.51.14-1.34,1.45-2.15S78,464,77.92,464.18Z" style="fill:#263238"></path><path d="M82.57,466.14c.05.21-.9.57-1.64,1.48s-1,1.89-1.18,1.88-.34-1.24.6-2.36S82.56,465.93,82.57,466.14Z" style="fill:#263238"></path><path d="M85.18,471.73c-.2,0-.49-1,.07-2.22s1.58-1.66,1.68-1.47-.55.81-1,1.79S85.4,471.71,85.18,471.73Z" style="fill:#263238"></path><path d="M77.56,458.94c-.1.2-1.09-.11-2.32,0s-2.18.45-2.29.27.81-1,2.25-1S77.66,458.77,77.56,458.94Z" style="fill:#263238"></path><path d="M77.67,454.32a4.15,4.15,0,0,1-2.23,0,10.06,10.06,0,0,1-2.33-.73,10.52,10.52,0,0,1-1.27-.68,3,3,0,0,1-.67-.53,1,1,0,0,1-.09-1.16,1.2,1.2,0,0,1,1-.49,3.32,3.32,0,0,1,.84.12,8.32,8.32,0,0,1,1.38.49,7.62,7.62,0,0,1,2,1.36c1,1,1.38,1.77,1.3,1.81s-.6-.61-1.64-1.4A8.52,8.52,0,0,0,74,452a9.44,9.44,0,0,0-1.27-.41c-.47-.12-.88-.13-1,.08s0,.11,0,.25a2.39,2.39,0,0,0,.49.39c.39.25.79.48,1.17.68a13.32,13.32,0,0,0,2.15.83A16.24,16.24,0,0,1,77.67,454.32Z" style="fill:#263238"></path><path d="M77.38,454.63a3.56,3.56,0,0,1-.57-2.16,6.9,6.9,0,0,1,.32-2.43,6.49,6.49,0,0,1,.57-1.35,1.81,1.81,0,0,1,1.43-1.11,1,1,0,0,1,.92.62,2.84,2.84,0,0,1,.23.82,5,5,0,0,1,0,1.5,5.13,5.13,0,0,1-1,2.29c-.87,1.15-1.78,1.4-1.8,1.33s.69-.52,1.36-1.63a5.11,5.11,0,0,0,.72-2.09,4.6,4.6,0,0,0,0-1.28c-.07-.47-.25-.86-.42-.81s-.6.35-.79.73a6.77,6.77,0,0,0-.55,1.2,8,8,0,0,0-.45,2.22C77.27,453.78,77.5,454.6,77.38,454.63Z" style="fill:#263238"></path><g style="opacity:0.30000000000000004"><path d="M78.57,441.51l-1.77,22s23.76,8.71,23.57,13.8l-44-.27L58,463.83l-1.23-22.32Z"></path></g><path d="M82.54,441.51l-1.78,22s23.77,8.71,23.58,13.8l-44-.27,1.64-13.21L60.7,441.51Z" style="fill:#FF725E"></path><path d="M67.42,462.39a1.81,1.81,0,0,0-1.26,2.07,1.73,1.73,0,0,0,2,1.27,1.91,1.91,0,0,0,1.33-2.19,1.8,1.8,0,0,0-2.26-1.09" style="fill:#263238"></path><path d="M60.3,477l.44-3.57L103,474.88a3.64,3.64,0,0,1,1.32,2.43Z" style="fill:#263238"></path><path d="M81.88,464.18c0,.22-1.1.31-2.17,1s-1.64,1.6-1.84,1.51.13-1.34,1.44-2.15S81.93,464,81.88,464.18Z" style="fill:#263238"></path><path d="M86.53,466.14c0,.21-.89.57-1.64,1.48s-1,1.89-1.17,1.88-.35-1.24.59-2.36S86.53,465.93,86.53,466.14Z" style="fill:#263238"></path><path d="M89.14,471.73c-.19,0-.49-1,.08-2.22s1.58-1.66,1.67-1.47-.54.81-1,1.79S89.36,471.71,89.14,471.73Z" style="fill:#263238"></path><path d="M81.52,458.94c-.09.2-1.09-.11-2.31,0s-2.19.45-2.3.27.81-1,2.26-1S81.63,458.77,81.52,458.94Z" style="fill:#263238"></path><path d="M33.21,183.8c-.43-2.68.68-5.33,1.38-8a56.63,56.63,0,0,0,1.34-11.77,44,44,0,0,1,1.71-11.72c1.25-3.75,3.6-7.29,7.08-9.18s8.16-1.78,11.09.88l-2.4,10a188,188,0,0,1-4.33,42.76,55.59,55.59,0,0,1-12.95-.54c-.88-.14-1.89-.41-2.23-1.23-.42-1,.43-2,.83-3a6.12,6.12,0,0,0-.19-4.17A25.46,25.46,0,0,1,33.21,183.8Z" style="fill:#263238"></path><path d="M49.78,146.18a10.74,10.74,0,0,1,4.7-2.36,3.71,3.71,0,0,1,2.14,0,1.6,1.6,0,0,1,1.06,1.69L53,151.15a2.88,2.88,0,0,1-3.19-.09,3,3,0,0,1-1.56-2A3.46,3.46,0,0,1,49.78,146.18Z" style="fill:#FF725E"></path><path d="M68.89,205.08Z" style="fill:#ffbe9d"></path><path d="M79.87,165.7a16.7,16.7,0,0,0-15.7-16.52A16.23,16.23,0,0,0,47,165l.39,36.55a3.22,3.22,0,0,0,.7,1.94A14.93,14.93,0,0,0,58,208.87a15.61,15.61,0,0,0,9.45-2.66,3.11,3.11,0,0,0,1.39-2.78l-.43-8.16a.06.06,0,0,1,.06-.05,11,11,0,0,0,2.28-.23c2.11-.67,7.46-3.17,8.73-11.36C79.87,180.91,80,173.28,79.87,165.7Z" style="fill:#ffbe9d"></path><path d="M68.74,178.44a9.37,9.37,0,0,1,2.34-.42c.37,0,.72-.11.78-.36a1.86,1.86,0,0,0-.25-1.07c-.36-.88-.72-1.79-1.11-2.76-1.54-3.92-2.65-7.15-2.49-7.21s1.54,3.08,3.07,7c.37,1,.73,1.89,1.06,2.78a2,2,0,0,1,.2,1.42.9.9,0,0,1-.6.53,2.51,2.51,0,0,1-.62.08A9.72,9.72,0,0,1,68.74,178.44Z" style="fill:#263238"></path><path d="M77.32,171.7A1.32,1.32,0,0,1,76,173a1.29,1.29,0,0,1-1.39-1.19,1.33,1.33,0,0,1,1.29-1.33A1.28,1.28,0,0,1,77.32,171.7Z" style="fill:#263238"></path><path d="M77.29,168.69c-.15.22-1.25-.61-2.69-.5s-2.41,1.06-2.59.86,0-.48.47-.92a3.14,3.14,0,0,1,2-.95,3.23,3.23,0,0,1,2.17.66C77.17,168.22,77.36,168.59,77.29,168.69Z" style="fill:#263238"></path><path d="M63.5,171.7A1.32,1.32,0,0,1,62.21,173a1.28,1.28,0,0,1-1.39-1.19,1.33,1.33,0,0,1,1.29-1.33A1.29,1.29,0,0,1,63.5,171.7Z" style="fill:#263238"></path><path d="M63.44,169.19c-.19.2-1.25-.78-2.8-.87s-2.74.71-2.9.49.12-.47.64-.85a3.63,3.63,0,0,1,4.55.31C63.39,168.71,63.53,169.1,63.44,169.19Z" style="fill:#263238"></path><path d="M68.37,195.22s-5.57.45-12.56-3.66c0,0,2.24,7.24,12.7,6.27Z" style="fill:#eb996e"></path><path d="M68.15,181.86a2.62,2.62,0,0,0-2.34-1,2.39,2.39,0,0,0-1.63.86,1.45,1.45,0,0,0-.11,1.69,1.77,1.77,0,0,0,1.9.47,5.44,5.44,0,0,0,1.84-1.08,1.64,1.64,0,0,0,.41-.42.48.48,0,0,0,0-.53" style="fill:#eb996e"></path><path d="M64.5,179.42c.23,0,.24,1.53,1.59,2.62s3,.92,3,1.14-.37.3-1.08.31a3.89,3.89,0,0,1-2.52-.86,3.37,3.37,0,0,1-1.24-2.19C64.22,179.79,64.39,179.41,64.5,179.42Z" style="fill:#263238"></path><path d="M64,164.16c-.14.39-1.58.23-3.27.46s-3.05.7-3.28.36c-.1-.17.13-.53.67-.92a5.61,5.61,0,0,1,2.42-.87,5.46,5.46,0,0,1,2.57.26C63.71,163.68,64,164,64,164.16Z" style="fill:#263238"></path><path d="M77.14,164.13c-.27.31-1.24-.09-2.43-.17s-2.22.08-2.43-.27c-.1-.17.08-.48.54-.76a3.41,3.41,0,0,1,2-.41,3.51,3.51,0,0,1,1.91.76C77.14,163.64,77.26,164,77.14,164.13Z" style="fill:#263238"></path><path d="M65.32,147.27a4.86,4.86,0,0,0-3.86-1.84c-6.44-.52-13.29,3.82-16.48,9.44s-2.82,13.64.21,19.35l2.41.25c5-.65,12.37-15.12,18.81-23.27C67.21,150.18,66.05,148.33,65.32,147.27Z" style="fill:#263238"></path><path d="M77.82,150.59c-2.88-2.85-7.47-6.24-12.86-3.74-.71,1.6,1.08,3.5,2.53,4.58,2.13,1.58,4,2.62,5.37,3.76,2.84,2.3,6.43,6.19,7,10.74,0,.29.26.31.55.25s1.09-2,1.36-4.52C82.34,156.3,80.7,153.43,77.82,150.59Z" style="fill:#263238"></path><path d="M49,171.45c-.16-.07-6.21-2-6.15,4.23s6.29,4.88,6.3,4.7S49,171.45,49,171.45Z" style="fill:#ffbe9d"></path><path d="M47.22,178s-.11.08-.29.17a1.09,1.09,0,0,1-.81,0,2.66,2.66,0,0,1-1.26-2.39,3.56,3.56,0,0,1,.28-1.56,1.28,1.28,0,0,1,.81-.84.55.55,0,0,1,.64.29c.09.18,0,.3.08.31s.14-.1.08-.36a.67.67,0,0,0-.25-.39.8.8,0,0,0-.6-.15,1.53,1.53,0,0,0-1.12,1,3.79,3.79,0,0,0-.36,1.74A2.8,2.8,0,0,0,46,178.52a1.16,1.16,0,0,0,1-.17C47.21,178.19,47.24,178.05,47.22,178Z" style="fill:#eb996e"></path><path d="M79.16,151.77a7.5,7.5,0,0,1-1.8.33,26.67,26.67,0,0,1-4.41.08,25,25,0,0,1-4.35-.69,6.49,6.49,0,0,1-1.74-.57,10.67,10.67,0,0,1,1.8.31,37.66,37.66,0,0,0,4.32.56,38.14,38.14,0,0,0,4.36,0A10.5,10.5,0,0,1,79.16,151.77Z" style="fill:#455a64"></path><path d="M81.48,156.11a3.73,3.73,0,0,1-1.33.39,10.45,10.45,0,0,1-3.36,0,10.58,10.58,0,0,1-3.19-1.07,3.43,3.43,0,0,1-1.13-.8,18.71,18.71,0,0,0,4.38,1.49A18.69,18.69,0,0,0,81.48,156.11Z" style="fill:#455a64"></path><path d="M44.3,157c0-.08,1.35.09,3.52-.08a27,27,0,0,0,3.75-.59A33.55,33.55,0,0,0,56,155a38.34,38.34,0,0,0,4.2-2,34.63,34.63,0,0,0,3.2-2.07c1.76-1.28,2.73-2.23,2.78-2.17a5.94,5.94,0,0,1-.65.69,11,11,0,0,1-.82.76c-.33.28-.7.61-1.14.94a28.76,28.76,0,0,1-3.19,2.15,32.2,32.2,0,0,1-4.24,2.07,31.48,31.48,0,0,1-4.51,1.39,24,24,0,0,1-3.82.51c-.54,0-1,0-1.48,0a10.74,10.74,0,0,1-1.11-.07A5.73,5.73,0,0,1,44.3,157Z" style="fill:#455a64"></path><path d="M65.9,150.9a5.2,5.2,0,0,1-.46.89,10.49,10.49,0,0,1-.6,1c-.26.38-.52.83-.88,1.28a25.86,25.86,0,0,1-6.47,6.17,26.64,26.64,0,0,1-4.38,2.32,23.45,23.45,0,0,1-3.85,1.21c-.55.14-1.07.2-1.52.28a10.57,10.57,0,0,1-1.16.15,4.63,4.63,0,0,1-1,0c0-.08,1.4-.18,3.61-.74A26.21,26.21,0,0,0,53,162.23a29.3,29.3,0,0,0,4.29-2.31,29.81,29.81,0,0,0,3.8-3.06,27,27,0,0,0,2.67-3C65.14,152.1,65.83,150.86,65.9,150.9Z" style="fill:#455a64"></path><path d="M61.46,145.43a2.35,2.35,0,0,1,1.25,0,5.27,5.27,0,0,1,2.63,1.47,4.57,4.57,0,0,1,.56.69,3.44,3.44,0,0,1,.34.74,8,8,0,0,1,.42,1.29,1.85,1.85,0,0,1,0,1.25c-.06,0,0-.48-.23-1.18a12.1,12.1,0,0,0-.48-1.22,3.93,3.93,0,0,0-.34-.68,4.78,4.78,0,0,0-.51-.62,6,6,0,0,0-2.43-1.48C61.93,145.5,61.46,145.49,61.46,145.43Z" style="fill:#455a64"></path><path d="M51.46,169.18a17.74,17.74,0,0,0,3.71-.85,15.9,15.9,0,0,0,7.11-5.56A24.91,24.91,0,0,0,66,154.43c.29-1.15.49-2.09.62-2.73a5.93,5.93,0,0,1,.23-1,5.63,5.63,0,0,1-.08,1c-.09.66-.24,1.61-.51,2.77A23.56,23.56,0,0,1,62.59,163a15.44,15.44,0,0,1-7.33,5.58,10.79,10.79,0,0,1-2.76.59c-.34,0-.6,0-.77,0A.8.8,0,0,1,51.46,169.18Z" style="fill:#263238"></path><path d="M82.44,175.13a1,1,0,0,1-.74-.07,1.37,1.37,0,0,1-.56-1.78A4.07,4.07,0,0,1,82,172.1a8.81,8.81,0,0,0,1.12-1.32,2.5,2.5,0,0,0,.35-.91,2.17,2.17,0,0,0-.1-1,4.68,4.68,0,0,0-1.19-1.7,6.78,6.78,0,0,1-1.25-1.53,2.93,2.93,0,0,1-.26-1.76c.15-1.17.62-2.18.73-3.11a3.43,3.43,0,0,0-.3-2.15,1.77,1.77,0,0,0-.37-.46q-.16-.14-.18-.12a2.85,2.85,0,0,1,.45.63,3.46,3.46,0,0,1,.19,2.07c-.11.89-.61,1.88-.79,3.1a3.32,3.32,0,0,0,.27,1.92,7.22,7.22,0,0,0,1.31,1.61A4.49,4.49,0,0,1,83.06,169a1.93,1.93,0,0,1-.2,1.69,9.32,9.32,0,0,1-1.08,1.3,4,4,0,0,0-.83,1.27,1.55,1.55,0,0,0,0,1.27,1.47,1.47,0,0,0,.67.68.88.88,0,0,0,.6.06C82.38,175.18,82.44,175.14,82.44,175.13Z" style="fill:#263238"></path><path d="M44,171.77a1.31,1.31,0,0,0-.06-.32c0-.21-.14-.51-.23-.91a26.33,26.33,0,0,1-.62-3.38,23.34,23.34,0,0,1-.09-5.08,20.1,20.1,0,0,1,1.49-6A15.4,15.4,0,0,1,46,153.27,16.13,16.13,0,0,1,48,151a20.8,20.8,0,0,1,4.08-3,28,28,0,0,1,3.09-1.52c.37-.17.67-.28.86-.36a2.31,2.31,0,0,0,.3-.14l-.32.08c-.2.07-.5.16-.88.32A23.09,23.09,0,0,0,52,147.82a20.22,20.22,0,0,0-4.18,3,17.31,17.31,0,0,0-2,2.28A14.9,14.9,0,0,0,44.18,156a19.76,19.76,0,0,0-1.49,6.1,22.22,22.22,0,0,0,.15,5.13,23.54,23.54,0,0,0,.71,3.39c.1.39.22.69.28.9A1.44,1.44,0,0,0,44,171.77Z" style="fill:#455a64"></path><path d="M48.73,191.47a1.17,1.17,0,0,0,.19-.2,4,4,0,0,0,.42-.63,6.08,6.08,0,0,0,.77-2.7A6.37,6.37,0,0,0,49.9,186a13,13,0,0,0-.9-2,2.37,2.37,0,0,1-.18-2.22c.39-.71,1.19-1.16,1.73-2a1.46,1.46,0,0,0,.12-1.4,6.06,6.06,0,0,0-.76-1.08,2.26,2.26,0,0,1-.25-2.2,6.12,6.12,0,0,1,1.11-1.85,11.13,11.13,0,0,0,1.13-1.59,2.89,2.89,0,0,0,.15-2.75,1.54,1.54,0,0,0-.51-.57c-.15-.1-.24-.13-.24-.12A2,2,0,0,1,52,169a2.83,2.83,0,0,1-.23,2.61,13.56,13.56,0,0,1-1.13,1.53A6.42,6.42,0,0,0,49.41,175a3.1,3.1,0,0,0-.19,1.22,2.32,2.32,0,0,0,.46,1.23,5.72,5.72,0,0,1,.73,1,1.15,1.15,0,0,1-.11,1.13c-.46.72-1.28,1.18-1.72,2a2,2,0,0,0-.22,1.29,4,4,0,0,0,.4,1.17,12.31,12.31,0,0,1,.91,2,6.32,6.32,0,0,1,.24,1.87,6,6,0,0,1-.67,2.65C49,191.17,48.71,191.45,48.73,191.47Z" style="fill:#263238"></path><path d="M29.06,189.08c0,.08.07.28.46.43a2.13,2.13,0,0,0,1.73-.26,3,3,0,0,0,1-.88,2.9,2.9,0,0,0,.37-.7,5.18,5.18,0,0,0,.19-.8,6.9,6.9,0,0,0-.63-3.44,10.7,10.7,0,0,1-1-3.15A5.68,5.68,0,0,1,32.22,177a38.55,38.55,0,0,0,2.57-4.12,20.33,20.33,0,0,0,1.65-5.16c.67-3.59.71-6.93,1.08-9.82a22.43,22.43,0,0,1,2-7.25,12.29,12.29,0,0,1,3.05-4c.47-.37.85-.68,1.12-.87s.4-.37.37-.46-.23-.12-.59-.07a4.91,4.91,0,0,0-1.49.45,10.53,10.53,0,0,0-4.21,3.89,21,21,0,0,0-2.9,7.89c-.54,3.07-.66,6.4-1.28,9.66a19.23,19.23,0,0,1-1.37,4.5c-.58,1.33-1.51,2.56-2.31,4A11.39,11.39,0,0,0,29,178a6.12,6.12,0,0,0-.21,2.55,7.16,7.16,0,0,0,.7,2.18c.3.61.61,1.13.88,1.61a6,6,0,0,1,.86,2.46,2.74,2.74,0,0,1,0,.5,1.67,1.67,0,0,1-.11.41,2,2,0,0,1-.45.67C29.87,189.11,29.14,188.89,29.06,189.08Z" style="fill:#263238"></path><path d="M147.66,178.4c-.24-1.45-1.2-1-1.2-1s.11-.28.6-2.2.72-2.07,0-2.81-3.18,2.33-3.18,2.33l-3,2.32c-1.45,2.78-1.45,14.85-1.45,14.85l-5.6,4.76,6.86,5.43,5-6.32,2.82-10.56S147.91,179.85,147.66,178.4Z" style="fill:#eb996e"></path><rect x="143.88" y="164.72" width="2.68" height="22.34" style="fill:#263238"></rect><path d="M136.69,199.32l4.47-5.44a26,26,0,0,1,0-7.1c.6-2.84,1.13-8.26,1.43-8.88.44-.94,1-.19,1.23,1s.54,7.06.54,7.06a3.74,3.74,0,0,0,2-2.84c.2-2,.28-9.29.28-9.29s2.24.21,2.2,3.72l0,2.61s1.6.67,1.49,4.12c0,0,1.8-.23,1.65,2.17l.21.15a2,2,0,0,1,.86,1.66v.9a16.87,16.87,0,0,1-.56,5.21c-.71,1.89-7.39,10.56-7.65,10.8Z" style="fill:#ffbe9d"></path><path d="M148.88,179.93a14.7,14.7,0,0,1-.14,5.18,7.31,7.31,0,0,1-.16-2.59A7.52,7.52,0,0,1,148.88,179.93Z" style="fill:#eb996e"></path><path d="M150.38,184.27c.13,0,.22.61.2,1.35s-.15,1.34-.28,1.34-.21-.61-.19-1.35S150.26,184.26,150.38,184.27Z" style="fill:#eb996e"></path><path d="M152,186.21c.13,0,.19.57.13,1.25s-.2,1.22-.33,1.21-.18-.57-.13-1.25S151.88,186.2,152,186.21Z" style="fill:#eb996e"></path><path d="M88.23,233.92c-2.65-10.61-13.62-26.1-18.14-28.84-3-1.79-22.72-3.53-22.72-3.53s-11,13.84-8.06,27.55c5.13,24.1,11.56,44.1,11.56,44.1l1.38,17.65,43.69,8.62S90.88,244.52,88.23,233.92Z" style="fill:#FF725E"></path><path d="M96.62,286.93l-45.73,3.5A114.53,114.53,0,0,0,47,309.18c-1,9.22,7.89,33.42,7.89,33.42l6.34,33.68s-6,23.15-5.37,42.69c.44,14.85,1.48,40.89,1.48,40.89l3.87-.63v.12l20.33-1.2s13.84-72.4,14.83-80a240.08,240.08,0,0,0,1.41-24.54Z" style="fill:#455a64"></path><path d="M61.2,459.35a1.44,1.44,0,0,1,0-.34c0-.25,0-.58-.06-1,0-.9-.09-2.18-.15-3.81-.12-3.35-.29-8.14-.5-14s-.51-13-.7-20.82c-.06-3.92-.23-8,0-12.31s1-8.65,1.82-13.11c1.28-7,2.74-13.77,4.19-19.93v.12c-3.39-12.7-6.31-23.61-8.69-31.25-1.18-3.82-2.17-6.84-2.85-8.92l-.78-2.37-.19-.62c0-.14-.06-.21,0-.21s0,.06.09.2.14.35.23.6c.21.56.5,1.35.86,2.35.73,2.06,1.76,5.07,3,8.88,2.47,7.62,5.46,18.52,8.88,31.21v.12C64.78,380.26,63.33,387,62.05,394c-.79,4.44-1.49,8.81-1.82,13s0,8.36,0,12.27c.16,7.84.39,14.89.59,20.82s.25,10.69.33,14c0,1.63,0,2.91.06,3.82v1A1.23,1.23,0,0,1,61.2,459.35Z" style="fill:#263238"></path><path d="M50.89,290.43V276s19.08-4.61,20.54-5.7,3.21-39.47,3.21-39.47H90.21s9.63,56.67,5.47,73.5Z" style="fill:#455a64"></path><path d="M131.13,194.54l-24.31,20.72-7.06.6-30.69-9.17L62.9,232.82s36.78,8.79,43.58,7.67,13.82-2.14,15.73-5.5,19.84-31.85,19.84-31.85Z" style="fill:#FF725E"></path><path d="M131.13,194.54l-24.31,20.72-7.06.6-30.69-9.17L62.9,232.82s36.78,8.79,43.58,7.67,13.82-2.14,15.73-5.5,19.84-31.85,19.84-31.85Z" style="opacity:0.30000000000000004"></path><path d="M56,234.35s21.08,6.53,35.87,6.74,23.64-1.65,28-4,25.89-31.34,25.89-31.34l-11.13-8.51L108.5,217.46s-5.14-.21-7.6,1c0,0-36.17-15.2-40.07-14.79s-9.74,5.68-11.72,10.48S49.61,230.45,56,234.35Z" style="fill:#FF725E"></path><path d="M102.44,241.13a1.46,1.46,0,0,1-.45.07l-1.3.1c-1.12.09-2.76.15-4.78.19a124.82,124.82,0,0,1-15.76-.83,140.05,140.05,0,0,1-15.54-2.74c-2-.46-3.55-.87-4.63-1.19l-1.25-.36a1.72,1.72,0,0,1-.43-.16,1.5,1.5,0,0,1,.45.07l1.27.28c1.1.26,2.69.62,4.66,1,3.83.83,9.24,1.86,15.53,2.6a145.42,145.42,0,0,0,15.7,1c2,0,3.65,0,4.78,0l1.3,0A1.34,1.34,0,0,1,102.44,241.13Z" style="fill:#263238"></path><path d="M115,212.44l-.42.36-1.24,1-4.73,3.75,0,0h0a40.87,40.87,0,0,0-7.57,1.07h-.05l-.06,0c-6.72-2.88-15.6-6.42-25.4-9.93-2.8-1-5.56-1.92-8.25-2.69a36,36,0,0,0-4-1,5.52,5.52,0,0,0-1.94-.06,13.43,13.43,0,0,0-1.89.37,14.61,14.61,0,0,0-6.23,3.53,13.9,13.9,0,0,0-3.45,5.21,14.84,14.84,0,0,0-.36,9,16.69,16.69,0,0,0,.86,2.35l.29.58a.79.79,0,0,1,.08.21,10.62,10.62,0,0,1-1.4-3.09,14.47,14.47,0,0,1-.62-4,14.86,14.86,0,0,1,.84-5.23,14.25,14.25,0,0,1,3.5-5.37A14.93,14.93,0,0,1,59.24,205a12.47,12.47,0,0,1,1.95-.39,5.88,5.88,0,0,1,2.05,0,37.29,37.29,0,0,1,4.06,1c2.71.77,5.47,1.71,8.28,2.7,9.81,3.51,18.67,7.09,25.39,10h-.11a39.73,39.73,0,0,1,7.64-1l-.08,0,4.8-3.65,1.29-1A2.47,2.47,0,0,1,115,212.44Z" style="fill:#263238"></path><path d="M100.79,225.62s-.35-.27-.66-.88a5.67,5.67,0,0,1-.6-2.58,5.89,5.89,0,0,1,.6-2.59c.32-.61.62-.91.67-.87a10.4,10.4,0,0,0-.81,3.46A10.93,10.93,0,0,0,100.79,225.62Z" style="fill:#263238"></path><path d="M110.81,224.15a9.05,9.05,0,0,1-2.27-6.62c.13,0,.27,1.57.91,3.39S110.92,224.07,110.81,224.15Z" style="fill:#263238"></path><path d="M58.79,236.44a23.24,23.24,0,0,0,13.38,7.2,23.57,23.57,0,0,0,15-2.87c-9.68-1.07-19.53-2-28.92-4.56" style="opacity:0.30000000000000004"></path><path d="M108.55,217.56a21.3,21.3,0,0,0,.82,5.23,7.07,7.07,0,0,0,3.19,4.08,1.15,1.15,0,0,0,1.18.08,1,1,0,0,0,.3-.89c-.09-1.39-1.19-2.45-2.09-3.51a32.12,32.12,0,0,1-3.32-5.05" style="opacity:0.30000000000000004"></path><path d="M69.33,275.8c0,.08-.63.2-1,1a1.7,1.7,0,0,0,0,1.43,1.57,1.57,0,0,0,2.78-.36,1.7,1.7,0,0,0-.34-1.39c-.56-.72-1.23-.66-1.21-.75s.15-.09.43-.06a1.74,1.74,0,0,1,1.06.58,2,2,0,0,1,.53,1.73,2,2,0,0,1-3.67.46,2,2,0,0,1,.08-1.8,1.79,1.79,0,0,1,.88-.83C69.17,275.75,69.33,275.78,69.33,275.8Z" style="fill:#263238"></path><path d="M69.46,282.51c0,.08-.63.2-1,1a1.72,1.72,0,0,0,0,1.44,1.47,1.47,0,0,0,1.5.67,1.44,1.44,0,0,0,1.28-1,1.7,1.7,0,0,0-.34-1.39c-.56-.72-1.23-.66-1.21-.75s.14-.09.43-.06a1.77,1.77,0,0,1,1.06.57,2,2,0,0,1,.53,1.74,1.91,1.91,0,0,1-1.69,1.43,1.88,1.88,0,0,1-2-1,2,2,0,0,1,.07-1.81,1.84,1.84,0,0,1,.88-.82C69.29,282.46,69.46,282.49,69.46,282.51Z" style="fill:#263238"></path><path d="M93.3,251.57a3.53,3.53,0,0,1-.72.17l-2.06.34-7.4,1.1.19-.19a96.39,96.39,0,0,0,.06,12.8c.23,3.18.61,6.19,1.07,8.91.21,1.33.6,2.65,1.59,3.27a6.92,6.92,0,0,0,3.21.69,17.73,17.73,0,0,0,4.87-.5c1.13-.28,1.74-.52,1.75-.48s-.14.09-.42.22-.71.28-1.28.45a15.92,15.92,0,0,1-4.93.67,7,7,0,0,1-3.43-.69,3.36,3.36,0,0,1-1.28-1.55,9,9,0,0,1-.56-2,89.34,89.34,0,0,1-1.11-9,88.31,88.31,0,0,1,0-12.86v-.18l.18,0,7.42-.93,2.07-.22A3.18,3.18,0,0,1,93.3,251.57Z" style="fill:#263238"></path><path d="M82.33,286.34s0,.27-.12.74a15.88,15.88,0,0,1-.63,1.92,21,21,0,0,1-3.44,5.72,20.71,20.71,0,0,1-5.07,4.35,15.84,15.84,0,0,1-1.79.95,2.06,2.06,0,0,1-.7.24c0-.08.9-.55,2.29-1.5a23.85,23.85,0,0,0,8.37-9.9C81.94,287.32,82.25,286.32,82.33,286.34Z" style="fill:#263238"></path><path d="M72.68,207.28a21.14,21.14,0,0,0-9.24-3.58c-4.22-.6-11.32-.33-15.45,7.9-4.58,9.14-6.72,28.56-6.72,28.56l2.18,7.49,5-24.06S47.18,214.43,52,209.5c5.27-5.36,9.16-4.92,11.41-4.55S72.68,207.28,72.68,207.28Z" style="fill:#455a64"></path><g style="opacity:0.30000000000000004"><path d="M95.11,278.48c-.27-.45-.88-.14-1.4-.07a11.43,11.43,0,0,0-1.66.23c-2,.63-5.08.57-6.36-.65-1.49-1.42-1.55-4.49-1.92-6.52a37.86,37.86,0,0,1-.64-7,25.72,25.72,0,0,0,.67,12.38c.7,2.39,2,5,4.46,5.53,1.92.44,3.85-.55,5.54-1.55C94.65,280.28,95.62,279.33,95.11,278.48Z"></path></g><g style="opacity:0.30000000000000004"><path d="M84.07,292.85c1.13,3.17,1.14,7.9.66,11.23a53.14,53.14,0,0,1-2.6,9.73,14.7,14.7,0,0,0,1.94-21"></path></g></g><g id="freepik--Floor--inject-34"><path d="M483.92,477.31c0,.15-104.74.26-233.91.26s-233.93-.11-233.93-.26,104.72-.26,233.93-.26S483.92,477.17,483.92,477.31Z" style="fill:#263238"></path></g><g id="freepik--Sculpture--inject-34"><path d="M215.71,215.9c-2.24,18,3.5,45.33,8.74,61.24s4.12,33.5,4.12,52.2,11.22,53.51,11.22,53.51v0H225.56v11.94h52.68V382.88H270.1c2.18-7.37,10.31-35.37,11.6-46.05,1.5-12.35,2.24-32,2.24-32s5.32-29,5.29-47.66c0-20.88-3-55.79-3-55.79l-2.79-33.26L286.93,179s7.8,8.69,11.12,9.45,6.39-1.53,9.07-10.22-8.31-40.12-8.31-40.12l-5.56-4.53a41.72,41.72,0,0,0-2.46-6c-3.78-7-14.64-7.12-14.64-7.12h0l-2.49-.09,1-13.87c-11.31-.72-19.44,1.75-24.69,7.12l-1.07,5.86-13.25,2.9s-9.45.95-13.26,7.42-20,44.41-20.22,49.38,16.74,25,16.74,25l.15-.23A45.89,45.89,0,0,0,215.71,215.9ZM251.77,372c.75-20.21,0-54.26,0-54.26s.75-10.85,1.12-15.71,2.65-59.85,2.65-59.85l4.4,62.12s-3.67,25.77-4.8,36.07c-1,9.15-.3,36.52-.14,42.51h-1.94A31.19,31.19,0,0,1,251.77,372Zm-30-197L232,156.37l3.69,21.87a89.66,89.66,0,0,0-10.27,13.48Z" style="fill:#f5f5f5"></path><path d="M215.71,215.9c-2.24,18,3.5,45.33,8.74,61.24s4.12,33.5,4.12,52.2,11.22,53.51,11.22,53.51v0H225.56v11.94h52.68V382.88H270.1c2.18-7.37,10.31-35.37,11.6-46.05,1.5-12.35,2.24-32,2.24-32s5.32-29,5.29-47.66c0-20.88-3-55.79-3-55.79l-2.79-33.26L286.93,179s7.8,8.69,11.12,9.45,6.39-1.53,9.07-10.22-8.31-40.12-8.31-40.12l-5.56-4.53a41.72,41.72,0,0,0-2.46-6c-3.78-7-14.64-7.12-14.64-7.12h0l-2.49-.09,1-13.87c-11.31-.72-19.44,1.75-24.69,7.12l-1.07,5.86-13.25,2.9s-9.45.95-13.26,7.42-20,44.41-20.22,49.38,16.74,25,16.74,25l.15-.23A45.89,45.89,0,0,0,215.71,215.9ZM251.77,372c.75-20.21,0-54.26,0-54.26s.75-10.85,1.12-15.71,2.65-59.85,2.65-59.85l4.4,62.12s-3.67,25.77-4.8,36.07c-1,9.15-.3,36.52-.14,42.51h-1.94A31.19,31.19,0,0,1,251.77,372Zm-30-197L232,156.37l3.69,21.87a89.66,89.66,0,0,0-10.27,13.48Z" style="fill:none"></path><path d="M221.81,175a1,1,0,0,1,.1.31c.06.24.14.53.22.89.2.83.46,2,.79,3.38.66,3,1.58,7.12,2.7,12.14l-.39-.07a91.07,91.07,0,0,1,10.26-13.55l-.07.22c-.24-1.46-.5-3-.77-4.56-1-6.26-2-12.17-2.89-17.31l.44.07c-3,5.47-5.61,10.08-7.43,13.37-.9,1.59-1.62,2.86-2.15,3.78l-.58,1c-.14.23-.21.35-.23.34a1.62,1.62,0,0,1,.16-.35l.51-1,2-3.81,7.29-13.53.32-.59.11.66c.88,5.14,1.88,11,2.95,17.3.26,1.57.52,3.11.76,4.57l0,.12-.09.1a94.38,94.38,0,0,0-10.27,13.42l-.29.44-.1-.51c-1-5.06-1.91-9.25-2.53-12.24-.28-1.42-.5-2.55-.66-3.38-.07-.36-.12-.65-.16-.89A1.73,1.73,0,0,1,221.81,175Z" style="fill:#263238"></path><path d="M251.77,372s0,.24,0,.71,0,1.17,0,2.1a29.49,29.49,0,0,0,1.35,8l-.1-.07H255l-.1.11c-.22-7.6-.56-18.52-.43-31.95.06-3.36.12-6.88.46-10.54s1-7.39,1.49-11.29c1-7.79,2.12-16.1,3.28-24.83v.05c-1.1-15.43-2.31-32.35-3.57-50q-.42-6.12-.85-12.09h.52c-.64,14.29-1.25,28-1.82,40.69q-.43,9.54-.83,18.31c-.37,5.82-.81,11.36-1.18,16.57v0c.31,16.61.32,30.18.21,39.59-.05,4.71-.15,8.37-.23,10.87l-.12,2.83c0,.64-.06,1-.06,1s0-.33,0-1,0-1.6.06-2.84c0-2.49.1-6.16.12-10.86,0-9.41,0-23-.39-39.58h0c.36-5.21.74-10.75,1.14-16.58s.52-11.95.8-18.3c.55-12.72,1.15-26.39,1.78-40.68h.52c.28,4,.56,8,.85,12.09,1.25,17.68,2.44,34.6,3.53,50v.06c-1.17,8.72-2.28,17-3.32,24.82-.53,3.89-1,7.66-1.52,11.28s-.42,7.14-.49,10.49c-.18,13.42.11,24.35.26,31.95V383H253l0-.07a28.8,28.8,0,0,1-1.26-8.1A24.94,24.94,0,0,1,251.77,372Z" style="fill:#263238"></path><path d="M215.71,215.9a28.62,28.62,0,0,1,.49-3.06A48.7,48.7,0,0,1,219,204l.11.06-.15.24,0,.07-.06-.07c-2.7-3.22-6.07-7.35-9.84-12.5a76.26,76.26,0,0,1-5.63-8.68,14.87,14.87,0,0,1-1.12-2.61,3.43,3.43,0,0,1-.19-1.46,14.46,14.46,0,0,1,.28-1.46c.25-1,.52-1.93.85-2.9s.65-2,1-2.93c2.85-7.9,6.43-16.56,10.51-26,2.06-4.7,4.21-9.6,6.73-14.58a14.86,14.86,0,0,1,2.36-3.52,15.49,15.49,0,0,1,3.41-2.66,23.23,23.23,0,0,1,8.42-2.77h0l13.25-2.9-.14.15c.32-1.78.69-3.81,1.06-5.87v-.06l0,0a23.57,23.57,0,0,1,11.25-6.18,44.56,44.56,0,0,1,13.6-1h.21l0,.21c-.31,4.26-.66,9-1,13.87l-.21-.23,2.49.09.21.21-.22-.21a24.93,24.93,0,0,1,5.57.83,18.16,18.16,0,0,1,5.38,2.29,11.66,11.66,0,0,1,4.06,4.44,44.92,44.92,0,0,1,2.31,5.65l-.08-.1,5.57,4.53.05,0,0,.06c1.79,5.23,3.47,10.62,5,16.16a115.23,115.23,0,0,1,3.58,17.18,29.27,29.27,0,0,1,.14,4.5,11.05,11.05,0,0,1-.35,2.26c-.21.73-.44,1.45-.7,2.16a27.22,27.22,0,0,1-1.84,4.18,10.13,10.13,0,0,1-3,3.55,4.87,4.87,0,0,1-4.62.4,19.07,19.07,0,0,1-3.83-2.68,80.92,80.92,0,0,1-6.65-6.58l0,0,0-.06c-1.1-3.38-2.31-7.12-3.53-10.88l.49-.1q1,11.64,2,23.67c.67,8,1.38,16.15,1.95,24.4s1.11,16.6,1.47,25.05c.2,4.22.32,8.47.4,12.74s0,8.57-.34,12.87c-.43,6.47-1.15,12.87-2,19.22s-1.82,12.62-2.93,18.82v0c-.29,6.88-.66,13.7-1.16,20.46-.26,3.38-.54,6.74-.92,10.07a92.85,92.85,0,0,1-1.71,9.89c-2.93,13-6.52,25.49-10.07,37.69l-.24-.32h8.39v12.43h-.25l-52.68,0h-.23V382.66h14.46l-.21.21v0a325.1,325.1,0,0,1-9.13-35.56,108.62,108.62,0,0,1-2-16.89c-.08-5.51.07-10.85.07-16,0-10.34-.24-20.06-2-28.83-.44-2.19-.94-4.32-1.55-6.36s-1.25-4.05-1.85-6c-1.18-3.92-2.15-7.71-3-11.31A172.9,172.9,0,0,1,215.22,228c-.08-2,0-3.72,0-5.23s.11-2.77.2-3.79c.2-2,.32-3.07.32-3.07s-.08,1-.26,3.08c-.08,1-.09,2.28-.16,3.78s0,3.25.06,5.23a175,175,0,0,0,5,33.88c.86,3.6,1.84,7.38,3,11.29q.92,2.94,1.87,6c.61,2.06,1.12,4.2,1.56,6.39,1.78,8.8,2.09,18.54,2.06,28.89,0,5.18-.14,10.53-.05,16a108.27,108.27,0,0,0,2.06,16.82A324.26,324.26,0,0,0,240,382.78v.32H225.56l.22-.22v11.94l-.22-.22,52.68,0-.24.24V382.88l.24.25h-8.47l.09-.32c3.55-12.19,7.13-24.72,10.05-37.66a90.12,90.12,0,0,0,1.7-9.83c.37-3.33.66-6.69.91-10.06q.75-10.12,1.16-20.44v0c1.11-6.19,2.07-12.47,2.92-18.8s1.57-12.73,2-19.19c.66-8.57.27-17.11-.06-25.55s-.89-16.79-1.47-25-1.27-16.38-1.94-24.4-1.33-15.91-2-23.67L283,166l.67,2.07c1.23,3.77,2.44,7.51,3.54,10.89l-.05-.09a79.69,79.69,0,0,0,6.6,6.53,18.38,18.38,0,0,0,3.72,2.61,4.33,4.33,0,0,0,4.14-.36,9.52,9.52,0,0,0,2.84-3.38,27.3,27.3,0,0,0,1.81-4.1c.25-.7.49-1.42.7-2.13a11.16,11.16,0,0,0,.33-2.16,29.82,29.82,0,0,0-.14-4.43,115.33,115.33,0,0,0-3.55-17.09c-1.52-5.53-3.19-10.92-5-16.14l.07.11-5.56-4.54-.05,0,0-.06a44.35,44.35,0,0,0-2.28-5.6,11.14,11.14,0,0,0-3.9-4.27,17.86,17.86,0,0,0-5.25-2.24,26.68,26.68,0,0,0-2.74-.57c-.46-.06-.91-.12-1.37-.16l-.68-.06-.34,0h-.33v-.21h-.22l.21.22-2.48-.09h-.23l0-.22c.36-4.85.72-9.61,1-13.87l.2.22a45,45,0,0,0-13.48,1,23.14,23.14,0,0,0-11.06,6.06l.05-.1c-.37,2.06-.74,4.09-1.07,5.87l0,.12-.12,0-13.26,2.89,0-.17c0,.35,0,.1,0,.18h-.09l-.14,0-.27,0-.55.09c-.36.06-.72.14-1.08.22-.72.17-1.42.36-2.12.59a20.3,20.3,0,0,0-4,1.73,15.47,15.47,0,0,0-3.34,2.59,14.77,14.77,0,0,0-2.31,3.45c-2.52,4.95-4.68,9.85-6.75,14.54-4.09,9.4-7.68,18-10.55,25.93-.36,1-.7,2-1,2.93s-.6,1.93-.86,2.87a12.37,12.37,0,0,0-.27,1.43,3.26,3.26,0,0,0,.17,1.38,14.62,14.62,0,0,0,1.1,2.57,76.45,76.45,0,0,0,5.59,8.67c3.75,5.15,7.1,9.29,9.78,12.53h-.11L219,204l.11.06a50,50,0,0,0-2.88,8.82c-.23,1-.35,1.77-.44,2.28S215.71,215.9,215.71,215.9Z" style="fill:#263238"></path><path d="M298.81,138.12l-5.56-4.53a41.72,41.72,0,0,0-2.46-6c-3.78-7-14.64-7.12-14.64-7.12h0l-27.17-1-13.3,2.91h0s-9.45.95-13.26,7.42-20,44.41-20.22,49.38,16.74,25,16.74,25l.15-.23a45.89,45.89,0,0,0-3.38,11.88c-2.24,18,3.5,45.33,8.74,61.24s4.12,33.5,4.12,52.2,11.22,53.51,11.22,53.51v0H225.56v11.94h52.68V382.88H270.1c2.18-7.37,10.31-35.37,11.6-46.05,1.5-12.35,2.24-32,2.24-32s5.32-29,5.29-47.66c0-20.88-3-55.79-3-55.79l-2.79-33.26L286.93,179s7.8,8.69,11.12,9.45,6.39-1.53,9.07-10.22S298.81,138.12,298.81,138.12Zm-73.49,54.11L221.82,175,232,156.37l3.69,21.87A113.6,113.6,0,0,0,225.32,192.23Zm27.74,190.65A31.19,31.19,0,0,1,251.77,372c.75-20.21,0-54.26,0-54.26s.75-10.85,1.12-15.71,2.65-59.85,2.65-59.85l4.4,62.12s-3.67,25.77-4.8,36.07c-1,9.15-.3,36.52-.14,42.51Z" style="fill:none"></path><path d="M255,382.88h-.48l-1.46,0,0,0a29.06,29.06,0,0,1-1.25-7.92c-.07-1.86.07-4,.14-6.32s.13-4.94.17-7.75c.17-11.22.14-25.95-.19-43.14v0c.38-5.38.83-11,1.19-16.87s.54-11.95.82-18.23c.56-12.56,1.15-25.86,1.76-39.62,0-.29,0-.57,0-.85h-.49l4.43,62.12v-.05c-1.53,11.63-2.94,22.33-4.2,31.85-.31,2.38-.66,4.68-.76,6.94s-.19,4.41-.23,6.49c-.08,4.17-.06,8,0,11.47.06,6.93.2,12.4.3,16.13.06,1.86.11,3.29.14,4.27,0,.47,0,.82,0,1.08s0,.38,0,.38,0-.11,0-.36,0-.63,0-1.11c0-1,0-2.4-.07-4.26-.06-3.73-.16-9.2-.18-16.13,0-3.47,0-7.3.09-11.46.06-2.08.11-4.25.26-6.48s.47-4.54.78-6.92c1.28-9.51,2.72-20.21,4.27-31.83v0c-1.31-18.51-2.8-39.7-4.38-62.13h-.49l0,.85c-.61,13.76-1.19,27.06-1.75,39.61q-.4,9.42-.79,18.23c-.35,5.86-.8,11.49-1.16,16.87h0c.36,17.19.45,31.91.33,43.13,0,2.8-.09,5.39-.13,7.74s-.17,4.47-.09,6.34a28,28,0,0,0,1.36,7.93v0h0l1.49,0Z" style="fill:none"></path><path d="M235.68,178.24a1,1,0,0,0-.23.22c-.17.18-.38.4-.63.68-.54.6-1.31,1.5-2.27,2.69a111.76,111.76,0,0,0-7.4,10.29l.37.07c-1-5-2.19-10.9-3.47-17.27l0,.16,2-3.65,8.16-15-.41-.07c1.12,6.43,2.07,11.86,2.75,15.74.34,1.89.61,3.4.81,4.48.1.49.17.89.23,1.19a2.12,2.12,0,0,0,.11.42,1.75,1.75,0,0,0,0-.4c0-.3-.09-.69-.16-1.17-.17-1.09-.4-2.59-.7-4.48-.63-3.9-1.52-9.37-2.57-15.85l-.1-.63-.31.56-8.2,14.92-2,3.66,0,.08,0,.08c1.31,6.37,2.52,12.28,3.55,17.26l.1.5.27-.43A124.4,124.4,0,0,1,232.73,182c.93-1.2,1.67-2.13,2.18-2.75l.58-.72A1.41,1.41,0,0,0,235.68,178.24Z" style="fill:#263238"></path><path d="M263.79,182.83c-.14,0-.2.66-.14,1.45s.22,1.42.35,1.41.2-.66.14-1.45S263.92,182.82,263.79,182.83Z" style="fill:#e0e0e0"></path><path d="M255.54,243a5,5,0,0,0,.05-1.1c0-.7,0-1.73-.06-3a83.08,83.08,0,0,0-1-9.84,42.72,42.72,0,0,0-2.59-9.54,24.05,24.05,0,0,0-1.34-2.7,5.62,5.62,0,0,0-.61-.91c-.08,0,.74,1.38,1.63,3.73a49.86,49.86,0,0,1,2.43,9.5c.63,3.79.91,7.27,1.11,9.78.09,1.18.16,2.18.22,3A4.28,4.28,0,0,0,255.54,243Z" style="fill:#263238"></path><path d="M270.07,218.88a21.94,21.94,0,0,0-2.23,2c-1.35,1.24-3.24,2.92-5.41,4.69s-4.21,3.26-5.7,4.32a21.21,21.21,0,0,0-2.39,1.78,15.62,15.62,0,0,0,2.58-1.49,69.73,69.73,0,0,0,5.82-4.24,69,69,0,0,0,5.34-4.81A16.39,16.39,0,0,0,270.07,218.88Z" style="fill:#263238"></path><path d="M236,178.06a2.35,2.35,0,0,0-.35.34l-.92,1c-.8.91-1.94,2.23-3.3,3.9s-2.95,3.68-4.59,6a67.47,67.47,0,0,0-4.88,7.9,55,55,0,0,0-5.61,15.86c-.33,2.13-.57,3.86-.62,5.07,0,.56-.06,1-.08,1.39a1.63,1.63,0,0,0,0,.48,3.06,3.06,0,0,0,.09-.48c0-.37.1-.82.17-1.37.1-1.2.4-2.91.77-5a58.37,58.37,0,0,1,5.7-15.7,70.52,70.52,0,0,1,4.82-7.86c1.61-2.34,3.16-4.38,4.49-6.07l3.17-4,.86-1.09A1.9,1.9,0,0,0,236,178.06Z" style="fill:#263238"></path><rect x="213.92" y="394.82" width="78.17" height="11.94" style="fill:#455a64"></rect><rect x="204.49" y="406.2" width="97.02" height="71.11" style="fill:#455a64"></rect><path d="M237.62,145.43a2.84,2.84,0,0,0,.25-.85c.1-.55.25-1.36.34-2.37a26.21,26.21,0,0,0-.53-7.88,20.93,20.93,0,0,0-1.35-4.16,10,10,0,0,0-2-3,5.81,5.81,0,0,0-2.05-1.3,2.93,2.93,0,0,0-.64-.16c-.15,0-.22,0-.23,0a7.18,7.18,0,0,1,2.67,1.71,10.35,10.35,0,0,1,1.86,2.91,21.86,21.86,0,0,1,1.28,4.07,29.38,29.38,0,0,1,.66,7.76C237.77,144.19,237.54,145.42,237.62,145.43Z" style="fill:#263238"></path><path d="M289.8,174a2.5,2.5,0,0,0,0-.44c0-.31,0-.74,0-1.28,0-1.15.05-2.8.09-4.9.05-4.28.13-10.41.23-17.92v0l0,0c-.64-1.4-1.32-2.91-2-4.48l-.05-.1H288a6,6,0,0,1-1.68-.61,17.68,17.68,0,0,1-1.65-1c-1.08-.73-2.11-1.61-3.2-2.46l-6.74-5.37-.06,0h-.07c-1.28-.06-2.61-.14-3.95-.28a12.46,12.46,0,0,1-2-.32c-.17-.09-.13,0-.15-.11a.78.78,0,0,1,.15-.35,3.47,3.47,0,0,1,.69-.69l.37-.3-.47-.12a1.72,1.72,0,0,1-.82-.44c-.18-.2-.15-.46.05-.74a9.24,9.24,0,0,1,1.45-1.71l.07-.08a3.9,3.9,0,0,1,.32-.28l.42-.31.87-.62,1.8-1.21,3.73-2.41-.14,0h.13l6.11.27-.14-.06,15.6,12.68-.07-.1a213,213,0,0,1,8,28.62,45.49,45.49,0,0,1,.9,8.42,16.57,16.57,0,0,1-.19,2.25l-.12.56c0,.13,0,.2,0,.2s0-.06.06-.19.1-.33.16-.56a14.17,14.17,0,0,0,.27-2.25,44,44,0,0,0-.78-8.48A204,204,0,0,0,299,138l0-.06-.05,0-15.58-12.7-.06-.06h-.08l-6.12-.26h-.2l-.07,0-3.74,2.42-1.81,1.21-.88.63a4.12,4.12,0,0,0-.88.76l.07-.08a9.19,9.19,0,0,0-1.56,1.82,1.42,1.42,0,0,0-.25.63.93.93,0,0,0,.24.69,2,2,0,0,0,1.08.59l-.1-.42a4.23,4.23,0,0,0-.78.8,1.22,1.22,0,0,0-.24.6.48.48,0,0,0,.15.4c.16.15.22.12.33.18a12.06,12.06,0,0,0,2.07.34c1.36.13,2.68.21,4,.27l-.14,0,6.76,5.36c1.09.84,2.12,1.72,3.23,2.46a17.28,17.28,0,0,0,1.7,1,5.54,5.54,0,0,0,1.87.65l-.18-.12c.72,1.56,1.41,3.07,2.06,4.47l0-.08c0,7.51-.05,13.64-.06,17.92,0,2.1,0,3.75,0,4.9,0,.54,0,1,0,1.28A2.5,2.5,0,0,0,289.8,174Z" style="fill:#263238"></path><path d="M281.85,133c0-.08-.71-.33-1.77-1a17.88,17.88,0,0,0-1.93-1.15,4.77,4.77,0,0,0-2.77-.5,7.57,7.57,0,0,0-2.62,1c-.74.42-1.35.86-1.88,1.19-1.06.69-1.78,1-1.76,1.05a4.66,4.66,0,0,0,1.93-.75c1.13-.58,2.55-1.7,4.4-2a4.4,4.4,0,0,1,2.51.42c.74.34,1.39.74,2,1A4.48,4.48,0,0,0,281.85,133Z" style="fill:#263238"></path><path d="M283.66,130.14a8.89,8.89,0,0,0-1.76-1.78,9.47,9.47,0,0,0-2.32-1.48,6.22,6.22,0,0,0-3.36-.43,10.94,10.94,0,0,0-5.43,2.68,9.92,9.92,0,0,0-1.79,1.75,15.43,15.43,0,0,0,2-1.48,11.71,11.71,0,0,1,5.28-2.47,6.09,6.09,0,0,1,3.13.37,10.31,10.31,0,0,1,2.28,1.33A22.52,22.52,0,0,0,283.66,130.14Z" style="fill:#263238"></path><path d="M285.58,144.18c-.11,0,.29,1.56.27,4.08a30.33,30.33,0,0,1-.39,4.41c-.27,1.65-.64,3.45-1.06,5.35s-.78,3.71-1,5.38a27.75,27.75,0,0,0-.33,4.47,14.64,14.64,0,0,0,.1,1.72,7.77,7.77,0,0,0,.19,1.28,4.86,4.86,0,0,0,.27,1.08c.1,0-.26-1.56-.22-4.08a32.44,32.44,0,0,1,.43-4.41c.28-1.65.66-3.45,1.07-5.35s.78-3.71,1-5.38a26.24,26.24,0,0,0,.29-4.47,12.43,12.43,0,0,0-.12-1.72,7.64,7.64,0,0,0-.2-1.29A5.21,5.21,0,0,0,285.58,144.18Z" style="fill:#263238"></path><path d="M221.49,175.72s-.21-.53-.85-1.19a8.32,8.32,0,0,0-6.51-2.36,2.93,2.93,0,0,0-1.42.37,10.48,10.48,0,0,1,8.78,3.18Z" style="fill:#263238"></path><path d="M265.38,144.18c-.1,0-.19,1.28-.81,3.24a18.1,18.1,0,0,1-1.43,3.3,20.5,20.5,0,0,1-2.57,3.56,21.59,21.59,0,0,1-3.33,2.87,18.17,18.17,0,0,1-3.17,1.7c-1.9.79-3.18,1-3.16,1.08a2.83,2.83,0,0,0,.91-.1,5.6,5.6,0,0,0,1-.23,9.41,9.41,0,0,0,1.35-.43,16.55,16.55,0,0,0,3.29-1.65,20.08,20.08,0,0,0,3.44-2.91,19.79,19.79,0,0,0,2.61-3.68,16.52,16.52,0,0,0,1.36-3.41,11.59,11.59,0,0,0,.32-1.38,8.28,8.28,0,0,0,.14-1A3.71,3.71,0,0,0,265.38,144.18Z" style="fill:#263238"></path><path d="M300.8,405.83c0-.14-21.7-.25-48.46-.25s-48.46.11-48.46.25,21.69.24,48.46.24S300.8,406,300.8,405.83Z" style="fill:#263238"></path><rect x="239.5" y="398.04" width="27.85" height="5.11" style="fill:#263238"></rect><path d="M274.69,106.55s-10.14,14.93-24.69,7.12C250,113.67,256.81,105,274.69,106.55Z" style="fill:#e0e0e0"></path><path d="M250.36,113.34a40.77,40.77,0,0,0,3.82,1.46,17.68,17.68,0,0,0,9.67,0,18.76,18.76,0,0,0,8.24-5.09c1.75-1.82,2.52-3.21,2.6-3.16a3.77,3.77,0,0,1-.51,1,16.56,16.56,0,0,1-1.82,2.42A18.16,18.16,0,0,1,264,115.3a17.1,17.1,0,0,1-9.92-.15,14.94,14.94,0,0,1-2.78-1.2A3.57,3.57,0,0,1,250.36,113.34Z" style="fill:#263238"></path></g><g id="freepik--Stanchion--inject-34"><path d="M130.57,324.71s83.64,104.6,231,6.7v12.41s-118.38,99.05-231-4.87Z" style="fill:#FF725E"></path><path d="M132.51,471.68V325.58a6.86,6.86,0,1,0-5.46.25V471.68H109.73v5.63h39.45v-5.63Z" style="fill:#f5f5f5"></path><path d="M132.51,471.68s.38,0,1.1,0l3.21,0,12.36-.06h.1v.11c0,1.72,0,3.62,0,5.63v.12h-.12l-39.45.07h-.18v-.19c0-1.72,0-3.66,0-5.63v-.2h17.51l-.21.21c0-34,0-76.55,0-122.59V325.83l.16.24a7.25,7.25,0,0,1-3.72-3.33,7.34,7.34,0,0,1,1.8-9.11,7,7,0,0,1,9.07.11,7.36,7.36,0,0,1,2.39,4.11,7.47,7.47,0,0,1-.61,4.66,7.28,7.28,0,0,1-3.26,3.3l.14-.23c0,42.37-.09,78.86-.12,104.77,0,13,0,23.28-.07,30.37,0,3.54,0,6.27,0,8.13,0,.92,0,1.62,0,2.1s0,.73,0,.73,0-.23,0-.7,0-1.17,0-2.07c0-1.85,0-4.56,0-8.08,0-7.07,0-17.37-.07-30.31,0-25.95-.07-62.5-.12-104.94v-.15l.14-.07a6.72,6.72,0,0,0,3-3.07,6.86,6.86,0,0,0-1.66-8.17,6.52,6.52,0,0,0-8.42-.1,6.85,6.85,0,0,0-1.66,8.48,6.72,6.72,0,0,0,3.45,3.09l.17.06v23.44c0,46,0,88.59,0,122.59v.21h-.21l-17.32,0,.19-.19v5.63l-.19-.18,39.45.07-.12.11c0-2,0-3.91,0-5.63l.1.1-12.42-.06-3.18,0Z" style="fill:#263238"></path><path d="M133.07,325.25a5.48,5.48,0,0,1-6.39.42,19.87,19.87,0,0,0,3.23.3A19.29,19.29,0,0,0,133.07,325.25Z" style="fill:#263238"></path><path d="M134.82,471.66a19.19,19.19,0,0,1-4.53.27,19.12,19.12,0,0,1-4.53-.27,20.15,20.15,0,0,1,4.53-.26A20.22,20.22,0,0,1,134.82,471.66Z" style="fill:#263238"></path><path d="M364.78,471.68V325.58a6.86,6.86,0,1,0-5.46.25V471.68H342v5.63h39.45v-5.63Z" style="fill:#f5f5f5"></path><path d="M364.78,471.68s.38,0,1.1,0l3.21,0,12.36-.06h.1v.11c0,1.72,0,3.62,0,5.63v.12h-.12L342,477.5h-.18v-.19c0-1.72,0-3.66,0-5.63v-.2h17.51l-.21.21c0-34,0-76.55-.05-122.59V325.83l.16.24a7.25,7.25,0,0,1-3.72-3.33,7.34,7.34,0,0,1,1.8-9.11,7,7,0,0,1,9.07.11,7.36,7.36,0,0,1,2.39,4.11,7.47,7.47,0,0,1-.61,4.66,7.28,7.28,0,0,1-3.26,3.3l.14-.23c0,42.37-.09,78.86-.12,104.77,0,13-.05,23.28-.07,30.37,0,3.54,0,6.27,0,8.13,0,.92,0,1.62,0,2.1s0,.73,0,.73,0-.23,0-.7,0-1.17,0-2.07c0-1.85,0-4.56,0-8.08,0-7.07,0-17.37-.07-30.31,0-25.95-.07-62.5-.12-104.94v-.15l.14-.07a6.72,6.72,0,0,0,3-3.07,6.86,6.86,0,0,0-1.66-8.17,6.52,6.52,0,0,0-8.42-.1A6.85,6.85,0,0,0,356,322.5a6.72,6.72,0,0,0,3.45,3.09l.17.06v23.44c0,46,0,88.59-.05,122.59v.21h-.21l-17.32,0,.19-.19v5.63l-.19-.18,39.45.07-.12.11c0-2,0-3.91,0-5.63l.1.1L369,471.72l-3.18,0Z" style="fill:#263238"></path><path d="M365.34,325.25a5.48,5.48,0,0,1-6.39.42,19.87,19.87,0,0,0,3.23.3A19.29,19.29,0,0,0,365.34,325.25Z" style="fill:#263238"></path><path d="M367.09,471.66a38.22,38.22,0,0,1-9.07,0,39.68,39.68,0,0,1,9.07,0Z" style="fill:#263238"></path><path d="M187.17,364.88a6.46,6.46,0,0,1-1.36-.35c-.86-.25-2.1-.65-3.62-1.19a107.09,107.09,0,0,1-22.51-11.19c-1.34-.89-2.41-1.63-3.14-2.17a7.08,7.08,0,0,1-1.09-.87,7.09,7.09,0,0,1,1.21.7l3.22,2c2.73,1.69,6.57,3.92,11,6.1s8.48,3.89,11.48,5.05l3.56,1.35A8.28,8.28,0,0,1,187.17,364.88Z" style="fill:#fff"></path></g></svg>
