<svg width="444" height="471" viewBox="0 0 444 471" fill="none" xmlns="http://www.w3.org/2000/svg">
<path d="M221.55 471C343.909 471 443.1 419.455 443.1 355.872C443.1 292.288 343.909 240.743 221.55 240.743C99.1913 240.743 0 292.288 0 355.872C0 419.455 99.1913 471 221.55 471Z" fill="#F5F5F5"/>
<path d="M313.746 428.462L148.367 341.113C146.913 340.346 145.704 339.242 144.864 337.913C144.024 336.583 143.582 335.074 143.582 333.538C143.582 332.002 144.024 330.494 144.864 329.164C145.704 327.834 146.913 326.73 148.367 325.963L164.681 316.553C167.498 315.069 170.69 314.288 173.94 314.288C177.19 314.288 180.383 315.069 183.199 316.553L348.6 403.912C350.055 404.679 351.263 405.783 352.103 407.112C352.943 408.442 353.386 409.951 353.386 411.487C353.386 413.023 352.943 414.532 352.103 415.861C351.263 417.191 350.055 418.295 348.6 419.062L332.286 428.462C329.469 429.954 326.271 430.739 323.016 430.739C319.761 430.739 316.563 429.954 313.746 428.462Z" fill="#E0E0E0"/>
<path d="M62.2881 348.827C82.109 348.827 98.1769 340.386 98.1769 329.975C98.1769 319.563 82.109 311.122 62.2881 311.122C42.4673 311.122 26.3994 319.563 26.3994 329.975C26.3994 340.386 42.4673 348.827 62.2881 348.827Z" fill="#E6E6E6"/>
<path d="M372.39 353.146L388.131 361.426C388.131 361.426 380.092 338.316 384.376 315.02C385.995 306.217 389.469 301.846 390.683 299.49C391.897 297.135 401.308 282.582 392.932 275.918C384.556 269.253 365.071 282.654 366.128 318.517C366.608 330.256 368.713 341.892 372.39 353.146Z" fill="#205500"/>
<path opacity="0.5" d="M372.39 353.146L388.131 361.426C388.131 361.426 380.092 338.316 384.376 315.02C385.995 306.217 389.469 301.846 390.683 299.49C391.897 297.135 401.308 282.582 392.932 275.918C384.556 269.253 365.071 282.654 366.128 318.517C366.608 330.256 368.713 341.892 372.39 353.146Z" fill="black"/>
<path d="M379.71 357.507C379.595 357.509 379.483 357.479 379.388 357.42C379.293 357.361 379.221 357.276 379.181 357.178C379.125 357.024 373.11 341.987 373.301 317.818C373.492 293.649 387.377 280.525 387.512 280.402C387.565 280.353 387.627 280.315 387.695 280.289C387.764 280.263 387.837 280.25 387.912 280.25C387.986 280.25 388.059 280.263 388.128 280.289C388.196 280.315 388.258 280.353 388.311 280.402C388.363 280.449 388.405 280.506 388.434 280.569C388.462 280.632 388.477 280.699 388.477 280.767C388.477 280.835 388.462 280.902 388.434 280.965C388.405 281.027 388.363 281.084 388.311 281.132C388.176 281.255 374.616 293.988 374.425 317.828C374.234 341.668 380.171 356.684 380.238 356.828C380.289 356.956 380.282 357.098 380.218 357.221C380.155 357.345 380.041 357.44 379.901 357.486C379.839 357.504 379.774 357.511 379.71 357.507Z" fill="white"/>
<path d="M378.956 356.684L400.476 367.998C402.718 369.21 405.378 369.605 407.924 369.104C410.471 368.602 412.717 367.242 414.216 365.293C415.64 363.265 416.241 360.845 415.913 358.453C414.879 348.23 410.022 345.875 415.97 341.319C421.917 336.763 423.469 336.444 423.132 332.062C422.794 327.681 419.522 325.768 417.971 324.04C416.419 322.312 412.124 318.692 415.048 313.344C417.971 307.996 421.962 302.823 415.913 300.457C412.304 299.038 406.289 300.93 402.331 304.859C398.374 308.788 395.113 311.616 391.324 312.562C387.535 313.509 379.642 313.663 379.98 319.638C380.317 325.614 382.048 327.66 380.497 330.324C377.574 335.302 364.857 338.13 378.956 356.684Z" fill="#205500"/>
<path d="M389.593 362.773C389.452 362.769 389.319 362.719 389.215 362.632C389.112 362.545 389.047 362.427 389.03 362.3C389.03 361.95 385.725 326.653 412.259 303.162C412.369 303.079 412.508 303.038 412.65 303.045C412.791 303.053 412.925 303.109 413.023 303.203C413.121 303.297 413.177 303.421 413.179 303.55C413.181 303.68 413.13 303.806 413.035 303.902C386.883 327.054 390.121 361.857 390.155 362.207C390.167 362.342 390.121 362.476 390.027 362.58C389.932 362.684 389.796 362.749 389.649 362.762L389.593 362.773Z" fill="white"/>
<path d="M393.854 332.391C393.712 332.392 393.576 332.343 393.472 332.256C393.367 332.168 393.303 332.047 393.292 331.918C393.056 329.183 392.214 326.52 390.817 324.092C389.419 321.664 387.495 319.523 385.163 317.797C385.102 317.758 385.05 317.709 385.011 317.651C384.971 317.594 384.944 317.53 384.931 317.463C384.919 317.396 384.921 317.328 384.938 317.261C384.954 317.195 384.985 317.133 385.028 317.077C385.07 317.022 385.123 316.975 385.185 316.939C385.246 316.902 385.315 316.878 385.387 316.866C385.46 316.855 385.534 316.857 385.605 316.872C385.677 316.887 385.744 316.915 385.804 316.954C388.289 318.757 390.338 321.013 391.821 323.578C393.303 326.143 394.187 328.962 394.416 331.857C394.429 331.994 394.381 332.131 394.285 332.237C394.188 332.342 394.049 332.409 393.899 332.422L393.854 332.391Z" fill="white"/>
<path d="M392.021 338.449C391.885 338.451 391.754 338.407 391.65 338.326C391.539 338.235 391.47 338.108 391.46 337.971C391.449 337.835 391.498 337.7 391.594 337.596C391.864 337.308 398.509 330.602 414.081 332.381C414.228 332.399 414.362 332.47 414.453 332.578C414.543 332.686 414.583 332.822 414.564 332.957C414.545 333.093 414.468 333.216 414.35 333.301C414.232 333.385 414.083 333.424 413.935 333.41C398.981 331.692 392.494 338.213 392.426 338.274C392.375 338.327 392.313 338.369 392.243 338.399C392.174 338.43 392.098 338.446 392.021 338.449Z" fill="white"/>
<path d="M308.709 418.023L163.265 341.206C153 335.785 144.679 321.243 144.679 308.726V23.8366C144.679 11.3199 153 5.57074 163.265 10.9908L308.709 87.8082C318.974 93.2283 327.294 107.771 327.294 120.288V405.177C327.294 417.684 318.974 423.443 308.709 418.023Z" fill="#455A64"/>
<path d="M325.461 78.8501L180.006 2.03276C175.621 -0.28133 171.596 -0.548736 168.414 0.870569C168.024 1.04902 167.649 1.25176 167.289 1.47737L150.987 10.1475C154.27 8.34763 158.565 8.48134 163.276 10.9703L308.719 87.7876C318.985 93.2077 327.305 107.75 327.305 120.267V405.157C327.305 411.78 324.977 416.47 321.267 418.691L337.356 410.124C341.46 408.129 344.102 403.244 344.102 396.24V111.35C344.102 98.8129 335.726 84.2702 325.461 78.8501Z" fill="#37474F"/>
<path d="M327.293 120.267V405.157C327.293 411.78 324.966 416.47 321.256 418.691L337.356 410.124C341.46 408.129 344.102 403.244 344.102 396.24V111.35L327.35 120.246L327.293 120.267Z" fill="#263238"/>
<path d="M344.046 133.452L327.294 142.297V149.209L344.046 140.353V133.452Z" fill="#37474F"/>
<path d="M336.704 179.415C335.209 180.207 333.994 179.364 333.994 177.543V162.682C334.01 161.753 334.263 160.84 334.733 160.016C335.204 159.193 335.879 158.482 336.704 157.94C338.199 157.148 339.414 157.94 339.414 159.812V174.674C339.398 175.603 339.145 176.516 338.675 177.339C338.204 178.162 337.529 178.873 336.704 179.415Z" fill="#37474F"/>
<path d="M333.983 177.584V162.682C333.998 161.753 334.251 160.84 334.722 160.016C335.193 159.193 335.868 158.482 336.693 157.94C336.939 157.783 337.227 157.686 337.526 157.661C337.826 157.636 338.128 157.682 338.402 157.796L336.367 156.84C336.088 156.717 335.78 156.664 335.472 156.686C335.164 156.708 334.867 156.803 334.613 156.963C333.787 157.505 333.111 158.216 332.638 159.039C332.166 159.862 331.91 160.775 331.892 161.705V176.556C331.85 176.931 331.912 177.31 332.073 177.657C332.235 178.004 332.489 178.308 332.814 178.541L334.939 179.569C334.601 179.346 334.334 179.045 334.166 178.696C333.998 178.347 333.935 177.963 333.983 177.584Z" fill="#455A64"/>
<path d="M336.704 215.381C335.209 216.173 333.994 215.381 333.994 213.509V198.648C334.01 197.719 334.264 196.806 334.734 195.983C335.205 195.16 335.879 194.449 336.704 193.906C338.199 193.114 339.414 193.906 339.414 195.788V210.64C339.4 211.569 339.148 212.483 338.677 213.306C338.207 214.13 337.531 214.841 336.704 215.381Z" fill="#37474F"/>
<path d="M333.983 213.509V198.648C333.999 197.719 334.253 196.806 334.723 195.983C335.194 195.16 335.868 194.448 336.693 193.906C336.941 193.751 337.228 193.657 337.527 193.632C337.826 193.606 338.127 193.651 338.402 193.762L336.367 192.796C336.09 192.668 335.78 192.611 335.471 192.633C335.162 192.655 334.865 192.754 334.613 192.919C333.785 193.459 333.107 194.169 332.635 194.993C332.162 195.817 331.908 196.73 331.892 197.66V212.553C331.849 212.928 331.911 213.307 332.072 213.654C332.233 214.002 332.489 214.306 332.814 214.538L334.939 215.566C334.587 215.338 334.311 215.025 334.142 214.662C333.974 214.298 333.919 213.899 333.983 213.509Z" fill="#455A64"/>
<path d="M303.626 95.7994L160.701 20.2883C160.104 19.9744 159.428 19.8086 158.74 19.8074C158.052 19.8063 157.376 19.9697 156.778 20.2816C156.18 20.5935 155.682 21.0429 155.333 21.5853C154.983 22.1277 154.795 22.7443 154.787 23.3737V308.726C154.787 318.25 162.174 329.944 171.191 334.706L310.608 408.376C311.27 408.724 312.019 408.907 312.782 408.906C313.545 408.905 314.294 408.721 314.955 408.372C315.615 408.023 316.164 407.522 316.545 406.918C316.927 406.313 317.129 405.628 317.129 404.93V117.223C317.186 109.365 311.092 99.7282 303.626 95.7994Z" fill="#0C0055"/>
<path opacity="0.9" d="M303.626 95.7994L160.701 20.2883C160.104 19.9744 159.428 19.8086 158.74 19.8074C158.052 19.8063 157.376 19.9697 156.778 20.2816C156.18 20.5935 155.682 21.0429 155.333 21.5853C154.983 22.1277 154.795 22.7443 154.787 23.3737V308.726C154.787 318.25 162.174 329.944 171.191 334.706L310.608 408.376C311.27 408.724 312.019 408.907 312.782 408.906C313.545 408.905 314.294 408.721 314.955 408.372C315.615 408.023 316.164 407.522 316.545 406.918C316.927 406.313 317.129 405.628 317.129 404.93V117.223C317.186 109.365 311.092 99.7282 303.626 95.7994Z" fill="white"/>
<path d="M203.448 40.0043L205.663 48.5304L253.042 73.5226L261.228 69.5321L203.448 40.0043Z" fill="#455A64"/>
<path d="M217.379 48.2424C217.379 49.6617 216.254 50.2274 214.95 49.528C214.25 49.1028 213.669 48.5333 213.253 47.8653C212.837 47.1972 212.598 46.4493 212.555 45.6815C212.555 44.2725 213.68 43.6965 214.984 44.4062C215.684 44.8292 216.265 45.3968 216.681 46.0632C217.097 46.7295 217.336 47.476 217.379 48.2424Z" fill="#263238"/>
<path d="M249.298 66.2923C249.039 66.2904 248.784 66.2303 248.556 66.1174L224.361 53.7756C224.019 53.5921 223.77 53.2937 223.665 52.9441C223.561 52.5945 223.61 52.2214 223.802 51.9045C223.995 51.5877 224.315 51.3521 224.694 51.2482C225.074 51.1443 225.483 51.1803 225.834 51.3484L250.041 63.6902C250.335 63.8398 250.566 64.0746 250.699 64.3578C250.831 64.6409 250.857 64.9563 250.772 65.2543C250.687 65.5523 250.496 65.816 250.229 66.0039C249.963 66.1918 249.635 66.2932 249.298 66.2923Z" fill="#263238"/>
<path d="M184.762 79.6729C183.289 78.8912 182.221 79.57 182.221 81.2876C182.221 82.1465 182.453 82.9921 182.896 83.7493C183.339 84.5065 183.98 85.1517 184.762 85.6278C185.18 85.8602 185.661 85.9831 186.15 85.9831C186.64 85.9831 187.12 85.8602 187.539 85.6278L189.889 89.5154C189.062 89.9327 188.125 90.1315 187.182 90.0898C186.239 90.048 185.327 89.7673 184.548 89.2789C182.639 88.2105 181.047 86.7281 179.914 84.9629C178.78 83.1977 178.14 81.2041 178.05 79.1586C178.05 75.343 180.849 74.0162 184.706 76.0732C186.883 77.356 188.667 79.126 189.889 81.2156L187.539 82.9229C186.959 81.6255 185.998 80.5005 184.762 79.6729Z" fill="#0C0055"/>
<path d="M203.414 92.5598C203.414 96.4063 200.57 97.7022 196.668 95.6452C194.705 94.5718 193.061 93.0713 191.884 91.277C190.708 89.4828 190.033 87.4504 189.922 85.3604C189.922 81.5139 192.767 80.218 196.668 82.2749C198.636 83.3435 200.283 84.8428 201.461 86.6381C202.639 88.4334 203.31 90.4683 203.414 92.5598ZM194.093 87.6539C194.113 88.537 194.362 89.4031 194.819 90.1809C195.277 90.9588 195.93 91.6261 196.724 92.1278C198.119 92.8683 199.243 92.1278 199.243 90.3794C199.239 89.5162 199.008 88.6666 198.57 87.9022C198.132 87.1379 197.499 86.4812 196.724 85.9878C195.308 85.237 194.093 85.8746 194.093 87.6539Z" fill="#004A03"/>
<path d="M207.946 88.4766L212.803 97.733V91.0684L216.479 93.0122V105.981L213.106 104.192L208.272 95.0178V101.641L204.573 99.6871V86.6871L207.946 88.4766Z" fill="#6A7300"/>
<path d="M228.499 99.3271V102.721L224.991 100.87V110.455L220.932 108.306V98.7203L217.447 96.8793V93.4956L228.499 99.3271Z" fill="#AE0404"/>
<path d="M236.414 114.652L231.804 112.214L231.174 113.716L227.014 111.515L232.198 101.281L236.369 103.482L241.361 119.095L237.032 116.811L236.414 114.652ZM235.413 111.052L234.154 106.619L232.861 109.705L235.413 111.052Z" fill="#3A0055"/>
<path d="M247.803 112.965C246.33 112.193 245.262 112.862 245.262 114.59C245.264 115.448 245.497 116.293 245.94 117.05C246.383 117.807 247.023 118.453 247.803 118.93C248.225 119.16 248.707 119.282 249.198 119.282C249.688 119.282 250.17 119.16 250.592 118.93L252.942 122.818C252.111 123.23 251.173 123.426 250.229 123.385C249.286 123.343 248.373 123.065 247.59 122.581C245.679 121.512 244.086 120.028 242.953 118.261C241.819 116.493 241.18 114.498 241.091 112.451C241.091 108.635 243.902 107.308 247.747 109.365C249.922 110.654 251.708 112.422 252.942 114.508L250.592 116.205C249.999 114.914 249.036 113.794 247.803 112.965Z" fill="#FA03FF"/>
<path d="M264.027 118.097V121.481L260.519 119.629V129.246L256.46 127.096V117.511L252.975 115.67V112.286L264.027 118.097Z" fill="#02005A"/>
<path d="M276.024 134.018C277.025 134.542 277.789 134.131 277.789 132.845V125.368L281.859 127.508V134.985C281.859 138.43 279.611 139.459 276.013 137.576C274.28 136.696 272.822 135.423 271.781 133.88C270.74 132.336 270.149 130.574 270.065 128.762V121.285L274.135 123.435V130.912C274.151 131.531 274.331 132.137 274.66 132.678C274.989 133.219 275.457 133.679 276.024 134.018Z" fill="#115500"/>
<path d="M288.414 134.059C287.954 133.822 287.661 133.812 287.661 134.203C287.661 135.828 294.014 138.173 294.014 142.873C294.014 145.753 291.619 145.763 288.853 144.303C286.422 142.94 284.327 141.129 282.703 138.985L284.209 136.558C285.446 138.309 287.033 139.831 288.887 141.042C289.483 141.361 289.865 141.361 289.865 140.898C289.865 139.212 283.501 136.97 283.501 132.413C283.501 129.822 285.57 129.328 288.763 130.974C290.82 132.112 292.63 133.586 294.104 135.324L292.631 137.813C291.414 136.396 289.996 135.133 288.414 134.059Z" fill="#550000"/>
<path d="M164.31 143.583C168.872 138.457 171.169 131.954 170.746 125.356C170.324 118.758 167.214 112.545 162.029 107.941C156.845 103.338 149.962 100.679 142.74 100.49C135.518 100.3 128.48 102.593 123.015 106.917C117.551 111.241 114.056 117.281 113.221 123.846C112.386 130.411 114.271 137.024 118.504 142.38C122.737 147.737 129.011 151.447 136.088 152.78C143.165 154.112 150.531 152.97 156.732 149.579L170.809 155.174L164.31 143.583Z" fill="#55003D"/>
<path opacity="0.4" d="M164.31 143.583C168.872 138.457 171.169 131.954 170.746 125.356C170.324 118.758 167.214 112.545 162.029 107.941C156.845 103.338 149.962 100.679 142.74 100.49C135.518 100.3 128.48 102.593 123.015 106.917C117.551 111.241 114.056 117.281 113.221 123.846C112.386 130.411 114.271 137.024 118.504 142.38C122.737 147.737 129.011 151.447 136.088 152.78C143.165 154.112 150.531 152.97 156.732 149.579L170.809 155.174L164.31 143.583Z" fill="black"/>
<path d="M131.21 125.481C131.21 125.08 130.895 124.854 130.322 124.854C128.992 125.013 127.75 125.549 126.769 126.386L125.172 123.548C126.853 122.391 128.883 121.737 130.985 121.676C133.684 121.676 135.73 122.972 135.73 124.905C135.73 126.284 134.606 127.61 133.166 128.937L131.154 130.758H135.91V133.781H125.69V131.303L130.243 126.993C130.733 126.597 131.072 126.067 131.21 125.481Z" fill="white"/>
<path d="M144.23 121.851L141.127 128.659H142.397V126.366H146.31V128.659H147.794V131.467H146.31V133.781H142.397V131.467H136.832V128.917L140.205 121.851H144.23Z" fill="white"/>
<path d="M159.869 127.847V133.781H155.687V128.947C155.711 128.79 155.698 128.63 155.649 128.477C155.599 128.325 155.515 128.184 155.401 128.064C155.286 127.944 155.146 127.848 154.987 127.782C154.829 127.716 154.658 127.682 154.484 127.682C153.663 127.682 153.146 128.269 153.146 129.174V133.781H148.963V121.172H153.146V125.81C153.473 125.337 153.929 124.95 154.469 124.687C155.009 124.424 155.615 124.293 156.227 124.309C156.728 124.297 157.226 124.382 157.689 124.559C158.152 124.735 158.569 124.999 158.913 125.333C159.257 125.667 159.52 126.063 159.684 126.496C159.849 126.93 159.912 127.39 159.869 127.847Z" fill="white"/>
<path d="M296.251 223.413V351.202C296.253 352.648 295.839 354.068 295.051 355.321C294.262 356.573 293.127 357.613 291.759 358.337C290.392 359.061 288.84 359.442 287.26 359.442C285.68 359.443 284.127 359.063 282.759 358.34L207.518 318.599L194.184 311.565C189.592 309.136 185.778 305.647 183.122 301.448C180.466 297.248 179.062 292.484 179.05 287.632V159.833C179.048 158.387 179.462 156.967 180.25 155.715C181.039 154.462 182.174 153.422 183.542 152.698C184.91 151.974 186.462 151.593 188.042 151.593C189.622 151.592 191.174 151.972 192.542 152.695L281.14 199.481C285.733 201.906 289.548 205.394 292.201 209.595C294.854 213.796 296.25 218.562 296.251 223.413Z" fill="black"/>
<path opacity="0.5" d="M296.251 223.413V351.202C296.253 352.648 295.839 354.068 295.051 355.321C294.262 356.573 293.127 357.613 291.759 358.337C290.392 359.061 288.84 359.442 287.26 359.442C285.68 359.443 284.127 359.063 282.759 358.34L207.518 318.599L194.184 311.565C189.592 309.136 185.778 305.647 183.122 301.448C180.466 297.248 179.062 292.484 179.05 287.632V159.833C179.048 158.387 179.462 156.967 180.25 155.715C181.039 154.462 182.174 153.422 183.542 152.698C184.91 151.974 186.462 151.593 188.042 151.593C189.622 151.592 191.174 151.972 192.542 152.695L281.14 199.481C285.733 201.906 289.548 205.394 292.201 209.595C294.854 213.796 296.25 218.562 296.251 223.413Z" fill="#4A1457"/>
<path d="M252.908 299.027C252.908 299.027 266.996 320.399 256.821 344.497L207.485 318.599L252.908 299.027Z" fill="#263238"/>
<path d="M275.375 203.006C276.441 195.085 270.286 187.873 261.627 186.898C252.968 185.922 245.084 191.553 244.018 199.474C242.952 207.394 249.107 214.606 257.766 215.581C266.425 216.557 274.309 210.926 275.375 203.006Z" fill="#263238"/>
<path d="M259.778 160.707C259.778 160.707 264.624 153.508 266.108 154.032C267.592 154.557 265.141 161.417 265.141 161.417C265.141 161.417 272.472 162.815 271.111 164.502C269.751 166.189 260.79 165.788 260.79 165.788L259.778 160.707Z" fill="#263238"/>
<path d="M263.15 179.261C259.777 202.443 238.415 202.443 238.415 202.443L193.666 184.424C193.666 184.424 190.293 181.719 189.259 175.507C188.862 172.962 188.862 170.379 189.259 167.834C189.259 167.834 189.259 167.783 189.259 167.762C190.687 158.012 198.659 147.532 216.018 144.313C219.822 143.61 223.695 143.266 227.576 143.284C229.454 143.278 231.33 143.364 233.198 143.542C246.69 144.755 256.146 150.515 260.654 159.473C261.668 161.495 262.423 163.617 262.903 165.798C263.818 170.24 263.902 174.793 263.15 179.261Z" fill="#263238"/>
<path d="M155.72 224.103C155.72 224.103 139.834 223.599 133.717 237.761C133.717 237.761 140.463 241.926 149.312 237.761C158.16 233.595 155.72 224.103 155.72 224.103Z" fill="black"/>
<path opacity="0.5" d="M155.72 224.103C155.72 224.103 139.834 223.599 133.717 237.761C133.717 237.761 140.463 241.926 149.312 237.761C158.16 233.595 155.72 224.103 155.72 224.103Z" fill="black"/>
<path d="M155.27 230.921C155.27 230.921 150.773 213.046 148.401 212.83C146.028 212.614 145.567 218.281 145.759 221.48L140.137 210.414C139.959 210.07 139.705 209.763 139.392 209.512C139.079 209.261 138.714 209.072 138.317 208.955C137.921 208.838 137.503 208.797 137.089 208.834C136.675 208.871 136.274 208.985 135.909 209.169C130.288 211.997 120.427 220.595 141.216 241.854L155.27 230.921Z" fill="#945959"/>
<path d="M212.836 218.559L209.463 218.158C206.064 217.746 202.606 218.169 199.444 219.383C196.283 220.598 193.532 222.56 191.474 225.069L171.405 249.506L155.664 224.103C155.664 224.103 153.775 241.381 133.661 237.761L155.259 271.012C156.626 273.117 158.529 274.889 160.805 276.176C163.081 277.464 165.664 278.23 168.333 278.409C171.003 278.588 173.68 278.174 176.137 277.203C178.594 276.232 180.758 274.733 182.445 272.832L200.93 252.046L212.836 218.559Z" fill="white"/>
<path d="M255.673 275.588C251.176 286.017 250.681 288.054 253.425 293.268C255.335 297.119 256.841 301.128 257.922 305.24C257.922 305.24 237.077 326.611 207.406 318.61L194.071 311.575C191.298 310.112 188.8 308.251 186.673 306.062L190.732 278.376C190.936 276.918 190.775 275.437 190.26 274.046L185.998 262.619C183.919 257.038 183.61 251.033 185.106 245.298C186.602 239.563 189.843 234.332 194.453 230.212L208.777 217.407L246.398 221.809L252.019 223.28C255.7 224.253 258.872 226.409 260.954 229.351C263.036 232.293 263.888 235.823 263.353 239.293C261.509 251.429 258.495 269.037 255.673 275.588Z" fill="#4B3030"/>
<path opacity="0.5" d="M255.673 275.588C251.176 286.017 250.681 288.054 253.425 293.268C255.335 297.119 256.841 301.128 257.922 305.24C257.922 305.24 237.077 326.611 207.406 318.61L194.071 311.575C191.298 310.112 188.8 308.251 186.673 306.062L190.732 278.376C190.936 276.918 190.775 275.437 190.26 274.046L185.998 262.619C183.919 257.038 183.61 251.033 185.106 245.298C186.602 239.563 189.843 234.332 194.453 230.212L208.777 217.407L246.398 221.809L252.019 223.28C255.7 224.253 258.872 226.409 260.954 229.351C263.036 232.293 263.888 235.823 263.353 239.293C261.509 251.429 258.495 269.037 255.673 275.588Z" fill="url(#paint0_linear_220_2231)"/>
<path d="M232.985 244.436L225.452 238.563C224.654 237.939 223.692 237.516 222.661 237.335C221.629 237.155 220.565 237.224 219.571 237.535L210.464 240.404L209.239 235.735C209.047 235.008 208.697 234.325 208.209 233.725C207.722 233.126 207.106 232.623 206.4 232.248C205.694 231.872 204.912 231.631 204.101 231.539C203.291 231.447 202.468 231.506 201.683 231.713L197.737 232.742L204.415 221.038C206.596 217.226 209.955 214.085 214.073 212.008L216.693 210.691L238.336 211.72C238.336 211.72 246.398 214.805 246.398 221.747L232.985 244.374" fill="white"/>
<path d="M238.427 220.493L216.727 235.961V186.707H238.427V220.493Z" fill="#945959"/>
<path d="M217.064 216.43L210.464 240.445L238.336 220.493L217.064 216.43Z" fill="#945959"/>
<path d="M216.727 212.861C221.552 211.222 225.962 208.703 229.691 205.457C233.419 202.211 236.387 198.306 238.415 193.978V186.707H216.715L216.727 212.861Z" fill="#703838"/>
<path d="M221.404 150.206C213.174 150.206 195.679 154.402 193.655 174.108C191.632 193.814 193.588 209.076 204.696 210.557C215.805 212.039 241.62 204.664 245.082 179.158C248.545 153.652 229.42 150.206 221.404 150.206Z" fill="#945959"/>
<path d="M208.452 182.449V194.061L201.009 191.973L208.452 182.449Z" fill="#703838"/>
<path d="M216.727 186.82C218.155 186.82 219.313 185.761 219.313 184.455C219.313 183.148 218.155 182.089 216.727 182.089C215.298 182.089 214.141 183.148 214.141 184.455C214.141 185.761 215.298 186.82 216.727 186.82Z" fill="#263238"/>
<path d="M202.291 182.809C202.288 183.276 202.135 183.733 201.849 184.12C201.564 184.508 201.159 184.81 200.686 184.987C200.214 185.165 199.694 185.21 199.193 185.118C198.692 185.025 198.233 184.799 197.872 184.468C197.512 184.137 197.266 183.715 197.168 183.256C197.069 182.798 197.121 182.323 197.317 181.891C197.513 181.459 197.844 181.091 198.269 180.831C198.694 180.572 199.194 180.433 199.705 180.433C200.045 180.433 200.382 180.495 200.697 180.614C201.011 180.734 201.297 180.909 201.537 181.13C201.777 181.35 201.968 181.612 202.097 181.901C202.226 182.189 202.292 182.498 202.291 182.809Z" fill="#263238"/>
<path d="M196.545 177.872L201.604 175.126C201.604 175.126 199.67 173.285 197.736 174.386C195.803 175.486 196.545 177.872 196.545 177.872Z" fill="#263238"/>
<path d="M204.955 198.771C207.419 198.936 209.871 198.334 211.915 197.064C211.915 197.064 212.398 200.427 209.317 201.065C206.237 201.702 204.955 198.771 204.955 198.771Z" fill="#703838"/>
<path d="M200.536 156.912C200.536 156.912 203.628 184.115 244.07 184.969C244.07 184.969 256.292 157.93 232.141 149.147C207.99 140.364 200.536 156.912 200.536 156.912Z" fill="#263238"/>
<path d="M255.977 180.896L251.008 178.263C249.119 177.235 246.51 177.379 243.621 178.901C237.887 181.925 233.232 189.299 233.232 195.357C233.232 198.391 234.356 200.499 236.29 201.527L241.17 204.099L241.451 204.243L241.619 204.335C243.463 205.158 245.926 204.963 248.635 203.533C254.369 200.448 259.024 193.135 259.024 187.077C258.99 184.012 257.832 181.894 255.977 180.896Z" fill="black"/>
<path d="M255.938 196.387C259.993 189.963 259.993 183.019 255.938 180.877C251.883 178.736 245.309 182.208 241.254 188.632C237.2 195.057 237.2 202.001 241.254 204.142C245.309 206.284 251.883 202.812 255.938 196.387Z" fill="black"/>
<path opacity="0.5" d="M255.938 196.387C259.993 189.963 259.993 183.019 255.938 180.877C251.883 178.736 245.309 182.208 241.254 188.632C237.2 195.057 237.2 202.001 241.254 204.142C245.309 206.284 251.883 202.812 255.938 196.387Z" fill="black"/>
<path d="M257.967 186.604L254.594 184.804C253.312 184.105 251.525 184.197 249.546 185.236C247.479 186.472 245.758 188.135 244.524 190.092C243.29 192.048 242.576 194.243 242.44 196.498C242.44 198.555 243.238 200.026 244.531 200.705L247.904 202.463C247.964 202.503 248.028 202.538 248.095 202.566L248.208 202.628C248.998 202.902 249.851 202.995 250.689 202.898C251.528 202.801 252.329 202.518 253.02 202.073C255.086 200.838 256.805 199.176 258.039 197.222C259.274 195.267 259.988 193.075 260.126 190.821C260.036 188.733 259.249 187.283 257.967 186.604Z" fill="black"/>
<path d="M260.036 190.8C259.898 193.054 259.184 195.247 257.949 197.201C256.715 199.156 254.996 200.817 252.93 202.052C248.995 204.109 245.813 202.443 245.813 198.298C245.946 196.042 246.661 193.847 247.897 191.892C249.134 189.937 250.859 188.276 252.93 187.046C256.854 184.969 260.036 186.645 260.036 190.8Z" fill="black"/>
<path opacity="0.3" d="M260.036 190.8C259.898 193.054 259.184 195.247 257.949 197.201C256.715 199.156 254.996 200.817 252.93 202.052C248.995 204.109 245.813 202.443 245.813 198.298C245.946 196.042 246.661 193.847 247.897 191.892C249.134 189.937 250.859 188.276 252.93 187.046C256.854 184.969 260.036 186.645 260.036 190.8Z" fill="black"/>
<path d="M240.54 144.899C237.317 142.622 233.369 141.369 229.297 141.33H228.296C224.172 141.29 220.054 141.634 216.007 142.359C216.749 142.359 217.491 142.359 218.256 142.359H216.007V144.272H218.098C225.306 144.496 232.135 147.275 237.143 152.021C242.152 156.768 244.946 163.11 244.936 169.706V177.8C244.936 178.12 245.009 178.437 245.151 178.729C245.293 179.022 245.501 179.283 245.76 179.498C246.02 179.712 246.326 179.874 246.659 179.973C246.991 180.072 247.343 180.106 247.691 180.073H247.949L250.198 179.436C250.048 179.479 249.894 179.506 249.737 179.518C250.407 179.435 251.021 179.129 251.461 178.658C251.9 178.188 252.135 177.586 252.121 176.967V169.459C252.098 155.873 245.678 148.571 240.54 144.899Z" fill="black"/>
<path d="M226.385 209.992C225.457 209.992 224.541 209.81 223.697 209.457L216.67 206.485C216.56 206.449 216.46 206.392 216.375 206.319C216.29 206.246 216.223 206.157 216.177 206.059C216.132 205.96 216.109 205.854 216.111 205.748C216.113 205.641 216.138 205.536 216.187 205.438C216.235 205.341 216.305 205.254 216.392 205.183C216.479 205.112 216.582 205.058 216.692 205.025C216.803 204.992 216.921 204.98 217.037 204.991C217.153 205.001 217.266 205.034 217.367 205.086L224.394 208.058C225.291 208.44 226.295 208.555 227.266 208.389C228.238 208.223 229.128 207.784 229.814 207.133L236.56 200.756C236.718 200.612 236.932 200.53 237.156 200.53C237.379 200.53 237.593 200.612 237.752 200.756C237.907 200.902 237.994 201.098 237.994 201.301C237.994 201.505 237.907 201.7 237.752 201.846L231.006 208.223C230.405 208.787 229.686 209.234 228.892 209.538C228.098 209.842 227.245 209.996 226.385 209.992Z" fill="black"/>
<path opacity="0.5" d="M226.385 209.992C225.457 209.992 224.541 209.81 223.697 209.457L216.67 206.485C216.56 206.449 216.46 206.392 216.375 206.319C216.29 206.246 216.223 206.157 216.177 206.059C216.132 205.96 216.109 205.854 216.111 205.748C216.113 205.641 216.138 205.536 216.187 205.438C216.235 205.341 216.305 205.254 216.392 205.183C216.479 205.112 216.582 205.058 216.692 205.025C216.803 204.992 216.921 204.98 217.037 204.991C217.153 205.001 217.266 205.034 217.367 205.086L224.394 208.058C225.291 208.44 226.295 208.555 227.266 208.389C228.238 208.223 229.128 207.784 229.814 207.133L236.56 200.756C236.718 200.612 236.932 200.53 237.156 200.53C237.379 200.53 237.593 200.612 237.752 200.756C237.907 200.902 237.994 201.098 237.994 201.301C237.994 201.505 237.907 201.7 237.752 201.846L231.006 208.223C230.405 208.787 229.686 209.234 228.892 209.538C228.098 209.842 227.245 209.996 226.385 209.992Z" fill="black"/>
<path d="M218.514 204.325C218.514 204.919 218.322 205.499 217.961 205.993C217.6 206.487 217.088 206.872 216.488 207.099C215.888 207.327 215.228 207.386 214.591 207.27C213.954 207.154 213.369 206.868 212.91 206.448C212.451 206.028 212.138 205.493 212.011 204.911C211.885 204.328 211.95 203.724 212.198 203.176C212.447 202.627 212.867 202.158 213.407 201.828C213.947 201.498 214.582 201.322 215.231 201.322C216.102 201.322 216.937 201.638 217.553 202.201C218.168 202.765 218.514 203.528 218.514 204.325Z" fill="black"/>
<path opacity="0.5" d="M218.514 204.325C218.514 204.919 218.322 205.499 217.961 205.993C217.6 206.487 217.088 206.872 216.488 207.099C215.888 207.327 215.228 207.386 214.591 207.27C213.954 207.154 213.369 206.868 212.91 206.448C212.451 206.028 212.138 205.493 212.011 204.911C211.885 204.328 211.95 203.724 212.198 203.176C212.447 202.627 212.867 202.158 213.407 201.828C213.947 201.498 214.582 201.322 215.231 201.322C216.102 201.322 216.937 201.638 217.553 202.201C218.168 202.765 218.514 203.528 218.514 204.325Z" fill="black"/>
<path d="M252.098 169.459V176.967C252.112 177.586 251.877 178.188 251.438 178.658C250.998 179.129 250.385 179.435 249.714 179.518C249.344 179.554 248.969 179.518 248.615 179.413C248.261 179.308 247.935 179.136 247.658 178.908C247.381 178.68 247.16 178.401 247.008 178.09C246.857 177.779 246.779 177.442 246.78 177.101V169.459C246.786 165.812 245.986 162.202 244.427 158.845C242.868 155.488 240.583 152.455 237.709 149.927C234.836 147.399 231.433 145.429 227.705 144.135C223.977 142.842 220.002 142.251 216.018 142.4C220.065 141.675 224.183 141.331 228.307 141.371H229.285C233.358 141.41 237.305 142.663 240.529 144.94C245.678 148.571 252.098 155.873 252.098 169.459Z" fill="black"/>
<path opacity="0.5" d="M252.098 169.459V176.967C252.112 177.586 251.877 178.188 251.438 178.658C250.998 179.129 250.385 179.435 249.714 179.518C249.344 179.554 248.969 179.518 248.615 179.413C248.261 179.308 247.935 179.136 247.658 178.908C247.381 178.68 247.16 178.401 247.008 178.09C246.857 177.779 246.779 177.442 246.78 177.101V169.459C246.786 165.812 245.986 162.202 244.427 158.845C242.868 155.488 240.583 152.455 237.709 149.927C234.836 147.399 231.433 145.429 227.705 144.135C223.977 142.842 220.002 142.251 216.018 142.4C220.065 141.675 224.183 141.331 228.307 141.371H229.285C233.358 141.41 237.305 142.663 240.529 144.94C245.678 148.571 252.098 155.873 252.098 169.459Z" fill="black"/>
<path d="M239.461 310.948C239.461 310.948 234.019 324.657 253.47 330.828C253.47 330.828 259.822 322.292 253.47 315.308C247.117 308.325 239.461 310.948 239.461 310.948Z" fill="black"/>
<path opacity="0.7" d="M239.461 310.948C239.461 310.948 234.019 324.657 253.47 330.828C253.47 330.828 259.822 322.292 253.47 315.308C247.117 308.325 239.461 310.948 239.461 310.948Z" fill="black"/>
<path d="M246.285 311.575C246.285 311.575 227.284 317.941 227.385 320.41C227.487 322.878 235.458 321.191 235.458 321.191L232.546 322.94C229.48 324.77 227.104 327.42 225.744 330.53C225.447 331.216 225.437 331.977 225.715 332.67C225.993 333.362 226.539 333.937 227.25 334.284L234.469 337.781C234.876 337.979 235.323 338.1 235.783 338.137C236.242 338.174 236.706 338.126 237.145 337.997C237.584 337.867 237.99 337.659 238.34 337.383C238.689 337.107 238.975 336.771 239.18 336.392C239.582 335.665 240.138 335.018 240.815 334.488C241.493 333.959 242.278 333.557 243.126 333.307C247.05 332.114 254.369 328.679 257.304 319.278L246.285 311.575Z" fill="#945959"/>
<path d="M251.986 223.259C251.986 223.259 241.867 228.402 247.241 244.014C252.615 259.626 262.7 283.847 262.7 283.847L239.46 310.948C241.943 311.222 244.335 311.971 246.48 313.148C248.624 314.325 250.474 315.902 251.907 317.777C253.28 319.683 254.137 321.861 254.409 324.13C254.681 326.399 254.359 328.695 253.47 330.828L282.32 296.888C284.988 293.752 286.759 290.056 287.474 286.136C288.189 282.216 287.824 278.195 286.413 274.436L274.045 241.402C272.533 237.366 270.021 233.706 266.705 230.706C263.389 227.707 259.359 225.45 254.931 224.113L251.986 223.259Z" fill="white"/>
<path d="M81.1769 131.035L36.4622 107.38C35.9476 107.054 35.3522 106.85 34.7299 106.787C34.1076 106.725 33.478 106.805 32.898 107.02C32.7758 107.072 32.6591 107.134 32.5495 107.205L22.824 112.42H22.8914C21.6659 113.057 20.8901 114.538 20.8901 116.657V162.157C20.8901 166.004 23.4424 170.478 26.6018 172.144L71.3165 195.799C71.8839 196.174 72.5592 196.389 73.2588 196.416C73.9583 196.444 74.6513 196.283 75.2517 195.953C75.2213 195.964 75.1943 195.982 75.173 196.005L84.831 190.862C86.0903 190.245 86.8885 188.743 86.8885 186.594V141.022C86.8885 137.175 84.3813 132.701 81.1769 131.035Z" fill="#680000"/>
<path d="M85.2922 135.345C84.3876 133.585 82.962 132.092 81.1772 131.035L36.4624 107.38C35.9478 107.054 35.3525 106.85 34.7302 106.787C34.1079 106.725 33.4782 106.805 32.8983 107.02C32.776 107.072 32.6593 107.134 32.5497 107.205L22.8242 112.42C23.4191 112.142 24.0862 112.018 24.7525 112.064C25.4188 112.109 26.0586 112.321 26.602 112.677L71.3167 136.332C73.1623 137.436 74.6251 138.999 75.533 140.837L85.2922 135.345Z" fill="#0C0055"/>
<path d="M77.028 191.798C77.028 193.855 76.3084 195.285 75.1729 195.912L84.8309 190.77C86.0901 190.152 86.8884 188.651 86.8884 186.501V141.022C86.8409 139.042 86.2945 137.099 85.2919 135.345L75.5326 140.837C76.4697 142.54 76.9805 144.412 77.028 146.319V191.798Z" fill="#0C0055"/>
<path opacity="0.3" d="M85.2922 135.345C84.3876 133.585 82.962 132.092 81.1772 131.035L36.4624 107.38C35.9478 107.054 35.3525 106.85 34.7302 106.787C34.1079 106.725 33.4782 106.805 32.8982 107.02C32.776 107.072 32.6593 107.134 32.5497 107.205L22.8242 112.42C23.4191 112.142 24.0862 112.018 24.7525 112.064C25.4188 112.109 26.0586 112.321 26.602 112.677L71.3167 136.332C73.1623 137.436 74.6251 138.999 75.533 140.837L85.2922 135.345Z" fill="#FF0000"/>
<path opacity="0.6" d="M77.028 191.798C77.028 193.855 76.3084 195.285 75.1729 195.912L84.8309 190.77C86.0901 190.152 86.8884 188.651 86.8884 186.501V141.022C86.8409 139.042 86.2945 137.099 85.2919 135.345L75.5326 140.837C76.4697 142.54 76.9805 144.412 77.028 146.319V191.798Z" fill="#A70303"/>
<path d="M63.9184 159.349C63.9184 165.243 61.3661 167.248 57.5434 165.222C56.4889 164.673 55.5667 163.934 54.8325 163.05C54.0982 162.167 53.5671 161.156 53.2709 160.08C52.1466 161.345 50.4039 161.427 47.9528 160.131C43.9277 158.002 40.7571 152.932 40.7571 148.005C40.7571 143.079 43.894 141.382 47.9528 143.521C50.0124 144.631 51.6761 146.264 52.7425 148.221V146.277L56.9812 148.519V159.175C56.9181 159.735 57.0241 160.301 57.2877 160.811C57.5514 161.32 57.9625 161.754 58.4766 162.065C59.9045 162.826 60.7815 161.54 60.7815 157.724C60.7815 151.05 56.1043 143.974 49.1896 140.322C42.2749 136.671 37.609 139.212 37.609 146.082C37.6996 149.728 38.7977 153.293 40.8011 156.445C42.8044 159.598 45.6477 162.235 49.0659 164.111C50.9219 165.157 53.0295 165.771 55.2048 165.901L56.2055 169.449C53.6726 169.262 51.225 168.525 49.0659 167.3C40.0713 162.538 34.1235 152.952 34.1235 144.272C34.1235 135.591 40.1275 132.444 49.1896 137.237C57.9482 141.855 63.9184 151.101 63.9184 159.349ZM52.81 154.402C52.8318 153.098 52.4839 151.811 51.8002 150.667C51.1165 149.522 50.1202 148.559 48.9085 147.872C46.6599 146.668 45.0521 147.512 45.0521 150.309C45.0231 151.615 45.3628 152.906 46.0384 154.058C46.7139 155.209 47.7024 156.181 48.9085 156.881C51.1572 158.043 52.81 157.292 52.81 154.402Z" fill="#0C0055"/>
<g opacity="0.9">
<path d="M63.9184 159.349C63.9184 165.243 61.3661 167.248 57.5434 165.222C56.4889 164.673 55.5667 163.934 54.8325 163.05C54.0982 162.167 53.5671 161.156 53.2709 160.08C52.1466 161.345 50.4039 161.427 47.9528 160.131C43.9277 158.002 40.7571 152.932 40.7571 148.005C40.7571 143.079 43.894 141.382 47.9528 143.521C50.0124 144.631 51.6761 146.264 52.7425 148.221V146.277L56.9812 148.519V159.175C56.9181 159.735 57.0241 160.301 57.2877 160.811C57.5514 161.32 57.9625 161.754 58.4766 162.065C59.9045 162.826 60.7815 161.54 60.7815 157.724C60.7815 151.05 56.1043 143.974 49.1896 140.322C42.2749 136.671 37.609 139.212 37.609 146.082C37.6996 149.728 38.7977 153.293 40.8011 156.445C42.8044 159.598 45.6477 162.235 49.0659 164.111C50.9219 165.157 53.0295 165.771 55.2048 165.901L56.2055 169.449C53.6726 169.262 51.225 168.525 49.0659 167.3C40.0713 162.538 34.1235 152.952 34.1235 144.272C34.1235 135.591 40.1275 132.444 49.1896 137.237C57.9482 141.855 63.9184 151.101 63.9184 159.349ZM52.81 154.402C52.8318 153.098 52.4839 151.811 51.8002 150.667C51.1165 149.522 50.1202 148.559 48.9085 147.872C46.6599 146.668 45.0521 147.512 45.0521 150.309C45.0231 151.615 45.3628 152.906 46.0384 154.058C46.7139 155.209 47.7024 156.181 48.9085 156.881C51.1572 158.043 52.81 157.292 52.81 154.402Z" fill="white"/>
</g>
<path d="M81.1769 212.059L36.4622 188.404C35.9483 188.076 35.3522 187.872 34.7291 187.811C34.1061 187.75 33.4762 187.833 32.898 188.054C32.7758 188.106 32.6591 188.168 32.5495 188.239L22.824 193.454H22.8914C21.6659 194.092 20.8901 195.573 20.8901 197.681V243.16C20.8901 247.017 23.4424 251.481 26.6018 253.147L71.3165 276.802C71.8827 277.18 72.5584 277.396 73.2586 277.424C73.9588 277.451 74.6523 277.289 75.2517 276.956L75.173 277.018L84.831 271.824C86.0903 271.217 86.8885 269.767 86.8885 267.556V222.035C86.8885 218.189 84.3813 213.725 81.1769 212.059Z" fill="#005513"/>
<path d="M85.2922 216.368C84.3906 214.607 82.9644 213.113 81.1772 212.059L36.4624 188.404C35.9485 188.076 35.3524 187.872 34.7294 187.811C34.1063 187.75 33.4765 187.833 32.8983 188.054C32.776 188.106 32.6593 188.168 32.5497 188.239L22.8242 193.454C23.4178 193.173 24.0845 193.048 24.7511 193.091C25.4176 193.135 26.0581 193.346 26.602 193.701L71.3167 217.356C73.1652 218.461 74.6285 220.028 75.533 221.871L85.2922 216.368Z" fill="#0C0055"/>
<path d="M77.028 272.811C77.028 274.868 76.3084 276.298 75.1729 276.977L84.8309 271.783C86.0901 271.176 86.8884 269.726 86.8884 267.515V222.035C86.8408 220.059 86.2944 218.12 85.2919 216.368L75.5326 221.86C76.4695 223.56 76.9803 225.429 77.028 227.332V272.811Z" fill="#044813"/>
<path opacity="0.3" d="M85.2922 216.368C84.3906 214.607 82.9644 213.113 81.1772 212.059L36.4624 188.404C35.9485 188.076 35.3524 187.872 34.7294 187.811C34.1063 187.75 33.4765 187.833 32.8982 188.054C32.776 188.106 32.6593 188.168 32.5497 188.239L22.8242 193.454C23.4178 193.173 24.0845 193.048 24.7511 193.091C25.4176 193.135 26.0581 193.346 26.602 193.701L71.3167 217.356C73.1652 218.461 74.6285 220.028 75.533 221.871L85.2922 216.368Z" fill="#33FE00"/>
<path d="M43.9616 232.392L33.1792 216.368V238.08L43.9616 232.392Z" fill="#0C0055"/>
<path d="M53.9795 237.01L64.7394 254.052V232.372L53.9795 237.01Z" fill="#0C0055"/>
<path d="M34.8096 215.638L45.8843 232.094C45.9311 232.13 45.9727 232.171 46.0079 232.217C46.0177 232.258 46.0177 232.3 46.0079 232.341L49.3022 237.236L52.0906 236.033C52.134 235.99 52.1831 235.952 52.2367 235.92C52.3467 235.861 52.4697 235.826 52.5965 235.817L63.8399 230.993L34.8096 215.638Z" fill="#0C0055"/>
<path d="M52.349 237.709L49.3358 239.005C49.2197 239.055 49.0928 239.079 48.9648 239.077C48.8096 239.079 48.6566 239.044 48.5207 238.975C48.3847 238.907 48.2705 238.807 48.189 238.686L44.8947 233.791L34.0786 239.509L63.1876 254.875L52.349 237.709Z" fill="#0C0055"/>
<g opacity="0.9">
<path d="M43.9616 232.392L33.1792 216.369V238.08L43.9616 232.392Z" fill="white"/>
<path d="M53.9795 237.01L64.7394 254.052V232.372L53.9795 237.01Z" fill="white"/>
<path d="M34.8098 215.638L45.8845 232.094C45.9314 232.13 45.973 232.171 46.0082 232.217C46.0179 232.258 46.0179 232.3 46.0082 232.341L49.3025 237.236L52.0908 236.033C52.1342 235.99 52.1833 235.952 52.237 235.92C52.3469 235.861 52.4699 235.826 52.5968 235.817L63.8401 230.993L34.8098 215.638Z" fill="white"/>
<path d="M52.349 237.709L49.3358 239.005C49.2197 239.055 49.0928 239.079 48.9648 239.077C48.8096 239.079 48.6566 239.044 48.5207 238.975C48.3847 238.907 48.2705 238.807 48.189 238.687L44.8947 233.791L34.0786 239.509L63.1876 254.875L52.349 237.709Z" fill="white"/>
</g>
<path d="M81.1769 50.0526L36.4622 26.3975C35.9483 26.0694 35.3522 25.8654 34.7291 25.8043C34.1061 25.7431 33.4762 25.8269 32.898 26.0478C32.7758 26.0995 32.6591 26.1614 32.5495 26.2329L22.824 31.4473H22.8914C21.6659 32.0747 20.8901 33.566 20.8901 35.6744V81.1539C20.8901 85.0004 23.4424 89.4743 26.6018 91.1404L71.3165 114.796C71.8827 115.173 72.5584 115.39 73.2586 115.417C73.9588 115.445 74.6523 115.282 75.2517 114.95L75.173 115.001L84.831 109.859C86.0903 109.252 86.8885 107.802 86.8885 105.591V59.998C86.8885 56.1515 84.3813 51.6776 81.1769 50.0526Z" fill="#0C0055"/>
<path d="M85.2922 54.3311C84.3909 52.5665 82.9648 51.0695 81.1772 50.0114L36.4624 26.3975C35.9485 26.0694 35.3524 25.8654 34.7294 25.8043C34.1063 25.7431 33.4765 25.8269 32.8983 26.0478C32.776 26.0995 32.6593 26.1614 32.5497 26.2329L22.8242 31.4473C23.4178 31.1666 24.0845 31.0411 24.7511 31.0846C25.4176 31.1282 26.0581 31.3391 26.602 31.6942L71.3167 55.3493C73.1652 56.4545 74.6285 58.0215 75.533 59.8643L85.2922 54.3311Z" fill="#0C0055"/>
<path d="M77.028 110.733C77.028 112.79 76.3084 114.22 75.1729 114.847L84.8309 109.705C86.0901 109.098 86.8884 107.648 86.8884 105.436V59.998C86.8408 58.0218 86.2944 56.0823 85.2919 54.3311L75.5326 59.8232C76.4695 61.5227 76.9803 63.3919 77.028 65.2947V110.733Z" fill="#0C0055"/>
<path opacity="0.3" d="M85.2922 54.3311C84.3909 52.5665 82.9648 51.0695 81.1772 50.0114L36.4624 26.3975C35.9485 26.0694 35.3524 25.8654 34.7294 25.8043C34.1063 25.7431 33.4765 25.8269 32.8983 26.0478C32.776 26.0995 32.6593 26.1614 32.5497 26.2329L22.8242 31.4473C23.4178 31.1666 24.0845 31.0411 24.7511 31.0846C25.4176 31.1282 26.0581 31.3391 26.602 31.6942L71.3167 55.3493C73.1652 56.4545 74.6285 58.0215 75.533 59.8643L85.2922 54.3311Z" fill="black"/>
<path opacity="0.6" d="M77.028 110.733C77.028 112.79 76.3084 114.22 75.1729 114.847L84.8309 109.705C86.0901 109.098 86.8884 107.648 86.8884 105.436V59.998C86.8408 58.0218 86.2944 56.0823 85.2919 54.3311L75.5326 59.8232C76.4695 61.5227 76.9803 63.3919 77.028 65.2947V110.733Z" fill="black"/>
<path d="M62.4005 91.1919C60.6803 88.6001 58.9488 86.0495 57.2286 83.4371C56.9558 82.9423 56.5743 82.5043 56.1081 82.1503C55.6419 81.7964 55.1009 81.5342 54.519 81.3801C53.687 81.2259 52.8549 81.051 52.0005 80.8248C51.6961 80.7087 51.4402 80.507 51.2696 80.2488C48.4548 75.8419 46.2169 71.1471 44.6023 66.2615C44.568 66.157 44.5583 66.0471 44.5738 65.9389C44.5893 65.8308 44.6297 65.7269 44.6923 65.6341C45.2207 65.1507 45.8166 64.7085 46.3563 64.2765C46.896 63.8445 47.1771 62.8469 46.7835 61.551C45.9515 58.805 45.1533 56.0589 44.3213 53.3232C44.1603 52.5458 43.7783 51.821 43.2138 51.2216C42.6493 50.6222 41.9222 50.1693 41.1057 49.9086C39.2925 49.4475 37.3677 49.5122 35.5964 50.0937C34.9106 50.3303 34.5508 50.8959 34.5396 51.873C34.8319 53.7551 35.023 55.6167 35.4165 57.5296C38.1899 71.325 44.8609 84.0096 55.4297 95.5835C55.7056 95.9673 56.0763 96.2864 56.5118 96.5151C56.9473 96.7437 57.4355 96.8756 57.9369 96.8999C59.6867 96.8619 61.3677 96.2693 62.6929 95.2235C63.6935 94.4007 63.5923 92.9403 62.4005 91.1919Z" fill="#0C0055"/>
<path d="M62.2656 77.1737C62.0304 74.2154 61.1391 71.3319 59.6459 68.699C58.5311 66.6422 57.1124 64.7353 55.4297 63.0321C54.9912 62.5795 54.6202 62.4355 54.3953 62.7749C54.1704 63.1143 54.3953 63.5977 54.8225 64.04L55.261 64.5028C58.3687 67.7842 60.3272 71.8438 60.8827 76.1555C60.8772 76.47 60.9112 76.784 60.9839 77.0914C61.1251 77.4451 61.3519 77.7651 61.6472 78.0273C61.8834 78.1816 62.1532 78.0273 62.3443 78.0273C62.2769 77.6057 62.2881 77.3897 62.2656 77.1737Z" fill="#0C0055"/>
<path d="M52.079 68.7299C53.4909 70.1504 54.3488 71.9587 54.5188 73.8723C54.5928 74.1632 54.7101 74.4435 54.8673 74.7053C55.5532 75.2196 55.8905 75.0447 55.8905 74.3968C55.6501 71.9432 54.5408 69.6285 52.7311 67.8042C52.3038 67.4031 51.9553 67.2797 51.7529 67.6191C51.6801 67.8129 51.6723 68.0222 51.7304 68.2201C51.7885 68.418 51.9098 68.5955 52.079 68.7299Z" fill="#0C0055"/>
<g opacity="0.9">
<path d="M62.4005 91.1919C60.6803 88.6001 58.9488 86.0495 57.2286 83.4371C56.9558 82.9423 56.5743 82.5043 56.1081 82.1503C55.6419 81.7964 55.1009 81.5342 54.519 81.3801C53.687 81.2259 52.8549 81.051 52.0005 80.8248C51.6961 80.7087 51.4402 80.507 51.2696 80.2488C48.4548 75.8419 46.2169 71.1471 44.6023 66.2615C44.568 66.157 44.5583 66.0471 44.5738 65.9389C44.5893 65.8308 44.6297 65.7269 44.6923 65.6341C45.2207 65.1507 45.8166 64.7085 46.3563 64.2765C46.896 63.8445 47.1771 62.8469 46.7835 61.551C45.9515 58.805 45.1533 56.0589 44.3213 53.3232C44.1603 52.5458 43.7783 51.821 43.2138 51.2216C42.6493 50.6222 41.9222 50.1693 41.1057 49.9086C39.2925 49.4475 37.3677 49.5122 35.5964 50.0937C34.9106 50.3303 34.5508 50.8959 34.5396 51.873C34.8319 53.7551 35.023 55.6167 35.4165 57.5296C38.1899 71.325 44.8609 84.0096 55.4297 95.5835C55.7056 95.9673 56.0763 96.2864 56.5118 96.5151C56.9473 96.7437 57.4355 96.8756 57.9369 96.8999C59.6867 96.8619 61.3677 96.2693 62.6929 95.2235C63.6935 94.4007 63.5923 92.9403 62.4005 91.1919Z" fill="white"/>
<path d="M62.2656 77.1736C62.0304 74.2153 61.1391 71.3319 59.6459 68.6989C58.5311 66.6421 57.1124 64.7353 55.4297 63.032C54.9912 62.5795 54.6202 62.4355 54.3953 62.7749C54.1704 63.1143 54.3953 63.5977 54.8225 64.0399L55.261 64.5027C58.3687 67.7841 60.3272 71.8438 60.8827 76.1554C60.8772 76.4699 60.9112 76.7839 60.9839 77.0914C61.1251 77.4451 61.3519 77.765 61.6472 78.0273C61.8834 78.1815 62.1532 78.0273 62.3443 78.0273C62.2769 77.6056 62.2881 77.3896 62.2656 77.1736Z" fill="white"/>
<path d="M52.0795 68.7298C53.4914 70.1504 54.3493 71.9586 54.5193 73.8722C54.5933 74.1632 54.7106 74.4434 54.8678 74.7053C55.5537 75.2195 55.891 75.0447 55.891 74.3967C55.6506 71.9432 54.5413 69.6284 52.7316 67.8042C52.3043 67.4031 51.9558 67.2796 51.7534 67.619C51.6806 67.8128 51.6728 68.0221 51.7308 68.22C51.7889 68.4179 51.9103 68.5954 52.0795 68.7298Z" fill="white"/>
</g>
<path d="M310.597 22.7772L321.132 28.259V24.8445C321.132 24.6079 321.132 24.3611 321.132 24.1246C321.132 23.888 321.132 23.6617 321.132 23.4355V23.312C321.515 18.797 325.259 17.0589 329.823 19.4758C331.89 20.6386 333.661 22.192 335.018 24.032C336.041 17.8611 341.517 15.6807 348.139 19.1673C355.492 23.0549 361.451 32.5375 361.451 40.2717V47.5739C361.441 48.1581 361.598 48.7344 361.908 49.2453C362.218 49.7561 362.669 50.1835 363.216 50.4845L369.423 53.8065C370.762 54.533 371.872 55.5651 372.645 56.8018C373.417 58.0385 373.826 59.4375 373.83 60.8619C373.83 61.4529 373.66 62.0334 373.337 62.5451C373.014 63.0569 372.549 63.4816 371.989 63.7767C371.43 64.0718 370.795 64.2268 370.149 64.2261C369.503 64.2253 368.868 64.0689 368.309 63.7725L310.755 33.3398C309.228 32.5286 307.96 31.3662 307.076 29.9679C306.192 28.5696 305.724 26.9841 305.718 25.369C305.717 24.8462 305.867 24.3325 306.152 23.8793C306.437 23.4261 306.847 23.0493 307.341 22.7868C307.835 22.5243 308.396 22.3853 308.968 22.3836C309.539 22.3819 310.101 22.5176 310.597 22.7772Z" fill="#E6E6E6"/>
<path d="M390.909 21.3477L398.566 25.369V22.8595C398.566 22.6847 398.566 22.5099 398.566 22.335C398.566 22.1602 398.566 21.9956 398.566 21.8311V21.7693C398.847 18.4885 401.568 17.2235 404.884 18.9822C406.386 19.824 407.674 20.9496 408.662 22.2836C409.415 17.82 413.396 16.2053 418.208 18.7456C423.559 21.5739 427.888 28.4442 427.888 34.0906V39.4078C427.892 39.8246 428.015 40.2334 428.243 40.5939C428.472 40.9545 428.799 41.2546 429.192 41.4648L433.69 43.8817C434.668 44.4081 435.479 45.1599 436.041 46.0622C436.604 46.9644 436.898 47.9856 436.894 49.0241C436.893 49.4495 436.771 49.8673 436.54 50.2364C436.309 50.6056 435.977 50.9133 435.577 51.1292C435.176 51.3451 434.721 51.4618 434.256 51.4678C433.791 51.4738 433.332 51.3689 432.925 51.1634L391.021 29.0304C389.911 28.4428 388.989 27.5986 388.348 26.5823C387.706 25.5661 387.368 24.4135 387.367 23.2401C387.366 22.8603 387.475 22.487 387.681 22.1574C387.887 21.8278 388.184 21.5536 388.543 21.362C388.901 21.1705 389.309 21.0683 389.724 21.0658C390.139 21.0633 390.548 21.1605 390.909 21.3477Z" fill="#E6E6E6"/>
<defs>
<linearGradient id="paint0_linear_220_2231" x1="223.841" y1="217.407" x2="223.841" y2="320.403" gradientUnits="userSpaceOnUse">
<stop stop-color="white"/>
<stop offset="0.46875" stop-color="#8E9AFF"/>
<stop offset="1" stop-color="#79FFC7"/>
</linearGradient>
</defs>
</svg>
