<svg width="181" height="160" viewBox="0 0 181 160" fill="none" xmlns="http://www.w3.org/2000/svg">
<path d="M97.2913 132.041C97.2913 129.052 97.643 126.151 98.0826 123.25H18.1663V35.3332L88.4997 79.2915L158.833 35.3332V80.0827C165.163 81.1377 171.053 83.3357 176.416 86.4128V17.7498C176.416 8.079 168.504 0.166504 158.833 0.166504H18.1663C8.49551 0.166504 0.583008 8.079 0.583008 17.7498V123.25C0.583008 132.921 8.49551 140.833 18.1663 140.833H98.0826C97.643 137.932 97.2913 135.031 97.2913 132.041ZM158.833 17.7498L88.4997 61.7082L18.1663 17.7498H158.833ZM139.052 159.823L114.875 133.448L125.073 123.25L139.052 137.229L170.614 105.666L180.812 118.063L139.052 159.823Z" fill="#32D74B"/>
</svg>
