<svg xmlns="http://www.w3.org/2000/svg" viewBox="0 0 500 500"><g id="freepik--background-complete--inject-374"><g><path d="M413.15,297.56c15.99-3.57,31.85,6.51,35.42,22.5,3.57,15.99-6.51,31.85-22.5,35.42-15.99,3.57-31.84-6.5-35.42-22.49-3.57-15.99,6.49-31.86,22.49-35.43h.01Z" style="fill:#ebebeb;"></path><path d="M396.65,317.2c-.02-2.06-1.39-3.87-3.37-4.45-1.46,2.78-2.47,5.77-3,8.86,.52,.19,1.06,.29,1.62,.3,2.6,.02,4.73-2.08,4.75-4.68v-.03Z" style="fill:#e0e0e0; isolation:isolate;"></path><path d="M444.61,330.3c0,2.09,1.36,3.93,3.37,4.51,.9-2.96,1.33-6.04,1.28-9.13-2.55,0-4.63,2.06-4.65,4.61Z" style="fill:#e0e0e0; isolation:isolate;"></path><path d="M415.57,310.87c-.02-2.59-2.13-4.67-4.72-4.65-2.59,.02-4.67,2.13-4.65,4.72,.02,2.52,2.03,4.57,4.55,4.64,2.6,.06,4.76-2.01,4.82-4.61,0-.03,0-.07,0-.1Z" style="fill:#e0e0e0; isolation:isolate;"></path><path d="M431.13,335.25c1.67,0,3.03,1.36,3.03,3.03s-1.36,3.03-3.03,3.03-3.03-1.36-3.03-3.03,1.36-3.03,3.03-3.03Z" style="fill:#e0e0e0; isolation:isolate;"></path><path d="M442.52,339.83c0,1.32,.86,2.48,2.12,2.86,1.08-1.66,1.99-3.42,2.73-5.25-1.3-1.02-3.19-.8-4.21,.5-.42,.54-.65,1.2-.64,1.89Z" style="fill:#e0e0e0; isolation:isolate;"></path><path d="M434.57,351.25c-.02,.28-.02,.56,0,.84,3.3-1.95,6.19-4.51,8.52-7.54-3.57-1.04-7.31,1-8.36,4.57-.21,.7-.29,1.43-.27,2.16l.1-.03Z" style="fill:#e0e0e0; isolation:isolate;"></path><path d="M393.18,328.82c0-2.29-1.14-4.43-3.03-5.73-.38,3.31-.21,6.65,.51,9.9,0,.3,0,.61,.24,.91,1.46-1.28,2.3-3.14,2.29-5.09Z" style="fill:#e0e0e0; isolation:isolate;"></path><path d="M407.05,300.05v-.37c-4.98,2.34-9.21,6.01-12.23,10.61,.62,.05,1.24,.05,1.85,0,5.67-.02,10.28-4.57,10.37-10.24Z" style="fill:#e0e0e0; isolation:isolate;"></path><path d="M421.16,301.57c2.56-.02,4.9-1.45,6.1-3.7-4.08-1.07-8.34-1.26-12.5-.57,1.03,2.62,3.58,4.33,6.4,4.28Z" style="fill:#e0e0e0; isolation:isolate;"></path><path d="M419.62,348.22c-1.69-.02-3.08,1.34-3.1,3.03-.02,1.69,1.34,3.08,3.03,3.1,1.69,.02,3.08-1.34,3.1-3.03,0-.02,0-.04,0-.07,0-1.67-1.36-3.03-3.03-3.03Z" style="fill:#e0e0e0; isolation:isolate;"></path><path d="M413.05,353.77c-.89,0-1.73,.39-2.29,1.08,1.69,.51,3.41,.88,5.15,1.11-.35-1.29-1.52-2.19-2.86-2.19Z" style="fill:#e0e0e0; isolation:isolate;"></path><path d="M401.02,346.6c-.85,.02-1.66,.4-2.22,1.04,1.41,1.42,2.97,2.69,4.65,3.77,.4-.5,.62-1.11,.64-1.75,0-1.69-1.37-3.07-3.06-3.07h0Z" style="fill:#e0e0e0; isolation:isolate;"></path><path d="M435.95,321.34c.39,0,.71-.32,.71-.71,0-.39-.32-.71-.71-.71-.39,0-.71,.32-.71,.71h0c.02,.38,.32,.69,.71,.71Z" style="fill:#e0e0e0; isolation:isolate;"></path><path d="M440.06,309.96c.39,0,.71-.32,.71-.71s-.32-.71-.71-.71c-.37,0-.67,.3-.67,.67v.03c0,.38,.3,.69,.67,.71Z" style="fill:#e0e0e0; isolation:isolate;"></path><path d="M445.41,321.34c.39,0,.71-.32,.71-.71,0-.39-.32-.71-.71-.71-.39,0-.71,.32-.71,.71h0c0,.39,.32,.71,.71,.71Z" style="fill:#e0e0e0; isolation:isolate;"></path><path d="M421.06,303.86c.37,0,.67-.3,.67-.67h0c.02-.37-.27-.69-.64-.71h-.03c-.39,0-.71,.32-.71,.71,0,.37,.3,.67,.67,.67h.03Z" style="fill:#e0e0e0; isolation:isolate;"></path><path d="M412.21,316.52c-.37,0-.67,.3-.67,.67h0c-.02,.37,.27,.69,.64,.71h.03c.39,0,.71-.32,.71-.71,0-.37-.3-.67-.67-.67h-.03Z" style="fill:#e0e0e0; isolation:isolate;"></path><path d="M407.46,336.09c0-.37-.3-.67-.67-.67h-.03c-.37,0-.67,.3-.67,.67h0c-.02,.37,.27,.69,.64,.71h.03c.39,0,.71-.32,.71-.71Z" style="fill:#e0e0e0; isolation:isolate;"></path><path d="M395.94,328.14c0,.39,.32,.71,.71,.71s.71-.32,.71-.71-.32-.71-.71-.71h0c-.39,0-.71,.32-.71,.71Z" style="fill:#e0e0e0; isolation:isolate;"></path><path d="M426.49,331.48c0,.39,.32,.71,.71,.71s.71-.32,.71-.71-.32-.71-.71-.71h0c-.39,0-.71,.32-.71,.71Z" style="fill:#e0e0e0; isolation:isolate;"></path><path d="M426.49,322.22c.39,0,.71,.32,.71,.71s-.32,.71-.71,.71-.71-.32-.71-.71,.32-.71,.71-.71Z" style="fill:#e0e0e0; isolation:isolate;"></path><path d="M432.78,344.31c-.37,0-.67,.3-.67,.67v.03c0,.37,.3,.67,.67,.67h0c.37,.02,.69-.27,.71-.64v-.03c0-.39-.32-.71-.71-.71Z" style="fill:#e0e0e0; isolation:isolate;"></path><path d="M401.73,312.52c.39,0,.71-.32,.71-.71,0-.39-.32-.7-.71-.71-.39,0-.71,.31-.71,.71,0,.39,.31,.71,.71,.71h0Z" style="fill:#e0e0e0; isolation:isolate;"></path><path d="M416.55,311.54c.37,.02,.69-.27,.71-.64v-.03c0-.39-.32-.71-.71-.71-.37,0-.67,.3-.67,.67v.03c0,.37,.3,.67,.67,.67h0Z" style="fill:#e0e0e0; isolation:isolate;"></path><path d="M415.88,346.6c-.39-.02-.72,.28-.74,.67-.02,.39,.28,.72,.67,.74,.39,.02,.72-.28,.74-.67v-.03c0-.38-.3-.69-.67-.71Z" style="fill:#e0e0e0; isolation:isolate;"></path><path d="M414.23,338.28c-.37-.02-.69,.27-.71,.64v.03c0,.39,.32,.71,.71,.71,.37,0,.67-.3,.67-.67v-.03c0-.37-.3-.67-.67-.67h0Z" style="fill:#e0e0e0; isolation:isolate;"></path><path d="M397.32,342.19c-.37,0-.67,.3-.67,.67v.03c0,.37,.3,.67,.67,.67h0c.37,.02,.69-.27,.71-.64v-.03c0-.39-.32-.71-.71-.71Z" style="fill:#e0e0e0; isolation:isolate;"></path><path d="M424.26,353.61c-.39,0-.71,.32-.71,.71,0,.39,.32,.71,.71,.71s.71-.32,.71-.71h0c0-.39-.32-.71-.71-.71Z" style="fill:#e0e0e0; isolation:isolate;"></path><path d="M428.1,312.45c.89,0,1.62-.72,1.62-1.62s-.72-1.62-1.62-1.62c-.89,0-1.62,.72-1.62,1.62v.03c0,.87,.71,1.58,1.58,1.58h.03Z" style="fill:#e0e0e0; isolation:isolate;"></path><path d="M428.1,304.77c.89,0,1.62-.72,1.62-1.62s-.72-1.62-1.62-1.62c-.89,0-1.62,.72-1.62,1.62v.03c0,.87,.71,1.58,1.58,1.58h.03Z" style="fill:#e0e0e0; isolation:isolate;"></path><path d="M410.76,304.77c.93,0,1.68-.75,1.68-1.68s-.75-1.68-1.68-1.68-1.68,.75-1.68,1.68,.75,1.68,1.68,1.68Z" style="fill:#e0e0e0; isolation:isolate;"></path><path d="M424.26,346.6c0-.89-.72-1.62-1.62-1.62s-1.62,.72-1.62,1.62,.72,1.62,1.62,1.62c.87,.02,1.6-.67,1.62-1.55,0-.02,0-.05,0-.07Z" style="fill:#e0e0e0; isolation:isolate;"></path><path d="M407.46,348.05c-.89,0-1.62,.72-1.62,1.62s.72,1.62,1.62,1.62c.89,0,1.62-.72,1.62-1.62s-.72-1.62-1.62-1.62h0Z" style="fill:#e0e0e0; isolation:isolate;"></path><path d="M401.73,341.95c.89,0,1.62,.72,1.62,1.62s-.72,1.62-1.62,1.62-1.62-.72-1.62-1.62,.72-1.62,1.62-1.62Z" style="fill:#e0e0e0; isolation:isolate;"></path><path d="M428.1,349.67c-.89-.02-1.63,.69-1.65,1.58-.02,.89,.69,1.63,1.58,1.65,.89,.02,1.63-.69,1.65-1.58,0-.02,0-.04,0-.07,0-.87-.71-1.58-1.58-1.58h0Z" style="fill:#e0e0e0; isolation:isolate;"></path><path d="M417.26,329.76c.89,0,1.62-.72,1.62-1.62s-.72-1.62-1.62-1.62-1.62,.72-1.62,1.62c.02,.89,.73,1.6,1.62,1.62Z" style="fill:#e0e0e0; isolation:isolate;"></path><path d="M440.06,334.68c.89,.02,1.63-.69,1.65-1.58,.02-.89-.69-1.63-1.58-1.65-.89-.02-1.63,.69-1.65,1.58,0,.02,0,.04,0,.07,0,.87,.71,1.58,1.58,1.58h0Z" style="fill:#e0e0e0; isolation:isolate;"></path><path d="M403.35,325.69c-.89-.02-1.63,.69-1.65,1.58-.02,.89,.69,1.63,1.58,1.65,.89,.02,1.63-.69,1.65-1.58,0-.02,0-.04,0-.07,0-.87-.71-1.58-1.58-1.58h0Z" style="fill:#e0e0e0; isolation:isolate;"></path><path d="M396.65,321.88c.89,0,1.62,.72,1.62,1.62s-.72,1.62-1.62,1.62-1.62-.72-1.62-1.62,.72-1.62,1.62-1.62Z" style="fill:#e0e0e0; isolation:isolate;"></path></g><g><path d="M285.64,92.9c12.03-2.68,23.97,4.9,26.65,16.93,2.68,12.03-4.9,23.97-16.93,26.65-12.03,2.68-23.96-4.89-26.65-16.92-2.69-12.03,4.89-23.97,16.92-26.66h0Z" style="fill:#ebebeb;"></path><path d="M306.98,108.2c1.27,.01,2.32-1.01,2.33-2.28,.01-1.27-1.01-2.32-2.28-2.33-1.27-.01-2.32,1.01-2.33,2.28,0,.02,0,.03,0,.05,0,1.26,1.02,2.28,2.28,2.28Z" style="fill:#e0e0e0; isolation:isolate;"></path><path d="M299.47,97.08c.13,1.27,1.27,2.19,2.53,2.05,1.08-.11,1.94-.97,2.05-2.05h0c-.99-.75-2.04-1.42-3.14-2-.83,.33-1.39,1.11-1.44,2Z" style="fill:#e0e0e0; isolation:isolate;"></path><path d="M274.79,118.36c-1.95,0-3.52,1.58-3.52,3.52s1.58,3.52,3.52,3.52,3.52-1.58,3.52-3.52c-.01-1.94-1.58-3.51-3.52-3.52Z" style="fill:#e0e0e0; isolation:isolate;"></path><path d="M311.76,107.97c-.35-1.1-.78-2.18-1.29-3.22-.01,.15-.01,.3,0,.46,0,1.07,.47,2.08,1.29,2.76Z" style="fill:#e0e0e0; isolation:isolate;"></path><path d="M273.22,107.67c-.02-1.55-1.04-2.91-2.53-3.35-1.1,2.09-1.86,4.34-2.26,6.66,.39,.14,.8,.22,1.22,.23,1.96,.01,3.56-1.56,3.57-3.52v-.03Z" style="fill:#e0e0e0; isolation:isolate;"></path><path d="M309.31,117.53c0,1.57,1.03,2.96,2.53,3.4,.67-2.23,1-4.54,.96-6.87-1.92,0-3.48,1.55-3.5,3.47Z" style="fill:#e0e0e0; isolation:isolate;"></path><path d="M287.46,102.91c-.01-1.95-1.6-3.51-3.55-3.5-1.95,.01-3.51,1.6-3.5,3.55,.01,1.9,1.53,3.44,3.42,3.49,1.96,.04,3.58-1.51,3.62-3.47,0-.03,0-.05,0-.08Z" style="fill:#e0e0e0; isolation:isolate;"></path><path d="M299.17,121.25c1.26,0,2.28,1.02,2.28,2.28s-1.02,2.28-2.28,2.28-2.28-1.02-2.28-2.28,1.02-2.28,2.28-2.28Z" style="fill:#e0e0e0; isolation:isolate;"></path><path d="M307.74,124.7c0,.99,.65,1.86,1.6,2.15,.81-1.25,1.5-2.57,2.05-3.95-.98-.77-2.4-.6-3.17,.38-.32,.4-.49,.91-.48,1.42Z" style="fill:#e0e0e0; isolation:isolate;"></path><path d="M301.75,133.29c-.01,.21-.01,.42,0,.63,2.48-1.47,4.66-3.39,6.41-5.68-2.69-.79-5.5,.75-6.29,3.44-.15,.53-.22,1.08-.2,1.63l.08-.03Z" style="fill:#e0e0e0; isolation:isolate;"></path><path d="M270.61,116.41c0-1.72-.86-3.34-2.28-4.31-.29,2.49-.16,5.01,.38,7.45,0,.23,0,.46,.18,.68,1.1-.97,1.73-2.36,1.72-3.83Z" style="fill:#e0e0e0; isolation:isolate;"></path><path d="M281.05,94.77v-.28c-3.75,1.76-6.93,4.52-9.2,7.98,.46,.04,.93,.04,1.39,0,4.27-.01,7.74-3.44,7.81-7.7Z" style="fill:#e0e0e0; isolation:isolate;"></path><path d="M291.67,95.91c1.92-.02,3.69-1.09,4.59-2.79-3.07-.8-6.27-.95-9.4-.43,.77,1.97,2.69,3.26,4.81,3.22Z" style="fill:#e0e0e0; isolation:isolate;"></path><path d="M290.5,131.01c-1.27-.01-2.32,1.01-2.33,2.28-.01,1.27,1.01,2.32,2.28,2.33,1.27,.01,2.32-1.01,2.33-2.28,0-.02,0-.03,0-.05,0-1.26-1.02-2.28-2.28-2.28Z" style="fill:#e0e0e0; isolation:isolate;"></path><path d="M285.56,135.19c-.67,0-1.3,.3-1.72,.81,1.27,.38,2.56,.66,3.88,.84-.26-.97-1.15-1.65-2.15-1.65Z" style="fill:#e0e0e0; isolation:isolate;"></path><path d="M276.51,129.79c-.64,.01-1.25,.3-1.67,.79,1.06,1.07,2.23,2.02,3.5,2.84,.3-.38,.47-.84,.48-1.32,0-1.27-1.03-2.31-2.31-2.31h0Z" style="fill:#e0e0e0; isolation:isolate;"></path><path d="M302.79,110.79c.29,0,.53-.24,.53-.53,0-.29-.24-.53-.53-.53s-.53,.24-.53,.53h0c.01,.29,.24,.52,.53,.53Z" style="fill:#e0e0e0; isolation:isolate;"></path><path d="M305.89,102.22c.29,0,.53-.24,.53-.53s-.24-.53-.53-.53c-.28,0-.51,.23-.51,.51v.03c0,.28,.22,.52,.51,.53Z" style="fill:#e0e0e0; isolation:isolate;"></path><path d="M309.91,110.79c.29,0,.53-.24,.53-.53,0-.29-.24-.53-.53-.53s-.53,.24-.53,.53h0c0,.29,.24,.53,.53,.53Z" style="fill:#e0e0e0; isolation:isolate;"></path><path d="M291.59,97.64c.28,0,.51-.23,.51-.51h0c.01-.28-.2-.52-.48-.53h-.03c-.29,0-.53,.24-.53,.53,0,.28,.23,.51,.51,.51h.03Z" style="fill:#e0e0e0; isolation:isolate;"></path><path d="M284.93,107.16c-.28,0-.51,.23-.51,.51h0c-.01,.28,.2,.52,.48,.53h.03c.29,0,.53-.24,.53-.53,0-.28-.23-.51-.51-.51h-.03Z" style="fill:#e0e0e0; isolation:isolate;"></path><path d="M281.35,121.89c0-.28-.23-.51-.51-.51h-.03c-.28,0-.51,.23-.51,.51h0c-.01,.28,.2,.52,.48,.53h.03c.29,0,.53-.24,.53-.53Z" style="fill:#e0e0e0; isolation:isolate;"></path><path d="M272.69,115.91c0,.29,.24,.53,.53,.53s.53-.24,.53-.53-.24-.53-.53-.53h0c-.29,0-.53,.24-.53,.53Z" style="fill:#e0e0e0; isolation:isolate;"></path><path d="M295.67,118.42c0,.29,.24,.53,.53,.53s.53-.24,.53-.53-.24-.53-.53-.53h0c-.29,0-.53,.24-.53,.53Z" style="fill:#e0e0e0; isolation:isolate;"></path><path d="M295.67,111.45c.29,0,.53,.24,.53,.53s-.24,.53-.53,.53-.53-.24-.53-.53,.24-.53,.53-.53Z" style="fill:#e0e0e0; isolation:isolate;"></path><path d="M300.41,128.07c-.28,0-.51,.23-.51,.51v.03c0,.28,.23,.51,.51,.51h0c.28,.01,.52-.2,.53-.48v-.03c0-.29-.24-.53-.53-.53Z" style="fill:#e0e0e0; isolation:isolate;"></path><path d="M277.05,104.15c.29,0,.53-.24,.53-.53,0-.29-.24-.53-.53-.53-.29,0-.53,.24-.53,.53,0,.29,.24,.53,.53,.53h0Z" style="fill:#e0e0e0; isolation:isolate;"></path><path d="M288.2,103.41c.28,.01,.52-.2,.53-.48v-.03c0-.29-.24-.53-.53-.53-.28,0-.51,.23-.51,.51v.03c0,.28,.23,.51,.51,.51h0Z" style="fill:#e0e0e0; isolation:isolate;"></path><path d="M287.69,129.79c-.29-.01-.54,.21-.56,.51-.01,.29,.21,.54,.51,.56,.29,.01,.54-.21,.56-.51v-.02c0-.28-.22-.52-.51-.53Z" style="fill:#e0e0e0; isolation:isolate;"></path><path d="M286.45,123.53c-.28-.01-.52,.2-.53,.48v.03c0,.29,.24,.53,.53,.53,.28,0,.51-.23,.51-.51v-.03c0-.28-.23-.51-.51-.51h0Z" style="fill:#e0e0e0; isolation:isolate;"></path><path d="M273.73,126.47c-.28,0-.51,.23-.51,.51v.03c0,.28,.23,.51,.51,.51h0c.28,.01,.52-.2,.53-.48v-.03c0-.29-.24-.53-.53-.53Z" style="fill:#e0e0e0; isolation:isolate;"></path><path d="M294,135.07c-.29,0-.53,.24-.53,.53,0,.29,.24,.53,.53,.53s.53-.24,.53-.53h0c0-.29-.24-.53-.53-.53Z" style="fill:#e0e0e0; isolation:isolate;"></path><path d="M296.89,104.1c.67,0,1.22-.54,1.22-1.22,0-.67-.54-1.22-1.22-1.22-.67,0-1.22,.55-1.22,1.22v.02c0,.66,.53,1.19,1.19,1.19h.03Z" style="fill:#e0e0e0; isolation:isolate;"></path><path d="M296.89,98.32c.67,0,1.22-.55,1.22-1.22,0-.67-.54-1.22-1.22-1.22s-1.22,.54-1.22,1.22v.02c0,.66,.53,1.19,1.19,1.19h.03Z" style="fill:#e0e0e0; isolation:isolate;"></path><path d="M283.84,98.32c.7,0,1.27-.57,1.27-1.27s-.57-1.27-1.27-1.27-1.27,.57-1.27,1.27,.57,1.27,1.27,1.27Z" style="fill:#e0e0e0; isolation:isolate;"></path><path d="M294,129.79c0-.67-.54-1.22-1.22-1.22s-1.22,.54-1.22,1.22,.54,1.22,1.22,1.22c.66,.01,1.2-.51,1.22-1.17,0-.02,0-.03,0-.05Z" style="fill:#e0e0e0; isolation:isolate;"></path><path d="M281.35,130.88c-.67,0-1.22,.54-1.22,1.22s.54,1.22,1.22,1.22,1.22-.54,1.22-1.22-.54-1.22-1.22-1.22h0Z" style="fill:#e0e0e0; isolation:isolate;"></path><path d="M277.05,126.3c.67,0,1.22,.54,1.22,1.22s-.54,1.22-1.22,1.22-1.22-.54-1.22-1.22,.54-1.22,1.22-1.22Z" style="fill:#e0e0e0; isolation:isolate;"></path><path d="M296.89,132.1c-.67-.01-1.23,.52-1.24,1.19-.01,.67,.52,1.23,1.19,1.24,.67,.01,1.23-.52,1.24-1.19,0-.02,0-.03,0-.05,0-.66-.53-1.19-1.19-1.19h0Z" style="fill:#e0e0e0; isolation:isolate;"></path><path d="M288.73,117.12c.67,0,1.22-.54,1.22-1.22s-.54-1.22-1.22-1.22-1.22,.54-1.22,1.22c.01,.67,.55,1.2,1.22,1.22Z" style="fill:#e0e0e0; isolation:isolate;"></path><path d="M305.89,120.82c.67,.01,1.23-.52,1.24-1.19,.01-.67-.52-1.23-1.19-1.24-.67-.01-1.23,.52-1.24,1.19,0,.02,0,.03,0,.05,0,.66,.53,1.19,1.19,1.19h0Z" style="fill:#e0e0e0; isolation:isolate;"></path><path d="M278.26,114.06c-.67-.01-1.23,.52-1.24,1.19-.01,.67,.52,1.23,1.19,1.24,.67,.01,1.23-.52,1.24-1.19,0-.02,0-.03,0-.05,0-.66-.53-1.19-1.19-1.19h0Z" style="fill:#e0e0e0; isolation:isolate;"></path><path d="M273.22,111.19c.67,0,1.22,.54,1.22,1.22s-.54,1.22-1.22,1.22-1.22-.54-1.22-1.22,.54-1.22,1.22-1.22Z" style="fill:#e0e0e0; isolation:isolate;"></path></g><g><path d="M219.22,228.45c-36.3,16.73-61.14,40.17-55.52,52.38,5.63,12.21,39.61,8.53,75.88-8.2,36.27-16.73,61.14-40.19,55.52-52.38-5.63-12.19-39.61-8.53-75.88,8.2Zm17.9,38.81c-31.75,14.63-61.19,18.42-65.77,8.46-4.59-9.96,17.42-29.87,49.15-44.5,31.73-14.63,61.16-18.44,65.77-8.48,4.61,9.96-17.42,29.89-49.15,44.52h0Z" style="fill:#e0e0e0;"></path><circle cx="232.95" cy="247.59" r="41.17" transform="translate(-13.54 13.48) rotate(-3.22)" style="fill:#e6e6e6;"></circle><g style="opacity:.2;"><path d="M267,270.71c-8.39,12.4-22.87,19.25-37.79,17.87-4.02-.35-7.96-1.32-11.68-2.86,13.13-.88,32.47-3.1,49.47-15.01Z" style="fill:#fafafa; isolation:isolate;"></path><path d="M233.75,239.53c8.77-3.38,26.54-7.35,34.51-13.03,.37,.53,.7,1.09,.98,1.68-4.43,3.07-8.58,6.52-12.41,10.32-8.82,8.05-13.23,15.48-27.88,16.04-14.65,.57-4.98-11.19,4.8-15.01Z" style="fill:#fafafa; isolation:isolate;"></path><path d="M207.93,280.28c12.9-1.62,44-7.17,65.31-23.99-.34,1.47-.75,2.89-1.21,4.36-13.52,6.89-38.69,20.2-59.92,22.39-1.45-.82-2.85-1.75-4.18-2.76Z" style="fill:#fafafa; isolation:isolate;"></path><path d="M198.1,269.42c8.34-1.17,16.6-2.9,24.71-5.16,16.59-4.95,39.64-16.66,50.27-25.79,.55,2.34,.87,4.74,.95,7.14-13.26,8.87-45.29,28.37-71.96,29.07-1.48-1.63-2.8-3.4-3.97-5.26Z" style="fill:#fafafa; isolation:isolate;"></path><path d="M197.48,226.81c.56-1.06,1.19-2.08,1.91-3.04,12.43-3.69,36.37-9.41,47.28-14.96,1.65,.56,3.25,1.24,4.8,2.04-13.59,3.12-41.78,13.1-53.99,15.97Z" style="fill:#fafafa; isolation:isolate;"></path><path d="M194.29,233.42c9.44-3.06,19.2-4.99,29.09-5.75,6.65,0,26.36-7.74,33.32-13.67,.55,.36,1.08,.77,1.57,1.21-17.08,7.2-37.89,24.97-47.49,30.13-5.92,3.23-12.14,5.88-18.57,7.92-.48-3.12-.58-6.29-.28-9.44,.34-3.55,1.12-7.04,2.35-10.39Z" style="fill:#fafafa; isolation:isolate;"></path></g><path d="M192.76,256.32c3-.71,5.96-1.57,8.87-2.58,11.27-3.82,31.6-20.25,49.57-27.81,6.76-2.81,10.63-4.44,12.9-5.31,.7,.83,1.37,1.65,1.99,2.58-5.15,3.01-10.49,5.68-15.99,8-11.45,4.8-23.68,11.3-30.72,17.18-5.39,4.46-19.01,10.32-25.35,12.48-.53-1.48-.95-3-1.26-4.54Z" style="fill:#e0e0e0; isolation:isolate;"></path><path d="M195.06,263.59c10.37-2.57,20.89-4.51,31.49-5.8,17.85-2.06,24.61-9.98,31.91-17.51,3.63-3.55,7.79-6.52,12.33-8.8,.68,1.52,1.24,3.09,1.68,4.69-8.21,6.84-17.27,12.58-26.95,17.1-16.89,7.92-40.37,11.76-49.16,13.03-.5-.87-.93-1.77-1.29-2.71Z" style="fill:#e0e0e0; isolation:isolate;"></path><path d="M204.37,277.13c15.47-1.99,30.52-6.5,44.54-13.34,11.48-5.65,19.65-10.11,25.1-13.21,.03,.26,.03,.52,0,.77-.13,1.21-.26,2.37-.49,3.53-12.9,6.89-42.71,21.1-68.76,22.54-.18-.03-.28-.18-.39-.31Z" style="fill:#e0e0e0; isolation:isolate;"></path><path d="M203.03,219.31c8.7-9.17,21.12-13.85,33.71-12.69,.98,0,1.99,.23,2.94,.39-8.77,4.08-25.05,10.73-36.65,12.3Z" style="fill:#f0f0f0; isolation:isolate;"></path><path d="M215.23,284.69c10.32-2.45,36.68-9.08,47.9-15.22,2.08-1.18,4.23-2.22,6.45-3.12-.65,1.34-1.4,2.64-2.24,3.87-8.02,3.51-23.52,9.93-32.27,11.35-7.74,1.24-14.65,2.58-18.8,3.59h0c-.36-.11-.71-.27-1.03-.46Z" style="fill:#e0e0e0; isolation:isolate;"></path><path d="M250.05,214.15s-15.09,9.34-21.87,10.47c-4.12,.7-8.28,1.09-12.46,1.16,0,0,21.82-11.19,34.33-11.63Z" style="fill:#e0e0e0; isolation:isolate;"></path><path d="M281.71,218.77c1.99,.72,3.62,2.18,4.57,4.07,4.59,9.96-17.42,29.89-49.15,44.52-31.73,14.63-61.19,18.42-65.77,8.46-.77-1.94-.77-4.1,0-6.04l-7.77,3.57c-.89,2.46-.82,5.16,.17,7.58,5.63,12.21,39.61,8.53,75.88-8.2,36.27-16.73,61.14-40.19,55.52-52.38-1.18-2.33-3.2-4.13-5.65-5.04l-7.79,3.46Z" style="fill:#e0e0e0;"></path></g><g><g><g><path d="M443.92,351.64h-180.75c-3.23,0-5.86-2.63-5.86-5.86V82.5c0-3.23,2.63-5.86,5.86-5.86h180.75c3.23,0,5.86,2.63,5.86,5.86V345.78c0,3.23-2.63,5.86-5.86,5.86ZM263.17,76.89c-3.09,0-5.61,2.52-5.61,5.61V345.78c0,3.09,2.52,5.61,5.61,5.61h180.75c3.09,0,5.61-2.52,5.61-5.61V82.5c0-3.09-2.52-5.61-5.61-5.61h-180.75Z" style="fill:#e0e0e0;"></path><path d="M235.49,351.64H54.75c-3.23,0-5.86-2.63-5.86-5.86V82.5c0-3.23,2.63-5.86,5.86-5.86H235.49c3.23,0,5.86,2.63,5.86,5.86V345.78c0,3.23-2.63,5.86-5.86,5.86ZM54.75,76.89c-3.09,0-5.61,2.52-5.61,5.61V345.78c0,3.09,2.52,5.61,5.61,5.61H235.49c3.09,0,5.61-2.52,5.61-5.61V82.5c0-3.09-2.52-5.61-5.61-5.61H54.75Z" style="fill:#e0e0e0;"></path></g><rect x="0" y="412.71" width="500" height=".25" style="fill:#e0e0e0;"></rect></g><rect x="51.67" y="426.97" width="16.06" height=".25" style="fill:#e0e0e0;"></rect><rect x="170.35" y="424.26" width="53.53" height=".25" style="fill:#e0e0e0;"></rect><rect x="68.73" y="436.26" width="36.25" height=".25" style="fill:#e0e0e0;"></rect><rect x="378.35" y="424.13" width="43.19" height=".25" style="fill:#e0e0e0;"></rect><rect x="430.45" y="424.13" width="6.33" height=".25" style="fill:#e0e0e0;"></rect><rect x="316.21" y="430.36" width="53.89" height=".25" style="fill:#e0e0e0;"></rect></g><path d="M89.16,269.88c-.45,0-4.82,.34-5.44,5.41h-.72s.21-4.95-5.44-5.21l.03-.78c.45,0,4.65-.19,5.26-5.26h.72s-.49,4.57,5.58,5.29v.55Z" style="fill:#e0e0e0;"></path><path d="M412.19,207.13c-.45,0-4.82,.34-5.44,5.41h-.72s.21-4.95-5.43-5.21l.03-.78c.45,0,4.65-.19,5.26-5.26h.72s-.49,4.57,5.58,5.29v.55Z" style="fill:#e0e0e0;"></path><path d="M410.2,377.56c-.45,0-4.82,.34-5.44,5.41h-.72s.21-4.95-5.43-5.21l.03-.78c.45,0,4.65-.19,5.26-5.26h.72s-.49,4.57,5.58,5.29v.55Z" style="fill:#e0e0e0;"></path><path d="M292.65,295.7c-.45,0-4.82,.34-5.44,5.41h-.72s.21-4.95-5.43-5.21l.03-.78c.45,0,4.65-.19,5.26-5.26h.72s-.49,4.57,5.58,5.29v.55Z" style="fill:#e0e0e0;"></path><path d="M196.02,131.89c-.45,0-4.82,.34-5.44,5.41h-.72s.21-4.95-5.43-5.21l.03-.78c.45,0,4.65-.19,5.26-5.26h.72s-.49,4.57,5.58,5.29v.55Z" style="fill:#e0e0e0;"></path><path d="M75.65,247.95c-.25,0-2.72,.19-3.07,3.06h-.4s.12-2.79-3.07-2.94l.02-.44c.25,0,2.62-.11,2.97-2.97h.4s-.27,2.58,3.15,2.98v.31Z" style="fill:#e0e0e0;"></path><path d="M342.34,135.4c-.25,0-2.72,.19-3.07,3.06h-.4s.12-2.79-3.07-2.94l.02-.44c.25,0,2.62-.11,2.97-2.97h.4s-.27,2.58,3.15,2.98v.31Z" style="fill:#e0e0e0;"></path><path d="M429.69,196.02c-.25,0-2.72,.19-3.07,3.06h-.4s.12-2.79-3.07-2.94l.02-.44c.25,0,2.62-.11,2.97-2.97h.4s-.27,2.58,3.15,2.98v.31Z" style="fill:#e0e0e0;"></path><path d="M212.17,113.55c-.25,0-2.72,.19-3.07,3.06h-.4s.12-2.79-3.07-2.94l.02-.44c.25,0,2.62-.11,2.97-2.97h.4s-.27,2.58,3.15,2.98v.31Z" style="fill:#e0e0e0;"></path><path d="M134.24,54.33c-.25,0-2.72,.19-3.07,3.06h-.4s.12-2.79-3.07-2.94l.02-.44c.25,0,2.62-.11,2.97-2.97h.4s-.27,2.58,3.15,2.98v.31Z" style="fill:#e0e0e0;"></path><path d="M151.64,301.9c-.25,0-2.72,.19-3.07,3.06h-.4s.12-2.79-3.07-2.94l.02-.44c.25,0,2.62-.11,2.97-2.97h.4s-.27,2.58,3.15,2.98v.31Z" style="fill:#e0e0e0;"></path></g><g id="freepik--Character_2--inject-374"><g><g><circle cx="276.49" cy="172.58" r="9.5" style="fill:#407BFF;"></circle><path d="M285.78,170.58c-.21,.99-.58,1.96-1.12,2.88-2.69,4.51-8.52,5.99-13.03,3.3-2.37-1.41-3.89-3.69-4.42-6.19-.14,.65-.22,1.32-.22,2.01,0,5.25,4.26,9.5,9.5,9.5s9.5-4.26,9.5-9.5c0-.69-.08-1.36-.22-2Z" style="opacity:.2;"></path></g><g><path d="M382.77,228.71c.21,1.01,12.27,29.42,11.68,35.29-1.02,10.24-9.4,27.91-9.4,27.91l-5.22-3.03s3.89-20.05,3.38-23.83c-.52-3.78-10.84-29.69-10.84-29.69l10.4-6.65Z" style="fill:#ebb376;"></path><path d="M380.15,287.34s-2.91,.28-4.5,2.21c-1.6,1.93-3.35,3.06-4.45,4.58-1.09,1.52,1.28,.91,2.49,.32,1.21-.59,2.59-1.24,2.82-.25,.24,.99-2.14,9.64-1.65,10.97,.48,1.33,1.29,.04,1.29,.04,0,0-.52,2.11,.22,2.52,.19,.11,.82,.02,1.21-.91,.86-2.1,2.45-6.58,2.45-6.58-.1,.26-1.68,5.92-1.82,6.79-.17,1.14,.31,1.75,.95,1.8,.91,.07,3.11-6.89,3.4-7.12,0,0-1.39,3.97-.61,4.86,.78,.89,1.79-1.57,2.28-3.89,.46-2.13,1.88-6.21,2.15-8.41,.32-2.71-.05-4.58-2.15-5.81-2.1-1.23-4.07-1.12-4.07-1.12Z" style="fill:#ebb376;"></path></g><g><path d="M328.3,224.33c-.88-.54-32.56,1.13-39.3-3.58-8.43-5.9-17.19-22.83-17.19-22.83l6.3-1.89s12.51,13.27,15.62,15.48c3.11,2.21,36.84,.69,36.84,.69l-2.27,12.14Z" style="fill:#ebb376;"></path><path d="M278.93,198.09s1.79-2.31,1.47-4.8c-.32-2.49,.06-4.54-.3-6.38-.36-1.84-1.54,.31-1.94,1.59-.4,1.28-.87,2.73-1.75,2.23-.89-.5-5.57-8.16-6.87-8.71-1.3-.56-.91,.91-.91,.91,0,0-1.18-1.83-1.99-1.56-.21,.07-.58,.59-.16,1.5,.94,2.06,3.12,6.29,3.12,6.29-.12-.25-3.16-5.28-3.71-5.97-.72-.91-1.48-.97-1.96-.54-.68,.61,2.89,6.98,2.87,7.35,0,0-1.94-3.73-3.12-3.77-1.18-.04-.08,2.38,1.27,4.33,1.24,1.79,3.24,5.62,4.66,7.32,1.76,2.09,3.37,3.1,5.71,2.41,2.34-.69,3.6-2.2,3.6-2.2Z" style="fill:#ebb376;"></path></g><g><path d="M381.42,415.12l-5.33-10.39s-13.89,2.53-13.15,2.58c.74,.05,9.7,12.32,9.7,12.32l7.87,1.85,.92-6.36Z" style="fill:#ebb376;"></path><g><path d="M371.61,418.83l3.14-1.61c.71-.37,1.55-.34,2.27,.01,3.08,1.55,3.97-.09,4.74-3.43,1.18-.79,2.25,.48,2.56,.81l6.74,7.34c.57,.61,.54,1.57-.07,2.14-.11,.1-.23,.19-.36,.25-3.82,1.96-5.62,2.89-10.38,5.33l-14.53,7.46c-3.96,2.03-6.83-1.54-5.39-2.74,6.51-5.39,10.59-10.22,11.77-13.52,.23-.59-.35-.65-.48-2.04Z" style="fill:#263238;"></path><path d="M368.42,424.15c.98-.53,1.9-1.17,2.75-1.89,.07-.08,.07-.2,0-.28-.04-.04-.1-.06-.16-.05-.55,.01-5.43,.19-6.05,1.4-.12,.22-.11,.48,.03,.69,.21,.4,.61,.68,1.06,.75,.84,.05,1.67-.16,2.38-.61Zm2.01-1.81c-1.05,.81-3.06,2.21-4.29,2-.32-.06-.61-.26-.77-.55-.07-.08-.07-.2-.02-.29,.35-.66,3.08-1.04,5.09-1.16Z" style="fill:#407BFF;"></path><path d="M371.14,422.29s.09-.03,.12-.06c.03-.07,.01-.16-.04-.21-.08-.16-2.99-3.56-5.02-2.21-.5,.35-.52,.68-.43,.91,.39,1.09,3.86,1.76,5.3,1.65l.08-.08Zm-4.57-2.28c1.36-.7,3.31,1.15,4.05,1.92-1.63-.02-4.25-.71-4.46-1.39-.03-.05-.1-.19,.28-.44l.14-.08Z" style="fill:#407BFF;"></path><path d="M374.23,422.97s-.09-.01-.13-.04c-1-.59-2.25-.71-3.34-.33-.13,.05-.27-.02-.32-.15s.02-.27,.15-.32c1.23-.44,2.64-.3,3.76,.37,.12,.07,.16,.22,.09,.34-.05,.08-.13,.12-.21,.12Z" style="fill:#407BFF;"></path><path d="M373.03,425.45s-.09-.01-.13-.04c-1-.59-2.25-.71-3.34-.33-.13,.05-.27-.02-.32-.15s.02-.27,.15-.32c1.23-.43,2.64-.3,3.76,.37,.12,.07,.16,.22,.09,.34-.05,.08-.13,.12-.21,.12Z" style="fill:#407BFF;"></path><path d="M371.23,427.93s-.09-.01-.13-.04c-1-.59-2.25-.71-3.34-.33-.13,.05-.27-.02-.32-.15s.02-.27,.15-.32c1.23-.43,2.64-.3,3.76,.37,.12,.07,.16,.22,.09,.34-.05,.08-.13,.12-.21,.12Z" style="fill:#407BFF;"></path></g></g><g><path d="M296.06,411.52l-.29-11.67s-13.61-3.76-12.96-3.39c.65,.36,3.38,15.31,3.38,15.31l6.28,5.09,3.59-5.33Z" style="fill:#ebb376;"></path><g><path d="M285.61,410.59l3.53-.09c.8-.02,1.55,.37,2.04,1,2.11,2.73,3.61,1.64,5.76-1.03,1.4-.2,1.82,1.41,1.95,1.84l2.88,9.54c.25,.8-.19,1.64-.99,1.89-.14,.04-.29,.07-.44,.07-4.29,.11-6.32,.15-11.66,.29l-16.33,.4c-4.45,.11-5.48-4.36-3.66-4.82,8.2-2.02,13.98-4.59,16.47-7.06,.46-.43-.03-.73,.45-2.05Z" style="fill:#263238;"></path><path d="M280.42,414c1.11-.05,2.22-.22,3.3-.51,.1-.04,.15-.15,.11-.25-.02-.05-.07-.1-.12-.12-.5-.23-4.97-2.19-6.06-1.38-.2,.14-.31,.39-.27,.63,.02,.46,.25,.88,.63,1.14,.73,.41,1.58,.58,2.41,.48Zm2.6-.76c-1.3,.27-3.71,.66-4.73-.07-.27-.2-.43-.5-.46-.83-.02-.1,.02-.21,.11-.27,.6-.44,3.23,.41,5.08,1.17Z" style="fill:#407BFF;"></path><path d="M283.68,413.5s.09,.01,.14,0c.06-.05,.08-.14,.05-.21,0-.18-1.15-4.51-3.56-4.17-.6,.1-.76,.39-.78,.63-.12,1.16,2.71,3.27,4.05,3.79l.1-.04Zm-3.12-4.04c1.53-.04,2.48,2.48,2.81,3.49-1.46-.73-3.52-2.49-3.41-3.19,0-.06,0-.22,.44-.28l.16-.02Z" style="fill:#407BFF;"></path><path d="M286.27,415.49c-.08,0-.16-.04-.21-.11-.64-.97-1.71-1.62-2.87-1.75-.14-.01-.24-.14-.22-.28,.01-.14,.14-.26,.28-.22,1.3,.14,2.51,.88,3.23,1.97,.08,.12,.04,.27-.07,.35-.04,.03-.09,.04-.14,.04Z" style="fill:#407BFF;"></path><path d="M284.12,417.2c-.08,0-.16-.04-.21-.11-.64-.97-1.71-1.62-2.87-1.75-.14-.01-.24-.14-.22-.28,.01-.14,.14-.24,.28-.22,1.3,.14,2.5,.88,3.23,1.97,.08,.12,.04,.27-.07,.35-.04,.03-.09,.04-.14,.04Z" style="fill:#407BFF;"></path><path d="M281.42,418.65c-.08,0-.16-.04-.21-.11-.64-.97-1.71-1.62-2.87-1.75-.14-.01-.24-.14-.22-.28,.01-.14,.14-.24,.28-.22,1.3,.15,2.51,.88,3.23,1.97,.08,.12,.04,.27-.07,.35-.04,.03-.09,.04-.14,.04Z" style="fill:#407BFF;"></path></g></g><path d="M375.62,281.04s.03,4.17-7.8,5.43c-9.68,1.56-45.28-11.98-45.28-11.98l45.19,1.04,7.88,5.51Z" style="fill:#263238;"></path><path d="M375.62,281.04s.03,4.17-7.8,5.43c-9.68,1.56-45.28-11.98-45.28-11.98l45.19,1.04,7.88,5.51Z" style="opacity:.3;"></path><g><path d="M360.97,270.72l-59.82,72.24c-1.97,23.07-2.5,60.72-2.5,60.72l-16.97-.52s-4.49-35.18-3.4-64.65c.09-2.35,1.07-4.56,2.14-6.65,11.93-23.35,48.43-67.67,48.43-67.67l32.11,6.53Z" style="fill:#407BFF;"></path><path d="M342.49,292.56c-2.98,3.61-5.97,7.53-9.23,11.63-1.49,1.87-3.18,3.79-4.7,5.73,.63-11.05,5.76-24.52,12.65-31.54,1.17,3.69,1.41,8.76,1.28,14.19Z" style="isolation:isolate; opacity:.2;"></path><path d="M366.02,271.78c8.56,19.03-5.74,17.25-13.63,78.87,1.62,2.31,26.24,56.52,26.24,56.52l-13.52,7.14s-23.92-34.81-33.83-51.77c-2.54-4.34-2.46-9.61-2.18-14.63,2.13-37.25,9.58-81.73,9.58-81.73l27.33,5.59Z" style="fill:#407BFF;"></path></g><g><path d="M344.84,220.61c-1.68,4.88-24.04,9.39-24.04,9.39l-5.12-18.37c.48-.4,12.86-1.91,23.6-3.17,8.36-.44,7.31,7.06,5.55,12.16Z" style="fill:#263238;"></path><path d="M352.54,209.19c6.17,.84,12.28,2.08,18.29,3.71,5.68,1.5,10.64,2.17,10.98,7.31-7.95,17.42-11.1,25.77-13.48,35.17-1.98,7.78,6.73,15.82,7.3,25.66-19.87-7.28-34.28,6.17-55.69-7.39,2.67-3.84,7.25-12.74,7.69-15.99,1.63-12.07-.13-22.59,1.31-29.46,1.8-8.57,11.92-19.76,11.92-19.76,0,0,3.69-.12,11.69,.75Z" style="fill:#263238;"></path><path d="M363.67,224.77c3.32,5.83,11.21,16.01,11.21,16.01l14.69-7.22s-6.55-14.78-9.31-16.8c-4.44-.94-19.26,3.33-16.59,8.01Z" style="fill:#263238;"></path><path d="M328.93,228.2c.72-2.59,.99-3.19,3.63-6.78l-12.91,4.45,1.16,4.12,8.13-1.8Z" style="opacity:.3;"></path></g><g style="opacity:.3;"><path d="M271.45,164.53l-.03,.29c.24,2.33,2.09,4.4,4.37,4.91,2.28,.52,4.84-.56,6.06-2.56,.39-.63,.65-1.41,.39-2.11,0-.02-.03-.04-.03-.06-1.59-1.2-3.57-1.92-5.71-1.92-1.85,0-3.57,.54-5.04,1.45Z" style="fill:#fff;"></path></g><g><g><path d="M349.32,207.11c11.57,5.03,17.54,.82,22.05-2.95l-1.2,1.97s6.53-1.73,7.05-8.14c.52-6.41,1.05-5.43,3.85-8.21,2.8-2.79,1.69-7.92-1.05-9.04,0,0,4.48-2.82-6.14-10.99-10.62-8.17-24.28-4.53-26.02,2.11-1.73,6.64-10.67,7.74-13.12,3.01-2.44-4.72-5.35-3.08-5.35-3.08,1.78-.07,3.4,1.05,3.97,2.74,.62,1.65,1.73,3.08,3.17,4.1-2.29-.57-4.36-1.77-6-3.47-2.86-2.89-6.17-7.25-1.34-10.04,0,0-4.78-2.31-8.5,3.37-3.72,5.68-1.37,11.94,4.03,17.61,0,0-8.62-6.45-7.04-10.49,0,0-4.98,5.14,3.96,15.97,0,0,9.32,11.99,19.11,14.37,9.79,2.38,8.57,1.16,8.57,1.16Z" style="fill:#263238;"></path><g><path d="M365.71,211.24s-3.64,.97-8.76,3.25c-1.07,.48-2.19,.83-3.34,1.05-3.09,.61-5.77,.69-6.04-.79-.06-.33-.08-.67-.07-1.01,.09-2.32,1.23-5.28,3.38-6.14,2.43-.97,3.78-2.02,4.06-4.24,.17-1.25,.11-2.62-.03-3.98l2.09-1.34,10.52-5.72c-1.84,5.38-5.18,14.69-1.82,18.92Z" style="fill:#ebb376;"></path><path d="M354.87,203.84c2.62-.65,5.74-2.2,6.23-4.9,.2-1.14,.28-2.25,.21-3l-6.31,4.62c.08,1.07,.02,1.75-.14,3.29Z" style="opacity:.2;"></path><path d="M372.44,184.27c-3.25,8.07-4.46,11.54-10.05,14.6-8.41,4.61-17.65-.57-16.88-9.31,.69-7.86,5.89-19.73,15.09-20.77,9.06-1.02,15.1,7.41,11.84,15.47Z" style="fill:#ebb376;"></path><path d="M361.32,183.78c-.28,.76-.95,1.26-1.49,1.11-.55-.15-.77-.9-.49-1.66,.28-.76,.95-1.26,1.49-1.11,.55,.15,.77,.9,.49,1.66Z" style="fill:#263238;"></path><path d="M352.76,181.07c-.27,.74-.93,1.22-1.48,1.06-.55-.15-.77-.87-.5-1.61,.27-.74,.93-1.22,1.48-1.06,.55,.15,.77,.87,.5,1.61Z" style="fill:#263238;"></path><path d="M363.53,181.2c-.11-.02-.21-.08-.27-.18-.92-1.57-2.49-1.58-2.5-1.58-.23,0-.41-.19-.39-.42,.02-.23,.22-.42,.46-.42,.08,0,2.05,.02,3.19,1.97,.11,.19,.04,.45-.17,.58-.1,.06-.21,.08-.31,.06Z" style="fill:#263238;"></path><path d="M351.09,177.01c-.11,0-.21-.05-.28-.13-.15-.17-.12-.43,.06-.59,1.83-1.59,3.71-1.15,3.79-1.13,.22,.05,.35,.28,.28,.51-.07,.22-.31,.36-.54,.31-.07-.02-1.54-.33-3,.93-.09,.08-.21,.12-.32,.11Z" style="fill:#263238;"></path><path d="M352.41,189.81c.36,1.24,.57,3.5,.57,3.5,.21,.02,.42,.04,.62,.04,2.83,.18,4.2-.68,4.86-1.67,.36-.55,.5-1.15,.55-1.64,.06-.57-.02-.99-.02-.99-1.55,.8-4.2,.84-5.62,.8-.59,0-.96-.04-.96-.04Z" style="fill:#263238;"></path><path d="M353.38,189.85l.19,1.03c2.66,.16,4.56-.09,5.44-.84,.06-.57-.02-.99-.02-.99-1.55,.8-4.2,.84-5.62,.8Z" style="fill:#fff;"></path><path d="M353.61,193.35c2.83,.18,4.2-.68,4.86-1.67-.97-.02-2.13,.06-3.18,.43-.8,.28-1.32,.76-1.68,1.25Z" style="fill:#dc5753;"></path><path d="M355.06,181.52s-2.23,2.71-4.28,4.21c-.36,.26-.35,.8,0,1.07,.91,.68,2.21,.7,2.21,.7l2.06-5.98Z" style="fill:#d58745;"></path><path d="M361,182.15l-1.77-1.02s.61,1.73,1.77,1.02Z" style="fill:#263238;"></path><path d="M352.45,179.54l-1.77-1.02s.61,1.73,1.77,1.02Z" style="fill:#263238;"></path></g><path d="M349.04,175.89c8.09,1.48,18.09-3.7,19.88-2.89-2.01,.35-2.26,3.67-2.01,4.8,1.68,7.25-1.82,10.67,2.43,12.85,8.35,4.27,7.3-13.93,2.33-17.83-.39-.31,0,0-.44-.24,2.26-8.23-14.15-6.23-18.34-3.7" style="fill:#263238;"></path><path d="M372.92,191.78c-1.49,1.41-3.4,2-4.97,1.92-2.36-.11-2.43-3.98-1.02-5.96,1.27-1.78,3.82-2.44,5.83-1.37,1.98,1.06,1.87,3.79,.17,5.4Z" style="fill:#ebb376;"></path><path d="M368.06,190.31s-.06,0-.09-.02c-.13-.05-.19-.2-.14-.33,.33-.81,.96-1.51,1.75-1.91,.78-.4,1.72-.5,2.57-.27,.13,.03,.21,.17,.18,.3-.04,.13-.17,.22-.31,.18-.73-.19-1.54-.1-2.22,.24-.68,.34-1.23,.94-1.51,1.65-.04,.1-.13,.16-.23,.16Z" style="opacity:.2;"></path></g><g><path d="M347.46,176.48c1.77-1.6,4.53-1.82,6.98-1.5,2.45,.32,6.13,1,8.88,1.96,2.18,.89,2.67,2.68,2.96,4.74,.29,2.06-.48,4.29-2.22,5.61-1.74,1.33-4.44,1.57-6.27,.37-1.61-1.06-2.7-3.15-4.69-3.12-1.95,.03-3.42,2.23-5.33,1.91-1.65-.28-2.21-2.18-2.28-3.72-.1-2.23,.23-4.68,1.97-6.25Z" style="fill:#407BFF;"></path><path d="M347.93,176.77c1.6-1.34,4.03-1.36,6.24-1.1,2.21,.26,5.46,.89,7.93,1.69,1.96,.74,2.52,2,2.78,3.72,.26,1.72-.44,3.58-2.01,4.7-1.57,1.11-3.12,1.18-4.76,.18-1.45-.88-2.83-3.14-4.62-3.11-1.75,.03-4.01,2.56-5.74,2.29-1.49-.23-1.63-2.36-1.69-3.65-.08-1.86,.3-3.4,1.86-4.72Z" style="fill:#263238;"></path><path d="M370.81,185.82l-5.27-6.92-.64,5.41,2.75,2.65s1.12-1.04,3.16-1.15Z" style="fill:#407BFF;"></path><path d="M355.63,175.87l8.44,8.7s-.63,1.03-1.96,1.67l-9.7-10.7s.13,.01,.35,0c.7-.01,2.89,.3,2.88,.33Z" style="fill:#fff; opacity:.3;"></path><path d="M354.05,182.91l-4.75-6.93s-.33,.11-.76,.37c-.19,.11-.43,.26-.6,.41l4.14,6.5s1.04-.62,1.99-.36Z" style="fill:#fff; opacity:.3;"></path><path d="M365.76,185.15c-.13,.1,.81-2.73,.2-4.5,0,0,1.72,2.93,.7,5.36l-.9-.87Z" style="opacity:.2;"></path></g></g></g></g><g id="freepik--Character_1--inject-374"><g><g><path d="M221.57,355.89c-.08-.31-1.97-15.39-1.97-15.39,0,0,14.65-3.55,14.75-3.14,.1,.41-.79,18.2-.79,18.2l-5.85,4.33-6.15-3.99Z" style="fill:#b97964;"></path><g><path d="M236.08,356.51c.08-1.41-.05-2.59-1.57-2.62l-2.15-.05c-.81,.03-1.37,.58-2.01,1.06-4.8,3.57-6.96-.78-8.86-.71-2.45,.07-.63,7.85-.73,8.27l-2.39,9.17c-.21,.77,.31,2.39,1.13,2.58,.15,.03,.3,.05,.45,.04,4.35-.14,6.4-.2,11.81-.37l16.55-.52c4.51-.14,4.39-5.67,2.52-6-8.41-1.46-11.79-4.09-14.61-6,0,0-.26-2.65-.15-4.83Z" style="fill:#407BFF;"></path><path d="M248.32,373.34l-16.55,.52c-5.41,.17-7.47,.24-11.81,.37-.15,0-.3,0-.45-.04-.56-.13-.97-.92-1.12-1.65v-.69l33.47-1.06c-.4,1.3-1.49,2.48-3.54,2.55Z" style="fill:#fff; opacity:.4;"></path><path d="M240.23,364c-.71,.69-1.29,1.52-1.7,2.42-.08,.18-.06,.41,.13,.51,.16,.09,.43,.06,.51-.13,.2-.43,.43-.84,.7-1.23,.14-.2,.23-.32,.39-.51s.32-.36,.49-.53c.14-.14,.15-.39,0-.53s-.38-.15-.53,0h0Z" style="fill:#263238;"></path><path d="M237.57,362.5c-.65,.66-1.2,1.42-1.61,2.25-.09,.18-.05,.41,.13,.51,.17,.09,.42,.05,.51-.13,.2-.39,.42-.77,.68-1.13,.03-.04,.06-.08,.09-.12l.06-.08s.05-.06,.03-.04,.02-.03,.03-.04l.06-.07s.06-.08,.1-.12c.15-.17,.3-.34,.46-.5,.14-.14,.15-.39,0-.53s-.38-.15-.53,0h0Z" style="fill:#263238;"></path><path d="M235.75,361.13c-.67,.39-1.22,.99-1.53,1.7-.04,.1-.07,.18-.04,.29,.02,.09,.09,.18,.17,.22,.16,.09,.43,.06,.51-.13,.07-.16,.15-.31,.24-.46,.05-.07,.1-.14,.15-.21,.04-.05,0-.02,0,0,0-.02,.03-.04,.04-.05,.03-.04,.06-.07,.09-.1,.11-.13,.23-.24,.36-.35l.05-.04,.03-.02s.01-.01-.03,.02c.02-.03,.07-.06,.1-.07,.07-.05,.15-.1,.23-.15,.17-.1,.24-.34,.13-.51s-.33-.24-.51-.13h0Z" style="fill:#263238;"></path><path d="M235.85,358.19c-.83,.04-1.63,.23-2.39,.58-.18,.08-.24,.36-.13,.51,.12,.19,.32,.22,.51,.13,.1-.05,.1-.05,.21-.09,.09-.03,.18-.07,.27-.1,.17-.06,.34-.1,.51-.15s.34-.07,.52-.1c.05,0,.05,0,.02,0h.06s.09-.02,.14-.02c.09,0,.19-.01,.28-.02,.2,0,.38-.17,.38-.38,0-.2-.17-.38-.38-.38h0Z" style="fill:#263238;"></path><g style="opacity:.3;"><path d="M227.77,359.37c-.02,.81-.28,1.71-.98,2.11-.44,.25-.97,.25-1.47,.26-1.51,0-3.01,0-4.52,.01l-.02-.04c-.31-2.13-1.11-7.33,.76-7.38,1.47-.05,3.1,2.9,6.15,1.93,.01,1.13,.1,2.57,.09,3.12Z"></path></g></g></g><g><path d="M182.31,377.64c-.05-.32-.55-15.51-.55-15.51,0,0,14.91-2.2,14.98-1.78,.06,.42-2.45,18.06-2.45,18.06l-6.22,3.77-5.76-4.54Z" style="fill:#b97964;"></path><g><path d="M196.7,379.58c.2-1.4,.18-2.58-1.32-2.76l-2.13-.25c-.81-.05-1.42,.46-2.09,.87-5.11,3.12-6.86-1.41-8.76-1.52-2.45-.15-1.34,7.76-1.48,8.17l-3.22,8.91c-.28,.74,.09,2.41,.89,2.67,.14,.05,.29,.07,.44,.08,4.34,.26,6.4,.38,11.8,.71l16.53,.99c4.5,.27,4.89-5.24,3.06-5.75-8.24-2.22-11.37-5.15-14-7.31,0,0-.02-2.67,.29-4.82Z" style="fill:#407BFF;"></path><path d="M207.34,397.45l-16.53-.99c-5.4-.32-7.46-.45-11.8-.71-.15,0-.3-.03-.44-.08-.54-.18-.88-1-.96-1.75l.05-.69,33.44,2.01c-.52,1.26-1.71,2.33-3.76,2.21Z" style="fill:#fff; opacity:.4;"></path><path d="M200.12,387.44c-.77,.63-1.42,1.4-1.91,2.26-.1,.17-.05,.42,.13,.51s.41,.05,.51-.13c.12-.21,.24-.41,.38-.6,.03-.05,.06-.09,.1-.14l.06-.08s.06-.08,.04-.05c-.02,.03,.04-.05,.04-.05l.05-.06s.08-.1,.12-.14c.31-.36,.65-.69,1.01-.99,.15-.12,.14-.4,0-.53-.16-.15-.37-.13-.53,0h0Z" style="fill:#263238;"></path><path d="M197.61,385.7c-.71,.6-1.32,1.31-1.8,2.1-.1,.17-.04,.42,.13,.51s.4,.04,.51-.13,.24-.37,.36-.54c.03-.05,.07-.09,.11-.14s-.03,.04,0,0c.02-.02,.04-.05,.05-.07,.07-.09,.14-.17,.21-.26,.29-.33,.6-.64,.94-.93,.15-.13,.14-.4,0-.53-.16-.15-.37-.14-.53,0h0Z" style="fill:#263238;"></path><path d="M195.92,384.16c-.7,.33-1.29,.89-1.66,1.57-.1,.17-.05,.42,.13,.51s.41,.05,.51-.13c.04-.08,.09-.15,.14-.23,.02-.03,.05-.07,.07-.1l.04-.06c.04-.06-.04,.04,0,0,.11-.14,.22-.26,.35-.38,.06-.06,.13-.11,.19-.17,.04-.03,.02-.02,0,0,.02-.01,.04-.03,.06-.04,.03-.02,.07-.05,.1-.07,.15-.1,.3-.19,.46-.26,.18-.08,.24-.35,.13-.51-.12-.18-.32-.22-.51-.13h0Z" style="fill:#263238;"></path><path d="M196.28,381.22c-.79-.04-1.59,.08-2.34,.34-.18,.06-.33,.26-.26,.46,.06,.18,.26,.33,.46,.26,.35-.12,.72-.21,1.08-.27,.03,0,.03,0,0,0h.08s.08-.02,.13-.02c.09,0,.18-.01,.27-.02,.19,0,.38,0,.57,0s.38-.18,.38-.38c0-.21-.16-.37-.38-.38h0Z" style="fill:#263238;"></path><g style="opacity:.3;"><path d="M188.16,381.66c-.09,.81-.43,1.68-1.17,2.01-.46,.21-.99,.17-1.49,.12-1.5-.13-3-.27-4.5-.4l-.02-.04c-.11-2.15-.43-7.4,1.43-7.28,1.47,.09,2.83,3.17,5.95,2.48-.09,1.13-.13,2.57-.2,3.11Z"></path></g></g></g><g><g><path d="M226.22,117.43c5.18-1.16,10.31,2.1,11.47,7.27,1.16,5.18-2.1,10.31-7.27,11.47-5.18,1.16-10.31-2.1-11.47-7.27v-.03c-1.14-5.17,2.11-10.28,7.27-11.44Z" style="fill:#407BFF;"></path><path d="M226.22,117.43c5.18-1.16,10.31,2.1,11.47,7.27,1.16,5.18-2.1,10.31-7.27,11.47-5.18,1.16-10.31-2.1-11.47-7.27v-.03c-1.14-5.17,2.11-10.28,7.27-11.44Z" style="fill:#fff; isolation:isolate; opacity:.5;"></path><path d="M236.92,122.57c-.18,.28-.33-.11-.95,.21-.6,.27-1.25,.42-1.91,.46l-.14,.27c-.13,.28-1.31-.18-1.31-.63s0,0,.91-.27c.91-.27,0,0,.08-.65,.08-.65-.26-.36-.63-.82-.2-.27-.58-.32-.85-.12h0c-.28,.16-.24,.48-.51,.55-.27,.07-.15,.23-.27,.32s-.3,0-.46,0-.35-.13-.44,0c-.09,.13-.07,.16-.09,.23-.1,.01-.2,.01-.3,0-.07,0-.15-.09-.15-.15,0-.04,0-.08,0-.12,.05-.12,.12-.22,.2-.32,.08-.1,.22-.14,.34-.09,.03-.11,0-.23-.09-.3h.37c.09,0,.36-.77,.39-.89,0-.1-.05-.19-.13-.25-.1-.06-.23,0-.36,0s-.4-.36-.64-.33c-.06,.02-.12,.05-.18,.08l-.29,.21s-.09,.05-.13,.09c0,.06,0,.12,0,.19-.01,.06-.05,.1-.1,.12,.22,0-.08,.22-.13,.23-.23,.08-.69-.08-.96-.11-.04,.02-.1,.02-.14,0,0-.03,0-.07,0-.1-.07-.16-.13-.34-.19-.5-.06-.16-.19-.76,.1-.92,.29-.16,.62,0,.71-.3,.01-.04,.03-.07,.06-.09,.08-.07,.18,.09,.16,.21-.03,.18-.03,.38,0,.56,.07,.19,.32,.3,.46,.19-.09-.14,.09-.3,.26-.3s.35,.08,.5,0c.13-.08,.2-.24,.16-.4-.03-.15-.1-.3-.2-.42-.2,.08-.43,.05-.6-.08-.14-.11-.28-.29-.44-.22,.07-.08,.13-.16,.19-.25-.11-.05-.21-.1-.33-.14-.1-.06-.21-.18-.15-.29,.02-.04,.05-.06,.08-.08h0c.62,.02,1.23,.11,1.82,.27-.19,.35-.23,.99,.64,1.31,1.27,.46,0,0,1.17-.63h0c.92,.44,1.76,1.02,2.5,1.73l-.51,.37c-.54,.36,.17,.55,.17,.55h.74c.4,0,.36,0,.39-.08,.46,.52,.86,1.1,1.19,1.72Z" style="isolation:isolate; opacity:.1;"></path><path d="M222.55,123.19s0,.09,0,.14c-.07,.25-.43,.16-.68,.23-.51,.16-.39,1.06-.89,1.3-.25,.11-.54,0-.78,.11-.16,.12-.31,.25-.44,.41-.26,.24-.62,.34-.97,.28,.2-1.81,.93-3.52,2.09-4.92,.09-.02,.19-.02,.28,0,.18,.06,.31,.23,.34,.42,.03,.19,.03,.39,0,.58l.37-.28c.17,.11,.21,.33,.1,.5h0c-.12,.18-.35,.2-.56,.23s-.44,.15-.46,.35,.12,.32,.22,.44,.21,.33,.12,.47l.82-.48s.1-.05,.15-.06c.15,.01,.28,.13,.29,.28Z" style="isolation:isolate; opacity:.2;"></path><path d="M223.14,121.92l-.07,.22c.21,.08,.43,.08,.64,0,.07-.03,.13-.07,.18-.13,.08-.11,.13-.24,.14-.37,.02-.17,.02-.35,0-.53-.02-.18-.13-.33-.28-.42-.16-.09-.36-.03-.46,.13-.07,.15,0,.34-.08,.49-.08,.15-.23,.19-.28,.32-.03,.12,.04,.25,.17,.28,.01,0,.03,0,.04,0Z" style="isolation:isolate; opacity:.2;"></path><path d="M227.21,117.97c-.29,.25-.76-.08-1.11,.08s-.28,.34-.48,.37c-.11,0-.22,0-.33,0-.12,0-.23,.08-.22,.19,.01,.05,.04,.09,.08,.13l.29,.27s.07,.08,.09,.12c.04,.13-.02,.27-.15,.31h-.01c-.13,.04-.26,.04-.39,0-.08,0-.16-.03-.23-.06-.07,0-.12-.15-.07-.22l.08-.08c.08-.07,.11-.18,.09-.28-.01-.11-.11-.2-.22-.2l-.15,.07-.5,.3c-.23,.13-.53,.27-.76,.15-.04,0-.08-.03-.1-.07v-.15c.02-.06,.02-.13,0-.19,.94-.62,1.99-1.06,3.09-1.3,.36-.08,.72-.14,1.09-.18h0c.07,.27,.09,.57-.09,.72Z" style="isolation:isolate; opacity:.2;"></path><path d="M225.24,120.41c-.1-.04-.22,.01-.26,.12,0,.02-.01,.04-.01,.06l.12,.19v-.11c0,.11,.13,.21,.22,.13,.08-.09,.08-.23,0-.33l-.07-.06Z" style="isolation:isolate; opacity:.2;"></path><path d="M229.48,123.17c-.15-.16-.42-.11-.65-.08-.23,.02-.53-.09-.51-.32,.01-.22,.25-.28,.44-.29,.02-.32-.23-.6-.55-.62-.02,0-.04,0-.06,0,.08,.19,.08,.4,0,.58-.07,.18-.28,.26-.46,.19-.01,0-.02-.01-.03-.02-.29-.22,.07-.81-.21-1.04-.15-.07-.33-.07-.48,0-.56,.13-1.17,.33-1.39,.86,0,.06-.47,0-.61,0s-.22,.43-.25,.58c-.03,.08-.03,.17,0,.26,0,.09,.15,.19,.1,.28-.05,.09-.12,.07-.16,.13-.05,.06,.3,.58,.42,.64,.12,.06,.44,0,.67,.11,.16,.12,.24,.33,.2,.53h-.21c.11,.29,.02,.61-.23,.79,.3-.06,.61,.04,.83,.26,0,0,.11,.12,.18,.12,.05,0,.09-.03,.13-.06,.23-.14,.4-.37,.47-.63h.23c0-.13,0-.34-.14-.29-.14,.05,0,0-.08,.07-.08,.07-.3,0-.32-.2,0-.15,.07-.3,.16-.42,.06-.07,.11-.15,.16-.23,.11-.19,.28-.34,.49-.41,.36-.08,.65,.3,.83,.63,.07,.14,.1,.36,0,.39-.11,.02-.16-.06-.22,0-.06,.06,0,.19-.12,.25-.12,.06-.13,0-.19,0s-.13,.27,0,.41c.13,.14,.17-.08,.27-.14s.44,.09,.65,0c.21-.09,.17-.18,.26-.26,.08-.08,.63-.27,.67-.57s-.12-.33-.15-.5c-.03-.18,.08-.77-.14-.99Z" style="isolation:isolate; opacity:.2;"></path><path d="M222.59,125.44c.1,.02,.2,.02,.29,0,.14,0,.6,.13,.41,.39-.19,.26-.48-.29-.72-.15,.14,0,.13,.27,.06,.41-.07,.14-.15,.32-.06,.44,.19-.08,.37,.09,.58,.14,.21,.05,.53-.15,.79-.1v-.3c0-.11,.2-.08,.29-.15,.09-.07,.21-.15,.3-.08,.09,.07,0-.23,0-.34-.09-.08-.17-.17-.24-.27-.06-.11,0-.27,.07-.3s.22,0,.32,0c.08-.05,.12-.13,.12-.22,0-.09,0-.18,0-.27h-.22c.02,.1-.03,.19-.13,.22-.09,.02-.19,.02-.28,0,.04-.27,0-.55-.1-.81h-.29c0,.12-.13,.19-.24,.19-.11-.02-.21-.08-.29-.15-.06-.06-.13-.12-.21-.09-.08,.02-.15,.15-.14,.27,0,.42-.17,.32-.35,.55-.16,.2-.13,.48,.06,.64Z" style="isolation:isolate; opacity:.1;"></path><path d="M222.79,129.48c-.23,.04-.47,0-.69-.09-.09-.06-.21-.13-.32-.07-.09,.06-.14,.17-.12,.28,0,.09,.1,.19,.14,.29,.13,.27,.13,.59,0,.86-.46,.09-.93-.02-1.31-.3-.04-.04-.07-.08-.11-.13-.08-.19,.18-.4,.13-.58-.05-.19-.41-.33-.29-.5,.12-.17,.22-.07,.33-.12,.12-.06,.17-.21,.11-.33h0c-.28-.14-.61-.05-.78,.21-.2,0-.26-.29-.27-.48s-.14-.47-.34-.4c-.07,.03-.12,.1-.13,.18-.15,.44,.21,.86,.54,1.17,.09,.07,.15,.16,.16,.27,0,.12-.07,.25-.19,.22l.41,.46s.05,.1,.06,.15c0,.03,0,.07,0,.11-.11,.15-.22,.31-.32,.47-.39-.73-.67-1.52-.84-2.33-.16-.74-.23-1.5-.22-2.25,.06-.1,.15-.18,.26-.23,.13,0,.28,0,.4-.07,.29-.08,.42-.46,.71-.57,.24-.08,.5,0,.65,.19,.15,.2,.2,.47,.14,.71-.07,.19-.1,.39-.07,.58,.12,.34,.54,.37,.89,.36-.04,.22,.07,.43,.27,.53,.18,.06,.38-.04,.44-.23,0-.02,.01-.04,.01-.07,.22,0,.5,.14,.5,.37-.04,.14-.13,.27-.26,.35-.09,.12-.18,.29-.08,.41,.09,.12,.41,0,.49,.2s-.16,.37-.32,.4Z" style="isolation:isolate; opacity:.1;"></path><path d="M230.4,136.18h-.3c-.06-.19-.04-.39,.06-.56,.13-.19,.36-.32,.47-.53,.05-.14,.11-.28,.19-.41,.2-.32,.67-.29,1.04-.23-.09-.18-.03-.4,.15-.49h0c.19-.07,.38-.1,.58-.09,.19,.02,.39-.04,.54-.16,0-.06,.09-.14,.16-.16h.16l1.05,.13c0-.26-.28-.4-.53-.42-.25-.02-.54,0-.65-.26-.28,.45-.82,.66-1.33,.5-.03,.01-.06,.01-.09,0-.11-.14,.26-.32,.14-.43l-.5-.2c-.07,0-.15-.06-.19-.13-.03-.07,0-.26,.1-.39,.1-.13-.06-.51-.13-.77-.07-.26,0-.63,.29-.63h.17s.12-.19,.14-.29c.07-.32,.39-.5,.65-.69,.08-.06,.15-.13,.22-.21,.25-.24,.4-.56,.42-.91-.23,.14-.42,.33-.57,.55-.19,.21-.47,.39-.71,.26,.05,.34-.15,.66-.48,.77-.33,.08-.67-.1-.79-.42-.06-.09-.06-.21,0-.3,.09-.03,.2-.03,.29,0,.31,.02,.61-.13,.77-.4-.36,0-.7-.17-.91-.47-.18-.32-.09-.73,.22-.93h-.23c.07-.29,.31-.52,.61-.57h.43c.14-.03,.25-.15,.27-.29-.16-.11-.26-.3-.23-.49,.04-.16,.15-.3,.3-.36-.09,0-.16-.07-.17-.15,0-.12,.08-.23,.2-.26,.12-.03,.25-.03,.37,0,.32,.02,.61,.16,.83,.4,.11,.2,.15,.44,.13,.67v.91c-.04,.3,.06,.6,.27,.82,.14,.09,.31,.13,.48,.12,.49,0,.97-.1,1.42-.29,.24-.08,.44-.25,.57-.47,.1-.22,.14-.47,.12-.71,0-.49,.09-1.27-.41-1.58-.15-.09-.33-.09-.48,0-.09,.07-.16,.18-.27,.21s-.34-.06-.48,0c-.14,.06-.13,.15-.2,.24-.05,.1-.16,.15-.27,.12-.1-.06,0-.23,0-.36s-.2-.5-.15-.76c.05-.26,.29-.4,.46-.58,.15-.17,.28-.36,.39-.57,.15-.07,.33,0,.47,.14,.13,.11,.31,.15,.48,.09,.13,.16-.07,.47,.12,.6h.08c.02,.06,.02,.13,0,.2,0,.23,.12,.51,.35,.58h.09s0,0,0-.07c.05-.31-.02-.62-.2-.88-.03-.06-.06-.11-.08-.18-.02-.06-.02-.12,0-.18,.01-.07,.04-.14,.07-.2,0-.04,0-.08,0-.12,.08-.07,.2,0,.29,0,.09-.02,.18-.05,.26-.11,.12-.05,.25-.05,.37,0,.08,.28,.16,.57,.23,.86,1.18,5.13-2,10.25-7.12,11.48Z" style="isolation:isolate; opacity:.2;"></path><path d="M228.98,133.16c-.04,.19-.04,.39,0,.58-.22,.14-.49,.18-.75,.12-.19,.5,.04,1.06,.51,1.3-.16,.13-.37,.17-.56,.11-.18-.08-.35-.19-.49-.33l-1.17-.9c-.19,.07-.07,.36,.12,.46,.19,.09,.41,.1,.5,.28,.09,.18,0,.53,.1,.71,.1,.07,.2,.13,.3,.17,.17,.13,.25,.36,.2,.57v.15c-1.47-.07-2.9-.49-4.18-1.23h0c0-.07,0-.15,0-.22,0-.35,.33-.58,.6-.79,.3-.18,.49-.49,.51-.84-.46,.12-.63,.69-1.02,.93-.1,.06-.21,.12-.33,.15-.19,.1-.38,.22-.55,.35-.95-.64-1.77-1.45-2.42-2.39,.19-.25,.28-.56,.26-.88,.1-.13,.27,.11,.42,.12s.27-.22,.44-.23c.18-.01,.25,.5,.51,.6s.35-.15,.54-.18c.19-.02,.41,.15,.63,.08,.64-.2,.16-.9,.26-1.3,.06-.19,.29-.22,.44-.32,.22-.15,.36-.41,.36-.68,0-.26-.05-.52-.13-.77-.1-.24-.08-.51,.06-.74,.25-.27,.72-.09,1.06-.27,.34-.18,.34-.5,.58-.69,.22-.15,.49-.23,.76-.22,.07-.01,.14-.01,.21,0,.13,.07,.1,.27,.08,.4-.08,.4-.2,.79-.36,1.17,.3,.14,.72,.27,.95,0,.04-.07,.09-.14,.15-.2,.12-.06,.27-.06,.4,0,.1,.23,.22,.46,.34,.67-.6-.04-1.16,.32-1.37,.89-.01,.08-.05,.16-.09,.23-.08,.09-.2,.15-.33,.14-.38-.05-.76-.17-1.1-.36-.37-.12-.9,0-.99,.33,.3-.11,.56,.21,.85,.33,.17,.06,.35,.09,.53,.09,.44,.04,.86,.15,1.26,.33,.3-.12,.5-.4,.53-.72,.29,.4,.74,.64,1.24,.65-.11,.38-.11,.79,0,1.17,.14,.28,.42,.54,.41,.85-.15,.05-.26,.17-.29,.33Z" style="isolation:isolate; opacity:.2;"></path></g><path d="M237.86,127.84c-.51,.89-1.16,1.71-1.98,2.42-3.98,3.5-10.05,3.1-13.55-.88-1.84-2.09-2.59-4.76-2.32-7.32-.34,.58-.62,1.2-.84,1.87-1.63,5.04,1.13,10.46,6.18,12.09,5.04,1.63,10.46-1.13,12.09-6.18,.21-.66,.35-1.33,.42-1.99Z" style="opacity:.2;"></path></g><g><path d="M209.42,159.31c-.13,.4-21.04,28.53-21.04,28.53l-14.96-19.71s-10.66,14.45-10.2,14.56c.46,.12,19.86,29.43,29.37,22.13,9.51-7.31,24.64-38.98,24.64-38.98l-7.81-6.53Z" style="fill:#b97964;"></path><path d="M188.38,187.83s-1.61,3.78-.83,6.99c0,0-1.21-1.44-1.33-4.07-.12-2.63,.86-4.62,.86-4.62l1.29,1.71Z" style="isolation:isolate; opacity:.2;"></path><path d="M209.05,159.86s-.31-7.94,1.02-9.02c1.33-1.08,2.78-1.24,2.78-1.24,0,0,6.8-11.44,8.32-10.25,.82,.64-.39,3.73-3.68,9.09,0,0,3.32-.5,3.09,1.73,0,0,2.54-.18,2.57,2.43,0,0,1.91,1.27,1.36,3.05-.55,1.78-4.34,7.96-7.28,10.18-2.94,2.22-8.22-2.97-8.22-2.97l.03-3Z" style="fill:#b97964;"></path><path d="M213.67,160.15c-.09,0-.17-.05-.22-.13-.07-.12-.02-.27,.1-.34,.83-.45,1.39-1.42,1.47-2.52,.08-1.05-.35-2.77-.79-3.72-.04-.09-.03-.19,.04-.27s.17-.1,.26-.08c1.29,.4,3.58-.12,4.24-1.2,.35-.57,.3-.91-.17-1.32-.21-.18-.97-.19-1.38-.19-.15,0-.29,0-.39-.01-.63-.04-1.46-.13-2.26-.21-.8-.08-1.62-.17-2.25-.21-.14,0-.24-.13-.23-.27,0-.14,.14-.24,.27-.23,.64,.04,1.47,.13,2.27,.21,.79,.08,1.61,.17,2.24,.21,.1,0,.23,0,.37,0,.74,.01,1.38,.04,1.7,.31,.66,.56,.74,1.18,.27,1.96-.7,1.15-2.84,1.74-4.33,1.52,.39,1.03,.72,2.52,.65,3.52-.09,1.27-.76,2.39-1.73,2.92-.04,.02-.08,.03-.12,.03Z" style="opacity:.3;"></path><path d="M221.61,158.72c-.08,0-.17,0-.25-.02-.79-.16-1.19-1.02-1.23-1.76-.02-.37,.03-.74,.13-1.1-.13,.07-.26,.13-.39,.17-.79,.27-1.66,.14-2.23-.35-.65-.56-.8-1.58-.33-2.23,.08-.11,.24-.14,.35-.06,.11,.08,.14,.24,.06,.35-.32,.44-.2,1.16,.25,1.55,.43,.37,1.11,.47,1.74,.26,.35-.12,.69-.34,1-.64,.15-.22,.33-.43,.53-.61,.1-.09,.24-.09,.33,0,.1,.09,.11,.23,.04,.33-.16,.22-.33,.42-.51,.6-.32,.5-.49,1.09-.46,1.69,.03,.56,.32,1.19,.83,1.29,.29,.06,.63-.06,.91-.32,.28-.25,.48-.61,.67-.95,.07-.12,.22-.16,.34-.09,.12,.07,.16,.22,.09,.34-.21,.37-.43,.76-.77,1.07-.33,.3-.73,.47-1.11,.47Z" style="opacity:.3;"></path></g><path d="M125.45,247.95s-1.66,4.1,12.82,4.1,9.75-14.81,9.75-14.81c0,0-20.49-.09-22.57,10.7Z" style="fill:#407BFF;"></path><path d="M125.45,247.95s-1.66,4.1,12.82,4.1,9.75-14.81,9.75-14.81c0,0-20.49-.09-22.57,10.7Z" style="opacity:.4;"></path><g><path d="M177.27,225.13c.11,.54,52.83,42.68,55.44,58.44,2.62,15.76,5.12,65.04,5.12,65.04l-21.12,3.65s-5.22-47.27-7.72-56.05c-2.5-8.79-30.57-27.64-30.57-27.64l-19.73-36.62,18.58-6.81Z" style="fill:#263238;"></path><path d="M175.13,252.96c.29,.48,32.01,44.49,30.75,59.66-1.26,15.17-7.34,61.2-7.34,61.2h-19.24l.38-62.27s-26.47-37.57-36.13-45.7c-9.65-8.13-13.26-25.51-13.26-25.51l35.56-11.38,9.27,24Z" style="fill:#263238;"></path><path d="M191.62,278.18l-14.77-22.75,1.85-13.05,1.76,12.98s11.15,14.08,11.15,22.82Z" style="opacity:.4;"></path></g><g><g id="freepik--freepik--character-2--inject-5--inject-374"><path d="M166.36,162.22c8.15,6.3,17.45,16.94,17.45,16.94l-12.89,15.4s-18.22-14.87-20-23.03c-1.96-8.95,10.15-13.4,15.44-9.32Z" style="fill:#407BFF;"></path><path d="M158.17,181.97c3.95,4.51,8.22,8.72,12.78,12.6,.12-5.14-4.84-14.46-9.56-18.79-2.31-2.16-3.13,1.58-3.22,6.18Z" style="isolation:isolate; opacity:.2;"></path><path d="M152.08,158.66c-6.58-.72-13.2-1.05-19.83-1-7.77,1.16-17.22,3.4-17.22,3.4,5.2,34.04-1.64,61.88,10.42,87.66,2.87-5.93,11.01-9.35,21.86-10.44,2.01-.2,4.05-.2,6.07-.05,15.58,1.14,23.73-2.31,30.86-7.52-20.89-34.92-18.88-69-18.88-69-4.34-1.36-8.79-2.38-13.29-3.05Z" style="fill:#407BFF;"></path></g><g><path d="M108.63,170.31c-.27,1.28-15.55,37.3-14.81,44.75,1.29,12.98,11.91,35.39,11.91,35.39l6.62-3.84s-4.94-25.42-4.28-30.22c.66-4.79,13.75-37.65,13.75-37.65l-13.19-8.43Z" style="fill:#b97964;"></path><path d="M111.96,244.65s3.69,.35,5.71,2.81c2.03,2.45,4.25,3.88,5.64,5.81,1.39,1.93-1.62,1.15-3.15,.41-1.53-.74-3.28-1.57-3.58-.31-.3,1.26,2.71,12.22,2.09,13.91-.61,1.69-1.63,.04-1.63,.04,0,0,.66,2.68-.28,3.19-.25,.13-1.04,.02-1.53-1.16-1.09-2.66-3.11-8.34-3.11-8.34,.12,.32,2.13,7.5,2.3,8.61,.22,1.45-.39,2.22-1.2,2.28-1.16,.09-3.94-8.73-4.31-9.03,0,0,1.77,5.03,.78,6.16-.99,1.12-2.26-1.99-2.89-4.93-.58-2.7-2.39-7.87-2.72-10.66-.41-3.44,.06-5.81,2.73-7.37,2.67-1.56,5.15-1.42,5.15-1.42Z" style="fill:#b97964;"></path></g><path d="M125.44,176.61c-2.59,6.99-4.72,16.53-8.08,23.22l-18.56-13.04s9.52-23.82,16.47-25.69c9.21-2.18,13.85,4.77,10.17,15.51Z" style="fill:#407BFF;"></path><g style="isolation:isolate; opacity:.2;"><path d="M157.12,197.96c-1.17,9.46-6.15,20.37-17.88,24.81,6.03,.26,12.11-2.68,15.64-7.58,3.53-4.9,4.4-11.59,2.25-17.23Z"></path></g><path d="M117.36,199.83l.62-19.57s3.44,11.65,2.03,17.7c-1.41,6.05-2.65,8.02-2.65,8.02v-6.15Z" style="isolation:isolate; opacity:.2;"></path></g><g style="opacity:.3;"><path d="M228.6,117.18l-.19,.22c-1.1,2.06-.74,4.81,.87,6.52,1.6,1.71,4.32,2.24,6.45,1.27,.67-.31,1.33-.81,1.51-1.53,0-.02,0-.05,0-.07-.65-1.89-1.88-3.59-3.66-4.79-1.53-1.04-3.26-1.56-4.99-1.62Z" style="fill:#fff;"></path></g><g><g><path d="M153.16,115.02s7.11,4.92,4.11,17.78c-3,12.86-17.62-13.54-4.11-17.78Z" style="fill:#263238;"></path><path d="M133.67,157.76s.86-6.15-2.74-16.8c0-.01,.56-.29,.56-.3-.5-1.49-1.02-2.86-1.5-4.05-.01-.03-.01-.05-.01-.05l15.16,8.48c-.2,3.47,1.33,10.08,2.19,12.86,0,0,2.09,5.02-4.69,5.54-4.95,.38-8.96-5.68-8.96-5.68Z" style="fill:#b97964;"></path><path d="M145.59,149.88l-8.58-1.55c.89,2.61,3.36,5.64,9.28,5.64,0,0-.72-2.93-.7-4.09Z" style="opacity:.2;"></path><path d="M129.54,129.4c1.4,9.31,2.01,14.6,7.17,18.94,7.76,6.54,18.7,1.35,20.11-8.22,1.27-8.62-1.24-22.4-10.74-25.23-9.37-2.79-17.94,5.2-16.53,14.51Z" style="fill:#b97964;"></path><g><path d="M149.85,140.33c-.47,1.19-.88,3.39-.88,3.39-.21,0-.41,0-.62-.01-2.8-.08-4.06-1.05-4.62-2.09-.3-.57-.39-1.17-.39-1.66-.01-.57,.11-.97,.11-.97,1.46,.93,4.05,1.21,5.45,1.3,.58,.04,.95,.04,.95,.04Z" style="fill:#263238;"></path><path d="M148.9,140.28l-.28,.99c-2.63-.09-4.47-.5-5.27-1.32-.01-.57,.11-.97,.11-.97,1.46,.93,4.05,1.21,5.45,1.3Z" style="fill:#fff;"></path><path d="M148.25,143.7c-2.74-.08-3.98-1.02-4.52-2.03,.93,.06,2.05,.24,3.02,.69,.75,.34,1.21,.84,1.51,1.34Z" style="fill:#de5753;"></path></g><path d="M127.36,118.24c.83-5.27,13.76-6.47,17.6-4.16,.57,.35-6.75,4.87-6.3,4.66l-3.5,1.57c-.57-.07-1.6,.67-2.01,2.45,0,0,1.68,14.32-2.02,18.84-3.41-1.31-4.1-6.98-5.43-10.28-1.98-4.91-4.49-12.14,1.66-13.08Z" style="fill:#263238;"></path><path d="M142.97,131.79c.08,.96,.66,1.69,1.29,1.62,.63-.06,1.07-.89,.98-1.85-.08-.96-.66-1.69-1.29-1.62-.63,.06-1.07,.89-.98,1.85Z" style="fill:#263238;"></path><path d="M152.26,131.16c.08,.96,.66,1.69,1.29,1.62,.63-.06,1.07-.89,.98-1.85-.08-.96-.66-1.69-1.29-1.62-.63,.06-1.07,.89-.98,1.85Z" style="fill:#263238;"></path><path d="M149.5,130.01s2.71,3.53,4.12,5.62c.31,.46,.13,1.1-.38,1.34-1.23,.58-2.72,.36-2.72,.36l-1.02-7.32Z" style="fill:#a24e3f;"></path><path d="M140.45,126.61c.15,.05,.32,.01,.44-.1,1.47-1.38,3.09-1.01,3.11-1,.24,.06,.49-.09,.55-.33,.06-.24-.09-.48-.33-.54-.09-.02-2.11-.48-3.94,1.22-.18,.17-.19,.45-.02,.63,.05,.06,.12,.1,.19,.12Z" style="fill:#263238;"></path><g><path d="M131.72,137.39c4.6,2.7,3.57-2.12,3.25-2.61-1.41-2.16-.13-5.12,1.47-9.29,.71-1.86,.23-4.9,.23-4.9,0,0-5.68-1.15-9.09-.33-3.52,.85-3.67,3.68-3.67,3.68,.68,8.9,4.11,11.28,7.81,13.45Z" style="fill:#263238;"></path><path d="M126.9,125.33s-4.15-5.68,2.95-11.05c7.1-5.37,18.38-5.89,24.76-3.58,6.37,2.31,1.65,7.63-5.17,9.88-3.73,1.23-5.28,.58-5.28,.58,0,0,1.93,.27,4.7-2.26,0,0-9.25-.15-10.8,5.45-1.55,5.6-11.16,.97-11.16,.97Z" style="fill:#263238;"></path></g><g><path d="M126.53,137.61c.96,2.35,2.92,4.02,4.86,4.77,2.92,1.14,3.69-2.01,3.16-4.93-.47-2.63-1.53-5.8-4.6-5.69-3.02,.11-4.52,3.17-3.42,5.85Z" style="fill:#b97964;"></path><path d="M132.97,137.43c-.12,0-.22-.08-.24-.2-.15-.76-.51-1.46-1.02-2.04-.33-.37-.87-.84-1.55-.95-.61-.1-1.24,.17-1.49,.64-.07,.12-.22,.16-.34,.1-.12-.07-.16-.22-.1-.34,.36-.65,1.19-1.01,2.01-.89,.83,.13,1.47,.68,1.85,1.11,.57,.65,.96,1.43,1.13,2.27,.03,.14-.06,.27-.2,.29-.02,0-.03,0-.05,0Z" style="opacity:.2;"></path></g><path d="M156.39,125.86c.08-.03,.16-.07,.22-.15,.16-.19,.13-.48-.06-.64-1.92-1.58-3.89-.95-3.98-.94-.24,.08-.37,.33-.29,.57,.07,.24,.32,.37,.56,.29,.08-.03,1.61-.49,3.15,.78,.12,.1,.28,.12,.42,.08Z" style="fill:#263238;"></path></g><g><path d="M158.51,122.97c-2.24-1.92-5.65-2.11-8.66-1.63-3.01,.47-7.53,1.43-10.89,2.71-2.66,1.16-3.21,3.39-3.51,5.94-.3,2.55,.73,5.27,2.91,6.86,2.19,1.58,5.53,1.8,7.75,.26,1.95-1.36,3.23-3.97,5.68-4,2.4-.02,4.29,2.65,6.64,2.19,2.03-.4,2.66-2.75,2.7-4.66,.05-2.76-.43-5.77-2.62-7.65Z" style="fill:#407BFF;"></path><path d="M157.94,123.38c-2.02-1.6-5.02-1.55-7.73-1.16-2.71,.4-6.7,1.27-9.73,2.34-2.4,.97-3.05,2.55-3.31,4.68-.27,2.13,.65,4.41,2.62,5.73,1.97,1.32,3.88,1.36,5.88,.07,1.76-1.14,3.39-3.96,5.6-3.98,2.17-.02,5.03,3.02,7.15,2.64,1.83-.33,1.94-2.96,1.97-4.56,.04-2.3-.47-4.19-2.45-5.76Z" style="fill:#263238;"></path><path d="M130.44,131.75l6.8-5.87-1.03,5.8-2.66,2.47s-.59-2.32-3.11-2.39Z" style="fill:#407BFF;"></path><path d="M148.41,122.54l-10.07,10.87s.55,1.55,2.45,2.05l11.6-13.46s-3.27,.14-3.98,.53Z" style="fill:#fff; opacity:.3;"></path><path d="M150.58,131.15l5.64-8.7s.86,.1,1.71,.92l-4.93,8.11s-1.18-.71-2.43-.34Z" style="fill:#fff; opacity:.3;"></path><path d="M135.55,132.3c.16,.12-.41-1.37,.28-3.56,0,0-1.66,3.19-1.34,4.55l1.06-.99Z" style="opacity:.2;"></path></g></g></g></g></svg>
