<svg xmlns="http://www.w3.org/2000/svg" xmlns:xlink="http://www.w3.org/1999/xlink" viewBox="0 0 500 500"><defs><clipPath id="freepik--clip-path--inject-36"><path d="M267.55,176.53s.56,7.06-1.41,11-9.89,7.91-16.67,11.58-16.38,3.11-20.33,9.32-3.67,16.66-3.67,16.66-6.22,9.61-11.3,18.08-7.91,17.23-1.41,22,14.4-2.26,18.64-9,8.19-14.4,8.19-14.4S245,268,243.54,275.09s-4.8,13.84-4.8,17,2.54,5.37,6.5,6.21,17.51,2,26.83,1.42,35.87-2.26,37-5.94,2.82-29.09,2.82-29.09,16.66,5.65,21.75-4.51,5.36-33,1.69-44.35-13-15.53-18.64-18.35-21.18-10.17-24-13.28S289,165.79,289,160.71s-.56-.28-5.93,3.67S267.55,176.53,267.55,176.53Z" style="fill:#fff;stroke:#263238;stroke-linecap:round;stroke-linejoin:round"></path></clipPath><clipPath id="freepik--clip-path-2--inject-36"><path d="M316.69,197.43c-4.4-2.21-14.82-7.16-20.53-10.7-1.88,5.64-7.4,18.6-18.44,18.6-10.18,0-13.17-9.52-14-14.85-3.38,3-9.11,5.88-14.21,8.64-6.77,3.67-16.38,3.11-20.33,9.32s-3.67,16.66-3.67,16.66-2.1,3.25-4.85,7.62c11.41-.57,19,9.05,19,9.05S245,268,243.54,275.09s-4.8,13.84-4.8,17,2.54,5.37,6.5,6.21,17.51,2,26.83,1.42,35.87-2.26,37-5.94,2.82-29.09,2.82-29.09l-1.69-22.31c14.19-9.38,24.11-2.81,27.36,0,.7-9.59-.1-20-2.23-26.56C331.66,204.49,322.34,200.25,316.69,197.43Z" style="fill:#7E57C2;stroke:#263238;stroke-linecap:round;stroke-linejoin:round"></path></clipPath><clipPath id="freepik--clip-path-3--inject-36"><path d="M212.38,249s-2.79,1.48-5,6.87-5,15.4-2.23,18.56,9.1.37,15-.37,30.63-15.22,34.71-17.64,7.43-3.34,8.73-5.57.93-10.21,1.11-14.11-.74-21.35-.74-21.35-1.3-4.27-3.53-3.9c0,0-2.6-1.48-3.15,0l-1.12,3s-2.41-.74-3,.56a16.49,16.49,0,0,0-.74,3.9s-2.78,1.3-2.78,3,.55,11.7.55,14.48-.37,7.06.56,8.91,1.86,3.53,1.86,3.53-13.56,1.86-19.31,1.86-15.78.18-17.64,1.11" style="fill:#fff;stroke:#263238;stroke-linecap:round;stroke-linejoin:round"></path></clipPath><clipPath id="freepik--clip-path-4--inject-36"><path d="M325.26,258c-8.91-5.75-27.48-1.3-33.42-1.67s-22.46-9.47-22.46-9.47,3.34-3.34,3.52-5.38,0-7.61,0-10.77.93-6.31,1.12-8.72-3-.75-3.53,0-1.86,8.16-1.86,8.16-1.67-5-1.67-5.56-.37-7.43-1.3-10.22-3.15,0-3.15,0c-.19-1.67-.75-3-2.05-3s-2.41,4.65-2.41,4.65c0-2.79-.93-2.6-1.86-1.68s-.92,7.06-.92,7.06l-1.12-1.67c-1.3-.37-2,1.67-2,3.53s.74,7.42.74,12.06a34.75,34.75,0,0,0,.56,7.06,28.46,28.46,0,0,0,4.08,9.1c3.16,4.64,13.74,10.39,20.24,15.4s25.62,13.37,35.09,14.86,16,5,18.19.93,6.31-24.14,4.27-30.82" style="fill:#fff;stroke:#263238;stroke-linecap:round;stroke-linejoin:round"></path></clipPath><clipPath id="freepik--clip-path-5--inject-36"><path d="M243.38,329a21.34,21.34,0,0,1-5.57-3.71c-2.22-2.23,0-7.8-3-10s-8.91-3-10,.38-1.86,5.57-4.09,6.31-4.82.74-8.91,2.6-4.08,8.54-4.08,8.54a113,113,0,0,1,23,5.57c10.77,4.08,15.59,1.85,15.59,1.85S246.73,333.05,243.38,329Z" style="fill:#fff;stroke:#263238;stroke-linecap:round;stroke-linejoin:round"></path></clipPath><clipPath id="freepik--clip-path-6--inject-36"><path d="M270.49,338.25c-4.83-1.12-5.2,0-16.71-.38s-24.13-4.45-24.13-4.45-1.08.16-3.74-1.07c-1.92,1.66-4.22,4.33-4.43,7.75a10.48,10.48,0,0,0,3.15,7.6c2,.53,3.93,1,5.76,1.31,8.17,1.49,18.19,5.2,23.39,7.43a32.42,32.42,0,0,0,13.37,3c4.08,0,2.49.61,5.47-.14s1.95-2.83,1.95-2.83a13.07,13.07,0,0,0,3.72-.74c2.22-.75,1.48-3.72,1.48-3.72a11.14,11.14,0,0,0,4.28-.69c2.27-1.19,2.27-3.69,1.29-6C283.86,341.82,275.32,339.36,270.49,338.25Z" style="fill:#fff;stroke:#263238;stroke-linecap:round;stroke-linejoin:round"></path></clipPath><clipPath id="freepik--clip-path-7--inject-36"><path d="M261.05,124s-7.06,6.49-6.49,13.55-1.7,11-.85,16.1,2,15,4,17.51,2.26,5.37,4.24,6.78,8.76,1.41,10.17-.85,16.38-11,17.51-14.12.85-3.95.85-3.95,9.88-5.93,8.47-11-5.37-7.06-7.63-5.36-2.54,2.54-2.54,2.54-5.91-3.89-4.78-7.56,4.66-4.93,3.53-9.17-9.58-2.12-18.57-1.43C261.87,127.56,264.2,121.4,261.05,124Z" style="fill:#fff;stroke:#263238;stroke-linecap:round;stroke-linejoin:round"></path></clipPath></defs><g id="freepik--background-simple--inject-36"><path d="M112.62,365.76c-18.4-6.17-34.18-17.41-43.79-38.38C52,290.55,78,249.89,106.43,236.85s68.28-15.35,69.82-36.07S144,147.07,171.65,121c23.3-22,57.58-29.64,88.57-32.17,51.59-4.22,98.34,5.64,130.23,49.37,14.08,19.31,28.23,46.24,24.42,71-6.14,39.9-33,56-25.32,79s35.29,15.35,46.8,44.5c6.57,16.63,2.72,33.08-13.76,41.46-18.74,9.53-41.13,4.83-61.17,4.57-31.87-.41-63.75-1.24-95.62-2.14q-40.05-1.11-80.1-2.52C161.32,373.29,136,373.6,112.62,365.76Z" style="fill:#7E57C2"></path><path d="M112.62,365.76c-18.4-6.17-34.18-17.41-43.79-38.38C52,290.55,78,249.89,106.43,236.85s68.28-15.35,69.82-36.07S144,147.07,171.65,121c23.3-22,57.58-29.64,88.57-32.17,51.59-4.22,98.34,5.64,130.23,49.37,14.08,19.31,28.23,46.24,24.42,71-6.14,39.9-33,56-25.32,79s35.29,15.35,46.8,44.5c6.57,16.63,2.72,33.08-13.76,41.46-18.74,9.53-41.13,4.83-61.17,4.57-31.87-.41-63.75-1.24-95.62-2.14q-40.05-1.11-80.1-2.52C161.32,373.29,136,373.6,112.62,365.76Z" style="fill:#fff;opacity:0.7000000000000001"></path></g><g id="freepik--Ground--inject-36"><polygon points="169.87 352.36 47.33 371.91 273.09 411.02 458 379.02 169.87 352.36" style="fill:#7E57C2"></polygon></g><g id="freepik--Character--inject-36"><path d="M242.64,294.8s-5.2,1.49-21.16,1.12-39-7.8-47.9-7.8S155,291.46,151.3,298.89s-7.06,16.71,14.48,25.25,37.87,11.14,68.69,18.93,43.07,8.17,59,4.09,26.73-14.48,25.25-29-4.83-23.39-12.62-25.62S242.64,294.8,242.64,294.8Z" style="fill:#263238;stroke:#263238;stroke-linecap:round;stroke-linejoin:round"></path><path d="M267.55,176.53s.56,7.06-1.41,11-9.89,7.91-16.67,11.58-16.38,3.11-20.33,9.32-3.67,16.66-3.67,16.66-6.22,9.61-11.3,18.08-7.91,17.23-1.41,22,14.4-2.26,18.64-9,8.19-14.4,8.19-14.4S245,268,243.54,275.09s-4.8,13.84-4.8,17,2.54,5.37,6.5,6.21,17.51,2,26.83,1.42,35.87-2.26,37-5.94,2.82-29.09,2.82-29.09,16.66,5.65,21.75-4.51,5.36-33,1.69-44.35-13-15.53-18.64-18.35-21.18-10.17-24-13.28S289,165.79,289,160.71s-.56-.28-5.93,3.67S267.55,176.53,267.55,176.53Z" style="fill:#fff"></path><g style="clip-path:url(#freepik--clip-path--inject-36)"><path d="M335.33,215.78c-3.67-11.29-13-15.53-18.64-18.35s-21.18-10.17-24-13.28S289,165.79,289,160.71s-.56-.28-5.93,3.67-15.53,12.15-15.53,12.15a36.85,36.85,0,0,1,0,4.81c3.21,1.39,7.46,3,9.83,3,4.13,0,5.37,2.89,7,5.78s-1.24,6.19-1.24,6.19,13.21.83,17.75,2.06,16.51,2.89,23.94,9.09c5.87,4.88,9.93,13.87,12.6,19.68A54,54,0,0,0,335.33,215.78Z" style="fill:#7E57C2"></path><path d="M335.33,215.78c-3.67-11.29-13-15.53-18.64-18.35s-21.18-10.17-24-13.28S289,165.79,289,160.71s-.56-.28-5.93,3.67-15.53,12.15-15.53,12.15a36.85,36.85,0,0,1,0,4.81c3.21,1.39,7.46,3,9.83,3,4.13,0,5.37,2.89,7,5.78s-1.24,6.19-1.24,6.19,13.21.83,17.75,2.06,16.51,2.89,23.94,9.09c5.87,4.88,9.93,13.87,12.6,19.68A54,54,0,0,0,335.33,215.78Z" style="fill:#fff;opacity:0.6000000000000001"></path></g><path d="M267.55,176.53s.56,7.06-1.41,11-9.89,7.91-16.67,11.58-16.38,3.11-20.33,9.32-3.67,16.66-3.67,16.66-6.22,9.61-11.3,18.08-7.91,17.23-1.41,22,14.4-2.26,18.64-9,8.19-14.4,8.19-14.4S245,268,243.54,275.09s-4.8,13.84-4.8,17,2.54,5.37,6.5,6.21,17.51,2,26.83,1.42,35.87-2.26,37-5.94,2.82-29.09,2.82-29.09,16.66,5.65,21.75-4.51,5.36-33,1.69-44.35-13-15.53-18.64-18.35-21.18-10.17-24-13.28S289,165.79,289,160.71s-.56-.28-5.93,3.67S267.55,176.53,267.55,176.53Z" style="fill:none;stroke:#263238;stroke-linecap:round;stroke-linejoin:round"></path><path d="M307.09,143.48c2.26-4.23,5.65-11.58,1.13-16.66s-7.34-2-7.91-7.06-1.69-10.45-6.78-10.45-8.75,2-11.86,0-5.65-7.63-13.56-7.63-7.9,12.15-9.32,13.56a7.28,7.28,0,0,1-2.31,1.11,2.06,2.06,0,0,1-1.36-1.11c-1.41-2.82,2.54-2.54,4.24-6.78s-3.11-7.06-6.5-4.52,3.67,2.26-.28,6.5S246.37,119.76,250,126s7.91,2.54,7.91,2.54c.84-.56,1.6,2.62,9.13,4,7.17,1.31,12.07-1,12.64,6.88s7.6,12.29,9.58,13.42-3.11,7.35-2,10.17,4.8,2.54,7.06,2.26.85-3.67,5.65-4.24,6.49-2,8.47-7.34S304.83,147.72,307.09,143.48Z" style="fill:#263238;stroke:#263238;stroke-linecap:round;stroke-linejoin:round"></path><path d="M306.12,135.87a3.52,3.52,0,0,0,2.44-.62" style="fill:none;stroke:#fff;stroke-linecap:round;stroke-linejoin:round"></path><path d="M288.77,124.37s5-4,7.92,1c1.79,3,4.12,7,6.66,9.14" style="fill:none;stroke:#fff;stroke-linecap:round;stroke-linejoin:round"></path><path d="M286.3,138.22a35.83,35.83,0,0,1,9.4-.5c4.45.5,4,4,8.9,4" style="fill:none;stroke:#fff;stroke-linecap:round;stroke-linejoin:round"></path><path d="M265.65,119.47a9.24,9.24,0,0,0,1.4,1.38" style="fill:none;stroke:#fff;stroke-linecap:round;stroke-linejoin:round"></path><path d="M286.1,119.52s-1.28,4.35-6.23-1.58-8.38-12.8-14-6.91a5.75,5.75,0,0,0-1.88,4.85" style="fill:none;stroke:#fff;stroke-linecap:round;stroke-linejoin:round"></path><path d="M253.16,121.13a11.41,11.41,0,0,1-1-3.19" style="fill:none;stroke:#fff;stroke-linecap:round;stroke-linejoin:round"></path><path d="M262.06,125.85s-4.75.56-7.74-2.95" style="fill:none;stroke:#fff;stroke-linecap:round;stroke-linejoin:round"></path><path d="M316.69,197.43c-4.4-2.21-14.82-7.16-20.53-10.7-1.88,5.64-7.4,18.6-18.44,18.6-10.18,0-13.17-9.52-14-14.85-3.38,3-9.11,5.88-14.21,8.64-6.77,3.67-16.38,3.11-20.33,9.32s-3.67,16.66-3.67,16.66-2.1,3.25-4.85,7.62c11.41-.57,19,9.05,19,9.05S245,268,243.54,275.09s-4.8,13.84-4.8,17,2.54,5.37,6.5,6.21,17.51,2,26.83,1.42,35.87-2.26,37-5.94,2.82-29.09,2.82-29.09l-1.69-22.31c14.19-9.38,24.11-2.81,27.36,0,.7-9.59-.1-20-2.23-26.56C331.66,204.49,322.34,200.25,316.69,197.43Z" style="fill:#7E57C2"></path><g style="clip-path:url(#freepik--clip-path-2--inject-36)"><path d="M335.33,215.78c-3.67-11.29-13-15.53-18.64-18.35s-21.18-10.17-24-13.28S289,165.79,289,160.71s-.56-.28-5.93,3.67-15.53,12.15-15.53,12.15a36.85,36.85,0,0,1,0,4.81c3.21,1.39,7.46,3,9.83,3,4.13,0,5.37,2.89,7,5.78s-1.24,6.19-1.24,6.19,13.21.83,17.75,2.06,16.51,2.89,23.94,9.09c5.87,4.88,9.93,13.87,12.6,19.68A54,54,0,0,0,335.33,215.78Z" style="opacity:0.15"></path><path d="M296.77,198s-4.13,7.84-12,10.32a27.38,27.38,0,0,1-14,.83s5.78,3.3,14.45,1.24S296.77,198,296.77,198Z" style="opacity:0.15"></path><path d="M308.33,236.79s.41,13.21-4.54,16.51-20.64,6.19-26.83,4.54-12-10.32-17.75-8.67-15.69,12.39-15.69,12.39l.41,7.43,17.75-8.67s12,7,25.18,15.68.83,10.74.83,10.74l-16.51,6.19s10.73-4.13,19-4.13,2.89,1.65,2.89,1.65h15.68l.33,3.28,3-20.2-.83-24.36S310.4,232.66,308.33,236.79Z" style="opacity:0.15"></path></g><path d="M316.69,197.43c-4.4-2.21-14.82-7.16-20.53-10.7-1.88,5.64-7.4,18.6-18.44,18.6-10.18,0-13.17-9.52-14-14.85-3.38,3-9.11,5.88-14.21,8.64-6.77,3.67-16.38,3.11-20.33,9.32s-3.67,16.66-3.67,16.66-2.1,3.25-4.85,7.62c11.41-.57,19,9.05,19,9.05S245,268,243.54,275.09s-4.8,13.84-4.8,17,2.54,5.37,6.5,6.21,17.51,2,26.83,1.42,35.87-2.26,37-5.94,2.82-29.09,2.82-29.09l-1.69-22.31c14.19-9.38,24.11-2.81,27.36,0,.7-9.59-.1-20-2.23-26.56C331.66,204.49,322.34,200.25,316.69,197.43Z" style="fill:none;stroke:#263238;stroke-linecap:round;stroke-linejoin:round"></path><path d="M239.59,241.77s-4.37-13.43-2.52-20.49" style="fill:none;stroke:#263238;stroke-linecap:round;stroke-linejoin:round"></path><path d="M310.2,242.33a33,33,0,0,1,.76-15.85" style="fill:none;stroke:#263238;stroke-linecap:round;stroke-linejoin:round"></path><path d="M245.24,298.25s13.74-2,23-4.19" style="fill:none;stroke:#263238;stroke-linecap:round;stroke-linejoin:round"></path><path d="M212.38,249s-2.79,1.48-5,6.87-5,15.4-2.23,18.56,9.1.37,15-.37,30.63-15.22,34.71-17.64,7.43-3.34,8.73-5.57.93-10.21,1.11-14.11-.74-21.35-.74-21.35-1.3-4.27-3.53-3.9c0,0-2.6-1.48-3.15,0l-1.12,3s-2.41-.74-3,.56a16.49,16.49,0,0,0-.74,3.9s-2.78,1.3-2.78,3,.55,11.7.55,14.48-.37,7.06.56,8.91,1.86,3.53,1.86,3.53-13.56,1.86-19.31,1.86-15.78.18-17.64,1.11" style="fill:#fff"></path><g style="clip-path:url(#freepik--clip-path-3--inject-36)"><path d="M263.62,250.8c.65-1.12.89-3.7,1-6.49l-8.92,1.94s.91,4.08-4.09,7.26-32.21,12.25-34,12.7,17.25-8.16,10-7.71-15.89,8.17-20.88,8.17a8.19,8.19,0,0,1-2.36-.33c-.55,3.42-.51,6.52.83,8,2.78,3.16,9.1.37,15-.37s30.63-15.22,34.71-17.64S262.32,253,263.62,250.8Z" style="fill:#7E57C2"></path><path d="M263.62,250.8c.65-1.12.89-3.7,1-6.49l-8.92,1.94s.91,4.08-4.09,7.26-32.21,12.25-34,12.7,17.25-8.16,10-7.71-15.89,8.17-20.88,8.17a8.19,8.19,0,0,1-2.36-.33c-.55,3.42-.51,6.52.83,8,2.78,3.16,9.1.37,15-.37s30.63-15.22,34.71-17.64S262.32,253,263.62,250.8Z" style="fill:#fff;opacity:0.6000000000000001"></path></g><path d="M212.38,249s-2.79,1.48-5,6.87-5,15.4-2.23,18.56,9.1.37,15-.37,30.63-15.22,34.71-17.64,7.43-3.34,8.73-5.57.93-10.21,1.11-14.11-.74-21.35-.74-21.35-1.3-4.27-3.53-3.9c0,0-2.6-1.48-3.15,0l-1.12,3s-2.41-.74-3,.56a16.49,16.49,0,0,0-.74,3.9s-2.78,1.3-2.78,3,.55,11.7.55,14.48-.37,7.06.56,8.91,1.86,3.53,1.86,3.53-13.56,1.86-19.31,1.86-15.78.18-17.64,1.11" style="fill:none;stroke:#263238;stroke-linecap:round;stroke-linejoin:round"></path><path d="M325.26,258c-8.91-5.75-27.48-1.3-33.42-1.67s-22.46-9.47-22.46-9.47,3.34-3.34,3.52-5.38,0-7.61,0-10.77.93-6.31,1.12-8.72-3-.75-3.53,0-1.86,8.16-1.86,8.16-1.67-5-1.67-5.56-.37-7.43-1.3-10.22-3.15,0-3.15,0c-.19-1.67-.75-3-2.05-3s-2.41,4.65-2.41,4.65c0-2.79-.93-2.6-1.86-1.68s-.92,7.06-.92,7.06l-1.12-1.67c-1.3-.37-2,1.67-2,3.53s.74,7.42.74,12.06a34.75,34.75,0,0,0,.56,7.06,28.46,28.46,0,0,0,4.08,9.1c3.16,4.64,13.74,10.39,20.24,15.4s25.62,13.37,35.09,14.86,16,5,18.19.93,6.31-24.14,4.27-30.82" style="fill:#fff"></path><g style="clip-path:url(#freepik--clip-path-4--inject-36)"><path d="M312.82,281.81c9.47,1.48,16,5,18.19.93,1.58-2.89,4.07-13.74,4.69-22.22-1.89,3.75-7.11,13.58-10.44,14.25-4.13.82-21.88-4.13-23.95-4.54s26-1.24,15.69-3.72-18.16-.83-31-4.54-23.24-6.4-28.55-10.42c3.16,4.64,13.74,10.39,20.24,15.4S303.35,280.32,312.82,281.81Z" style="fill:#7E57C2"></path><path d="M312.82,281.81c9.47,1.48,16,5,18.19.93,1.58-2.89,4.07-13.74,4.69-22.22-1.89,3.75-7.11,13.58-10.44,14.25-4.13.82-21.88-4.13-23.95-4.54s26-1.24,15.69-3.72-18.16-.83-31-4.54-23.24-6.4-28.55-10.42c3.16,4.64,13.74,10.39,20.24,15.4S303.35,280.32,312.82,281.81Z" style="fill:#fff;opacity:0.6000000000000001"></path></g><path d="M325.26,258c-8.91-5.75-27.48-1.3-33.42-1.67s-22.46-9.47-22.46-9.47,3.34-3.34,3.52-5.38,0-7.61,0-10.77.93-6.31,1.12-8.72-3-.75-3.53,0-1.86,8.16-1.86,8.16-1.67-5-1.67-5.56-.37-7.43-1.3-10.22-3.15,0-3.15,0c-.19-1.67-.75-3-2.05-3s-2.41,4.65-2.41,4.65c0-2.79-.93-2.6-1.86-1.68s-.92,7.06-.92,7.06l-1.12-1.67c-1.3-.37-2,1.67-2,3.53s.74,7.42.74,12.06a34.75,34.75,0,0,0,.56,7.06,28.46,28.46,0,0,0,4.08,9.1c3.16,4.64,13.74,10.39,20.24,15.4s25.62,13.37,35.09,14.86,16,5,18.19.93,6.31-24.14,4.27-30.82" style="fill:none;stroke:#263238;stroke-linecap:round;stroke-linejoin:round"></path><path d="M268.63,230.19a19.51,19.51,0,0,1,1.49,7.62" style="fill:none;stroke:#263238;stroke-linecap:round;stroke-linejoin:round"></path><path d="M262.51,214.41a46.13,46.13,0,0,1,1.11,7.24c0,2.42.37,8,.37,8" style="fill:none;stroke:#263238;stroke-linecap:round;stroke-linejoin:round"></path><path d="M258.05,216.09s.74,4.27,1.11,7a49.65,49.65,0,0,1,.19,7.05" style="fill:none;stroke:#263238;stroke-linecap:round;stroke-linejoin:round"></path><path d="M255.27,221.47s.55,3.34.92,4.83a40,40,0,0,1,.38,5.94" style="fill:none;stroke:#263238;stroke-linecap:round;stroke-linejoin:round"></path><path d="M243.38,329a21.34,21.34,0,0,1-5.57-3.71c-2.22-2.23,0-7.8-3-10s-8.91-3-10,.38-1.86,5.57-4.09,6.31-4.82.74-8.91,2.6-4.08,8.54-4.08,8.54a113,113,0,0,1,23,5.57c10.77,4.08,15.59,1.85,15.59,1.85S246.73,333.05,243.38,329Z" style="fill:#fff"></path><g style="clip-path:url(#freepik--clip-path-5--inject-36)"><path d="M238.89,332.92s-6.35-.91-7.71-3.18.9-6.35-2.73-6.35-3.17,2.72-6.35,3.63-8.17-.46-5.9,2.27,11.35,8.16,16.79,9.07S242.52,336.09,238.89,332.92Z" style="fill:#7E57C2"></path><path d="M238.89,332.92s-6.35-.91-7.71-3.18.9-6.35-2.73-6.35-3.17,2.72-6.35,3.63-8.17-.46-5.9,2.27,11.35,8.16,16.79,9.07S242.52,336.09,238.89,332.92Z" style="fill:#fff;opacity:0.6000000000000001"></path></g><path d="M243.38,329a21.34,21.34,0,0,1-5.57-3.71c-2.22-2.23,0-7.8-3-10s-8.91-3-10,.38-1.86,5.57-4.09,6.31-4.82.74-8.91,2.6-4.08,8.54-4.08,8.54a113,113,0,0,1,23,5.57c10.77,4.08,15.59,1.85,15.59,1.85S246.73,333.05,243.38,329Z" style="fill:none;stroke:#263238;stroke-linecap:round;stroke-linejoin:round"></path><path d="M271,339.93a123.83,123.83,0,0,0,16.57-5.54c7.1-2.88,14.28-5.71,21.13-9.14,10.4-5.2,14.11-13,11.51-22.65s-7.05-17.08-26-13.74-24.95,14.74-33,23.39c-9.95,10.65-18.15,16.13-21.91,15.6-4.29-.6-5.2,7.42.74,10.4C249.64,343.05,260.59,342.49,271,339.93Z" style="fill:#263238;stroke:#263238;stroke-linecap:round;stroke-linejoin:round"></path><path d="M242.52,327.47s9.07-1.81,18.6-12.7S272,302.06,272,302.06" style="fill:none;stroke:#fff;stroke-linecap:round;stroke-linejoin:round"></path><path d="M310.66,324.55a35.34,35.34,0,0,0,4.46-4.34" style="fill:none;stroke:#fff;stroke-linecap:round;stroke-linejoin:round"></path><path d="M281.09,339.27s14.06-4.06,25.28-11.54" style="fill:none;stroke:#fff;stroke-linecap:round;stroke-linejoin:round"></path><path d="M168.38,289a35.3,35.3,0,0,0-10-.46c-8.91.74-14.85,6.31-16.33,11.14s3.71,17.08,15.22,25.25,23.39,10,39.36,14.48c14.15,3.95,29,8.6,28,8.34a10.48,10.48,0,0,1-3.15-7.6c.21-3.42,2.51-6.09,4.43-7.75-3-1.38-7.93-4.5-15.57-11.56-12.3-11.34-24.86-22.69-32.23-27.91" style="fill:#263238;stroke:#263238;stroke-linecap:round;stroke-linejoin:round"></path><path d="M174.15,293.6c-2.06-1-3.32-1.52-3.32-1.52" style="fill:none;stroke:#fff;stroke-linecap:round;stroke-linejoin:round"></path><path d="M212.57,321.12s-19.51-15.43-27.22-20.87a82.23,82.23,0,0,0-7.59-4.76" style="fill:none;stroke:#fff;stroke-linecap:round;stroke-linejoin:round"></path><path d="M270.49,338.25c-4.83-1.12-5.2,0-16.71-.38s-24.13-4.45-24.13-4.45-1.08.16-3.74-1.07c-1.92,1.66-4.22,4.33-4.43,7.75a10.48,10.48,0,0,0,3.15,7.6c2,.53,3.93,1,5.76,1.31,8.17,1.49,18.19,5.2,23.39,7.43a32.42,32.42,0,0,0,13.37,3c4.08,0,2.49.61,5.47-.14s1.95-2.83,1.95-2.83a13.07,13.07,0,0,0,3.72-.74c2.22-.75,1.48-3.72,1.48-3.72a11.14,11.14,0,0,0,4.28-.69c2.27-1.19,2.27-3.69,1.29-6C283.86,341.82,275.32,339.36,270.49,338.25Z" style="fill:#fff"></path><g style="clip-path:url(#freepik--clip-path-6--inject-36)"><path d="M272.62,359.27c1.85-.46,2.15-1.45,2.12-2.13a23.78,23.78,0,0,1-3.18.28c-5.9,0-12.7-5-24.05-6.81-6.21-1-16.09-2.66-23.76-4,.29.38.58.74.88,1.07,2,.53,3.93,1,5.76,1.31,8.17,1.49,18.19,5.2,23.39,7.43a32.42,32.42,0,0,0,13.37,3C271.23,359.41,269.64,360,272.62,359.27Z" style="fill:#7E57C2"></path><path d="M272.62,359.27c1.85-.46,2.15-1.45,2.12-2.13a23.78,23.78,0,0,1-3.18.28c-5.9,0-12.7-5-24.05-6.81-6.21-1-16.09-2.66-23.76-4,.29.38.58.74.88,1.07,2,.53,3.93,1,5.76,1.31,8.17,1.49,18.19,5.2,23.39,7.43a32.42,32.42,0,0,0,13.37,3C271.23,359.41,269.64,360,272.62,359.27Z" style="fill:#fff;opacity:0.6000000000000001"></path></g><path d="M270.49,338.25c-4.83-1.12-5.2,0-16.71-.38s-24.13-4.45-24.13-4.45-1.08.16-3.74-1.07c-1.92,1.66-4.22,4.33-4.43,7.75a10.48,10.48,0,0,0,3.15,7.6c2,.53,3.93,1,5.76,1.31,8.17,1.49,18.19,5.2,23.39,7.43a32.42,32.42,0,0,0,13.37,3c4.08,0,2.49.61,5.47-.14s1.95-2.83,1.95-2.83a13.07,13.07,0,0,0,3.72-.74c2.22-.75,1.48-3.72,1.48-3.72a11.14,11.14,0,0,0,4.28-.69c2.27-1.19,2.27-3.69,1.29-6C283.86,341.82,275.32,339.36,270.49,338.25Z" style="fill:none;stroke:#263238;stroke-linecap:round;stroke-linejoin:round"></path><path d="M279.77,352a28.61,28.61,0,0,0-5.61-3.91" style="fill:none;stroke:#263238;stroke-linecap:round;stroke-linejoin:round"></path><path d="M274.57,356.44s-3.34-2.23-4.08-3.71" style="fill:none;stroke:#263238;stroke-linecap:round;stroke-linejoin:round"></path><path d="M269.38,359A8.4,8.4,0,0,1,266,355.7" style="fill:none;stroke:#263238;stroke-linecap:round;stroke-linejoin:round"></path><path d="M264.92,359.41a7.82,7.82,0,0,1-4.46-2.6" style="fill:none;stroke:#263238;stroke-linecap:round;stroke-linejoin:round"></path><path d="M261.05,124s-7.06,6.49-6.49,13.55-1.7,11-.85,16.1,2,15,4,17.51,2.26,5.37,4.24,6.78,8.76,1.41,10.17-.85,16.38-11,17.51-14.12.85-3.95.85-3.95,9.88-5.93,8.47-11-5.37-7.06-7.63-5.36-2.54,2.54-2.54,2.54-5.91-3.89-4.78-7.56,4.66-4.93,3.53-9.17-9.58-2.12-18.57-1.43C261.87,127.56,264.2,121.4,261.05,124Z" style="fill:#fff"></path><g style="clip-path:url(#freepik--clip-path-7--inject-36)"><path d="M298.9,148c-1.41-5.08-5.37-7.06-7.63-5.36s-2.54,2.54-2.54,2.54-5.91-3.89-4.78-7.56,4.66-4.93,3.53-9.17-6.7-8.82-15.69-8.13c-2.07.16-3.57.32-4.74.53,3.75-.3,10.23-.28,13.62,2.82,5,4.54.42,9.08-.82,13.63s1.65,10.73.82,15.27-4.95,7.84-4.95,13.62.41,7.85-5,11.56l-1.06.76a4,4,0,0,0,2.37-1.42c1.41-2.26,16.38-11,17.51-14.12s.85-3.95.85-3.95S300.31,153.09,298.9,148Z" style="fill:#7E57C2"></path><path d="M298.9,148c-1.41-5.08-5.37-7.06-7.63-5.36s-2.54,2.54-2.54,2.54-5.91-3.89-4.78-7.56,4.66-4.93,3.53-9.17-6.7-8.82-15.69-8.13c-2.07.16-3.57.32-4.74.53,3.75-.3,10.23-.28,13.62,2.82,5,4.54.42,9.08-.82,13.63s1.65,10.73.82,15.27-4.95,7.84-4.95,13.62.41,7.85-5,11.56l-1.06.76a4,4,0,0,0,2.37-1.42c1.41-2.26,16.38-11,17.51-14.12s.85-3.95.85-3.95S300.31,153.09,298.9,148Z" style="fill:#fff;opacity:0.6000000000000001"></path></g><path d="M261.05,124s-7.06,6.49-6.49,13.55-1.7,11-.85,16.1,2,15,4,17.51,2.26,5.37,4.24,6.78,8.76,1.41,10.17-.85,16.38-11,17.51-14.12.85-3.95.85-3.95,9.88-5.93,8.47-11-5.37-7.06-7.63-5.36-2.54,2.54-2.54,2.54-5.91-3.89-4.78-7.56,4.66-4.93,3.53-9.17-9.58-2.12-18.57-1.43C261.87,127.56,264.2,121.4,261.05,124Z" style="fill:none;stroke:#263238;stroke-linecap:round;stroke-linejoin:round"></path><path d="M268,148.87s3.09,4.23,8.16,0" style="fill:none;stroke:#263238;stroke-linecap:round;stroke-linejoin:round"></path><path d="M255.4,148.28a3,3,0,0,0,4.52.29" style="fill:none;stroke:#263238;stroke-linecap:round;stroke-linejoin:round"></path><path d="M265.57,161c-2.26.57-5.36-.28-5.65-1.13S261.34,148,261.34,148l-2-3.39s-1.7-2.54-4-.84" style="fill:none;stroke:#263238;stroke-linecap:round;stroke-linejoin:round"></path><line x1="260.49" y1="166.08" x2="267.17" y2="166.05" style="fill:none;stroke:#263238;stroke-linecap:round;stroke-linejoin:round"></line><path d="M278,144.33a12.19,12.19,0,0,0-12.71-.28" style="fill:none;stroke:#263238;stroke-linecap:round;stroke-linejoin:round"></path><path d="M296.71,149s-1.18-3.06-3.54-2.12-2.83,4-2.83,4,1.89-.71,1.89,1.65-2.12,1.41-2.12,1.41" style="fill:none;stroke:#263238;stroke-linecap:round;stroke-linejoin:round"></path></g></svg>