<svg xmlns="http://www.w3.org/2000/svg" viewBox="0 0 500 500"><g id="freepik--background-simple--inject-2"><g><path d="M433.77,113.03c-1.54-2.56-3.13-5.07-4.8-7.52-22.23-32.66-59.23-55.02-95.19-65.15-15.75-4.44-31.93-6.77-48.08-7.36-105.91-3.85-144.82,83.48-178.94,105.99-34.12,22.52-86.49,60.97-79.92,141.76,4.99,61.42,39.93,120.16,103.75,146.89,7.03,2.95,14.42,5.52,22.15,7.64,14.38,3.96,29.98,6.44,46.77,7.19,48.25,2.15,87.43-9.48,125.75-38.77,8.91-6.81,17.77-14.49,29.33-15.33,8.4-.61,16.37,2.41,7.59,10.53-10.32,9.54,1.59,28.32,27.79,15.27,43.77-21.78,61.77-68.78,70.25-116.57,10.41-58.66,5.36-131.61-26.45-184.58Z" style="fill:#FFC100;"></path><path d="M433.77,113.03c-1.54-2.56-3.13-5.07-4.8-7.52-22.23-32.66-59.23-55.02-95.19-65.15-15.75-4.44-31.93-6.77-48.08-7.36-105.91-3.85-144.82,83.48-178.94,105.99-34.12,22.52-86.49,60.97-79.92,141.76,4.99,61.42,39.93,120.16,103.75,146.89,7.03,2.95,14.42,5.52,22.15,7.64,14.38,3.96,29.98,6.44,46.77,7.19,48.25,2.15,87.43-9.48,125.75-38.77,8.91-6.81,17.77-14.49,29.33-15.33,8.4-.61,16.37,2.41,7.59,10.53-10.32,9.54,1.59,28.32,27.79,15.27,43.77-21.78,61.77-68.78,70.25-116.57,10.41-58.66,5.36-131.61-26.45-184.58Z" style="fill:#fff; opacity:.7;"></path></g></g><g id="freepik--Plant--inject-2"><g><polygon points="431.26 419.95 392.02 419.95 395.95 461.87 427.33 461.87 431.26 419.95" style="fill:#263238; stroke:#263238; stroke-miterlimit:10;"></polygon><g><path d="M412.36,427.07s16.7-63.21,36.83-108.67" style="fill:none; stroke:#263238; stroke-linecap:round; stroke-linejoin:round;"></path><path d="M444.51,328.77s-2.22-17.18,3.09-24.74c5.31-7.56,11.46-10.37,11.46-10.37,0,0,1.31,19.37-.91,25.65-2.22,6.28-13.64,9.45-13.64,9.45Z" style="fill:#FFC100;"></path><path d="M444.18,329.89s-4.36-1.84-5.81-11.6c-1.45-9.77,2.01-24.93,2.01-24.93,0,0,4.49,11.69,5.81,19.33s-2.01,17.2-2.01,17.2Z" style="fill:#FFC100;"></path><path d="M444.18,329.89s6.41-10.83,14.44-13.24c8.04-2.41,20.94-3.28,20.94-3.28,0,0-4.41,9.1-15.27,12.76-10.86,3.67-20.11,3.76-20.11,3.76Z" style="fill:#FFC100;"></path><path d="M434.72,354.26s2-1.73-2.26-9.98c-4.26-8.24-9.52-11.62-9.52-11.62,0,0-2.6,12.44,1.22,18.05,3.82,5.61,6.97,9.13,6.97,9.13,0,0-11.65-4.01-13.52-4.42-1.88-.41-9.89-1.46-9.89-1.46,0,0-.82,3.52,6.86,7.53,7.68,4.01,16.14,3.97,16.14,3.97,0,0,1.39,.97,4.45,3.16,3.06,2.19,11.77,5.87,11.77,5.87,0,0,.77-4.32-2.27-6.24-3.04-1.93-5.5-3.09-5.5-3.09,0,0,7.67,.01,9.2-.89s9.1-6.21,9.1-6.21c0,0-7.65,.25-9.5,.38-1.84,.12-8.07,1.88-8.07,1.88,0,0,10.11-3.08,12.38-8.57,2.27-5.49,2.4-11.36,2.4-11.36,0,0-12.93,4.34-19.96,13.88Z" style="fill:#FFC100;"></path><path d="M426.37,379.35s11.2-2.62,16.1-.56,11.13,12.04,11.13,12.04c0,0-8.77,3.26-15.85,.27-7.08-2.99-11.38-11.76-11.38-11.76Z" style="fill:#FFC100;"></path><path d="M426.37,379.35s-4.91-6.07-11.56-6.68c-6.65-.62-11.57,1.05-11.57,1.05,0,0-.19,5.08,8.46,7.69,8.64,2.61,14.67-2.06,14.67-2.06Z" style="fill:#FFC100;"></path><path d="M422.97,391.57s5.58,.42,8.69,3.41c3.11,2.99,8.1,18.11,8.1,18.11,0,0-10.01-3.32-16.16-8.24-6.15-4.92-.64-13.29-.64-13.29Z" style="fill:#FFC100;"></path><path d="M422.97,391.57s-6.96-5.13-11.87-3.46c-4.91,1.67-7.19,7.15-7.16,11.42,.02,4.26-.02,7.47-.02,7.47,0,0,8.28-2.69,10.54-4.45,2.26-1.75,8.51-10.97,8.51-10.97Z" style="fill:#FFC100;"></path></g><g><path d="M406.64,433.03s-8.46-74.62-23.85-109.24" style="fill:none; stroke:#263238; stroke-miterlimit:10;"></path><path d="M381.46,320.49s-2.9-3.49,.58-12.2c3.49-8.71,6.97-13.65,6.97-13.65,0,0,4.94,9.59,5.23,15.39,.29,5.81-6.1,12.78-6.1,12.78,0,0,2.32-2.32,6.68-3.2,4.36-.87,10.46-.29,10.46-.29,0,0-2.61,4.65-5.52,6.1-2.9,1.45-11.04,3.2-12.2,2.9-1.16-.29-.58,.58-6.1,5.81-5.52,5.23-9,7.84-9,7.84,0,0-2.03-9.3-.29-13.94,1.74-4.65,9.3-7.55,9.3-7.55Z" style="fill:#FFC100;"></path><path d="M384.65,320.78s-2.61-3.78-4.94-5.81c-2.32-2.03-6.68-2.61-8.42-2.9-1.74-.29-2.03,5.81,1.16,9.88s15.1,6.39,15.1,6.39l-2.9-7.55Z" style="fill:#FFC100;"></path><path d="M388.72,339.95s-2.32-2.61,4.07-6.97c6.39-4.36,12.2-4.65,12.2-4.65,0,0-1.74,11.04-4.65,14.23s-7.84,2.61-7.84,2.61c0,0,6.97,.29,9.88,1.74,2.9,1.45,9.59,10.75,9.59,10.75,0,0,0,.29-6.39,.29s-11.62-5.23-11.62-5.23c0,0,1.16,3.49,1.45,6.1,.29,2.61-5.23,9-5.81,9.88-.58,.87-5.52-6.39-6.1-9.59-.58-3.2,0-5.52,0-5.52,0,0-2.03,.87-4.65,4.07-2.61,3.2-4.36,8.13-4.36,8.13,0,0-5.81-9.3-4.36-15.1,1.45-5.81,14.23-5.52,14.23-5.52,0,0-6.1-.87-9-2.03-2.9-1.16-5.52-3.78-5.52-5.23s1.45-2.03,7.55-1.45c6.1,.58,11.33,3.49,11.33,3.49Z" style="fill:#FFC100;"></path><path d="M397.14,372.19s-8.42-5.23-12.78-4.65c-4.36,.58-8.13,2.03-9.59,2.03s2.9,9,8.13,9.3c5.23,.29,14.52-2.03,14.52-2.03,0,0-5.23,3.2-7.26,6.68-2.03,3.49-2.9,10.17-2.9,10.17,0,0,7.55,.29,10.75-2.61s2.03-13.65,2.03-13.65c0,0,1.74-1.45,4.36-1.74,2.61-.29,7.49,2.36,7.49,2.36,0,0,6.16-8.46-4-13.11-10.17-4.65-10.75,7.26-10.75,7.26Z" style="fill:#FFC100;"></path><path d="M401.79,400.66s-5.81-3.2-9.3-.29c-3.49,2.9-8.13,12.78-8.13,12.78,0,0,6.97,1.16,11.62-1.45,4.65-2.61,5.81-11.04,5.81-11.04Z" style="fill:#FFC100;"></path><path d="M401.79,400.66s1.16-4.94,6.97-6.39c5.81-1.45,14.23,3.78,14.23,3.78,0,0-2.61,2.61-9.3,4.65-6.68,2.03-11.91-2.03-11.91-2.03Z" style="fill:#FFC100;"></path></g><g><rect x="377.62" y="418.65" width="6.16" height="42.53" style="fill:#fff; stroke:#263238; stroke-linecap:round; stroke-linejoin:round;"></rect><rect x="436.87" y="418.65" width="6.16" height="42.53" style="fill:#fff; stroke:#263238; stroke-linecap:round; stroke-linejoin:round;"></rect><rect x="376.01" y="417.67" width="69.68" height="8.77" style="fill:#fff; stroke:#263238; stroke-linecap:round; stroke-linejoin:round;"></rect><rect x="376.01" y="429.66" width="69.68" height="8.77" style="fill:#fff; stroke:#263238; stroke-linecap:round; stroke-linejoin:round;"></rect><rect x="376.01" y="441.66" width="69.68" height="8.77" style="fill:#fff; stroke:#263238; stroke-linecap:round; stroke-linejoin:round;"></rect><rect x="376.01" y="453.66" width="69.68" height="8.77" style="fill:#fff; stroke:#263238; stroke-linecap:round; stroke-linejoin:round;"></rect></g></g></g><g id="freepik--Character_2--inject-2"><g><path d="M237.81,96.56s-2.15-8.75-16.01-9.24c-13.86-.5-14.02,4.93-17.68,6.66-1.87,.88-5.79,6.05-5.38,8.83l8.04-3.77s-18.33,11.1-18.83,29.42c-.5,18.32,6.94,33.47,21.8,33.47s21.46-4.46,21.29-15.18c-.16-10.73-2.31-29.21,.99-39.78,3.3-10.56,5.78-10.4,5.78-10.4Z" style="fill:#263238; stroke:#263238; stroke-miterlimit:10;"></path><g><path d="M281.78,218.91l5.43,10.66s8.15,7.31,10.24,12.33c2.09,5.01,10.18,18.67,13.16,19.64,.99,.32,5.22,1.04,6.69,1.46,1.46,.42,2.93,1.88,3.97,2.09s2.93,.63,4.18,0c1.25-.63,2.51,.42,2.09,1.67-.42,1.25-4.81,2.09-4.81,2.09l-6.27-1.25s5.22,3.55,4.39,5.43c-.84,1.88-12.75,3.76-13.79,3.76s-2.45-1.46-5.79-3.96c-3.34-2.51-4.2-7.77-4.2-7.77,0,0-18.84-16.89-21.98-21.07-3.13-4.18-6.9-13.79-6.9-14.42s-1.67-5.22-1.67-5.22l15.25-5.43Z" style="fill:#fff; stroke:#263238; stroke-miterlimit:10;"></path><path d="M316.21,270.48s.64,3.53,1.44,4.17c.8,.64,3.05-.52,3.21-1.62,.16-1.1-1.6-3.51-2.73-4.15-1.12-.64-2.41-.16-1.92,1.6Z" style="fill:none; stroke:#263238; stroke-miterlimit:10;"></path><path d="M316.21,270.48s-1.86-.49-2.59,.33c-.73,.82,.73,5.39,1.28,5.76,.55,.37,2.74-.18,2.92-.64,.18-.46-.12-3.22-1.61-5.45Z" style="fill:#fff; stroke:#263238; stroke-miterlimit:10;"></path><path d="M312.98,272.64s-1.74-2.47-2.38-.64c-.64,1.83-.27,4.84,.09,5.39,.37,.55,2.1,.73,2.38-.27,.27-1.01,0-3.2-.09-4.48Z" style="fill:#fff; stroke:#263238; stroke-miterlimit:10;"></path><path d="M310.05,273.47s-1.28-2.19-2.28-.64c-1.01,1.55-.73,4.3-.27,4.94,.46,.64,1.74,.46,2.1-.46,.37-.91,.46-3.84,.46-3.84Z" style="fill:#fff; stroke:#263238; stroke-miterlimit:10;"></path></g><path d="M175.2,215l-1.2,12.84s-2.41,5.22-3.41,11.03-1,35.71-1,41.73-.4,14.65,.2,18.06c.6,3.41,2.81,7.42,3.41,8.43,.6,1,4.01,1.81,5.22,1.6s4.21-2.81,4.21-2.81c0,0-.2-1.4-1.6-1.4s-2.41-.6-2.81-1.2c-.4-.6,1-5.82,1-5.82,0,0,1,4.61,1.81,4.01,.8-.6,1.81,.2,1.81-2.21s-.4-5.02-.4-5.02c0,0,.6-2.61,0-6.22-.6-3.61-3.41-6.62-3.41-8.83s7.82-24.48,10.23-33.3c2.41-8.83,2.81-16.65,2.81-16.65l1.6-10.23-18.46-4.01Z" style="fill:#fff; stroke:#263238; stroke-miterlimit:10;"></path><path d="M225.46,131.05s2.14,10.71-.48,16.43c-2.62,5.71-15,12.26-17.38,13.81-2.38,1.55-17.86,4.76-24.05,14.88s-9.82,39.22-9.82,40.9l22.87,5.59s-.37,11.77-.37,15.81-6.62,17.28-9.56,41.19c-2.94,23.9,9.56,80.9,9.56,80.9,0,0-1.1,16.55-1.84,27.21-.74,10.66,1.84,54.06,1.84,54.06,0,0-1.84,7.35-4.05,9.19-2.21,1.84-9.56,6.25-9.93,8.09-.37,1.84,1.1,2.21,2.94,2.94,1.84,.74,27.58,0,27.58,0,0,0,2.94-1.84,2.57-8.46-.37-6.62-.37-9.93-.37-9.93,0,0,1.47-5.88,2.21-8.83,.74-2.94,.37-8.09,.74-12.5,.37-4.41,5.15-62.88,5.15-68.03s6.99-64.35,6.99-64.35l4.41,63.25s2.57,83.98,3.68,86.56c1.1,2.57,2.57,4.41,2.57,4.41l-.74,3.68,.74,6.25s-1.84,8.09,0,8.09h22.43s3.68-3.31,2.21-6.62c-1.47-3.31-3.31-6.62-3.31-6.62l-2.57-7.35s2.21-4.41,2.21-6.62v-10.66c0-5.15,4.41-78.84,4.41-78.84,0,0,4.05-33.46,5.15-57.37s-4.78-40.45-6.99-45.6c-2.21-5.15-2.94-10.3-2.94-10.3l.74-11.4,3.31,5.52,24.64-8.09-13.61-37.88s-7.72-11.03-11.77-14.34c-4.05-3.31-14.31-5.66-17.65-7.95-2.59-1.77-4.22-13.88-4.22-13.88l-17.31-13.15Z" style="fill:#FFC100; stroke:#263238; stroke-miterlimit:10;"></path><path d="M265.38,226.33l24.64-8.09-13.61-37.88s-7.72-11.03-11.77-14.34c-4.05-3.31-14.31-5.66-17.65-7.95-2.59-1.77-4.22-13.88-4.22-13.88l-17.31-13.15s2.14,10.71-.48,16.43c-2.62,5.71-15,12.26-17.38,13.81-2.38,1.55-17.86,4.76-24.05,14.88-6.19,10.12-9.82,39.22-9.82,40.9l22.87,5.59s-.37,11.77-.37,15.81c0,3.29-4.37,12.65-7.59,28.89,9.54,3,25.91,7.07,42.93,6.46,17.2-.61,31.34-2.82,39.16-4.3-1.44-13.83-4.89-23.33-6.47-27.01-2.21-5.15-2.94-10.3-2.94-10.3l.74-11.4,3.31,5.52Z" style="fill:#FFC100; stroke:#263238; stroke-miterlimit:10;"></path><line x1="249.77" y1="224.63" x2="232.55" y2="235.76" style="fill:none; stroke:#263238; stroke-miterlimit:10;"></line><line x1="256.3" y1="220.42" x2="252.76" y2="222.7" style="fill:none; stroke:#263238; stroke-miterlimit:10;"></line><line x1="250.86" y1="228.83" x2="241.45" y2="234.27" style="fill:none; stroke:#263238; stroke-miterlimit:10;"></line><path d="M235.52,170.42s2.97,9.9,2.97,20.79" style="fill:none; stroke:#263238; stroke-miterlimit:10;"></path><path d="M239.56,171.44c0,.56-.45,1.01-1.01,1.01s-1.01-.45-1.01-1.01,.45-1.01,1.01-1.01,1.01,.45,1.01,1.01Z" style="fill:none; stroke:#263238; stroke-miterlimit:10;"></path><path d="M241.28,179.16c0,.56-.45,1.01-1.01,1.01s-1.01-.45-1.01-1.01,.45-1.01,1.01-1.01,1.01,.45,1.01,1.01Z" style="fill:none; stroke:#263238; stroke-miterlimit:10;"></path><circle cx="241.98" cy="186.89" r="1.01" style="fill:none; stroke:#263238; stroke-miterlimit:10;"></circle><path d="M227.75,166.16c8.47,4.55,17.56,.48,23.1-6.25-1.6-.63-2.97-1.24-3.85-1.84-2.59-1.77-4.22-13.88-4.22-13.88l-17.31-13.15s2.14,10.71-.48,16.43c-1.18,2.57-4.34,5.31-7.67,7.69,1.31,3.16,4.19,7.65,10.43,11Z" style="fill:#fff; stroke:#263238; stroke-miterlimit:10;"></path><path d="M234.59,149.14s4.29,4.83,6.08,6.97c1.79,2.15,4.65,3.58,4.65,3.58l.72-6.79-11.44-3.75Z" style="fill:#263238; stroke:#263238; stroke-miterlimit:10;"></path><path d="M264.87,187.13c.47-1.8,.92-3.4,.92-3.4" style="fill:none; stroke:#263238; stroke-miterlimit:10;"></path><path d="M262.07,220.82s3.72-7.74,3.9-12.66c.18-4.92-2.11-15.11-2.11-16.34,0-.32,.13-1,.32-1.84" style="fill:none; stroke:#263238; stroke-miterlimit:10;"></path><polyline points="202.89 190.76 197.09 219.22 199.02 196.91" style="fill:none; stroke:#263238; stroke-miterlimit:10;"></polyline><g><path d="M262.07,448.96l-2.57-7.35s-7.63-5.04-11.43-3.41c-3.8,1.63-4.61,4.89-4.61,4.89l-2.71,1.1-.74,3.68,.74,6.25s-1.84,8.09,0,8.09h22.43s3.68-3.31,2.21-6.62c-1.47-3.31-3.31-6.62-3.31-6.62Z" style="fill:#fff; stroke:#263238; stroke-miterlimit:10;"></path><path d="M215.37,453.59c-.28-4.99-.35-8.1-.36-9.33l-4.94,.35s-2.17-5.43-6.52-6.51c-4.34-1.09-7.3,3.72-7.3,3.72,0,0-1.84,7.35-4.05,9.19-2.21,1.84-9.56,6.25-9.93,8.09-.37,1.84,1.1,2.21,2.94,2.94,1.84,.74,27.58,0,27.58,0,0,0,2.94-1.84,2.57-8.46Z" style="fill:#fff; stroke:#263238; stroke-miterlimit:10;"></path></g><g><path d="M221.68,120.8s-1.19-11.82,3.58-19.58c4.77-7.76,16.71-9.67,24.71-7.16s14.56,9.79,15.64,15.16c1.07,5.37-.48,13.37-1.19,15.52-.72,2.15-2.27,3.1-2.27,5.13s.36,8.36-2.03,12.06-6.68,10.74-8.71,12.06-5.25,.95-6.68,.48c-1.43-.48-2.27-.95-2.27-.95,0,0-8.12-4.06-10.74-6.92-2.63-2.86-4.06-6.45-5.37-9.67-1.31-3.22-2.39-7.04-2.39-7.04l-2.27-9.07Z" style="fill:#fff; stroke:#263238; stroke-miterlimit:10;"></path><path d="M265.6,109.22c-1.07-5.37-7.64-12.65-15.64-15.16-8-2.51-19.93-.6-24.71,7.16-4.77,7.76-3.58,19.58-3.58,19.58l1.63,6.51,4.1-2.34s3.82-1.67,4.06-3.94c.24-2.27,1.55-2.63,3.46-4.42,1.91-1.79,2.15-11.94,12.53-13.37,8.31-1.15,14.17,1.54,18.32,7.06-.05-.37-.11-.74-.18-1.09Z" style="fill:#263238; stroke:#263238; stroke-miterlimit:10;"></path><path d="M228.72,134.17s-1.91,1.91-3.94,.84c-2.03-1.07-4.77-3.94-5.37-9.55-.6-5.61,2.39-7.88,5.61-5.97,3.22,1.91,3.82,7.4,3.82,7.4" style="fill:#fff; stroke:#263238; stroke-miterlimit:10;"></path><path d="M259.4,123.6l-2.98,1.07s-1.55,5.97-1.55,7.28,2.27,4.54,1.91,5.73-4.06,2.27-4.89,1.79" style="fill:none; stroke:#263238; stroke-miterlimit:10;"></path><path d="M243.76,141.27s1.79,3.58,8,3.34" style="fill:none; stroke:#263238; stroke-miterlimit:10;"></path><path d="M241.37,128.38s4.06,1.91,8.12,1.07" style="fill:none; stroke:#263238; stroke-miterlimit:10;"></path><path d="M251.04,121.33s-5.25-1.91-9.43,.12" style="fill:none; stroke:#263238; stroke-miterlimit:10;"></path><path d="M246.98,129.93l-.6,.84s-.6,.36-2.63-.48" style="fill:none; stroke:#263238; stroke-miterlimit:10;"></path><g><path d="M255.83,129.96s2.82,1.51,5.54,.66" style="fill:none; stroke:#263238; stroke-miterlimit:10;"></path><path d="M259.69,131.11l-.37,.74s-.39,.33-1.8-.32" style="fill:none; stroke:#263238; stroke-miterlimit:10;"></path></g><path d="M260.35,123.96s2.15-.36,2.63,1.19" style="fill:none; stroke:#263238; stroke-miterlimit:10;"></path></g></g></g><g id="freepik--Character_1--inject-2"><g><path d="M168.46,390.45s-10.13-4.46-20.58-3.13c-12.24,1.56-20.06,8.6-24.49,19.28-4.43,10.68-4.26,29.72,7.03,41.68,5.17,5.47,11.22,9.55,16.73,11.57,4.58,1.68,9.43,2.49,14.3,2.49h73.86c5.39,0,10.39-2.84,13.13-7.48,4.05-6.86,8.72-17.73,7.01-29.51-2.87-19.8-16.15-25.27-17.45-25.79-1.3-.52-69.55-9.12-69.55-9.12Z" style="fill:#9e9e9e; stroke:#263238; stroke-miterlimit:10;"></path><g><g><path d="M214.1,198.06s4.24,4.87,5.51,9.53c1.27,4.66,2.54,6.57,3.39,7.84,.85,1.27,5.72,4.24,5.72,6.99s-3.39,4.24-3.39,4.24c0,0,.42,9.11,.64,11.87,.21,2.75,.64,4.03-.85,5.51s-4.66,3.18-4.66,3.18c0,0-10.17,10.81-11.44,12.08-1.27,1.27-30.09-9.96-30.09-9.96,0,0,.85-2.75,1.48-4.24l.64-1.48s-9.32-17.37-11.44-26.27c-2.12-8.9,12.08-22.04,16.74-25,4.66-2.97,19.71-2.12,23.73-1.7s5.93,1.06,5.93,3.39v2.33l2.54-.85s-1.06,3.39-4.45,2.54Z" style="fill:#fff; stroke:#263238; stroke-linecap:round; stroke-linejoin:round;"></path><path d="M207.53,198.06c3.39,.21,6.57,0,6.57,0,3.39,.85,4.45-2.54,4.45-2.54l-2.54,.85v-2.33c0-2.33-1.91-2.97-5.93-3.39-4.03-.42-19.07-1.27-23.73,1.7-4.66,2.97-18.86,16.1-16.74,25,2.12,8.9,11.44,26.27,11.44,26.27,0,0,1.48,0,6.14-1.48,4.66-1.48,6.36-7.63,6.36-7.63,0,0-5.3-1.91-6.57-4.03-1.27-2.12,.21-9.11,2.75-9.96,2.54-.85,6.36,2.12,7.42,2.33,1.06,.21,1.48-.64,2.33-1.91,.85-1.27-.42-3.18-.42-4.24s5.09-6.78,6.14-9.11c1.06-2.33-7.2-6.78-6.78-8.9s5.72-.85,9.11-.64Z" style="fill:#263238; stroke:#263238; stroke-linecap:round; stroke-linejoin:round;"></path><path d="M213.88,247.22s-5.72,.42-10.59-2.54c-4.87-2.97-5.51-5.72-5.51-5.72" style="fill:none; stroke:#263238; stroke-linecap:round; stroke-linejoin:round;"></path><path d="M214.31,230.48s1.91,2.54,6.57,2.33" style="fill:none; stroke:#263238; stroke-linecap:round; stroke-linejoin:round;"></path><path d="M219.34,214.98c.41,1.22,.31,2.35-.24,2.54-.55,.19-1.33-.65-1.74-1.86s-.31-2.35,.24-2.54c.55-.19,1.33,.65,1.74,1.86Z" style="fill:#263238;"></path><path d="M214.14,211.79s1.5-3,4.5-1.95" style="fill:none; stroke:#263238; stroke-linecap:round; stroke-linejoin:round;"></path></g><path d="M300.27,440.94s2.24,7.19,8.19,11.43c5.96,4.24,14.45,5.39,15.96,6.69,1.51,1.29-1.08,2.8-1.08,2.8h-34.72l-.22-20.27,11.86-.65Z" style="fill:#263238; stroke:#263238; stroke-miterlimit:10;"></path><path d="M290.13,357.69s11.21-2.8,12.94-.65c1.73,2.16,5.61,59.74,7.12,69.87,1.51,10.14,1.08,13.16,1.08,13.16l-21.35,6.04s-4.96-25.45-10.35-35.37c-5.39-9.92-15.96-34.72-8.84-43.78,7.12-9.06,19.41-9.27,19.41-9.27Z" style="fill:#263238; stroke:#263238; stroke-miterlimit:10;"></path><path d="M220.5,266.3s17.18,1.8,21.17,1.4c3.99-.4,10.39-3.4,20.97-3.6,10.59-.2,53.53-1.2,57.92-1.2s27.47-.91,27.47-.91c0,0,11.78-.8,10.99,.8-.8,1.6-3.2,2.6-5.99,3.2-2.8,.6-5.99,2-5.99,2l-5.19,1.4s3.99,1,5.19,1,5.99,.8,4.99,1.8-1.4,1.4-3.99,1.4-6.19-.8-7.59-.8-3.2,.8-6.79,1.2c-3.6,.4-11.89,.11-11.89,.11l-14.58,2s-27.36,7.59-39.35,10.99c-11.98,3.4-17.38,3.6-17.38,3.6,0,0-4.59,.6-16.38,2.6-11.78,2-27.96,1-27.96,1l14.38-27.96Z" style="fill:#263238; stroke:#263238; stroke-linecap:round; stroke-linejoin:round;"></path><path d="M177.26,246.42s38.35,12.78,43.94,16.78c5.59,3.99,11.78,25.57,12.58,34.16,.8,8.59,7.59,36.95,8.19,50.93s-1.2,11.98-1.2,11.98c0,0-41.95,7.99-50.33,10.79-8.39,2.8-22.17,17.18-22.57,16.58-.4-.6-.4-12.18,1.2-18.78s3-23.77,3-23.77c0,0-8.39-33.36-8.79-44.14-.4-10.79,4.39-34.36,6.59-41.35,2.2-6.99,5.99-13.78,7.39-13.18Z" style="fill:#fff; stroke:#263238; stroke-linecap:round; stroke-linejoin:round;"></path><path d="M214.12,290.42l22.89,33.27s-5.43-24.77-5.43-25.72-.24-10.15-.24-10.15l-17.22,2.6Z" style="fill:#263238; stroke:#263238; stroke-linecap:round; stroke-linejoin:round;"></path><g><path d="M221.21,263.2s17.18,1.8,21.17,1.4c3.99-.4,10.39-3.4,20.97-3.6,10.59-.2,53.53-1.2,57.92-1.2s26.77,2.2,26.77,2.2c0,0,11.78-.8,10.99,.8-.8,1.6-3.2,2.6-5.99,3.2-2.8,.6-5.99,2-5.99,2l-5.19,1.4s3.99,1,5.19,1,5.99,.8,4.99,1.8-1.4,1.4-3.99,1.4-6.19-.8-7.59-.8-3.2,.8-6.79,1.2c-3.6,.4-11.19-3-11.19-3l-14.58,2s-27.36,7.59-39.35,10.99c-11.98,3.4-17.38,3.6-17.38,3.6,0,0-4.59,.6-16.38,2.6-11.78,2-27.96,1-27.96,1l14.38-27.96Z" style="fill:#fff; stroke:#263238; stroke-linecap:round; stroke-linejoin:round;"></path><path d="M354.03,264.6s-4.99,.6-6.19,1c-1.2,.4-4.99,1.6-7.59,2-2.6,.4-5.59,.8-5.59,.8,0,0-3.6,2.2-7.39,1.6-3.79-.6-4.79-1.8-4.79-1.8" style="fill:none; stroke:#263238; stroke-miterlimit:10;"></path></g><path d="M181.46,262.8s13.99-2.88,20.77-3.2c6.78-.31,22.17,4.79,22.17,4.79l-20.77,32.76s-16.58-.8-17.38-.8" style="fill:#fff; stroke:#263238; stroke-linecap:round; stroke-linejoin:round;"></path><g><path d="M201.83,299.15s-4.79,22.17-17.98,34.56" style="fill:none; stroke:#263238; stroke-miterlimit:10;"></path><path d="M207.23,295.16s-1.6,13.78-7.99,28.76" style="fill:none; stroke:#263238; stroke-miterlimit:10;"></path><path d="M180.18,369.35s15.89-5.47,28.13-6.51" style="fill:none; stroke:#263238; stroke-miterlimit:10;"></path><path d="M205.97,360.24s9.9-.78,16.67,.78" style="fill:none; stroke:#263238; stroke-miterlimit:10;"></path><path d="M198.44,325.92s-1.2,3.2-2.2,5.39" style="fill:none; stroke:#263238; stroke-miterlimit:10;"></path><path d="M214.42,295.96s2,11.39,2.4,18.58" style="fill:none; stroke:#263238; stroke-miterlimit:10;"></path></g><path d="M280.15,444.11s0,16.99,.87,17.72c.87,.73,4.65,.58,5.08,.58h32.67s2.61-.44,2.76-2.18c.15-1.74-6.53-3.63-7.12-3.63s-19.02-10.02-19.6-10.89c-.58-.87-2.03-4.79-2.03-4.79l-12.63,3.19Z" style="fill:#fff; stroke:#263238; stroke-miterlimit:10;"></path><path d="M239.05,408.43s21.11-4.58,30.38-11.7l-4.31-8.63-26.07,20.33Z" style="fill:#263238; stroke:#263238; stroke-linecap:round; stroke-linejoin:round;"></path><g><path d="M167.88,387.64s.32,8.8,5.79,13.49c5.47,4.69,22.4,7.55,29.7,7.29,7.29-.26,35.69,0,35.69,0,0,0,6.77-2.34,11.2-4.69,4.43-2.34,14.07-9.12,14.07-9.12,0,0,2.08,12.5,3.13,16.93,1.04,4.43,7.81,24.49,7.81,24.49l1.82,10.42,28.91-6.25s-2.6-19.28-4.43-32.82c-1.82-13.55-7.29-42.72-8.86-47.67-1.56-4.95-1.3-4.95-5.73-4.95s-20.06,1.3-35.69,3.39c-15.63,2.08-34.12,4.69-47.93,8.08-13.81,3.39-4.69,.78-15.89,5.47-11.2,4.69-19.6,15.94-19.6,15.94Z" style="fill:#FFC100; stroke:#263238; stroke-miterlimit:10;"></path><g><path d="M264.32,394.62s1.56-6.77,3.91-10.16c2.34-3.39,6.77-7.29,6.77-7.29" style="fill:none; stroke:#263238; stroke-miterlimit:10;"></path><path d="M273.44,375.34s-6.77,4.43-8.6,9.12" style="fill:none; stroke:#263238; stroke-miterlimit:10;"></path><path d="M294.28,382.64s-5.21,18.49-8.86,25.53" style="fill:none; stroke:#263238; stroke-miterlimit:10;"></path><path d="M294.02,393.32s-3.91,32.3-8.6,41.42" style="fill:none; stroke:#263238; stroke-miterlimit:10;"></path><path d="M186.95,389.41s8.34-14.33,18.49-20.84" style="fill:none; stroke:#263238; stroke-miterlimit:10;"></path><path d="M197.63,370.39s-4.95,4.95-7.29,9.12" style="fill:none; stroke:#263238; stroke-miterlimit:10;"></path></g></g></g></g></g></svg>
