<svg width="750" height="500" viewBox="0 0 750 500" fill="none" xmlns="http://www.w3.org/2000/svg">
<path d="M476.17 61.46C476.17 61.46 491.46 61.67 484.92 91.95C478.38 122.23 479.22 127.95 479.22 139.95C479.129 143.866 480.142 147.729 482.142 151.098C484.142 154.466 487.048 157.205 490.53 159H469.79L454.54 88.31V61.46H476.17Z" fill="#E0E0E0"/>
<path d="M480.67 299.79H271.28L273.15 94.94L470.37 84.63L480.67 299.79Z" fill="#E0E0E0"/>
<path d="M473.48 294.5H264.09L265.96 89.65L469.27 85.68L473.48 294.5Z" fill="#EBEBEB"/>
<path d="M469.14 288.79H260.18V83.94L469.27 83.45L469.14 288.79Z" fill="#FAFAFA"/>
<path d="M469.14 288.79C469.14 286.88 469.14 206.62 469.04 83.45L469.27 83.68L260.51 84.2H260.18L260.44 83.94C260.44 158.88 260.44 229.15 260.44 288.79L260.22 288.57L469.22 288.79L260.22 289.02H260V288.79C260 229.15 260 158.88 260 83.94V83.68H260.58L469.35 83.23H469.57V83.45C469.28 206.62 469.14 286.88 469.14 288.79Z" fill="#263238"/>
<path d="M469.27 82.9C458.47 70.33 471 61.03 475.27 60.83L276.27 60.72C273.826 60.7177 271.41 61.2501 269.193 62.2799C266.977 63.3097 265.012 64.8119 263.437 66.6813C261.862 68.5506 260.715 70.7419 260.076 73.1014C259.438 75.4609 259.323 77.9315 259.74 80.34C259.94 81.3937 260.21 82.4327 260.55 83.45" fill="#F5F5F5"/>
<path d="M474.54 159H474.82H475.62H478.74L490.53 158.93V159.24C488.745 158.686 487.103 157.748 485.72 156.49C484.195 155.041 482.978 153.299 482.14 151.37C481.205 149.268 480.484 147.077 479.99 144.83C479.72 143.66 479.48 142.47 479.26 141.25C479.132 140.632 479.035 140.008 478.97 139.38C478.883 138.744 478.836 138.102 478.83 137.46C478.762 134.791 478.849 132.119 479.09 129.46C479.29 126.74 479.6 123.95 479.93 121.1C480.61 115.41 481.46 109.48 482.47 103.4C482.89 100.81 483.41 98.24 483.84 95.73C484.27 93.22 484.59 90.73 484.91 88.25C485.23 85.77 485.49 83.37 485.78 81C485.91 79.82 486.07 78.65 486.1 77.5C486.127 76.3601 486.064 75.2198 485.91 74.09C485.619 71.8843 484.974 69.74 484 67.74C483.129 65.8655 481.806 64.2368 480.15 63C478.558 61.9148 476.611 61.4817 474.71 61.79C472.946 62.0087 471.274 62.6997 469.87 63.79C468.628 64.8222 467.608 66.0942 466.87 67.53C466.201 68.8143 465.71 70.1835 465.41 71.6C464.921 73.8854 465.199 76.2681 466.2 78.38C466.811 79.7229 467.548 81.0053 468.4 82.21L469.08 83.14C469.23 83.35 469.3 83.47 469.3 83.47C469.3 83.47 469.2 83.38 469.03 83.18L468.32 82.27C467.419 81.0861 466.648 79.8087 466.02 78.46C464.964 76.316 464.647 73.8827 465.12 71.54C465.416 70.0936 465.907 68.6942 466.58 67.38C467.335 65.8898 468.386 64.5695 469.67 63.5C471.119 62.3621 472.845 61.6304 474.67 61.38C476.674 61.0504 478.728 61.5013 480.41 62.64C482.132 63.917 483.507 65.605 484.41 67.55C485.395 69.5818 486.043 71.7602 486.33 74C486.491 75.1561 486.561 76.323 486.54 77.49C486.54 78.68 486.35 79.85 486.22 81.04C485.96 83.41 485.68 85.83 485.36 88.3C485.04 90.77 484.71 93.3 484.3 95.8C483.89 98.3 483.35 100.87 482.94 103.47C481.94 109.54 481.07 115.47 480.38 121.14C480.05 123.98 479.74 126.76 479.53 129.48C479.287 132.106 479.19 134.743 479.24 137.38C479.247 138.009 479.291 138.636 479.37 139.26C479.42 139.88 479.55 140.5 479.65 141.11C479.87 142.32 480.1 143.51 480.37 144.67C480.843 146.891 481.539 149.059 482.45 151.14C483.263 153.02 484.443 154.72 485.92 156.14C487.255 157.375 488.846 158.3 490.58 158.85L491.58 159.17H490.58L478.79 159.1H475.67H474.87L474.54 159Z" fill="#263238"/>
<path d="M345.67 67.09C345.75 67.15 345.15 67.94 344.56 69.4C344.221 70.2489 343.97 71.1301 343.81 72.03C343.633 73.1373 343.579 74.2608 343.65 75.38C343.746 76.4955 343.971 77.5961 344.32 78.66C344.611 79.5311 344.993 80.3691 345.46 81.16C346.27 82.5 346.98 83.16 346.91 83.27C346.84 83.38 346.69 83.13 346.37 82.82C345.908 82.3785 345.499 81.8853 345.15 81.35C344.622 80.5619 344.192 79.7123 343.87 78.82C343.064 76.6226 342.88 74.2451 343.34 71.95C343.526 71.0185 343.821 70.1122 344.22 69.25C344.489 68.6666 344.825 68.1163 345.22 67.61C345.47 67.26 345.64 67.07 345.67 67.09Z" fill="#263238"/>
<path d="M340.7 60C339.714 60.9858 338.83 62.0679 338.06 63.23C336.228 66.0687 335.552 69.5012 336.171 72.8226C336.79 76.1441 338.658 79.1024 341.39 81.09C342.523 81.8958 343.732 82.5891 345 83.16C344.622 83.1052 344.253 83.0045 343.9 82.86C342.924 82.4939 342 82.0032 341.15 81.4C339.714 80.4187 338.487 79.1631 337.538 77.7056C336.589 76.2481 335.938 74.6174 335.622 72.9073C335.306 71.1972 335.332 69.4415 335.697 67.7412C336.062 66.0409 336.76 64.4296 337.75 63C338.311 62.1324 338.983 61.3423 339.75 60.65C340.035 60.3905 340.355 60.1717 340.7 60Z" fill="#263238"/>
<path d="M453.16 219.92H452.51H450.59L443.2 219.97L416 220.1L326.39 220.18H287.49V219.93C287.49 194.33 287.56 172.31 287.59 156.67C287.59 148.87 287.64 142.67 287.66 138.39C287.66 136.28 287.66 134.64 287.66 133.51C287.66 132.97 287.66 132.56 287.66 132.26C287.66 131.96 287.66 131.83 287.66 131.83C287.66 131.83 287.66 131.97 287.66 132.26C287.66 132.55 287.66 132.97 287.66 133.51C287.66 134.64 287.66 136.28 287.66 138.39C287.66 142.67 287.66 148.87 287.73 156.67C287.73 172.31 287.79 194.33 287.83 219.93L287.58 219.68H326.23L415.84 219.76L443 219.84L450.39 219.89H452.31L453.16 219.92Z" fill="#263238"/>
<path d="M317.93 198.15H301.22V214.86H317.93V198.15Z" fill="#4200FF"/>
<path d="M342.42 186.21H325.71V214.86H342.42V186.21Z" fill="#7E002D"/>
<path d="M367.01 172.64H350.3V214.86H367.01V172.64Z" fill="#CF0000"/>
<path d="M390.85 157.54H374.14V214.86H390.85V157.54Z" fill="#FF81AE"/>
<path d="M415.24 138.21H398.53V214.86H415.24V138.21Z" fill="#33A367"/>
<path d="M301.22 181C301.282 180.935 301.353 180.877 301.43 180.83L302.08 180.38L304.63 178.68L314.2 172.37L347.35 150.7L347.74 150.45V150.91C347.74 153.28 347.74 155.81 347.74 158.39L347.34 158.18L360.4 149.42L406.5 118.62L420.5 109.33L424.32 106.83L425.32 106.19L425.67 105.99C425.571 106.08 425.463 106.16 425.35 106.23L424.35 106.92L420.58 109.5L406.72 119L360.72 149.93L347.65 158.68L347.25 158.95V150.95L347.64 151.16L314.38 172.67L304.73 178.86L302.14 180.49L301.47 180.91L301.22 181Z" fill="#263238"/>
<path d="M425.69 113.09C425.547 112.413 425.486 111.721 425.51 111.03C425.51 109.75 425.44 107.97 425.43 106.03L425.69 106.29H425.05C422.91 106.29 420.97 106.29 419.57 106.21C418.809 106.233 418.048 106.172 417.3 106.03C418.047 105.88 418.808 105.817 419.57 105.84C420.97 105.84 422.91 105.77 425.05 105.77H425.95V106C425.95 108 425.95 109.77 425.87 111C425.896 111.701 425.835 112.403 425.69 113.09Z" fill="#263238"/>
<path d="M337.41 233.39C337.41 233.54 332.25 233.65 325.88 233.65C319.51 233.65 314.35 233.54 314.35 233.39C314.35 233.24 319.51 233.13 325.88 233.13C332.25 233.13 337.41 233.25 337.41 233.39Z" fill="#263238"/>
<path d="M325.57 241.29C325.223 239.507 325.223 237.673 325.57 235.89C325.917 237.673 325.917 239.507 325.57 241.29Z" fill="#263238"/>
<path d="M353.83 244C353.83 244.14 339.96 244.26 322.83 244.26C305.7 244.26 291.83 244.14 291.83 244C291.83 243.86 305.69 243.74 322.83 243.74C339.97 243.74 353.83 243.85 353.83 244Z" fill="#263238"/>
<path d="M292.32 251.68C291.973 249.199 291.973 246.681 292.32 244.2C292.667 246.681 292.667 249.199 292.32 251.68Z" fill="#263238"/>
<path d="M314.35 250.85C314.003 248.717 314.003 246.543 314.35 244.41C314.696 246.543 314.696 248.717 314.35 250.85Z" fill="#263238"/>
<path d="M337 251.26C336.653 248.919 336.653 246.541 337 244.2C337.346 246.541 337.346 248.919 337 251.26Z" fill="#263238"/>
<path d="M354.24 251.26C353.893 248.849 353.893 246.401 354.24 243.99C354.587 246.401 354.587 248.849 354.24 251.26Z" fill="#263238"/>
<path d="M300 253.76C297.516 254.017 295.016 254.104 292.52 254.02C290.024 254.104 287.525 254.017 285.04 253.76C287.524 253.497 290.024 253.41 292.52 253.5C295.016 253.41 297.516 253.497 300 253.76Z" fill="#263238"/>
<path d="M319.13 253.76C315.328 254.107 311.502 254.107 307.7 253.76C311.502 253.413 315.328 253.413 319.13 253.76Z" fill="#263238"/>
<path d="M343.44 254.38C339.361 254.727 335.259 254.727 331.18 254.38C335.259 254.033 339.361 254.033 343.44 254.38Z" fill="#263238"/>
<path d="M363.18 253.34C358.823 253.687 354.446 253.687 350.09 253.34C354.446 252.993 358.823 252.993 363.18 253.34Z" fill="#263238"/>
<path d="M292.53 261C292.183 259.567 292.183 258.073 292.53 256.64C292.877 258.073 292.877 259.567 292.53 261Z" fill="#263238"/>
<path d="M306.75 261C306.75 261.14 300.7 261.26 293.25 261.26C285.8 261.26 279.74 261.14 279.74 261C279.74 260.86 285.79 260.74 293.25 260.74C300.71 260.74 306.75 260.88 306.75 261Z" fill="#263238"/>
<path d="M306.75 267.26C306.403 265.198 306.403 263.092 306.75 261.03C307.096 263.092 307.096 265.198 306.75 267.26Z" fill="#263238"/>
<path d="M279.74 267.68C279.393 265.477 279.393 263.233 279.74 261.03C280.087 263.233 280.087 265.477 279.74 267.68Z" fill="#263238"/>
<path d="M337.55 261C337.203 259.567 337.203 258.073 337.55 256.64C337.897 258.073 337.897 259.567 337.55 261Z" fill="#263238"/>
<path d="M370.39 261C370.39 261.14 360.17 261.26 347.57 261.26C334.97 261.26 324.76 261.14 324.76 261C324.76 260.86 334.97 260.74 347.57 260.74C360.17 260.74 370.39 260.88 370.39 261Z" fill="#263238"/>
<path d="M351.77 267.26C351.423 265.198 351.423 263.092 351.77 261.03C352.116 263.092 352.116 265.198 351.77 267.26Z" fill="#263238"/>
<path d="M371.32 267.26C370.973 265.198 370.973 263.092 371.32 261.03C371.667 263.092 371.667 265.198 371.32 267.26Z" fill="#263238"/>
<path d="M324.76 267.68C324.413 265.477 324.413 263.233 324.76 261.03C325.107 263.233 325.107 265.477 324.76 267.68Z" fill="#263238"/>
<path d="M285.06 271.51C281.522 271.857 277.958 271.857 274.42 271.51C277.958 271.163 281.522 271.163 285.06 271.51Z" fill="#263238"/>
<path d="M311.52 270.75C307.691 271.097 303.839 271.097 300.01 270.75C303.839 270.403 307.691 270.403 311.52 270.75Z" fill="#263238"/>
<path d="M330.63 270.75C327.262 271.097 323.868 271.097 320.5 270.75C323.868 270.403 327.262 270.403 330.63 270.75Z" fill="#263238"/>
<path d="M356.4 270.75C352.741 271.097 349.058 271.097 345.4 270.75C349.058 270.403 352.741 270.403 356.4 270.75Z" fill="#263238"/>
<path d="M377 270.06C373.288 270.407 369.552 270.407 365.84 270.06C369.552 269.713 373.288 269.713 377 270.06Z" fill="#263238"/>
<path d="M453 274.11H382.47V230.43H453V274.11ZM382.51 274.06H453V230.48H382.52L382.51 274.06Z" fill="#263238"/>
<path d="M436 262C431.11 260.15 425.49 265.27 420.69 263.18C417.91 261.97 416.64 258.81 415.27 256.1C413.9 253.39 411.55 250.51 408.53 250.83C405.51 251.15 403.01 254.68 400.06 253.83C398.2 253.29 397.28 251.23 396.81 249.35C396.34 247.47 396.02 245.4 394.6 244.08C393.18 242.76 390.24 243.08 390.01 245.08V268.21H445.14C445.14 268.21 437.66 262.64 436 262Z" fill="#FF81AE"/>
<path d="M446.58 268.17C446.58 268.22 433.22 268.26 416.74 268.26C400.26 268.26 386.9 268.26 386.9 268.17C386.9 268.08 400.26 268.08 416.74 268.08C433.22 268.08 446.58 268.12 446.58 268.17Z" fill="#E0E0E0"/>
<path d="M446.58 258.07C446.58 258.12 433.22 258.16 416.74 258.16C400.26 258.16 386.9 258.16 386.9 258.07C386.9 257.98 400.26 257.98 416.74 257.98C433.22 257.98 446.58 258 446.58 258.07Z" fill="#263238"/>
<path d="M446.58 248C446.58 248 433.22 248.08 416.74 248.08C400.26 248.08 386.9 248.08 386.9 248C386.9 247.92 400.26 247.91 416.74 247.91C433.22 247.91 446.58 247.92 446.58 248Z" fill="#263238"/>
<path d="M446.58 238.36C446.58 238.36 433.22 238.45 416.74 238.45C400.26 238.45 386.9 238.45 386.9 238.36C386.9 238.27 400.26 238.27 416.74 238.27C433.22 238.27 446.58 238.31 446.58 238.36Z" fill="#263238"/>
<path d="M287.79 98.29C287.79 98.29 287.79 98.29 287.89 98.29H288.17C288.539 98.2881 288.907 98.3216 289.27 98.39C289.85 98.4924 290.41 98.6847 290.93 98.96C291.624 99.3311 292.228 99.85 292.7 100.48C293.284 101.246 293.684 102.135 293.87 103.08C294.027 104.181 293.886 105.303 293.46 106.33C293.24 106.887 292.969 107.423 292.65 107.93C292.317 108.453 292.013 108.994 291.74 109.55C291.158 110.722 290.747 111.971 290.52 113.26V113.35H290.43L287.82 113.29L285.08 113.22H285V113.12C284.932 111.825 284.544 110.568 283.87 109.46C283.58 108.9 283.25 108.38 282.94 107.85C282.624 107.35 282.337 106.833 282.08 106.3C281.632 105.281 281.53 104.143 281.79 103.06C281.981 102.127 282.366 101.245 282.92 100.47C283.382 99.8515 283.981 99.3483 284.67 99C285.191 98.7363 285.746 98.5478 286.32 98.44C286.679 98.3623 287.043 98.3154 287.41 98.3H287.69C287.76 98.3 287.79 98.3 287.79 98.3H287.69H287.41C287.049 98.3283 286.692 98.3851 286.34 98.47C285.777 98.591 285.232 98.7861 284.72 99.05C284.04 99.4032 283.448 99.9058 282.99 100.52C282.46 101.286 282.096 102.155 281.92 103.07C281.67 104.117 281.771 105.217 282.21 106.2C282.468 106.725 282.755 107.236 283.07 107.73C283.38 108.25 283.71 108.78 284.01 109.34C284.704 110.477 285.099 111.77 285.16 113.1L285.07 112.99L287.81 113.06L290.42 113.13L290.32 113.21C290.556 111.905 290.973 110.639 291.56 109.45C291.84 108.89 292.15 108.346 292.49 107.82C292.806 107.323 293.074 106.797 293.29 106.25C293.718 105.252 293.863 104.155 293.71 103.08C293.534 102.161 293.155 101.293 292.6 100.54C292.141 99.9118 291.555 99.3871 290.88 99C290.372 98.7247 289.826 98.5259 289.26 98.41C288.9 98.3396 288.536 98.2961 288.17 98.28H287.88L287.79 98.29Z" fill="#263238"/>
<path d="M288.55 113C288.552 112.97 288.552 112.94 288.55 112.91V112.67C288.55 112.45 288.49 112.13 288.44 111.67C288.36 110.84 288.23 109.67 288.17 108.16C288.17 107.79 288.17 107.4 288.17 107C288.17 106.6 288.17 106.17 288.17 105.73C288.2 105.275 288.319 104.83 288.52 104.42C288.738 103.971 289.111 103.616 289.57 103.42C289.816 103.332 290.081 103.318 290.335 103.378C290.589 103.439 290.82 103.571 291 103.76C291.093 103.857 291.166 103.971 291.214 104.096C291.262 104.222 291.285 104.356 291.28 104.49C291.261 104.765 291.156 105.028 290.98 105.24C290.798 105.45 290.573 105.617 290.32 105.73C290.066 105.837 289.801 105.914 289.53 105.96C288.417 106.14 287.283 106.14 286.17 105.96C285.898 105.914 285.635 105.827 285.39 105.7C285.141 105.58 284.92 105.41 284.74 105.2C284.558 104.996 284.434 104.748 284.38 104.48C284.336 104.213 284.382 103.939 284.51 103.7C284.633 103.461 284.839 103.276 285.09 103.18C285.213 103.139 285.343 103.125 285.472 103.137C285.601 103.149 285.726 103.187 285.84 103.25C286.062 103.364 286.249 103.537 286.38 103.75C286.505 103.955 286.59 104.183 286.63 104.42C286.695 104.867 286.722 105.319 286.71 105.77C286.71 106.64 286.71 107.46 286.71 108.2C286.71 109.68 286.71 110.88 286.71 111.71V113C286.712 112.973 286.712 112.947 286.71 112.92V112.67C286.71 112.45 286.71 112.117 286.71 111.67C286.71 110.84 286.71 109.67 286.65 108.16C286.65 107.42 286.65 106.61 286.65 105.73C286.663 105.282 286.636 104.833 286.57 104.39C286.531 104.164 286.449 103.946 286.33 103.75C286.202 103.549 286.023 103.387 285.81 103.28C285.706 103.221 285.591 103.185 285.471 103.175C285.352 103.164 285.232 103.18 285.12 103.22C284.89 103.309 284.701 103.48 284.59 103.7C284.47 103.92 284.428 104.173 284.47 104.42C284.523 104.675 284.64 104.912 284.81 105.11C285.178 105.503 285.668 105.76 286.2 105.84C286.748 105.94 287.303 105.991 287.86 105.99C288.416 106.002 288.972 105.959 289.52 105.86C289.789 105.823 290.051 105.749 290.3 105.64C290.541 105.535 290.756 105.378 290.93 105.18C291.094 104.982 291.192 104.737 291.21 104.48C291.216 104.355 291.196 104.23 291.152 104.113C291.107 103.995 291.038 103.889 290.95 103.8C290.781 103.623 290.565 103.499 290.327 103.442C290.089 103.386 289.84 103.399 289.61 103.48C289.173 103.661 288.818 103.995 288.61 104.42C288.407 104.818 288.288 105.254 288.26 105.7C288.26 106.13 288.26 106.55 288.21 106.96C288.16 107.37 288.21 107.75 288.21 108.12C288.26 109.6 288.38 110.8 288.45 111.62C288.45 112.03 288.52 112.35 288.55 112.62V112.86V113Z" fill="#263238"/>
<path d="M285.07 113C285.07 113 285.07 113.33 285.07 113.88C285.07 114.43 285.07 115.28 285.07 116.17L286.77 118.29H286.68H288.74H288.66L289.73 117.08L290.27 116.48V116.56C290.27 115.35 290.27 114.21 290.33 113.17L290.44 113.28L286.59 113.16H285.48H285.07C285.189 113.144 285.311 113.144 285.43 113.16H286.52H290.52V113.27C290.52 114.27 290.52 115.45 290.52 116.66L289.98 117.27L288.91 118.47H288.86H286.79L285 116.26C285 115.35 285.05 114.57 285.07 113.91C285.044 113.607 285.044 113.303 285.07 113Z" fill="#263238"/>
<path d="M290.26 116.22L290.06 116.13C289.892 116.041 289.718 115.964 289.54 115.9C288.951 115.666 288.324 115.544 287.69 115.54C287.059 115.533 286.432 115.641 285.84 115.86C285.659 115.922 285.482 115.996 285.31 116.08L285.11 116.17C285.164 116.121 285.224 116.081 285.29 116.05L285.82 115.8C286.416 115.569 287.05 115.45 287.69 115.45C288.332 115.46 288.967 115.593 289.56 115.84C289.738 115.916 289.912 116.003 290.08 116.1C290.145 116.131 290.206 116.171 290.26 116.22Z" fill="#263238"/>
<path d="M290.29 115.4L290.1 115.3L289.57 115.07C288.978 114.846 288.353 114.724 287.72 114.71C287.089 114.711 286.462 114.822 285.87 115.04C285.689 115.102 285.512 115.176 285.34 115.26L285.15 115.34L285.33 115.23C285.495 115.131 285.669 115.048 285.85 114.98C286.448 114.743 287.087 114.625 287.73 114.63C288.369 114.641 289 114.774 289.59 115.02C289.77 115.092 289.944 115.179 290.11 115.28C290.175 115.311 290.236 115.351 290.29 115.4Z" fill="#263238"/>
<path d="M290.27 114.61C290.203 114.587 290.14 114.557 290.08 114.52C289.909 114.432 289.732 114.355 289.55 114.29C288.358 113.836 287.042 113.836 285.85 114.29C285.63 114.37 285.45 114.45 285.32 114.51L285.13 114.6L285.31 114.48C285.43 114.42 285.61 114.33 285.83 114.24C286.427 114 287.066 113.882 287.71 113.89C288.352 113.894 288.987 114.023 289.58 114.27C289.8 114.37 289.98 114.46 290.1 114.53L290.27 114.61Z" fill="#263238"/>
<path d="M309.37 136.14C309.37 136.14 307.37 154.59 309.94 164.69L334.59 163.61C334.59 163.61 329.31 145.42 332.59 137.36L309.37 136.14Z" fill="#EBEBEB"/>
<path d="M309.47 135.55C309.47 135.55 309.64 155.47 310.65 161.55L335.65 160.37C335.65 160.37 333.45 140.79 334.3 135.56L309.47 135.55Z" fill="#FF81AE"/>
<path d="M330.51 143.92C330.51 144.01 326.77 144.31 322.14 144.59C317.51 144.87 313.76 145.02 313.75 144.92C313.74 144.82 317.49 144.53 322.12 144.25C326.75 143.97 330.51 143.82 330.51 143.92Z" fill="white"/>
<path d="M330.52 148.13C330.52 148.23 326.78 148.53 322.15 148.8C317.52 149.07 313.76 149.23 313.76 149.14C313.76 149.05 317.5 148.75 322.13 148.47C326.76 148.19 330.51 148 330.52 148.13Z" fill="white"/>
<path d="M326.27 152.28C325.816 152.4 325.349 152.467 324.88 152.48C324.02 152.56 322.83 152.65 321.51 152.73C320.19 152.81 318.99 152.86 318.13 152.88C317.662 152.942 317.188 152.942 316.72 152.88C317.173 152.756 317.64 152.688 318.11 152.68C318.98 152.6 320.17 152.51 321.49 152.43C322.81 152.35 324 152.29 324.87 152.27C325.335 152.214 325.805 152.217 326.27 152.28Z" fill="white"/>
<path d="M366.42 103.21C366.42 103.36 351.81 103.47 333.79 103.47C315.77 103.47 301.16 103.36 301.16 103.21C301.16 103.06 315.77 102.95 333.79 102.95C351.81 102.95 366.42 103.07 366.42 103.21Z" fill="#263238"/>
<path d="M325.13 109.16C325.13 109.31 319.65 109.42 312.89 109.42C306.13 109.42 300.65 109.31 300.65 109.16C300.65 109.01 306.13 108.9 312.89 108.9C319.65 108.9 325.13 109 325.13 109.16Z" fill="#263238"/>
<path d="M338.13 109.16C334.993 109.506 331.827 109.506 328.69 109.16C331.827 108.814 334.993 108.814 338.13 109.16Z" fill="#263238"/>
<path d="M474.54 171.9C474.53 171.824 474.53 171.746 474.54 171.67C474.54 171.49 474.54 171.27 474.48 171C474.43 170.37 474.36 169.51 474.27 168.43C474.12 166.14 473.9 162.92 473.63 158.96C473.13 150.91 472.44 139.88 471.68 127.69C470.92 115.5 470.36 104.46 469.89 96.41C469.69 92.41 469.53 89.22 469.41 86.93C469.41 85.85 469.33 84.99 469.31 84.35C469.31 84.08 469.31 83.86 469.31 83.68C469.295 83.6041 469.295 83.526 469.31 83.45C469.314 83.5266 469.314 83.6034 469.31 83.68L469.37 84.35C469.42 84.98 469.49 85.84 469.57 86.92C469.73 89.21 469.95 92.43 470.22 96.39C470.72 104.39 471.41 115.47 472.16 127.66C472.91 139.85 473.49 150.89 473.95 158.93C474.16 162.93 474.32 166.13 474.44 168.42C474.44 169.5 474.52 170.36 474.54 171C474.54 171.27 474.54 171.49 474.54 171.67C474.555 171.746 474.555 171.824 474.54 171.9Z" fill="#263238"/>
<path d="M469.27 60.83H468.69H466.99H460.44H436.39L357 60.84L274.85 60.58C270.767 61.585 267.11 63.8653 264.41 67.09C262.391 69.509 260.997 72.3865 260.35 75.47C259.935 77.4039 259.803 79.3881 259.96 81.36C260.02 82.03 260.08 82.54 260.14 82.88C260.173 83.052 260.196 83.2255 260.21 83.4C260.042 82.7433 259.925 82.0747 259.86 81.4C259.658 79.4162 259.76 77.4133 260.16 75.46C260.773 72.3373 262.147 69.4142 264.16 66.95C266.882 63.6491 270.59 61.3078 274.74 60.27L356.9 60.37L436.25 60.62L460.31 60.76L466.85 60.82H468.55L469.27 60.83Z" fill="#263238"/>
<path d="M629.87 374.41C636.587 367.699 644.933 362.849 654.09 360.337C663.246 357.825 672.899 357.736 682.1 360.08C666.51 370.701 648.114 376.448 629.25 376.59" fill="#33A367"/>
<path d="M647.59 311.68C645.41 296.29 651.39 278.98 662.91 267.79C663.29 283.04 656.91 300.21 647.59 311.68Z" fill="#33A367"/>
<path d="M638.37 340.76C646.693 324.953 659.943 312.29 676.11 304.69C673.584 313.55 668.743 321.576 662.085 327.944C655.428 334.312 647.193 338.791 638.23 340.92" fill="#33A367"/>
<path d="M636.46 346.36C645.76 346.63 655.17 346.3 664.16 343.92C673.15 341.54 681.76 336.97 687.74 329.85C669.529 329.909 651.74 335.339 636.6 345.46" fill="#33A367"/>
<path d="M641.18 327.89C636.46 310.2 628.68 297.97 614.78 288.06C613.714 296.755 615.788 305.546 620.628 312.848C625.468 320.15 632.756 325.484 641.18 327.89Z" fill="#33A367"/>
<path d="M606.09 358.39C606.058 353.23 607.552 348.176 610.382 343.862C613.213 339.547 617.254 336.165 622 334.14C621.22 343.27 614 353.84 606.09 358.39Z" fill="#33A367"/>
<path d="M601.65 343.48C601.006 336.075 598.258 329.008 593.732 323.111C589.205 317.215 583.088 312.736 576.1 310.2C579.31 324.98 587.85 337.28 601.65 343.48Z" fill="#33A367"/>
<path d="M608.34 369.94C605.07 365.25 599.72 362.33 594.18 360.88C588.64 359.43 582.86 359.31 577.18 359.19C581.076 363.414 585.84 366.746 591.144 368.957C596.448 371.168 602.167 372.206 607.91 372" fill="#33A367"/>
<path d="M615 407.63C604.568 404.41 593.307 405.217 583.441 409.892C573.574 414.566 565.817 422.768 561.7 432.88C581.06 429.2 600.17 420.6 615 407.63Z" fill="#33A367"/>
<path d="M636.24 394.53C633.02 404.04 633.64 415.53 640.79 423.72C642.214 418.818 642.544 413.663 641.758 408.62C640.972 403.576 639.088 398.766 636.24 394.53Z" fill="#33A367"/>
<path d="M648.8 389.25C649.324 395.373 651.416 401.258 654.875 406.338C658.335 411.417 663.044 415.52 668.55 418.25C668.807 418.414 669.095 418.525 669.396 418.575C669.696 418.625 670.004 418.613 670.3 418.54C671.17 418.18 671.3 416.99 671.14 416.06C669.74 403.88 660.72 392.06 648.8 389.23" fill="#33A367"/>
<path d="M657 388C659.729 390.949 663.034 393.306 666.712 394.925C670.389 396.543 674.36 397.389 678.377 397.41C682.395 397.43 686.374 396.625 690.068 395.045C693.762 393.464 697.091 391.141 699.85 388.22C686.23 386.73 670.51 385.74 657 388Z" fill="#33A367"/>
<path d="M659 279.13C658.968 279.267 658.925 279.4 658.87 279.53L658.46 280.69C658.07 281.69 657.52 283.2 656.82 285.1C656.12 287 655.24 289.36 654.26 292.1C653.76 293.46 653.26 294.92 652.68 296.47C652.1 298.02 651.58 299.67 650.98 301.4C648.57 308.29 645.89 316.57 642.98 325.79C640.07 335.01 637.16 345.21 634.23 355.97C631.3 366.73 628.77 377.04 626.58 386.46C624.39 395.88 622.58 404.39 621.31 411.57C620.98 413.37 620.65 415.08 620.31 416.69C619.97 418.3 619.77 419.85 619.53 421.28C619.04 424.14 618.61 426.6 618.33 428.62C618.05 430.64 617.78 432.18 617.62 433.27C617.53 433.79 617.47 434.19 617.42 434.48C617.402 434.619 617.372 434.756 617.33 434.89C617.317 434.754 617.317 434.616 617.33 434.48L617.48 433.26C617.63 432.17 617.83 430.6 618.1 428.59C618.37 426.58 618.75 424.1 619.21 421.23C619.44 419.79 619.69 418.23 619.95 416.64C620.21 415.05 620.56 413.3 620.88 411.51C622.16 404.31 623.95 395.79 626.04 386.35C628.13 376.91 630.76 366.61 633.65 355.83C636.54 345.05 639.59 334.88 642.46 325.65C645.33 316.42 648.09 308.16 650.55 301.28L652.29 296.36L654 292C655 289.27 655.88 286.93 656.65 285C657.42 283.07 657.97 281.65 658.38 280.63C658.58 280.15 658.73 279.77 658.84 279.49C658.885 279.366 658.938 279.246 659 279.13Z" fill="#263238"/>
<path d="M584.23 318.09C584.315 318.155 584.392 318.228 584.46 318.31L585.12 319C585.68 319.6 586.51 320.51 587.54 321.71C590.448 325.086 593.121 328.658 595.54 332.4C599.149 337.964 601.969 344.001 603.92 350.34C606.17 357.48 607.56 365.6 608.92 374.08C611.69 391.08 615.09 406.27 617.55 417.27C618.79 422.75 619.79 427.19 620.5 430.27C620.83 431.78 621.09 432.97 621.28 433.81L621.47 434.74C621.498 434.844 621.515 434.952 621.52 435.06C621.478 434.96 621.445 434.856 621.42 434.75L621.18 433.84C620.97 433 620.67 431.84 620.3 430.31C619.56 427.21 618.5 422.78 617.19 417.31C614.64 406.31 611.19 391.11 608.41 374.11C607.02 365.63 605.64 357.54 603.41 350.43C601.489 344.123 598.717 338.108 595.17 332.55C592.79 328.794 590.164 325.2 587.31 321.79C586.31 320.57 585.51 319.65 584.97 319.02L584.35 318.3C584.29 318.19 584.22 318.1 584.23 318.09Z" fill="#263238"/>
<path d="M661.07 387.43C660.912 387.484 660.747 387.515 660.58 387.52L659.17 387.68L658.17 387.78L657 388C656.13 388.13 655.14 388.26 654.07 388.49L652.38 388.83L650.57 389.29C649.31 389.57 648.01 390.04 646.62 390.46C643.645 391.489 640.758 392.76 637.99 394.26C635.245 395.795 632.656 397.593 630.26 399.63C629.21 400.523 628.209 401.471 627.26 402.47C626.424 403.326 625.639 404.231 624.91 405.18C624.287 405.948 623.706 406.749 623.17 407.58C622.731 408.182 622.333 408.814 621.98 409.47L621.26 410.69C621.09 410.97 620.99 411.11 620.97 411.1C621.016 410.94 621.08 410.786 621.16 410.64C621.34 410.3 621.55 409.88 621.8 409.37C622.133 408.695 622.51 408.044 622.93 407.42C623.443 406.566 624.007 405.745 624.62 404.96C625.334 403.985 626.109 403.057 626.94 402.18C627.885 401.152 628.887 400.177 629.94 399.26C632.345 397.18 634.955 395.35 637.73 393.8C640.525 392.284 643.446 391.013 646.46 390C647.86 389.59 649.18 389.14 650.46 388.87L652.3 388.44L654 388.13C655.09 387.92 656.09 387.81 657 387.71L658.21 387.57H659.21L660.63 387.51C660.774 387.47 660.921 387.443 661.07 387.43Z" fill="#263238"/>
<path d="M665 318.42C664.698 318.765 664.363 319.08 664 319.36L661.19 321.8C658.81 323.8 655.5 326.62 651.82 329.67C648.14 332.72 644.82 335.46 642.34 337.42L639.43 339.73C639.089 340.031 638.717 340.296 638.32 340.52C638.619 340.169 638.955 339.851 639.32 339.57L642.12 337.14C644.5 335.14 647.82 332.32 651.5 329.27C655.18 326.22 658.5 323.48 660.96 321.51L663.87 319.21C664.216 318.905 664.595 318.64 665 318.42Z" fill="#263238"/>
<path d="M668.3 336.43C668.3 336.57 661.19 338.81 652.3 341.43C643.41 344.05 636.22 346.05 636.18 345.92C636.14 345.79 643.28 343.54 652.18 340.92C661.08 338.3 668.26 336.3 668.3 336.43Z" fill="#263238"/>
<path d="M641.89 329.26C641.611 328.952 641.363 328.617 641.15 328.26L639.27 325.38C637.67 322.96 635.4 319.66 632.71 316.15C630.02 312.64 627.44 309.58 625.53 307.39L623.27 304.81C622.969 304.509 622.703 304.173 622.48 303.81C622.82 304.063 623.134 304.347 623.42 304.66C624 305.23 624.82 306.07 625.81 307.14C627.81 309.26 630.43 312.3 633.13 315.82C635.83 319.34 638.05 322.7 639.58 325.17C640.34 326.41 640.94 327.43 641.33 328.17C641.554 328.513 641.742 328.878 641.89 329.26Z" fill="#263238"/>
<path d="M617.06 339.26C616.565 340.218 616.003 341.14 615.38 342.02C614.31 343.7 612.86 346.02 611.38 348.67C609.9 351.32 608.61 353.75 607.71 355.53C607.274 356.514 606.769 357.466 606.2 358.38C606.501 357.346 606.896 356.342 607.38 355.38C608.2 353.56 609.38 351.08 610.93 348.38C612.48 345.68 613.93 343.38 615.09 341.79C615.662 340.884 616.322 340.036 617.06 339.26Z" fill="#263238"/>
<path d="M608.56 370.43C608.56 370.5 607.16 369.83 604.92 368.83C602.68 367.83 599.57 366.51 596.05 365.27C592.53 364.03 589.27 363.12 586.9 362.52C584.53 361.92 583.04 361.58 583.06 361.52C583.417 361.518 583.772 361.555 584.12 361.63C584.8 361.73 585.78 361.92 586.98 362.18C590.111 362.862 593.197 363.737 596.22 364.8C599.246 365.857 602.204 367.096 605.08 368.51C606.18 369.06 607.08 369.51 607.66 369.87C607.982 370.018 608.285 370.207 608.56 370.43Z" fill="#263238"/>
<path d="M615.25 407.69C615.11 407.757 614.962 407.807 614.81 407.84L613.52 408.16L608.76 409.26C603.517 410.361 598.334 411.73 593.23 413.36C588.152 415.059 583.289 417.345 578.74 420.17C577 421.27 575.65 422.25 574.74 422.95C574.289 423.338 573.808 423.69 573.3 424C573.394 423.878 573.502 423.768 573.62 423.67C573.85 423.46 574.17 423.15 574.62 422.78C575.866 421.729 577.172 420.751 578.53 419.85C583.056 416.908 587.939 414.556 593.06 412.85C598.182 411.193 603.402 409.857 608.69 408.85L613.48 407.92C614.062 407.791 614.655 407.714 615.25 407.69Z" fill="#263238"/>
<path d="M639.44 416.87C639.29 416.87 638.44 411.87 637.54 405.67C636.64 399.47 636.01 394.41 636.15 394.39C636.29 394.37 637.15 399.39 638.05 405.59C638.95 411.79 639.58 416.85 639.44 416.87Z" fill="#263238"/>
<path d="M664.62 407.73C663.807 406.879 663.048 405.977 662.35 405.03C660.99 403.34 659.1 401.03 656.97 398.46C654.84 395.89 652.86 393.67 651.43 392.03C650.612 391.186 649.857 390.284 649.17 389.33C649.434 389.507 649.676 389.715 649.89 389.95C650.33 390.37 650.95 391 651.7 391.79C653.21 393.36 655.23 395.58 657.37 398.13C659.51 400.68 661.37 403.05 662.64 404.81C663.29 405.68 663.8 406.4 664.14 406.91C664.344 407.155 664.506 407.432 664.62 407.73Z" fill="#263238"/>
<path d="M597.97 431.08V443.53H601.09L612.15 478.44H636.68L647.39 443.87L651.54 443.53V431.08H597.97Z" fill="#455A64"/>
<path d="M649.47 443.87C649.47 444.02 638.63 444.13 625.28 444.13C611.93 444.13 601.08 444.02 601.08 443.87C601.08 443.72 611.91 443.61 625.28 443.61C638.65 443.61 649.47 443.73 649.47 443.87Z" fill="#263238"/>
<path d="M667.11 363.83C666.597 364.006 666.072 364.146 665.54 364.25L661.23 365.25C657.6 366.15 652.62 367.51 647.23 369.33C641.84 371.15 637.03 373.07 633.6 374.55L629.54 376.33C629.045 376.594 628.53 376.818 628 377C628.448 376.69 628.923 376.422 629.42 376.2C630.35 375.72 631.72 375.06 633.42 374.27C642.317 370.224 651.606 367.101 661.14 364.95C662.96 364.55 664.45 364.25 665.48 364.07C666.016 363.945 666.561 363.864 667.11 363.83Z" fill="#263238"/>
<path d="M641.32 463.26C641.32 463.4 633.72 463.52 624.32 463.52C614.92 463.52 607.32 463.4 607.32 463.26C607.32 463.12 614.92 463 624.32 463C633.72 463 641.32 463.12 641.32 463.26Z" fill="#FAFAFA"/>
<path d="M642.28 460.37C642.28 460.52 634.22 460.63 624.28 460.63C614.34 460.63 606.28 460.52 606.28 460.37C606.28 460.22 614.34 460.11 624.28 460.11C634.22 460.11 642.28 460.23 642.28 460.37Z" fill="#FAFAFA"/>
<path d="M492.29 446.69L490.66 467.22C490.66 467.22 470.38 473.74 470.26 477.54L509.94 478.06L511.11 446.65L492.29 446.69Z" fill="white"/>
<path d="M502.89 468.13C503.276 468.236 503.609 468.48 503.827 468.815C504.044 469.151 504.131 469.555 504.07 469.95C503.977 470.337 503.74 470.674 503.408 470.893C503.075 471.112 502.672 471.197 502.28 471.13C501.863 471.028 501.501 470.772 501.263 470.415C501.026 470.057 500.932 469.624 501 469.2C501.139 468.807 501.425 468.483 501.798 468.296C502.171 468.11 502.602 468.075 503 468.2" fill="#EBEBEB"/>
<path d="M509.94 478.06L509.86 474.88L472.28 475.11C472.28 475.11 470.13 476.39 470.19 477.63L509.94 478.06Z" fill="#EBEBEB"/>
<path d="M490 467C490 467.19 491 467.25 492 467.85C493 468.45 493.51 469.24 493.68 469.16C493.85 469.08 493.54 467.96 492.35 467.26C491.16 466.56 490 466.86 490 467Z" fill="#263238"/>
<path d="M485.9 468.89C485.9 469.08 486.71 469.38 487.39 470.18C488.07 470.98 488.29 471.84 488.49 471.83C488.69 471.82 488.77 470.71 487.9 469.73C487.03 468.75 485.9 468.7 485.9 468.89Z" fill="#263238"/>
<path d="M483.68 473.94C483.86 473.94 484.1 473 483.57 471.94C483.04 470.88 482.12 470.5 482.05 470.67C481.98 470.84 482.55 471.38 482.97 472.25C483.39 473.12 483.49 473.93 483.68 473.94Z" fill="#263238"/>
<path d="M490.22 462.35C490.31 462.52 491.22 462.23 492.29 462.27C493.36 462.31 494.29 462.63 494.35 462.46C494.41 462.29 493.6 461.62 492.35 461.59C491.1 461.56 490.12 462.2 490.22 462.35Z" fill="#263238"/>
<path d="M490 458.22C490.66 458.382 491.353 458.358 492 458.15C492.717 458.004 493.412 457.769 494.07 457.45C494.458 457.263 494.832 457.049 495.19 456.81C495.409 456.675 495.607 456.51 495.78 456.32C495.886 456.175 495.943 456 495.943 455.82C495.943 455.64 495.886 455.465 495.78 455.32C495.68 455.187 495.549 455.08 495.4 455.007C495.251 454.934 495.086 454.898 494.92 454.9C494.668 454.907 494.419 454.951 494.18 455.03C493.757 455.147 493.346 455.301 492.95 455.49C492.288 455.809 491.684 456.235 491.16 456.75C490.26 457.63 489.97 458.36 490.04 458.4C490.11 458.44 490.56 457.84 491.47 457.1C492.008 456.68 492.596 456.327 493.22 456.05C493.586 455.894 493.964 455.766 494.35 455.67C494.76 455.54 495.12 455.53 495.24 455.67C495.36 455.81 495.24 455.77 495.24 455.9C495.111 456.033 494.966 456.15 494.81 456.25C494.49 456.48 494.156 456.691 493.81 456.88C493.204 457.207 492.568 457.475 491.91 457.68C491.262 457.816 490.623 457.996 490 458.22Z" fill="#263238"/>
<path d="M490.29 458.49C490.648 457.91 490.809 457.229 490.75 456.55C490.765 455.813 490.653 455.079 490.42 454.38C490.272 453.968 490.088 453.57 489.87 453.19C489.761 452.923 489.583 452.69 489.355 452.515C489.126 452.339 488.856 452.227 488.57 452.19C488.393 452.197 488.222 452.256 488.078 452.359C487.935 452.462 487.824 452.605 487.76 452.77C487.667 453.004 487.606 453.25 487.58 453.5C487.509 453.944 487.509 454.396 487.58 454.84C487.717 455.57 488.029 456.257 488.49 456.84C489.3 457.84 490.11 458.05 490.13 457.99C490.15 457.93 489.5 457.53 488.88 456.56C488.517 456.001 488.282 455.37 488.19 454.71C488.14 454.328 488.14 453.942 488.19 453.56C488.19 453.14 488.39 452.79 488.55 452.83C488.71 452.87 489.09 453.13 489.27 453.46C489.471 453.799 489.645 454.153 489.79 454.52C490.031 455.163 490.182 455.836 490.24 456.52C490.37 457.73 490.18 458.46 490.29 458.49Z" fill="#263238"/>
<path d="M578.09 443.27L582.67 467.27L591.77 485.19C591.924 485.495 592.015 485.829 592.035 486.171C592.056 486.512 592.006 486.855 591.889 487.176C591.771 487.498 591.589 487.792 591.354 488.04C591.119 488.288 590.835 488.486 590.52 488.62C590.153 488.778 589.753 488.846 589.354 488.816C588.955 488.786 588.569 488.661 588.23 488.45C583.84 485.74 567.73 475.7 567.49 473.92C567.22 471.92 560.97 448.92 560.97 448.92L578.09 443.27Z" fill="white"/>
<path d="M590.52 488.6L567.14 472.29L567.36 473.29C567.546 474.166 568.039 474.946 568.75 475.49C570.65 476.95 575.98 480.85 588.16 488.44C588.511 488.658 588.91 488.786 589.321 488.812C589.733 488.838 590.145 488.762 590.52 488.59V488.6Z" fill="#EBEBEB"/>
<path d="M570.4 465.26C570.741 465.41 571.013 465.682 571.165 466.022C571.316 466.362 571.336 466.746 571.22 467.1C571.081 467.446 570.815 467.725 570.476 467.879C570.137 468.034 569.752 468.052 569.4 467.93C569.031 467.767 568.737 467.47 568.577 467.099C568.418 466.728 568.405 466.31 568.54 465.93C568.725 465.585 569.037 465.324 569.409 465.203C569.782 465.082 570.187 465.11 570.54 465.28" fill="#EBEBEB"/>
<path d="M582.82 479.35C583.233 478.48 583.806 477.697 584.51 477.04C585.316 476.511 586.21 476.131 587.15 475.92C587.15 475.86 586.81 475.74 586.24 475.78C585.487 475.856 584.772 476.148 584.18 476.62C583.582 477.084 583.133 477.713 582.89 478.43C582.72 479 582.76 479.34 582.82 479.35Z" fill="#263238"/>
<path d="M585.21 482.18C585.34 482.26 585.94 481.32 587.1 480.7C587.837 480.388 588.592 480.117 589.36 479.89C588.943 479.744 588.497 479.698 588.059 479.757C587.621 479.817 587.203 479.978 586.84 480.23C585.52 480.94 585.07 482.14 585.21 482.18Z" fill="#263238"/>
<path d="M578.77 475.93C579.632 475.037 580.557 474.208 581.54 473.45C582.619 472.837 583.742 472.306 584.9 471.86C583.596 471.883 582.326 472.278 581.24 472.999C580.154 473.72 579.297 474.737 578.77 475.93Z" fill="#263238"/>
<path d="M576.77 468.76C576.86 468.89 578.06 468.06 579.77 467.62C581.48 467.18 582.92 467.31 582.94 467.15C581.862 466.84 580.72 466.826 579.634 467.109C578.549 467.392 577.559 467.963 576.77 468.76Z" fill="#263238"/>
<path d="M575.25 461.76C576.213 461.196 577.249 460.768 578.33 460.49C579.443 460.38 580.566 460.417 581.67 460.6C581.67 460.55 581.37 460.3 580.75 460.1C579.935 459.857 579.074 459.81 578.236 459.961C577.399 460.112 576.609 460.458 575.93 460.97C575.42 461.37 575.2 461.71 575.25 461.76Z" fill="#263238"/>
<path d="M578 459.17C578 459.17 578 458.83 577.84 458.26C577.589 457.448 577.174 456.695 576.62 456.05C576.256 455.542 575.736 455.167 575.14 454.98C574.938 454.937 574.728 454.957 574.539 455.037C574.349 455.118 574.189 455.255 574.08 455.43C573.888 455.785 573.835 456.198 573.93 456.59C574.157 457.381 574.652 458.069 575.331 458.534C576.01 458.999 576.83 459.214 577.65 459.14C578.458 459.049 579.221 458.72 579.843 458.195C580.464 457.67 580.915 456.972 581.14 456.19C581.202 455.993 581.222 455.785 581.198 455.58C581.173 455.375 581.106 455.177 581 455C580.866 454.842 580.687 454.729 580.486 454.677C580.285 454.625 580.074 454.636 579.88 454.71C579.325 454.966 578.846 455.363 578.49 455.86C577.953 456.518 577.536 457.267 577.26 458.07C577.134 458.353 577.069 458.66 577.07 458.97C577.499 457.939 578.075 456.976 578.78 456.11C579.102 455.677 579.529 455.333 580.02 455.11C580.126 455.069 580.241 455.063 580.351 455.092C580.46 455.12 580.558 455.183 580.63 455.27C580.693 455.389 580.732 455.519 580.744 455.653C580.756 455.787 580.741 455.922 580.7 456.05C580.488 456.709 580.094 457.295 579.563 457.739C579.032 458.184 578.386 458.468 577.7 458.56C577.009 458.621 576.318 458.445 575.741 458.061C575.163 457.678 574.733 457.11 574.52 456.45C574.441 456.178 574.462 455.887 574.58 455.63C574.639 455.533 574.726 455.456 574.829 455.41C574.933 455.363 575.048 455.349 575.16 455.37C575.664 455.529 576.108 455.84 576.43 456.26C577.127 457.126 577.659 458.112 578 459.17Z" fill="#263238"/>
<path d="M492 258C491.75 258 488.71 459.15 488.71 459.15L513.02 458.31L521.43 359.41L523.43 286.81L540 354L560.63 459.39L584.9 453.3L554 256.72L524.92 251.1L492 258Z" fill="#263238"/>
<path d="M544.85 133.75C547.76 128.01 548.67 117.69 545.34 111.98C542.01 106.27 535.25 102.14 528.91 100.26C527.868 99.8666 526.732 99.7969 525.65 100.06C525.118 100.21 524.662 100.557 524.376 101.031C524.09 101.504 523.995 102.069 524.11 102.61C522.912 101.632 521.56 100.858 520.11 100.32C519.386 100.06 518.61 99.981 517.848 100.089C517.087 100.197 516.363 100.489 515.74 100.94C515.445 101.179 515.2 101.473 515.019 101.806C514.839 102.14 514.725 102.506 514.686 102.883C514.647 103.26 514.683 103.641 514.792 104.005C514.901 104.368 515.08 104.706 515.32 105C514.439 104.621 513.468 104.504 512.522 104.661C511.577 104.819 510.696 105.245 509.986 105.889C509.276 106.533 508.766 107.367 508.516 108.293C508.267 109.219 508.289 110.196 508.58 111.11C509.324 112.996 510.42 114.723 511.81 116.2C513.07 117.54 513.19 118.84 512.81 120.65" fill="#263238"/>
<path d="M520.88 181.06C521.06 178.3 521.51 153.36 521.5 153.25C521.49 153.14 512.24 152.1 511.84 142.89C511.65 138.44 512 129.25 512.41 120.94C512.621 116.634 514.444 112.564 517.518 109.541C520.592 106.517 524.69 104.76 529 104.62H529.89C539.49 104.88 544.63 113.18 544.1 122.77L542.79 176.14" fill="#FFBE9D"/>
<path d="M521.5 153.25C525.757 153.107 529.883 151.746 533.39 149.33C533.39 149.33 530.62 155.09 521.39 154.55L521.5 153.25Z" fill="#EB996E"/>
<path d="M514 127.16C514.01 127.502 514.152 127.827 514.396 128.068C514.64 128.308 514.968 128.445 515.31 128.45C515.478 128.458 515.646 128.432 515.804 128.375C515.962 128.317 516.106 128.228 516.229 128.113C516.352 127.999 516.451 127.861 516.52 127.707C516.589 127.554 516.626 127.388 516.63 127.22C516.629 127.049 516.594 126.88 516.527 126.723C516.461 126.566 516.364 126.423 516.242 126.304C516.121 126.184 515.976 126.089 515.818 126.025C515.66 125.961 515.491 125.929 515.32 125.93C515.152 125.922 514.984 125.948 514.826 126.005C514.668 126.063 514.524 126.152 514.401 126.267C514.278 126.381 514.179 126.519 514.11 126.673C514.041 126.826 514.004 126.992 514 127.16Z" fill="#263238"/>
<path d="M514.53 125.39C514.7 125.55 515.67 124.78 517.09 124.74C518.51 124.7 519.56 125.38 519.71 125.2C519.86 125.02 519.61 124.82 519.14 124.5C518.516 124.096 517.783 123.893 517.04 123.92C516.313 123.948 515.614 124.204 515.04 124.65C514.58 125 514.45 125.31 514.53 125.39Z" fill="#263238"/>
<path d="M528.14 127.36C528.148 127.703 528.289 128.03 528.534 128.271C528.778 128.511 529.107 128.647 529.45 128.65C529.618 128.659 529.787 128.635 529.945 128.577C530.104 128.52 530.249 128.431 530.372 128.316C530.496 128.202 530.594 128.063 530.663 127.909C530.731 127.755 530.768 127.589 530.77 127.42C530.762 127.077 530.621 126.75 530.377 126.509C530.132 126.269 529.803 126.133 529.46 126.13C529.122 126.119 528.794 126.242 528.547 126.473C528.299 126.703 528.153 127.022 528.14 127.36Z" fill="#263238"/>
<path d="M528.45 125.22C528.62 125.38 529.6 124.61 531.01 124.57C532.42 124.53 533.49 125.21 533.63 125.03C533.77 124.85 533.53 124.65 533.07 124.33C532.442 123.927 531.706 123.725 530.96 123.75C530.234 123.78 529.535 124.035 528.96 124.48C528.51 124.83 528.37 125.14 528.45 125.22Z" fill="#263238"/>
<path d="M523.64 135.88C522.889 135.66 522.112 135.542 521.33 135.53C520.97 135.53 520.62 135.44 520.55 135.2C520.512 134.827 520.585 134.451 520.76 134.12L521.76 131.34C523.13 127.34 524.1 124.11 523.94 124.06C523.78 124.01 522.55 127.18 521.18 131.14C520.86 132.14 520.54 133.05 520.25 133.94C520.032 134.384 519.978 134.891 520.1 135.37C520.158 135.495 520.242 135.605 520.348 135.693C520.453 135.782 520.577 135.845 520.71 135.88C520.913 135.927 521.122 135.947 521.33 135.94C522.099 136.018 522.876 135.998 523.64 135.88Z" fill="#263238"/>
<path d="M527.84 136.73C527.61 136.73 527.65 138.26 526.37 139.39C525.09 140.52 523.45 140.39 523.44 140.62C523.43 140.85 523.82 140.9 524.51 140.9C525.42 140.902 526.302 140.583 527 140C527.649 139.429 528.053 138.631 528.13 137.77C528.13 137.09 527.94 136.71 527.84 136.73Z" fill="#263238"/>
<path d="M527.91 119.68C528.07 120.06 529.47 119.83 531.14 119.98C532.81 120.13 534.14 120.54 534.37 120.19C534.47 120.02 534.22 119.67 533.67 119.31C532.934 118.871 532.105 118.611 531.25 118.55C530.399 118.474 529.542 118.601 528.75 118.92C528.15 119.19 527.85 119.5 527.91 119.68Z" fill="#263238"/>
<path d="M514.92 121.27C515.18 121.59 516.15 121.27 517.32 121.17C518.49 121.07 519.49 121.32 519.71 120.98C519.8 120.81 519.64 120.49 519.19 120.2C518.589 119.839 517.889 119.675 517.19 119.73C516.501 119.762 515.84 120.01 515.3 120.44C514.93 120.78 514.81 121.12 514.92 121.27Z" fill="#263238"/>
<path d="M543.59 129.59C543.75 129.52 549.86 127.52 549.86 133.83C549.86 140.14 543.53 138.83 543.51 138.65C543.49 138.47 543.59 129.59 543.59 129.59Z" fill="#FFBE9D"/>
<path d="M545.44 136.26C545.44 136.26 545.55 136.34 545.74 136.42C545.87 136.474 546.009 136.502 546.15 136.502C546.291 136.502 546.43 136.474 546.56 136.42C546.967 136.162 547.299 135.799 547.52 135.371C547.742 134.942 547.845 134.462 547.82 133.98C547.83 133.44 547.725 132.905 547.51 132.41C547.451 132.214 547.345 132.036 547.203 131.89C547.06 131.743 546.884 131.634 546.69 131.57C546.564 131.534 546.429 131.545 546.309 131.6C546.19 131.655 546.095 131.751 546.04 131.87C545.95 132.04 546.04 132.17 545.96 132.18C545.88 132.19 545.83 132.07 545.88 131.81C545.914 131.657 545.998 131.519 546.12 131.42C546.295 131.289 546.513 131.232 546.73 131.26C546.993 131.311 547.237 131.43 547.439 131.605C547.641 131.781 547.793 132.007 547.88 132.26C548.148 132.803 548.279 133.404 548.26 134.01C548.289 134.573 548.152 135.132 547.866 135.617C547.58 136.103 547.157 136.493 546.65 136.74C546.481 136.788 546.304 136.797 546.131 136.768C545.958 136.739 545.793 136.671 545.65 136.57C545.45 136.41 545.42 136.27 545.44 136.26Z" fill="#EB996E"/>
<path d="M508.39 109C507.65 117.17 517.72 120.58 522.14 116C524.14 113.89 525.96 111.25 528.74 110.3C529.691 110.015 530.688 109.921 531.675 110.024C532.662 110.127 533.619 110.425 534.49 110.9C537.09 112.25 538.62 115.26 539.03 118.16C539.59 122.16 538.94 125.76 540.03 129.47C540.123 130.02 540.398 130.524 540.81 130.9C541.233 131.104 541.714 131.153 542.17 131.038C542.625 130.922 543.025 130.651 543.3 130.27C544.222 129.068 544.772 127.621 544.88 126.11C545.435 122.715 545.306 119.244 544.5 115.9C543.688 112.542 541.908 109.496 539.38 107.14C536.102 104.302 531.85 102.846 527.52 103.08C523.209 103.347 519.092 104.964 515.75 107.7C514.147 108.894 512.865 110.468 512.02 112.28" fill="#263238"/>
<path d="M515.06 104.53C514.774 104.462 514.476 104.462 514.19 104.53C513.403 104.717 512.683 105.118 512.11 105.69C511.246 106.54 510.693 107.657 510.54 108.86C510.421 110.348 510.851 111.828 511.75 113.02C512.621 114.203 513.801 115.123 515.16 115.68C516.257 116.122 517.419 116.379 518.6 116.44C519.387 116.49 520.177 116.466 520.96 116.37C521.25 116.357 521.537 116.3 521.81 116.2C521.81 116.11 520.58 116.28 518.63 116.1C517.498 115.99 516.389 115.71 515.34 115.27C514.065 114.726 512.959 113.849 512.14 112.73C511.334 111.659 510.93 110.339 511 109C511.111 107.877 511.589 106.823 512.36 106C512.877 105.44 513.527 105.02 514.25 104.78C514.76 104.59 515.07 104.58 515.06 104.53Z" fill="#455A64"/>
<path d="M519.28 101.65C519.28 101.65 519.05 101.58 518.68 101.75C518.426 101.889 518.204 102.082 518.032 102.315C517.859 102.548 517.739 102.816 517.68 103.1C517.554 103.935 517.724 104.787 518.16 105.51C518.616 106.391 519.195 107.203 519.88 107.92C521.126 109.229 522.675 110.212 524.39 110.78C525.081 111.061 525.825 111.188 526.57 111.15C526.57 111.06 525.75 110.96 524.51 110.46C522.896 109.823 521.439 108.844 520.24 107.59C519.581 106.902 519.013 106.132 518.55 105.3C518.144 104.664 517.955 103.913 518.01 103.16C518.094 102.664 518.362 102.217 518.76 101.91C519.07 101.71 519.29 101.69 519.28 101.65Z" fill="#455A64"/>
<path d="M464.39 183.29L421 179.18L414.14 177.53C414.14 177.53 398.46 174.73 396.99 174.26C395.29 173.73 394.62 174.42 394.47 175.06C394.23 176.06 395.22 177.13 396.66 177.63C397.16 177.81 405.15 180.23 405.15 180.23C404.254 180.46 403.376 180.75 402.52 181.1C400.66 181.81 398.94 184.32 398.15 187.19C397.36 190.06 397.39 190.93 398.49 191.29C398.7 191.35 398.92 191.361 399.135 191.323C399.35 191.285 399.553 191.198 399.73 191.07C400.346 190.69 400.798 190.095 401 189.4C402.34 184.82 405.15 184.35 405.15 184.35L406.05 184.57C406.05 184.57 403.21 186.72 403.36 189.18C403.387 189.527 403.479 189.866 403.63 190.18C403.416 190.808 403.374 191.483 403.509 192.133C403.644 192.783 403.95 193.385 404.396 193.877C404.842 194.368 405.411 194.732 406.045 194.929C406.679 195.127 407.354 195.151 408 195C408.62 194.87 409.27 194.48 409.34 193.85C409.345 193.502 409.263 193.158 409.1 192.85C409.029 192.689 408.972 192.521 408.93 192.35L411.53 192.6C411.53 192.6 417.4 192.86 419.94 193.26L460.81 203.83C462.156 204.179 463.558 204.257 464.934 204.058C466.31 203.859 467.632 203.388 468.824 202.672C470.016 201.956 471.053 201.009 471.875 199.888C472.696 198.766 473.286 197.492 473.61 196.14C473.957 194.681 473.987 193.165 473.697 191.693C473.408 190.222 472.806 188.83 471.931 187.612C471.057 186.393 469.931 185.377 468.63 184.631C467.329 183.886 465.883 183.428 464.39 183.29Z" fill="#FFBE9D"/>
<path d="M420.08 180.32C420.003 180.767 419.79 181.179 419.47 181.5C419.149 181.82 418.737 182.034 418.29 182.11C417.4 182.33 416.48 182.25 415.58 182.4C412.91 182.87 410.92 185.4 408.22 185.74C407.85 185.74 407.37 185.74 407.22 185.37C407.07 185 407.37 184.71 407.63 184.47L414.12 178.25" fill="#FFBE9D"/>
<path d="M414.15 178.25C413.872 178.42 413.613 178.622 413.38 178.85C412.91 179.26 412.24 179.85 411.38 180.63L408.5 183.3C408.23 183.56 407.96 183.82 407.67 184.08C407.38 184.34 407 184.59 406.94 185.21C406.941 185.363 406.988 185.512 407.076 185.637C407.163 185.762 407.287 185.857 407.43 185.91C407.663 185.998 407.913 186.029 408.16 186C408.6 185.942 409.032 185.838 409.45 185.69C410.91 185.003 412.32 184.214 413.67 183.33C414.263 182.997 414.904 182.758 415.57 182.62C416.19 182.5 416.8 182.49 417.37 182.43C417.834 182.426 418.291 182.32 418.709 182.12C419.127 181.919 419.496 181.629 419.79 181.27C419.905 181.133 419.988 180.972 420.033 180.799C420.078 180.626 420.084 180.446 420.05 180.27C419.957 180.568 419.815 180.849 419.63 181.1C419.333 181.404 418.976 181.643 418.582 181.801C418.188 181.959 417.765 182.034 417.34 182.02C416.725 182.033 416.111 182.076 415.5 182.15C414.801 182.285 414.127 182.524 413.5 182.86C412.151 183.707 410.751 184.472 409.31 185.15C408.935 185.289 408.546 185.386 408.15 185.44C407.78 185.44 407.45 185.36 407.48 185.16C407.51 184.96 407.77 184.65 408.05 184.39C408.33 184.13 408.6 183.85 408.87 183.6L411.67 180.84C412.46 180.05 413.1 179.4 413.53 178.95C413.96 178.5 414.18 178.28 414.15 178.25Z" fill="#EB996E"/>
<path d="M406.12 184.47C405.557 184.355 404.975 184.372 404.42 184.52C403.838 184.713 403.333 185.088 402.98 185.59C402.54 186.22 402.203 186.915 401.98 187.65C401.753 188.408 401.451 189.141 401.08 189.84C400.756 190.419 400.287 190.905 399.72 191.25C399.523 191.364 399.302 191.43 399.075 191.444C398.847 191.458 398.62 191.419 398.41 191.33C398.12 191.19 398.01 191.05 398.02 191.04C398.03 191.03 398.17 191.12 398.45 191.21C398.644 191.269 398.849 191.284 399.049 191.254C399.25 191.225 399.441 191.152 399.61 191.04C400.122 190.697 400.539 190.229 400.82 189.68C401.164 188.992 401.449 188.276 401.67 187.54C401.897 186.773 402.252 186.049 402.72 185.4C403.12 184.859 403.691 184.468 404.34 184.29C404.77 184.179 405.221 184.179 405.65 184.29C405.82 184.309 405.981 184.371 406.12 184.47Z" fill="#EB996E"/>
<path d="M396.14 177.43C396.682 177.542 397.214 177.699 397.73 177.9L401.53 179.13L405.35 180.3C405.89 180.435 406.418 180.613 406.93 180.83C406.373 180.797 405.823 180.696 405.29 180.53C404.29 180.29 402.93 179.92 401.43 179.45C399.93 178.98 398.6 178.5 397.65 178.12C397.123 177.945 396.617 177.714 396.14 177.43Z" fill="#EB996E"/>
<path d="M407.35 186.83C407.35 186.83 407.24 186.99 407.03 187.24C406.874 187.396 406.753 187.584 406.677 187.791C406.601 187.998 406.571 188.22 406.59 188.44C406.616 188.581 406.678 188.713 406.771 188.822C406.865 188.93 406.985 189.013 407.12 189.06C407.462 189.187 407.818 189.271 408.18 189.31C408.631 189.351 409.052 189.558 409.36 189.89C409.51 190.089 409.612 190.319 409.657 190.564C409.702 190.809 409.689 191.061 409.62 191.3C409.546 191.533 409.425 191.749 409.265 191.935C409.105 192.12 408.91 192.272 408.69 192.38C408.291 192.591 407.838 192.674 407.39 192.62C406.693 192.5 406.019 192.274 405.39 191.95C404.95 191.751 404.547 191.477 404.2 191.14C404.064 191.019 403.964 190.864 403.91 190.69C403.91 190.69 404.04 190.83 404.29 191.05C404.652 191.335 405.053 191.568 405.48 191.74C406.117 192.024 406.79 192.219 407.48 192.32C407.87 192.364 408.264 192.28 408.602 192.079C408.939 191.879 409.202 191.574 409.35 191.21C409.406 191.021 409.418 190.822 409.385 190.628C409.352 190.434 409.275 190.25 409.16 190.09C408.896 189.814 408.541 189.644 408.16 189.61C407.776 189.556 407.4 189.455 407.04 189.31C406.871 189.239 406.723 189.125 406.61 188.98C406.498 188.834 406.426 188.662 406.4 188.48C406.414 188.143 406.513 187.815 406.688 187.526C406.863 187.238 407.108 186.998 407.4 186.83H407.35Z" fill="#EB996E"/>
<path d="M408.49 192.17C408.49 192.17 408.67 192.17 408.92 192.36C409.095 192.501 409.235 192.681 409.327 192.886C409.419 193.091 409.461 193.315 409.45 193.54C409.423 193.873 409.309 194.194 409.12 194.469C408.93 194.745 408.672 194.966 408.37 195.11C407.636 195.455 406.797 195.501 406.03 195.24C405.264 195.002 404.593 194.53 404.11 193.89C403.725 193.373 403.487 192.761 403.42 192.12C403.369 191.691 403.4 191.257 403.51 190.84C403.59 190.55 403.67 190.4 403.69 190.41C403.606 190.963 403.606 191.527 403.69 192.08C403.783 192.675 404.027 193.237 404.4 193.71C404.854 194.283 405.471 194.705 406.17 194.92C406.855 195.157 407.604 195.128 408.27 194.84C408.534 194.722 408.764 194.539 408.939 194.308C409.114 194.078 409.228 193.806 409.27 193.52C409.284 193.325 409.258 193.129 409.192 192.945C409.127 192.761 409.024 192.592 408.89 192.45C408.64 192.25 408.48 192.2 408.49 192.17Z" fill="#EB996E"/>
<path d="M415.52 188.34C415.536 188.072 415.622 187.814 415.77 187.59C416.114 186.985 416.648 186.51 417.29 186.24V186.53C416.947 186.38 416.613 186.209 416.29 186.02C415.119 185.41 414.145 184.48 413.48 183.34C414.387 184.25 415.393 185.055 416.48 185.74C416.81 185.93 417.14 186.1 417.48 186.24L417.82 186.4L417.47 186.53C416.88 186.769 416.37 187.171 416 187.69C415.66 188.08 415.57 188.36 415.52 188.34Z" fill="#EB996E"/>
<path d="M401.91 184.26C401.97 184.2 402.45 184.69 402.53 185.48C402.61 186.27 402.26 186.85 402.18 186.8C402.1 186.75 402.28 186.21 402.18 185.52C402.08 184.83 401.83 184.32 401.91 184.26Z" fill="#EB996E"/>
<path d="M465.16 204.49L493.44 198C493.44 198 492 249.8 492 250.29C492 250.78 489.67 251.59 489.87 255.36L491.87 259.83L553.87 260.66L555.55 210.32L561.21 171.32L548.21 163.27L543.63 157L525.75 175.86L521.3 159.76L521.43 154.97L517.01 159.77L493.16 166.65L461.65 181.34L440.35 179.71L434.82 198.35L465.16 204.49Z" fill="white"/>
<path d="M523.28 170.08C522.701 170.394 522.248 170.9 522 171.51C521.728 172.204 521.595 172.945 521.61 173.69C521.652 174.707 521.51 175.724 521.19 176.69L520.97 177.2L520.75 176.69C520.153 175.203 519.685 173.667 519.35 172.1C518.6 168.86 518.11 165.89 517.79 163.75C517.57 162.592 517.447 161.418 517.42 160.24C517.739 161.37 517.987 162.519 518.16 163.68C518.57 165.81 519.16 168.76 519.86 171.98C520.186 173.514 520.627 175.022 521.18 176.49H520.75C521.06 175.593 521.215 174.649 521.21 173.7C521.226 172.912 521.403 172.136 521.73 171.42C521.943 170.949 522.291 170.552 522.73 170.28C522.889 170.16 523.081 170.09 523.28 170.08Z" fill="#263238"/>
<path d="M546.23 162.18C546.067 162.494 545.865 162.786 545.63 163.05C545.21 163.58 544.63 164.35 543.83 165.29C542.29 167.17 540.15 169.74 537.75 172.57L533.93 177L533.63 177.34L533.53 176.91C532.98 174.73 532.53 172.91 532.25 171.61C532.13 170.96 531.77 170.61 531.42 170.61C531.25 170.595 531.079 170.641 530.94 170.74C530.94 170.74 531.01 170.48 531.42 170.46C531.543 170.456 531.665 170.479 531.779 170.525C531.892 170.572 531.995 170.641 532.08 170.73C532.292 170.963 532.444 171.244 532.52 171.55C532.89 172.83 533.4 174.65 533.98 176.81L533.57 176.72L537.35 172.23C539.75 169.41 541.94 166.87 543.55 165.05C544.35 164.14 545.01 163.41 545.47 162.91C545.93 162.41 546.2 162.15 546.23 162.18Z" fill="#263238"/>
<path d="M519.86 245C519.814 244.78 519.794 244.555 519.8 244.33C519.8 243.83 519.8 243.2 519.8 242.4C519.8 240.73 519.8 238.31 519.8 235.33C519.86 229.33 520.15 221.1 520.8 212C521.45 202.9 522.44 194.7 523.26 188.78C523.66 185.78 524.03 183.43 524.26 181.78L524.59 179.88C524.62 179.659 524.67 179.442 524.74 179.23C524.762 179.453 524.762 179.677 524.74 179.9C524.68 180.39 524.6 181.02 524.51 181.81C524.29 183.53 523.99 185.91 523.62 188.81C522.9 194.74 522.01 202.94 521.32 212.03C520.63 221.12 520.32 229.36 520.14 235.32C520.07 238.26 520.02 240.66 519.97 242.4C519.97 243.19 519.97 243.82 519.92 244.32C519.915 244.548 519.895 244.775 519.86 245Z" fill="#263238"/>
<path d="M514.81 257.13C514.373 255.69 514.213 254.18 514.34 252.68C514.309 251.183 514.484 249.689 514.86 248.24C515.001 249.72 515.001 251.21 514.86 252.69C514.79 255.13 515 257.11 514.81 257.13Z" fill="#263238"/>
<path d="M540.21 242.58C539.694 242.815 539.163 243.016 538.62 243.18C537.62 243.54 536.06 244.01 534.18 244.56C529.264 245.967 524.277 247.115 519.24 248C514.198 248.911 509.111 249.552 504 249.92C502.05 250.05 500.46 250.13 499.36 250.15C498.794 250.197 498.226 250.197 497.66 250.15C498.218 250.048 498.783 249.987 499.35 249.97L503.97 249.57C507.87 249.21 513.25 248.57 519.13 247.57C525.01 246.57 530.28 245.26 534.06 244.26L538.54 243.03C539.082 242.831 539.641 242.68 540.21 242.58Z" fill="#263238"/>
<path d="M493.13 208.89C492.99 208.89 492.9 201.54 492.93 192.46C492.96 183.38 493.1 176.03 493.25 176.04C493.4 176.05 493.48 183.39 493.45 192.47C493.42 201.55 493.28 208.89 493.13 208.89Z" fill="#263238"/>
<path d="M560.06 170.56C560.06 170.56 567.87 177.26 568.39 181.06C568.78 183.99 576.47 211.54 579.93 223.88C581.011 227.722 580.779 231.815 579.27 235.51L569.27 260.21L553.12 250.65L561.2 227.49L554.51 207.83L560.06 170.56Z" fill="white"/>
<path d="M569.29 260.21C569.184 260.174 569.083 260.123 568.99 260.06L568.13 259.59L564.86 257.72L553 250.83L552.85 250.74L552.91 250.59C555.17 244.06 557.91 236.12 560.91 227.4V227.57C559.97 225.03 558.98 222.38 557.97 219.67C555.6 213.3 553.35 207.22 551.29 201.67C549.24 197.38 547.47 193.23 546.98 189.25C546.734 187.39 546.788 185.503 547.14 183.66C547.464 182.094 548.009 180.582 548.76 179.17C549.824 177.179 551.24 175.396 552.94 173.91C553.386 173.512 553.854 173.138 554.34 172.79C554.502 172.663 554.676 172.553 554.86 172.46C554.717 172.609 554.56 172.743 554.39 172.86C554.07 173.11 553.61 173.49 553.04 174.02C551.411 175.539 550.058 177.329 549.04 179.31C548.314 180.7 547.795 182.189 547.5 183.73C547.171 185.536 547.134 187.383 547.39 189.2C547.9 193.09 549.67 197.2 551.74 201.47L558.46 219.47C559.46 222.18 560.46 224.83 561.4 227.38V227.46V227.55C558.34 236.25 555.56 244.18 553.27 250.7L553.18 250.46L564.91 257.46L568.13 259.46L568.96 259.98C569.2 260.13 569.3 260.2 569.29 260.21Z" fill="white"/>
<g opacity="0.3">
<path d="M527.66 174.18C528.199 174.162 528.729 174.326 529.164 174.645C529.599 174.964 529.915 175.42 530.06 175.94C530.26 177.02 530.11 178.14 530.39 179.2C530.67 180.26 531.64 181.3 532.71 181.07C533.345 180.862 533.887 180.437 534.24 179.87C536.34 177.027 538.024 173.899 539.24 170.58C539.24 170.65 533.7 176.94 533.7 176.94C533.488 175.35 533.071 173.794 532.46 172.31C532.27 171.83 532.06 171.02 531.6 170.8C530.85 170.46 529.85 171.56 529.35 172.22C528.838 172.897 528.259 173.521 527.62 174.08" fill="black"/>
</g>
<g opacity="0.3">
<path d="M518.63 168.48C518.73 171.993 519.406 175.466 520.63 178.76C520.736 179.099 520.921 179.407 521.17 179.66C521.299 179.789 521.466 179.872 521.646 179.897C521.827 179.922 522.011 179.888 522.17 179.8C522.571 179.124 522.906 178.411 523.17 177.67C523.68 176.24 525.76 176.11 525.76 176.11C525.411 174.495 524.957 172.905 524.4 171.35C524.297 171.095 524.118 170.879 523.887 170.73C523.656 170.582 523.384 170.508 523.11 170.52C522.75 170.642 522.43 170.857 522.18 171.144C521.931 171.43 521.762 171.777 521.69 172.15C521.38 174.72 521.42 175.89 521.04 176.79C520.04 174.06 519.28 170.79 518.64 168.38" fill="black"/>
</g>
<g opacity="0.3">
<path d="M534 244.23C534.236 244.061 534.436 243.847 534.589 243.6C534.741 243.353 534.843 243.078 534.888 242.791C534.932 242.504 534.919 242.211 534.849 241.929C534.779 241.648 534.654 241.383 534.48 241.15C534.108 240.694 533.623 240.345 533.074 240.136C532.525 239.927 531.93 239.866 531.35 239.96C530.194 240.161 529.107 240.649 528.19 241.38C527.24 242.07 526.37 242.86 525.37 243.47C522.92 244.97 519.94 245.32 517.06 245.36C514.184 245.239 511.303 245.37 508.45 245.75C505.63 246.29 502.81 247.75 501.45 250.28C501.41 250.28 526 248.5 534 244.23Z" fill="black"/>
</g>
<path d="M550 280.35C547.373 278.659 545.169 276.387 543.56 273.71C543.575 273.675 543.582 273.638 543.582 273.6C543.582 273.562 543.575 273.525 543.56 273.49C543.498 273.41 543.409 273.357 543.31 273.34C542.618 272.278 541.991 271.176 541.43 270.04C543.43 268.74 546.06 266.76 543.21 266.36C539.7 265.86 537.21 264.15 536.83 263.22C536.771 262.998 536.782 262.763 536.862 262.548C536.942 262.332 537.087 262.147 537.277 262.017C537.467 261.888 537.692 261.821 537.922 261.825C538.152 261.829 538.375 261.904 538.56 262.04C539.628 262.581 540.765 262.975 541.94 263.21C542.88 263.43 543.85 263.49 544.81 263.39C545.4 263.32 547.49 261.89 549.73 260.84C550.041 260.694 550.39 260.645 550.73 260.7L551.58 260.64C552.034 260.612 552.472 260.466 552.853 260.217C553.233 259.968 553.542 259.625 553.75 259.22L557 252.98L566.8 258.78L559.04 269.54C556.225 273.305 553.207 276.913 550 280.35Z" fill="#FFBE9D"/>
<path d="M552.06 281.47C551.254 281.242 550.49 280.884 549.8 280.41C548.07 279.361 546.506 278.06 545.16 276.55C543.815 275.055 542.696 273.37 541.84 271.55C541.451 270.806 541.178 270.007 541.03 269.18C543.272 274.368 547.131 278.692 552.03 281.51L552.06 281.47Z" fill="#455A64"/>
<path d="M521.19 287.78C521.19 287.78 521.09 287.78 520.91 287.7C520.662 287.579 520.431 287.428 520.22 287.25C519.47 286.561 518.918 285.684 518.62 284.71C518.179 283.304 517.815 281.875 517.53 280.43C517.17 278.81 516.8 277.03 516.43 275.15C515.69 271.4 515.13 267.98 514.77 265.5C514.59 264.26 514.46 263.25 514.39 262.56C514.324 262.201 514.301 261.835 514.32 261.47C514.453 261.79 514.544 262.126 514.59 262.47L515.13 265.39C515.59 267.85 516.2 271.25 516.94 275C517.31 276.87 517.67 278.64 518 280.28C518.33 281.92 518.59 283.37 519 284.54C519.256 285.474 519.728 286.334 520.38 287.05C520.85 287.58 521.21 287.74 521.19 287.78Z" fill="#455A64"/>
<path d="M520.35 265.33C520.35 265.33 520.52 265.27 520.79 265.33C521.187 265.476 521.515 265.765 521.71 266.14C521.867 266.423 521.942 266.746 521.924 267.069C521.906 267.393 521.797 267.705 521.61 267.97C521.38 268.298 521.057 268.55 520.683 268.693C520.308 268.835 519.9 268.862 519.51 268.77C519.13 268.654 518.79 268.433 518.53 268.132C518.27 267.831 518.1 267.463 518.04 267.07C518 266.754 518.037 266.433 518.146 266.134C518.256 265.834 518.435 265.566 518.67 265.35C519.5 264.64 520.25 264.85 520.21 264.89C519.733 265.027 519.294 265.273 518.93 265.61C518.758 265.792 518.631 266.011 518.56 266.251C518.489 266.491 518.475 266.744 518.52 266.99C518.574 267.285 518.708 267.559 518.908 267.783C519.107 268.007 519.364 268.172 519.65 268.26C519.94 268.323 520.242 268.303 520.522 268.202C520.801 268.102 521.047 267.924 521.23 267.69C521.375 267.492 521.466 267.259 521.492 267.015C521.519 266.771 521.48 266.524 521.38 266.3C521 265.49 520.31 265.4 520.35 265.33Z" fill="#455A64"/>
<path d="M499.09 261.31C499.329 262.052 499.417 262.834 499.35 263.61C499.28 265.501 498.778 267.35 497.882 269.016C496.986 270.682 495.719 272.12 494.18 273.22C493.564 273.689 492.86 274.029 492.11 274.22C492.11 274.14 492.86 273.75 493.96 272.88C495.377 271.738 496.55 270.323 497.409 268.718C498.268 267.114 498.795 265.353 498.96 263.54C499.11 262.2 499 261.32 499.09 261.31Z" fill="#455A64"/>
<path d="M460.28 191.15C460.327 189.473 460.498 187.802 460.79 186.15C460.912 184.488 461.153 182.837 461.51 181.21C461.666 182.878 461.595 184.56 461.3 186.21C461.181 187.895 460.838 189.556 460.28 191.15Z" fill="#263238"/>
<path d="M440.35 179.73C440.342 179.849 440.319 179.967 440.28 180.08C440.22 180.35 440.13 180.68 440.02 181.08C439.76 182 439.41 183.28 438.96 184.88L435 198.43L434.84 198.15C440.49 199.55 447.3 200.69 454.57 202.03C458.19 202.71 461.68 203.44 464.9 204.24H464.79L485.07 199.65L490.98 198.37L492.56 198.04C492.742 197.988 492.931 197.961 493.12 197.96C492.945 198.031 492.764 198.087 492.58 198.13L491.02 198.53L485.18 200L464.94 204.77H464.82C461.61 203.98 458.13 203.26 454.51 202.59C447.26 201.25 440.43 200.08 434.77 198.59L434.54 198.54L434.61 198.31C436.29 192.76 437.7 188.13 438.71 184.82C439.2 183.24 439.6 181.98 439.89 181.06C440.017 180.66 440.127 180.327 440.22 180.06C440.254 179.946 440.297 179.836 440.35 179.73Z" fill="#263238"/>
<path d="M160.62 410.73L157.73 464.24L177.12 468.92L180.98 416.65L160.62 410.73Z" fill="#AA6550"/>
<path d="M157.16 463.79L153.86 478.31H176.16L177.12 468.85L157.16 463.79Z" fill="white"/>
<path d="M176.62 476.2C175.545 476.368 174.457 476.429 173.37 476.38C171.37 476.38 168.59 476.38 165.53 476.24L157.7 475.91C156.615 475.912 155.531 475.825 154.46 475.65C155.534 475.475 156.623 475.415 157.71 475.47C159.71 475.47 162.49 475.47 165.55 475.62L173.38 475.95C174.465 475.936 175.55 476.02 176.62 476.2Z" fill="#263238"/>
<path d="M167.17 466.62C167.34 466.62 167.33 468.73 167.17 471.32C167.01 473.91 166.72 475.99 166.55 475.98C166.38 475.97 166.38 473.86 166.55 471.28C166.72 468.7 167 466.6 167.17 466.62Z" fill="#263238"/>
<g opacity="0.6">
<path d="M153.86 478.31H176.16L176.38 476.2L154.26 475.65L153.86 478.06" fill="white"/>
</g>
<path d="M234.22 436.75L238.93 472.2L256.08 471.01L252.48 438.5L234.22 436.75Z" fill="#AA6550"/>
<path d="M256.26 467.16C256.26 467.16 275.54 473.67 275.86 477.16L239 478.26L238.67 468.63L240.03 468.9C245.491 469.983 251.153 469.376 256.26 467.16Z" fill="white"/>
<g opacity="0.6">
<path d="M243 470.31C242.645 470.425 242.347 470.669 242.162 470.992C241.977 471.316 241.919 471.696 242 472.06C242.103 472.416 242.339 472.719 242.659 472.905C242.98 473.091 243.359 473.147 243.72 473.06C244.084 472.928 244.388 472.667 244.572 472.326C244.757 471.984 244.809 471.587 244.72 471.21C244.573 470.849 244.291 470.56 243.935 470.404C243.578 470.247 243.175 470.235 242.81 470.37" fill="white"/>
</g>
<g opacity="0.6">
<path d="M239 478.26V475.26L274.34 475.35C274.34 475.35 276 476.02 275.85 477.18L239 478.26Z" fill="white"/>
</g>
<path d="M256.85 467C256.85 467.18 255.96 467.28 255.09 467.89C254.22 468.5 253.77 469.26 253.6 469.2C253.43 469.14 253.67 468.08 254.74 467.37C255.81 466.66 256.89 466.79 256.85 467Z" fill="#263238"/>
<path d="M260.77 468.44C260.77 468.61 260.04 468.94 259.45 469.72C258.86 470.5 258.71 471.31 258.53 471.31C258.35 471.31 258.21 470.31 258.96 469.31C259.71 468.31 260.76 468.27 260.77 468.44Z" fill="#263238"/>
<path d="M263.1 473C262.94 473 262.66 472.15 263.1 471.15C263.54 470.15 264.37 469.73 264.45 469.88C264.53 470.03 264.02 470.57 263.68 471.39C263.34 472.21 263.28 473 263.1 473Z" fill="#263238"/>
<path d="M256.45 466.86C255.85 467.049 255.209 467.066 254.6 466.91C253.933 466.811 253.282 466.629 252.66 466.37C252.286 466.222 251.925 466.045 251.58 465.84C251.37 465.729 251.178 465.587 251.01 465.42C250.887 465.297 250.809 465.137 250.789 464.964C250.769 464.792 250.808 464.618 250.9 464.47C250.987 464.341 251.102 464.234 251.238 464.158C251.373 464.081 251.524 464.038 251.68 464.03C251.913 464.018 252.146 464.045 252.37 464.11C252.767 464.19 253.156 464.311 253.53 464.47C254.157 464.733 254.74 465.09 255.26 465.53C256.14 466.3 256.45 466.97 256.39 467C256.33 467.03 255.88 466.51 254.99 465.88C254.472 465.519 253.911 465.223 253.32 465C252.972 464.874 252.614 464.777 252.25 464.71C251.86 464.62 251.52 464.62 251.43 464.8C251.34 464.98 251.43 464.89 251.43 465.01C251.55 465.131 251.688 465.232 251.84 465.31C252.163 465.504 252.497 465.681 252.84 465.84C253.418 466.107 254.021 466.318 254.64 466.47C255.25 466.564 255.855 466.694 256.45 466.86Z" fill="#263238"/>
<path d="M256.22 467.13C255.862 466.61 255.676 465.991 255.69 465.36C255.641 464.687 255.705 464.011 255.88 463.36C255.983 462.968 256.13 462.589 256.32 462.23C256.406 461.976 256.558 461.75 256.76 461.574C256.962 461.399 257.207 461.28 257.47 461.23C257.633 461.229 257.793 461.275 257.931 461.362C258.069 461.449 258.18 461.573 258.25 461.72C258.351 461.933 258.421 462.158 258.46 462.39C258.525 462.804 258.525 463.226 258.46 463.64C258.376 464.333 258.125 464.995 257.73 465.57C257.03 466.57 256.29 466.78 256.27 466.72C256.25 466.66 256.83 466.26 257.35 465.33C257.653 464.793 257.834 464.195 257.88 463.58C257.909 463.222 257.889 462.862 257.82 462.51C257.75 462.12 257.59 461.81 257.45 461.86C257.31 461.91 256.96 462.16 256.82 462.48C256.65 462.801 256.506 463.135 256.39 463.48C256.204 464.083 256.103 464.709 256.09 465.34C256.11 466.43 256.32 467.1 256.22 467.13Z" fill="#263238"/>
<path d="M175 257.26C175 257.26 161.35 280 161.35 293.59L158 459.19L179.5 464.32L195.9 302.48C195.9 302.48 235.62 464.74 236.9 464.74C238.18 464.74 257.73 461.23 257.73 461.23L228.07 258L175 257.26Z" fill="#263238"/>
<path d="M183.42 298C183.436 298.14 183.436 298.28 183.42 298.42C183.42 298.72 183.32 299.13 183.25 299.64C183.07 300.74 182.82 302.31 182.5 304.31C181.84 308.36 180.92 314.22 179.82 321.48C177.64 335.96 174.91 356.06 172.62 378.37C170.33 400.68 168.94 420.89 168.15 435.55C167.75 442.88 167.46 448.81 167.29 452.91C167.2 454.91 167.12 456.52 167.07 457.63C167.07 458.15 167.01 458.55 167 458.86C166.997 459.001 166.981 459.142 166.95 459.28C166.939 459.14 166.939 459 166.95 458.86C166.95 458.55 166.95 458.14 166.95 457.63C166.95 456.51 167.01 454.93 167.06 452.9C167.16 448.8 167.38 442.9 167.73 435.53C168.42 420.86 169.73 400.61 172.03 378.31C174.33 356.01 177.11 335.92 179.41 321.42C180.56 314.17 181.54 308.31 182.28 304.27C182.64 302.27 182.93 300.71 183.13 299.62C183.23 299.11 183.3 298.71 183.36 298.41C183.37 298.272 183.39 298.135 183.42 298Z" fill="#455A64"/>
<path d="M217.45 300.77C217.61 300.77 224.17 337.09 232.1 381.94C240.03 426.79 246.33 463.19 246.17 463.22C246.01 463.25 239.45 426.91 231.52 382.04C223.59 337.17 217.29 300.8 217.45 300.77Z" fill="#455A64"/>
<path d="M195.14 302.2C195.14 302.2 195.04 302.07 194.91 301.79C194.78 301.51 194.59 301.1 194.36 300.56C193.741 299.035 193.21 297.476 192.77 295.89C191.331 290.632 190.81 285.165 191.23 279.73C191.34 278.13 191.56 276.59 191.8 275.11C192.04 273.63 192.45 272.22 192.8 270.89C193.55 268.24 194.34 265.89 195.02 263.89C195.7 261.89 196.28 260.34 196.7 259.26L197.2 258.01C197.254 257.864 197.321 257.724 197.4 257.59C197.39 257.748 197.352 257.904 197.29 258.05L196.89 259.33C196.5 260.51 195.99 262.09 195.37 264C194.75 265.91 193.99 268.34 193.26 271C192.9 272.32 192.53 273.72 192.26 275.17C191.99 276.62 191.82 278.17 191.71 279.74C191.307 285.112 191.769 290.514 193.08 295.74C193.59 297.74 194.14 299.33 194.51 300.43C194.756 301.007 194.966 301.598 195.14 302.2Z" fill="#455A64"/>
<path d="M201.23 274.39V274.7C201.23 274.94 201.23 275.23 201.28 275.58C201.28 276.39 201.36 277.49 201.42 278.85C201.52 281.69 201.66 285.64 201.82 290.37L201.68 290.17L209.96 293.54H209.73L216.45 289.45L216.89 289.18L216.76 289.38C217.27 283.92 217.76 278.78 218.16 274.38L218.38 274.63L206 274.5L202.47 274.44H201.53H201.19C201.585 274.392 201.982 274.372 202.38 274.38L205.85 274.32L218.37 274.21H218.62V274.46C218.23 278.89 217.78 284.03 217.29 289.46V289.59L217.18 289.66L216.74 289.92L210 294L209.89 294.07L209.78 294.02L201.52 290.59L201.39 290.54V290.39C201.32 285.6 201.26 281.6 201.22 278.72C201.22 277.38 201.22 276.3 201.22 275.5C201.195 275.13 201.198 274.759 201.23 274.39Z" fill="#455A64"/>
<path d="M170.11 270C170.11 270 170.11 270.41 169.96 271.12C169.81 271.83 169.69 272.89 169.5 274.12C169.07 276.75 168.5 280.4 167.78 284.77L167.69 284.55L173.94 289.18H173.72L181.32 287.07L181.71 286.96L181.53 287.14C182.98 282.14 184.35 277.53 185.53 273.51L185.7 273.8L174.47 271.12L171.27 270.33C170.53 270.14 170.12 270.03 170.11 270.01C170.477 270.055 170.841 270.122 171.2 270.21L174.37 270.87L185.8 273.35L186.03 273.41L185.97 273.64L182 287.28V287.42H181.86L181.47 287.53L173.87 289.63H173.75L173.65 289.56L167.42 285L167.31 284.91V284.78C168.12 280.37 168.79 276.68 169.31 274.03C169.55 272.8 169.74 271.81 169.88 271.03C169.93 270.681 170.007 270.337 170.11 270Z" fill="#455A64"/>
<path d="M213.53 299C210.527 299.919 207.476 300.67 204.39 301.25C201.337 301.998 198.246 302.579 195.13 302.99C198.136 302.07 201.19 301.319 204.28 300.74C207.329 299.991 210.417 299.411 213.53 299Z" fill="#455A64"/>
<path d="M186.8 299.71C186.023 299.814 185.236 299.814 184.46 299.71C182.574 299.558 180.703 299.268 178.86 298.84C177.017 298.424 175.209 297.869 173.45 297.18C172.702 296.95 171.992 296.613 171.34 296.18C172.1 296.346 172.846 296.573 173.57 296.86C174.94 297.3 176.84 297.86 178.98 298.35C181.12 298.84 183.07 299.17 184.5 299.35C185.276 299.402 186.045 299.522 186.8 299.71Z" fill="#455A64"/>
<path d="M184.42 127.19C185.16 129.33 182.62 131.19 180.42 131.66C178.22 132.13 175.54 132.48 174.53 134.51C173.65 136.27 174.53 138.51 173.74 140.3C172.22 143.71 166.08 143 164.88 146.54C164 149 166.32 151.47 166 154C165.75 156.19 163.74 157.69 162 159C160.26 160.31 158.38 162.16 158.65 164.36C158.97 166.89 162.07 168.64 161.78 171.18C161.49 173.72 158.14 174.84 157.65 177.31C157.08 180.23 160.74 182.11 161.92 184.85C162.82 186.94 162.26 189.64 163.78 191.34C165.3 193.04 168.1 192.73 170.38 192.25L193.15 187.42C191.61 183.83 193.05 179.61 195.25 176.37C197.45 173.13 200.36 170.37 202.25 166.97C204.14 163.57 204.75 158.97 202.25 155.91" fill="#263238"/>
<path d="M224.45 145.39C224.292 144.173 224.041 142.969 223.7 141.79C223.523 141.232 223.21 140.727 222.79 140.32C222.34 139.89 221.79 140.16 221.39 140.77C220.721 142.217 220.375 143.791 220.375 145.385C220.375 146.979 220.721 148.553 221.39 150C221.76 150.62 222.39 150.89 222.79 150.46C223.208 150.048 223.521 149.54 223.7 148.98C224.04 147.804 224.291 146.604 224.45 145.39C224.535 145.716 224.563 146.055 224.53 146.39C224.513 147.315 224.369 148.234 224.1 149.12C223.917 149.768 223.573 150.36 223.1 150.84C222.942 150.992 222.746 151.098 222.533 151.147C222.32 151.196 222.098 151.187 221.89 151.12C221.476 150.968 221.125 150.683 220.89 150.31C220.14 148.778 219.75 147.095 219.75 145.39C219.75 143.685 220.14 142.002 220.89 140.47C221.125 140.097 221.476 139.812 221.89 139.66C222.098 139.593 222.32 139.584 222.533 139.633C222.746 139.682 222.942 139.788 223.1 139.94C223.573 140.42 223.917 141.012 224.1 141.66C224.368 142.542 224.512 143.458 224.53 144.38C224.562 144.719 224.535 145.061 224.45 145.39Z" fill="#263238"/>
<path d="M187.31 166.35C183.19 159.35 182.01 150.12 180.97 142.11C180.48 138.33 179.62 132.96 182.27 130.6C185.12 128.07 185.39 124.17 188.66 122.22C191.93 120.27 196.36 120.11 199.44 122.34" fill="#263238"/>
<path d="M198.72 191C200.214 191.115 201.717 190.928 203.137 190.45C204.558 189.972 205.867 189.212 206.988 188.216C208.108 187.22 209.016 186.008 209.657 184.653C210.298 183.298 210.66 181.828 210.72 180.33C210.98 174.25 211.2 168.11 211.2 168.11C211.2 168.11 220.41 167.27 221.11 158.11C221.81 148.95 221.56 127.95 221.56 127.95C216.514 125.395 210.878 124.233 205.233 124.585C199.588 124.937 194.139 126.789 189.45 129.95L189.92 162.03L189.87 179.29C190 185.1 193 190.54 198.72 191Z" fill="#AA6550"/>
<path d="M212.09 147C210.53 145.05 207.97 144.27 205.87 145.63C204.836 146.342 204.088 147.399 203.76 148.611C203.432 149.824 203.546 151.113 204.08 152.25C204.551 153.093 205.191 153.829 205.961 154.412C206.73 154.996 207.611 155.414 208.55 155.64C209.389 155.827 210.13 156.314 210.633 157.011C211.137 157.708 211.367 158.565 211.28 159.42C211.01 161.7 207.2 162.55 205.47 164.42C202.79 167.36 196.93 168.59 192.98 169.04C189.03 169.49 189.56 169.53 187.31 166.33C185.799 164.165 185.027 161.569 185.11 158.93C184.997 152.203 184.88 145.48 184.76 138.76C184.609 136.339 184.77 133.909 185.24 131.53C185.706 129.115 187.076 126.97 189.07 125.53C191.29 124.07 194.07 123.96 196.63 123.15C199.79 122.15 202.48 120.05 205.43 118.55C208.38 117.05 212.02 116.15 214.98 117.65C217.1 118.73 218.52 120.85 220.59 122.04C223.53 123.72 227.59 123.35 228.96 127.69C229.44 129.203 229.419 130.83 228.9 132.33C226.9 138.22 219.57 140.57 214.32 138.01C214.22 139.01 215.19 141.23 214.13 144.39C213.79 145.39 213.67 146.93 212.13 146.95" fill="#263238"/>
<path d="M210.44 152.69C210.44 152.69 210.44 152.86 210.32 153.08C210.199 153.231 210.047 153.355 209.875 153.443C209.702 153.531 209.513 153.581 209.32 153.59C208.679 153.552 208.079 153.269 207.641 152.799C207.204 152.33 206.963 151.711 206.97 151.07C206.946 150.72 206.994 150.369 207.109 150.037C207.224 149.705 207.404 149.4 207.64 149.14C208.02 148.725 208.52 148.439 209.07 148.32C210.01 148.13 210.55 148.48 210.51 148.53C210.47 148.58 209.95 148.53 209.2 148.76C208.725 148.908 208.312 149.207 208.023 149.611C207.735 150.016 207.586 150.503 207.6 151C207.599 151.491 207.767 151.967 208.077 152.348C208.387 152.729 208.819 152.991 209.3 153.09C210.07 153.18 210.38 152.63 210.44 152.69Z" fill="#995037"/>
<path d="M224.47 145C222.472 145.629 220.42 146.067 218.34 146.31C216.289 146.739 214.204 146.98 212.11 147.03C212.11 146.86 214.83 146.28 218.24 145.72C220.289 145.286 222.375 145.045 224.47 145Z" fill="#263238"/>
<path d="M188 175.25C188.294 175.801 188.773 176.231 189.353 176.464C189.933 176.696 190.577 176.716 191.17 176.52C192.345 176.088 193.396 175.374 194.23 174.44C195.053 173.512 196.08 172.786 197.23 172.32C199.66 171.58 202.64 173.2 204.68 171.69C206.54 170.32 206.3 167.21 208.13 165.79C209.13 165.04 210.45 164.94 211.44 164.21C213.29 162.85 212.98 159.8 211.44 158.1C209.9 156.4 207.55 155.72 205.34 155.1L185.75 163.45L188 175.25Z" fill="#263238"/>
<path d="M211.31 139.85C211.31 139.85 211.26 139.9 211.15 139.97C210.984 140.079 210.81 140.176 210.63 140.26C209.946 140.593 209.229 140.851 208.49 141.03C207.319 141.308 206.129 141.498 204.93 141.6C203.357 141.711 201.794 141.925 200.25 142.24C198.398 142.584 196.705 143.513 195.42 144.89C194.1 146.42 193.6 148.62 192.58 150.76C192.066 151.889 191.283 152.875 190.3 153.63C189.259 154.368 188.108 154.935 186.89 155.31C184.48 156.11 181.83 156.6 179.83 158.31C178.842 159.108 178.195 160.252 178.02 161.51C177.909 162.778 177.909 164.052 178.02 165.32C178.129 166.614 177.876 167.912 177.29 169.07C176.654 170.144 175.738 171.026 174.64 171.62C172.64 172.83 170.45 173.47 168.74 174.56C167.906 175.053 167.187 175.718 166.63 176.51C166.152 177.257 165.876 178.115 165.83 179C165.828 180.565 166.04 182.123 166.46 183.63C166.751 184.806 166.862 186.02 166.79 187.23C166.745 188 166.522 188.75 166.14 189.42C166.005 189.654 165.837 189.866 165.64 190.05C166.204 189.211 166.523 188.231 166.56 187.22C166.592 186.036 166.45 184.853 166.14 183.71C165.676 182.175 165.431 180.583 165.41 178.98C165.444 178.016 165.731 177.079 166.24 176.26C166.824 175.406 167.585 174.687 168.47 174.15C170.25 172.99 172.41 172.33 174.36 171.15C175.412 170.615 176.273 169.767 176.824 168.723C177.376 167.68 177.591 166.491 177.44 165.32C177.325 164.019 177.325 162.711 177.44 161.41C177.636 160.015 178.35 158.744 179.44 157.85C181.62 156.02 184.36 155.55 186.7 154.76C187.862 154.407 188.962 153.874 189.96 153.18C190.877 152.477 191.608 151.56 192.09 150.51C193.09 148.51 193.61 146.21 195.04 144.57C196.404 143.127 198.201 142.168 200.16 141.84C201.724 141.538 203.308 141.348 204.9 141.27C206.088 141.194 207.271 141.04 208.44 140.81C209.426 140.586 210.387 140.264 211.31 139.85Z" fill="#455A64"/>
<path d="M206 143.12C206 143.18 205.29 143.12 204.09 143.39C202.396 143.801 200.866 144.714 199.7 146.01C198.895 146.89 198.297 147.939 197.95 149.08C197.62 150.417 197.499 151.796 197.59 153.17C197.716 154.761 197.484 156.361 196.91 157.85C196.528 158.636 195.937 159.301 195.2 159.77C194.491 160.223 193.757 160.634 193 161C192.267 161.324 191.607 161.794 191.06 162.38C190.581 162.977 190.311 163.715 190.29 164.48C190.18 166 190.51 167.69 189.77 169.15C189.058 170.419 188 171.459 186.72 172.15C185.57 172.83 184.45 173.34 183.51 173.91C182.644 174.383 181.876 175.018 181.25 175.78C180.772 176.364 180.43 177.047 180.25 177.78C180.115 178.403 180.115 179.047 180.25 179.67C180.148 179.531 180.079 179.37 180.05 179.2C179.926 178.723 179.906 178.225 179.99 177.74C180.134 176.969 180.452 176.24 180.92 175.61C181.557 174.803 182.34 174.125 183.23 173.61C184.23 173 185.3 172.47 186.4 171.79C187.586 171.128 188.561 170.143 189.21 168.95C189.86 167.69 189.56 166.13 189.65 164.48C189.674 163.592 189.986 162.735 190.54 162.04C191.14 161.388 191.869 160.867 192.68 160.51C194.21 159.76 195.76 159.08 196.39 157.65C196.928 156.242 197.15 154.733 197.04 153.23C196.969 151.802 197.118 150.373 197.48 148.99C197.86 147.79 198.514 146.695 199.39 145.79C200.631 144.466 202.258 143.566 204.04 143.22C204.518 143.131 205.004 143.097 205.49 143.12C205.659 143.094 205.831 143.094 206 143.12Z" fill="#455A64"/>
<path d="M213.47 176.62L211.1 171.75L190.51 170.97L187.28 177.3H213.14" fill="white"/>
<path d="M284.25 220.67C284.1 219.93 289.69 190.85 291.25 182.87C291.295 182.626 291.286 182.375 291.224 182.135C291.162 181.895 291.047 181.672 290.889 181.481C290.73 181.29 290.532 181.136 290.307 181.031C290.083 180.925 289.838 180.87 289.59 180.87H248.35C247.968 180.867 247.596 180.994 247.296 181.23C246.997 181.467 246.786 181.798 246.7 182.17L238.26 217.76L217.45 219.31L218.18 220.68L284.25 220.67Z" fill="#455A64"/>
<path d="M282.44 218.09L289.11 182.84L248.58 183.08L239.68 218.14L282.44 218.09Z" fill="#EBEBEB"/>
<path d="M239.65 218.16L248.55 183.09L289.11 182.84L282.43 218.11L239.65 218.16ZM248.6 183.16L239.71 218.16L282.42 218.11L289.08 182.91L248.6 183.16Z" fill="#263238"/>
<path d="M282.4 218.33C282.4 218.47 270.54 218.59 255.92 218.59C241.3 218.59 229.43 218.47 229.43 218.33C229.43 218.19 241.28 218.07 255.92 218.07C270.56 218.07 282.4 218.19 282.4 218.33Z" fill="#263238"/>
<path d="M279.6 209.43C279.428 209.457 279.252 209.457 279.08 209.43L277.56 209.48L271.97 209.56C267.25 209.56 260.74 209.64 253.54 209.64H247.3L247.38 209.33C248.82 203.78 250.07 198.93 250.99 195.33C251.44 193.65 251.81 192.33 252.09 191.25C252.207 190.756 252.36 190.271 252.55 189.8C252.494 190.307 252.397 190.809 252.26 191.3C252.02 192.3 251.7 193.71 251.26 195.41C250.39 198.97 249.2 203.83 247.83 209.41L247.59 209.1H253.5C260.7 209.1 267.21 209.1 271.93 209.18L277.52 209.26H279.04C279.235 209.283 279.425 209.34 279.6 209.43Z" fill="#455A64"/>
<path d="M250.25 208.09L251 204.69H256.22L255.55 208.09H250.25Z" fill="white"/>
<path d="M257.34 208.09L258.91 201.4H264.13L262.65 208.09H257.34Z" fill="white"/>
<path d="M264.43 208.09L265.19 204.69H270.41L269.74 208.09H264.43Z" fill="white"/>
<path d="M271.52 208.09L274.51 195.09H279.73L276.83 208.09H271.52Z" fill="white"/>
<path d="M254.34 211.89C253.666 212.139 252.942 212.221 252.23 212.13C251.07 212.13 250.13 212 250.13 211.85C251.512 211.503 252.958 211.503 254.34 211.85V211.89Z" fill="#455A64"/>
<path d="M261.21 211.88C260.539 212.124 259.819 212.206 259.11 212.12C258.394 212.192 257.672 212.096 257 211.84C257.674 211.594 258.398 211.512 259.11 211.6C259.822 211.523 260.543 211.619 261.21 211.88Z" fill="#455A64"/>
<path d="M268.09 211.87C267.415 212.113 266.692 212.195 265.98 212.11C265.268 212.183 264.548 212.087 263.88 211.83C264.554 211.583 265.277 211.501 265.99 211.59C266.702 211.513 267.423 211.609 268.09 211.87Z" fill="#455A64"/>
<path d="M275 211.86C273.614 212.207 272.165 212.207 270.78 211.86C272.165 211.513 273.614 211.513 275 211.86Z" fill="#455A64"/>
<path d="M264.85 188.36C262.918 188.617 260.967 188.704 259.02 188.62C257.069 188.704 255.115 188.617 253.18 188.36C255.115 188.103 257.069 188.016 259.02 188.1C260.967 188.016 262.918 188.103 264.85 188.36Z" fill="#455A64"/>
<path d="M258.72 186.91C257.012 187.27 255.248 187.27 253.54 186.91C255.249 186.563 257.011 186.563 258.72 186.91Z" fill="#455A64"/>
<path d="M247.54 242.1L271.4 224.83L270.51 223.39C269.206 221.267 267.248 219.625 264.93 218.71L261.2 219.38L239.08 222.75L247.54 242.1Z" fill="white"/>
<path d="M162.71 238.13L182.54 230.25L178.11 213.84L161.96 219.33L162.71 238.13Z" fill="white"/>
<path d="M246.71 242.56C251.65 240.11 252.92 234.22 250.51 229.26L230 185.36C229.528 184.275 228.821 183.309 227.93 182.53C225.626 180.478 222.936 178.906 220.016 177.907C217.097 176.907 214.008 176.5 210.93 176.71L189.51 176.15C189.51 176.15 172.68 176.15 166.37 189.41C165.91 190.41 156.13 209.78 149.68 222.56C148.976 223.952 148.575 225.477 148.503 227.035C148.432 228.593 148.69 230.149 149.263 231.6C149.835 233.051 150.708 234.364 151.825 235.453C152.941 236.543 154.275 237.383 155.74 237.92C158.366 238.899 161.267 238.839 163.85 237.752C166.433 236.665 168.504 234.632 169.64 232.07L176.64 216.45L181 238.82L174.65 257.26L227.76 257.99L223.68 233.32L222.39 215.74L233.2 238C233.775 239.198 234.582 240.27 235.576 241.153C236.57 242.036 237.729 242.711 238.987 243.14C240.245 243.57 241.576 243.744 242.902 243.653C244.228 243.562 245.522 243.207 246.71 242.61V242.56Z" fill="white"/>
<g opacity="0.2">
<path d="M182.83 238.39C186.83 241.39 192.78 240.39 197.73 239.58C202.753 238.852 207.357 236.373 210.73 232.58C212.3 230.928 213.164 228.729 213.14 226.45C212.94 224.2 210.95 222.03 208.71 222.3C206.15 222.61 204.91 225.49 203.71 227.76C201.678 231.32 198.596 234.166 194.885 235.908C191.175 237.649 187.017 238.202 182.98 237.49C182.98 237.49 182.12 237.86 182.83 238.39Z" fill="black"/>
</g>
<g opacity="0.2">
<path d="M215.63 203.83C216.88 213.93 216.32 213.17 218.43 223.13C219.43 228.02 220.72 233.13 224.1 236.83L222.43 215.74L215.63 203.83Z" fill="black"/>
</g>
<path d="M174.69 257.26L173.17 252.83L177.13 250.19L225.85 246.17L229.28 252.63L227.8 257.99L174.69 257.26Z" fill="white"/>
<path d="M184.75 173.67C183.733 174.065 182.818 174.685 182.074 175.482C181.329 176.279 180.774 177.234 180.449 178.276C180.124 179.317 180.038 180.419 180.198 181.498C180.357 182.577 180.758 183.607 181.37 184.51C181.879 185.064 182.204 185.763 182.3 186.51C182.2 188.31 179.3 188.36 178.38 189.91C178.138 190.463 178.084 191.079 178.224 191.666C178.365 192.252 178.694 192.777 179.16 193.16C180.101 193.911 181.104 194.58 182.16 195.16C182.683 195.46 183.125 195.884 183.446 196.395C183.767 196.906 183.957 197.488 184 198.09C185 198.09 185.62 196.83 185.47 195.83C185.195 194.849 184.773 193.915 184.22 193.06C183.946 192.632 183.79 192.14 183.767 191.632C183.744 191.125 183.856 190.621 184.09 190.17C184.75 189.22 186.09 189.17 187.19 188.76C188.219 188.312 189.034 187.482 189.461 186.444C189.888 185.406 189.895 184.243 189.48 183.2C188.82 181.74 187.3 180.26 188.04 178.84C188.45 178.05 189.4 177.75 190.18 177.31C190.989 176.865 191.674 176.226 192.174 175.45C192.675 174.675 192.975 173.787 193.047 172.867C193.12 171.947 192.962 171.023 192.589 170.179C192.216 169.334 191.639 168.596 190.91 168.03" fill="#263238"/>
<path d="M176.5 218.59C176.228 219.455 175.866 220.29 175.42 221.08C174.68 222.59 173.6 224.64 172.3 226.85C171 229.06 169.71 230.98 168.74 232.36C168.261 233.128 167.705 233.845 167.08 234.5C167.46 233.677 167.916 232.89 168.44 232.15C169.32 230.73 170.55 228.77 171.85 226.58C173.15 224.39 174.27 222.37 175.09 220.91C175.487 220.095 175.959 219.318 176.5 218.59Z" fill="#263238"/>
<path d="M171.83 227C171.985 228.235 171.869 229.488 171.489 230.673C171.109 231.858 170.474 232.946 169.63 233.86C169.5 233.77 170.4 232.4 170.99 230.51C171.58 228.62 171.67 227 171.83 227Z" fill="#263238"/>
<path d="M249.64 227.68C249.51 227.74 245.35 219.04 240.36 208.26C235.37 197.48 231.42 188.68 231.55 188.62C231.68 188.56 235.84 197.25 240.83 208.04C245.82 218.83 249.77 227.62 249.64 227.68Z" fill="#263238"/>
<path d="M224.34 182.84C224.34 182.92 223.44 183.25 222.12 184.07C220.394 185.135 218.923 186.565 217.81 188.26C216.697 189.955 215.97 191.873 215.68 193.88C215.45 195.42 215.52 196.4 215.43 196.41C215.216 195.567 215.176 194.689 215.31 193.83C215.509 191.738 216.217 189.726 217.37 187.97C218.524 186.213 220.089 184.764 221.93 183.75C222.663 183.286 223.483 182.976 224.34 182.84Z" fill="#263238"/>
<path d="M181 239C180.86 239 178.47 228.86 175.66 216.27C172.85 203.68 170.66 193.46 170.83 193.43C171 193.4 173.36 203.57 176.17 216.16C178.98 228.75 181.12 239 181 239Z" fill="#263238"/>
<path d="M271.4 224.83L281.08 220.66H268.18L271 224.32" fill="#AA6550"/>
<path d="M251.5 225.91C250.647 225.251 249.86 224.511 249.15 223.7C248.323 223.01 247.559 222.247 246.87 221.42C247.885 221.845 248.788 222.499 249.51 223.33C250.356 224.032 251.036 224.913 251.5 225.91Z" fill="#263238"/>
<path d="M233.65 238.77C233.335 238.347 233.06 237.895 232.83 237.42C232.33 236.54 231.64 235.25 230.83 233.65C229.15 230.44 226.91 225.97 224.47 221.03C222.03 216.09 219.78 211.62 218.11 208.41C217.32 206.87 216.65 205.59 216.11 204.61C215.85 204.155 215.625 203.68 215.44 203.19C215.761 203.604 216.046 204.046 216.29 204.51C216.81 205.38 217.54 206.65 218.41 208.24C220.16 211.41 222.46 215.85 224.9 220.8C227.34 225.75 229.5 230.15 231.13 233.48L233.01 237.33C233.263 237.791 233.477 238.273 233.65 238.77Z" fill="#263238"/>
<path d="M214.5 225.18C214.5 225.18 214.5 225.31 214.5 225.53C214.462 225.866 214.406 226.2 214.33 226.53C214.052 227.744 213.605 228.912 213 230C210.92 233.55 207.769 236.35 204 238C200.272 239.575 196.321 240.56 192.29 240.92C190.76 241.09 189.51 241.19 188.65 241.25C188.205 241.302 187.755 241.302 187.31 241.25C187.743 241.137 188.184 241.06 188.63 241.02L192.24 240.52C196.209 240.071 200.095 239.061 203.78 237.52C207.435 235.91 210.525 233.242 212.65 229.86C213.473 228.389 214.095 226.816 214.5 225.18Z" fill="#263238"/>
<path d="M203.82 251C203.82 251.14 197.24 251.72 189.1 252.29C180.96 252.86 174.36 253.21 174.35 253.06C174.34 252.91 180.93 252.34 189.07 251.77C197.21 251.2 203.81 250.8 203.82 251Z" fill="#263238"/>
<path d="M212.31 247C213.379 250.246 213.741 253.683 213.37 257.08C213.22 257.08 213.16 254.81 212.86 252.08C212.56 249.35 212.17 247 212.31 247Z" fill="#263238"/>
<path d="M215.73 243.82C215.976 244.461 216.125 245.135 216.17 245.82C216.589 249.123 216.354 252.477 215.48 255.69C215.345 256.368 215.102 257.02 214.76 257.62C214.6 257.62 215.54 254.62 215.76 250.75C215.98 246.88 215.57 243.84 215.73 243.82Z" fill="#263238"/>
<path d="M213.53 177C209.983 177.07 206.435 176.96 202.9 176.67C197.04 176.34 192.3 175.95 192.3 175.81C192.3 175.67 197.07 175.81 202.93 176.15C208.79 176.49 213.53 176.83 213.53 177Z" fill="#263238"/>
<path d="M310.42 348.86C310.139 348.905 309.854 348.925 309.57 348.92L307.13 348.97L298.18 349.06L268.64 349.14H266.26V348.86C266.26 337.86 266.32 327.94 266.35 320.73C266.35 317.2 266.41 314.33 266.43 312.28C266.43 311.33 266.43 310.56 266.48 309.99C266.474 309.722 266.494 309.454 266.54 309.19C266.561 309.456 266.561 309.724 266.54 309.99C266.54 310.56 266.54 311.33 266.59 312.28C266.59 314.33 266.64 317.2 266.68 320.73C266.68 327.94 266.68 337.83 266.77 348.86L266.49 348.58H268.59L298.13 348.67L307.08 348.75L309.52 348.81C309.821 348.803 310.122 348.82 310.42 348.86Z" fill="white"/>
<path d="M305.54 318.82C305.136 319.27 304.698 319.688 304.23 320.07L300.53 323.32C297.38 326.05 293.02 329.79 288.17 333.89L287.43 334.51L287.25 334.67L287.07 334.5L281.57 329.39H281.91L273.84 336.05L271.5 337.92C271.229 338.16 270.934 338.371 270.62 338.55C270.848 338.27 271.107 338.015 271.39 337.79L273.64 335.79L281.58 328.98L281.75 328.83L281.92 328.98L287.44 334.06H287.08L287.81 333.44C292.66 329.34 297.06 325.65 300.27 323L304.09 319.88C304.546 319.491 305.031 319.137 305.54 318.82Z" fill="white"/>
<path d="M305.54 328C305.389 327.095 305.326 326.177 305.35 325.26C305.3 323.57 305.27 321.26 305.26 318.59L305.54 318.87H305.07C302.34 318.87 299.87 318.87 298.07 318.79C297.099 318.82 296.127 318.753 295.17 318.59C296.129 318.44 297.1 318.376 298.07 318.4C299.86 318.34 302.33 318.31 305.07 318.31H305.82V318.59C305.82 321.21 305.82 323.59 305.73 325.26C305.754 326.177 305.69 327.095 305.54 328Z" fill="white"/>
</svg>
