<svg xmlns="http://www.w3.org/2000/svg" viewBox="0 0 500 500"><g id="freepik--background-simple--inject-62"><path d="M464.86,277.39c-14.73,39.43-44.81,82.11-87.14,94.75-64,19.1-71.6,70.65-186.16,65.87A230.92,230.92,0,0,1,142,430.75,194.41,194.41,0,0,1,118.73,423C51.8,395.89,16.89,336.23,14,273.81c-3.82-82.11,53.46-121.24,90.69-144.15S186.79,18,299.44,21.77a224.06,224.06,0,0,1,50.92,7.44c37.91,10.26,76.44,32.95,98.84,66.12q2.52,3.75,4.82,7.64C484,153.82,484.93,223.63,464.86,277.39Z" style="fill:#510EC2"></path><path d="M464.86,277.39c-14.73,39.43-44.81,82.11-87.14,94.75-64,19.1-71.6,70.65-186.16,65.87A230.92,230.92,0,0,1,142,430.75,194.41,194.41,0,0,1,118.73,423C51.8,395.89,16.89,336.23,14,273.81c-3.82-82.11,53.46-121.24,90.69-144.15S186.79,18,299.44,21.77a224.06,224.06,0,0,1,50.92,7.44c37.91,10.26,76.44,32.95,98.84,66.12q2.52,3.75,4.82,7.64C484,153.82,484.93,223.63,464.86,277.39Z" style="fill:#fff;opacity:0.7000000000000001"></path></g><g id="freepik--Puzzle--inject-62"><rect x="337.58" y="208" width="5.42" height="26" style="fill:#263238;stroke:#263238;stroke-linecap:round;stroke-linejoin:round"></rect><polygon points="157.5 181.91 153.47 188.9 195.41 261.54 203.47 261.54 157.5 181.91" style="fill:#263238;stroke:#263238;stroke-linecap:round;stroke-linejoin:round"></polygon><polygon points="276 277.39 271.63 280.57 310.64 308.91 294.07 359.9 302.81 359.9 319.38 308.91 276 277.39" style="fill:#263238;stroke:#263238;stroke-linecap:round;stroke-linejoin:round"></polygon><rect x="90.95" y="54.38" width="15.58" height="323.62" style="fill:#263238;stroke:#263238;stroke-linecap:round;stroke-linejoin:round"></rect><path d="M97,54.38V378H361V54.38Zm14.53,207.16,46-79.62,46,79.62ZM302.81,359.9H249.19l-16.56-51L276,277.39l43.37,31.52ZM343,234H206V208H343Z" style="fill:#fff;stroke:#263238;stroke-linecap:round;stroke-linejoin:round"></path><rect x="121" y="82" width="80" height="80" style="fill:#510EC2;stroke:#263238;stroke-linecap:round;stroke-linejoin:round"></rect><circle cx="275" cy="121" r="41" style="fill:#510EC2;stroke:#263238;stroke-linecap:round;stroke-linejoin:round"></circle><polygon points="161 278.22 174.16 304.89 203.59 309.16 182.29 329.92 187.32 359.23 161 345.39 134.68 359.23 139.71 329.92 118.41 309.16 147.84 304.89 161 278.22" style="fill:#510EC2;stroke:#263238;stroke-linecap:round;stroke-linejoin:round"></polygon></g><g id="freepik--figure-2--inject-62"><rect x="199" y="445.33" width="137" height="26" style="fill:#263238;stroke:#263238;stroke-linecap:round;stroke-linejoin:round"></rect><rect x="204" y="445.33" width="132" height="26" style="fill:#fff;stroke:#263238;stroke-linecap:round;stroke-linejoin:round"></rect></g><g id="freepik--figure-1--inject-62"><polygon points="142 388.83 98.63 420.34 115.19 471.33 168.81 471.33 147.26 388.83 142 388.83" style="fill:#263238;stroke:#263238;stroke-linecap:round;stroke-linejoin:round"></polygon><polygon points="147.26 388.83 103.88 420.34 120.45 471.33 174.06 471.33 190.63 420.34 147.26 388.83" style="fill:#fff;stroke:#263238;stroke-linecap:round;stroke-linejoin:round"></polygon></g><g id="freepik--Character--inject-62"><path d="M384.75,446s-1.5,6.5-3.25,8.75-9,6.5-18,10c-6.34,2.46-3,4.5-2.25,5,3.84,2.56,17.5,1.25,22.25,1.25h12.75c1.75,0,11-1,8.75-9-3.47-12.33-2.5-13.75-2.5-13.75Z" style="fill:#fff;stroke:#263238;stroke-linecap:round;stroke-linejoin:round"></path><path d="M396.25,471c1.56,0,9.09-.8,9.09-6.66a19.17,19.17,0,0,1-4.59,2.16c-3.5,1-5.25.25-23.75,1.5-9,.61-14.25.09-17.22-.61-.38,1.19,1,2.06,1.47,2.36,3.84,2.56,17.5,1.25,22.25,1.25Z" style="fill:#fff;stroke:#263238;stroke-linecap:round;stroke-linejoin:round"></path><path d="M351.76,248.92s10.77,11.11,17,13.54,13.88-12.15,13.88-12.15l-33.33-9Z" style="fill:#fff;stroke:#263238;stroke-linecap:round;stroke-linejoin:round"></path><path d="M372.75,284.5s1.5,57.5,3.5,77.25,8.5,73.75,8.5,73.75-4.5,2.5-4.5,4a62.42,62.42,0,0,0,1.25,7s5.75,3.5,10.25,4.5,12.75-1.5,12.75-1.5l.75-9.5-2.5-8,1.75-100,28,107.25s-1.25,3.25-1,4.75,6.25,12.25,6.25,12.25,1-5.75,7.5-5a23,23,0,0,1,10.25,3.5s1.25-9.5,0-12.5S449,429.5,448.75,427s-2-8.5-3-13-5.75-57-6.25-60.5-3.5-45.75-3.5-45.75l1-17.5S395,288,384.5,286s-9.75-2.75-9.75-2.75Z" style="fill:#263238;stroke:#263238;stroke-linecap:round;stroke-linejoin:round"></path><path d="M374.3,276.31s-2.22,9.55-.66,11.1,10,5.56,33.09,7.33,32-.44,32.88-3.33-.67-11.77-.67-11.77-33.76.44-48.42-2-13.77-4.44-13.77-4.44Z" style="fill:#fff;stroke:#263238;stroke-linecap:round;stroke-linejoin:round"></path><path d="M418.75,178.2s-27,7.32-29.69,8.78-12.13,69-13.8,75.28-4.18,13.59-.21,16.1,22.79,6.9,36.38,7.74,24.68-.42,27.19-2.09,2.3-1.68,2.71-5,3.35-26.14,3.56-27.19,15.68-49.34,15.68-51.64-19.24-17.78-22.37-19.24S423.56,178.2,418.75,178.2Z" style="fill:#fff;stroke:#263238;stroke-linecap:round;stroke-linejoin:round"></path><path d="M439.87,188.24a20.24,20.24,0,0,0,2.6-4.43,35.08,35.08,0,0,0-4.27-2.89c-3.14-1.46-14.64-2.72-19.45-2.72l-6.89,1.9a83.41,83.41,0,0,0,1.25,14.2c1.46,6.9,1.46,13.8,4.39,12.13S436.11,193.05,439.87,188.24Z" style="fill:#fff;stroke:#263238;stroke-linecap:round;stroke-linejoin:round"></path><path d="M419.18,140.66s-7.2,11.25-8.32,13.72-8.1,5.17-6.75,8.1,5.4,3.6,5.4,3.6-1.13,11.7.45,13.5,8.09.9,8.09.9-.45,13-.45,16.64,16.2-8.54,19.13-11.92,1.8-13,1.8-13,8.55-10.8,10.12-15.52-2.7-16.2-15.07-19.8S419.18,140.66,419.18,140.66Z" style="fill:#fff;stroke:#263238;stroke-linecap:round;stroke-linejoin:round"></path><path d="M416.45,155.14c-.24.91-.77,1.55-1.19,1.43s-.57-.93-.33-1.83.78-1.54,1.2-1.43S416.69,154.24,416.45,155.14Z" style="fill:#263238"></path><path d="M415.8,150.78s3.83-.9,4.05,2.93" style="fill:none;stroke:#263238;stroke-linecap:round;stroke-linejoin:round"></path><path d="M410.63,167.88s2,1.57,7-.9" style="fill:none;stroke:#263238;stroke-linecap:round;stroke-linejoin:round"></path><path d="M418.05,180.48s6.3.45,9.9-2.93l-9.9,14.85Z" style="fill:#263238;stroke:#263238;stroke-linecap:round;stroke-linejoin:round"></path><path d="M431.78,151.68a33.18,33.18,0,0,1-14.4-7c-6.52-5.63-5.17-12.6,1.12-15.08s18.9-.9,26.33,7.88,10.34,13.05,7.42,20.24-11.7,16.65-14.17,16.2-3.38-4.72-3.15-5.85,3.37-5.17,1.12-7-4.27-.45-5.62-2.7S431.78,151.68,431.78,151.68Z" style="fill:#263238;stroke:#263238;stroke-linecap:round;stroke-linejoin:round"></path><path d="M432,162.25s5.18-6.74,7.43-2.7-.9,7.65-2.7,8.78-6.08,0-6.08,0" style="fill:#fff;stroke:#263238;stroke-linecap:round;stroke-linejoin:round"></path><polygon points="385.84 174.95 381.88 174.95 416.11 258.41 420.06 258.41 385.84 174.95" style="fill:#510EC2;stroke:#263238;stroke-linecap:round;stroke-linejoin:round"></polygon><polygon points="381.88 174.95 326.72 246.32 416.11 258.41 381.88 174.95" style="fill:#510EC2;stroke:#263238;stroke-linecap:round;stroke-linejoin:round"></polygon><path d="M444,213l.75,25.75S442,236.5,442,237.5a12.47,12.47,0,0,1-.75,3,74.81,74.81,0,0,0-2.5,12.75c-.5,6,.75,7.25,5.5,10.25s14,8.25,17.5,7.75,6.75-2.5,7-10.25-3-14-3-15.5,1.25-8,1-9.25-2.25-4.75-2.25-5.5,1.25-26.5-1.25-30.25S451,193.25,451,193.25" style="fill:#fff;stroke:#263238;stroke-linecap:round;stroke-linejoin:round"></path><path d="M413.75,226.75S403,215,401,214.5s-4.75,1-7.25,2.25-2,2.25-2,3A19.39,19.39,0,0,0,392,222s-5,5.75-4.25,6.75,3-.25,3-.25-3.5,3.5-.25,3.5a10.74,10.74,0,0,0,5.5-1.5s-1.25,1.5,1.5,1.5a17.58,17.58,0,0,0,5.75-1.25s3.25,2.75,4.75,3.75,4.25.5,4.25.5,24.75,23,28.5,24,7.25-4.25,7.5-8.75-1.5-7.25-5.5-8.75-27-13-27-13Z" style="fill:#fff;stroke:#263238;stroke-linecap:round;stroke-linejoin:round"></path><line x1="392" y1="222" x2="398.5" y2="218.25" style="fill:none;stroke:#263238;stroke-linecap:round;stroke-linejoin:round"></line><path d="M390.75,228.5s5.5-4.75,6.25-5.25a51.32,51.32,0,0,1,4.75-2" style="fill:none;stroke:#263238;stroke-linecap:round;stroke-linejoin:round"></path><polyline points="396 230.5 401 227 404.25 226" style="fill:none;stroke:#263238;stroke-linecap:round;stroke-linejoin:round"></polyline><path d="M459.45,251a13.57,13.57,0,0,1,1.8,2.54" style="fill:none;stroke:#263238;stroke-linecap:round;stroke-linejoin:round"></path><path d="M444.5,241.25a55.1,55.1,0,0,1,11.88,6.83" style="fill:none;stroke:#263238;stroke-linecap:round;stroke-linejoin:round"></path><path d="M462,241.75a31.12,31.12,0,0,0-14.5-2.5" style="fill:none;stroke:#263238;stroke-linecap:round;stroke-linejoin:round"></path><path d="M352.55,210.58a2.61,2.61,0,0,0-2.19-1.48c-1.16-.13-2.41,0-2,1.29.7,2.28,3,8.73,5.37,7.78s-1.17-7.59-1.17-7.59Z" style="fill:#fff;stroke:#263238;stroke-linecap:round;stroke-linejoin:round"></path><path d="M348.58,212.67a2.64,2.64,0,0,0-2.19-1.48c-1.16-.13-2.42,0-2,1.29.7,2.28,3,8.73,5.37,7.79s-1.16-7.6-1.16-7.6Z" style="fill:#fff;stroke:#263238;stroke-linecap:round;stroke-linejoin:round"></path><path d="M344.68,216.51a2.43,2.43,0,0,0-2.08-1c-1,0-2.05.25-1.51,1.3.94,1.86,3.9,7.1,5.73,6.06s-2.14-6.32-2.14-6.32Z" style="fill:#fff;stroke:#263238;stroke-linecap:round;stroke-linejoin:round"></path><path d="M342.09,219.78a2,2,0,0,0-1.69-.85c-.82,0-1.67.2-1.23,1.06.76,1.51,3.17,5.78,4.67,4.93s-1.75-5.14-1.75-5.14Z" style="fill:#fff;stroke:#263238;stroke-linecap:round;stroke-linejoin:round"></path><path d="M437.75,456.25a66.12,66.12,0,0,1,.5,10.5c-.25,5,2.25,8,9,9.25s14.25-2.5,14.5-6.25-7-16-7-16S439.75,442.75,437.75,456.25Z" style="fill:#fff;stroke:#263238;stroke-linecap:round;stroke-linejoin:round"></path><path d="M461.75,469.75a11.93,11.93,0,0,0-1.09-4.35c-.51,2.85-2.77,8.6-10.16,8.6-5.05,0-9.5-2.69-12.09-4.67.67,3.47,3.34,5.65,8.84,6.67C454,477.25,461.5,473.5,461.75,469.75Z" style="fill:#fff;stroke:#263238;stroke-linecap:round;stroke-linejoin:round"></path></g></svg>
