<svg xmlns="http://www.w3.org/2000/svg" viewBox="0 0 500 500"><g id="freepik--background-complete--inject-11"><path d="M41.26,184.57a731.06,731.06,0,0,1,102.09-12.43c4.29-.23,8.57-.38,12.86-.57s8.58-.22,12.86-.34,8.58-.07,12.87-.1c2.15,0,4.29,0,6.44,0s4.31.15,6.45.32c8.57.68,17.08,1.92,25.54,3.33s16.9,3,25.3,4.74c33.6,7,66.9,15.31,100.1,23.94q24.89,6.51,49.7,13.34T445,230.89q-24.76-7-49.62-13.62T345.6,204.11c-33.22-8.53-66.53-16.73-100.12-23.62-8.4-1.69-16.81-3.36-25.26-4.78s-16.93-2.71-25.46-3.4q-3.19-.27-6.39-.34c-2.14,0-4.29,0-6.43,0-4.28,0-8.57-.07-12.85.06s-8.57.12-12.86.29-8.56.31-12.84.52q-25.69,1.27-51.25,4.25C75.1,179,58.1,181.34,41.26,184.57Z" style="fill:#ebebeb"></path><path d="M44,162.37c17-.43,34-.71,51-.93s34-.23,51-.23l25.51.09,12.75.09c2.13,0,4.25,0,6.38.09s4.26.13,6.38.29c8.5.56,17,1.49,25.4,2.58s16.86,2.27,25.26,3.6c33.59,5.31,67,11.64,100.38,18.17q25,4.94,50,10.12T447.92,207q-25-5.25-50-10.25t-50-9.94c-33.39-6.43-66.82-12.65-100.42-17.84q-12.59-2-25.22-3.66c-8.42-1.11-16.87-2.06-25.33-2.65-2.12-.17-4.23-.24-6.35-.31s-4.25-.07-6.37-.11l-12.75-.14-25.5-.17q-25.5-.09-51,.06C78,162,61,162.11,44,162.37Z" style="fill:#ebebeb"></path><path d="M47.17,136.74l50.66,4,50.64,4.15,25.32,2.07c8.44.7,16.89,1.32,25.32,2.21,4.22.38,8.42.93,12.63,1.39s8.42,1,12.62,1.5q12.62,1.54,25.2,3.22c33.58,4.51,67.11,9.35,100.63,14.25L400.45,177l50.22,7.74L350.09,170.16c-33.53-4.79-67.07-9.52-100.66-13.92C232.65,154,215.85,151.81,199,150c-8.41-.91-16.86-1.57-25.29-2.3l-25.32-2.16-50.62-4.31Z" style="fill:#ebebeb"></path><path d="M51.58,101.08c16.29,4.78,32.72,9.07,49.19,13.15s33,8,49.61,11.48l12.46,2.58,12.49,2.46c4.16.83,8.34,1.55,12.51,2.34s8.35,1.5,12.54,2.13c16.77,2.52,33.65,4.37,50.52,6.21,33.75,3.66,67.56,6.76,101.38,9.73L403,155.44l50.76,4.17L403,155.92q-25.38-2-50.76-4.11c-33.83-2.85-67.65-5.85-101.42-9.4q-12.68-1.33-25.31-2.91c-8.43-1-16.85-2.14-25.24-3.44-4.2-.64-8.39-1.38-12.56-2.18s-8.35-1.53-12.51-2.38L162.7,129l-12.47-2.62C117,119.19,84.09,110.9,51.58,101.08Z" style="fill:#ebebeb"></path><path d="M55.75,67.37q22.89,12,46.44,22.55c15.66,7.12,31.52,13.84,47.67,19.76s32.64,11,49.63,13.7,34.08,4.66,51.2,6.29q51.4,4.77,103,6.29c8.6.32,17.2.41,25.8.59l12.91.07,6.45,0,6.45-.06c17.21-.14,34.43-.53,51.56-2.26-17.11,1.89-34.34,2.44-51.55,2.74l-6.46.1h-6.45l-12.91,0c-8.61-.15-17.22-.22-25.82-.5q-51.63-1.38-103.11-6c-17.14-1.69-34.26-3.61-51.25-6.47s-33.57-8-49.72-13.9C117.35,98.26,86.16,83.49,55.75,67.37Z" style="fill:#ebebeb"></path><path d="M229.54,144a5,5,0,1,1-2.44-6.69A5,5,0,0,1,229.54,144Z" style="fill:#ebebeb"></path><rect x="231.24" y="118.94" width="3.85" height="25.33" transform="translate(77.35 -86.13) rotate(24.97)" style="fill:#ebebeb"></rect><path d="M247.41,144.19A5,5,0,1,1,245,137.5,5,5,0,0,1,247.41,144.19Z" style="fill:#ebebeb"></path><rect x="249.11" y="119.18" width="3.85" height="25.33" transform="translate(79.13 -93.65) rotate(24.97)" style="fill:#ebebeb"></rect><polygon points="258.11 121.23 235.33 122.39 236.76 119.31 259.54 118.16 258.11 121.23" style="fill:#ebebeb"></polygon><polygon points="255.41 127.02 232.64 128.17 234.07 125.1 256.84 123.94 255.41 127.02" style="fill:#ebebeb"></polygon><path d="M415.65,202a4.26,4.26,0,1,1-2.07-5.66A4.27,4.27,0,0,1,415.65,202Z" style="fill:#ebebeb"></path><rect x="417.08" y="180.81" width="3.25" height="21.42" transform="translate(119.99 -158.86) rotate(24.97)" style="fill:#ebebeb"></rect><path d="M430.76,202.17a4.26,4.26,0,1,1-2.06-5.66A4.26,4.26,0,0,1,430.76,202.17Z" style="fill:#ebebeb"></path><rect x="432.2" y="181.02" width="3.25" height="21.42" transform="translate(121.49 -165.22) rotate(24.97)" style="fill:#ebebeb"></rect><polygon points="439.81 182.75 420.55 183.72 421.76 181.13 441.02 180.15 439.81 182.75" style="fill:#ebebeb"></polygon><path d="M131,122.69A4.26,4.26,0,1,1,128.9,117,4.27,4.27,0,0,1,131,122.69Z" style="fill:#ebebeb"></path><rect x="132.4" y="101.54" width="3.25" height="21.42" transform="translate(59.91 -46.09) rotate(24.97)" style="fill:#ebebeb"></rect><path d="M146.08,122.89a4.26,4.26,0,1,1-2.06-5.66A4.25,4.25,0,0,1,146.08,122.89Z" style="fill:#ebebeb"></path><rect x="147.52" y="101.74" width="3.25" height="21.42" transform="translate(61.41 -52.45) rotate(24.97)" style="fill:#ebebeb"></rect><polygon points="155.13 103.47 135.87 104.45 137.08 101.85 156.34 100.87 155.13 103.47" style="fill:#ebebeb"></polygon><path d="M327,182a5,5,0,1,1-2.44-6.69A5,5,0,0,1,327,182Z" style="fill:#ebebeb"></path><rect x="328.67" y="157.04" width="3.85" height="25.33" transform="translate(102.54 -123.7) rotate(24.97)" style="fill:#ebebeb"></rect><rect x="347.07" y="157.48" width="3.85" height="7.32" transform="translate(100.66 -132.27) rotate(24.97)" style="fill:#ebebeb"></rect><polygon points="351.88 159.52 332.77 160.48 334.2 157.41 353.31 156.45 351.88 159.52" style="fill:#ebebeb"></polygon><polygon points="349.18 165.31 330.07 166.26 331.5 163.19 350.61 162.24 349.18 165.31" style="fill:#ebebeb"></polygon><path d="M387.11,138.24a3.16,3.16,0,1,1-1.73-4.12A3.17,3.17,0,0,1,387.11,138.24Z" style="fill:#ebebeb"></path><rect x="387.81" y="122.45" width="2.41" height="15.89" transform="translate(78.6 -137.89) rotate(22.31)" style="fill:#ebebeb"></rect><rect x="399.1" y="122.2" width="2.41" height="4.59" transform="translate(77.21 -142.63) rotate(22.31)" style="fill:#ebebeb"></rect><polygon points="402.06 123.4 390.11 124.56 390.92 122.59 402.87 121.43 402.06 123.4" style="fill:#ebebeb"></polygon><polygon points="400.54 127.1 388.59 128.26 389.4 126.29 401.35 125.14 400.54 127.1" style="fill:#ebebeb"></polygon><path d="M113.15,175.11a3.16,3.16,0,1,1-1.72-4.12A3.16,3.16,0,0,1,113.15,175.11Z" style="fill:#ebebeb"></path><rect x="113.86" y="159.32" width="2.41" height="15.89" transform="translate(72.09 -31.16) rotate(22.31)" style="fill:#ebebeb"></rect><rect x="125.14" y="159.07" width="2.41" height="4.59" transform="translate(70.71 -35.88) rotate(22.31)" style="fill:#ebebeb"></rect><polygon points="128.11 160.27 116.16 161.42 116.97 159.46 128.91 158.3 128.11 160.27" style="fill:#ebebeb"></polygon><polygon points="126.59 163.97 114.64 165.13 115.44 163.16 127.39 162.01 126.59 163.97" style="fill:#ebebeb"></polygon><path d="M249.68,182.7a3.16,3.16,0,1,1-1.73-4.13A3.16,3.16,0,0,1,249.68,182.7Z" style="fill:#ebebeb"></path><rect x="250.38" y="166.91" width="2.41" height="15.89" transform="translate(85.19 -82.4) rotate(22.31)" style="fill:#ebebeb"></rect><rect x="261.67" y="166.66" width="2.41" height="4.59" transform="translate(83.8 -87.14) rotate(22.31)" style="fill:#ebebeb"></rect><polygon points="264.63 167.85 252.68 169.01 253.49 167.04 265.44 165.89 264.63 167.85" style="fill:#ebebeb"></polygon><polygon points="263.11 171.56 251.16 172.72 251.97 170.75 263.92 169.59 263.11 171.56" style="fill:#ebebeb"></polygon><path d="M90.29,127.21a4.93,4.93,0,0,1-4.18,1.34A8.94,8.94,0,0,1,81.84,127,7.73,7.73,0,0,1,79,123.49a8.62,8.62,0,0,1-.41-4.58,11.94,11.94,0,0,1,4.65-7.79,12.2,12.2,0,0,1,9-1.91,15.06,15.06,0,0,1,8.25,4.16,13.3,13.3,0,0,1,3.94,8.4,22.52,22.52,0,0,1-1.47,9.17,18.56,18.56,0,0,1-5.31,7.68A16.69,16.69,0,0,1,89,142.36a23.39,23.39,0,0,1-17.58-5.21,21.41,21.41,0,0,1-5.68-7.48,20.75,20.75,0,0,1-1.85-9.22,23.13,23.13,0,0,1,2.26-9.11,29.53,29.53,0,0,1,5.37-7.63,62.92,62.92,0,0,1,6.88-6.1c4.8-3.73,9.84-7,14.33-10.93a43.17,43.17,0,0,0,6.11-6.36,16.5,16.5,0,0,0,3.44-7.69,7.5,7.5,0,0,0-.54-3.92,4.58,4.58,0,0,0-2.65-2.5,3.9,3.9,0,0,0-3.48.58,7.33,7.33,0,0,0-2.4,3.14,40.68,40.68,0,0,0-1.89,8.58c-.43,3-.79,5.95-1.13,8.94-1.32,12-2.3,24-3.54,36-.65,6-1.34,12-2.23,18-.45,3-1,6-1.61,8.92a29.24,29.24,0,0,1-1.25,4.36,5.76,5.76,0,0,1-3.33,2.93,5.66,5.66,0,0,0,3.18-3,29.39,29.39,0,0,0,1.09-4.37c.57-2.95,1-5.93,1.36-8.92.73-6,1.26-12,1.75-18,1-12,1.84-24,3-36.07.29-3,.6-6,1-9,.2-1.5.44-3,.72-4.51a22,22,0,0,1,1.25-4.54,9.12,9.12,0,0,1,3-3.95,5.78,5.78,0,0,1,5.12-.84,6.49,6.49,0,0,1,3.8,3.49,9.27,9.27,0,0,1,.72,4.93,18.14,18.14,0,0,1-3.77,8.66A45,45,0,0,1,94,88.21c-4.6,4-9.65,7.41-14.37,11.07S70.44,107,67.94,112.21a21.15,21.15,0,0,0-2.12,8.31,18.82,18.82,0,0,0,1.64,8.36,19.3,19.3,0,0,0,5.15,6.83,21.06,21.06,0,0,0,7.56,4.09,21.88,21.88,0,0,0,8.58.8,14.87,14.87,0,0,0,7.8-3.23c4.46-3.63,6.66-9.76,6.51-15.5a12.13,12.13,0,0,0-3.47-7.68,14.27,14.27,0,0,0-7.58-4A10.63,10.63,0,0,0,79.11,119a8.07,8.07,0,0,0,.27,4.33A7.34,7.34,0,0,0,82,126.78a8.63,8.63,0,0,0,4.11,1.62A4.87,4.87,0,0,0,90.29,127.21Z" style="fill:#ebebeb"></path><path d="M81.12,155.37a5,5,0,1,1-1.76-6.91A5,5,0,0,1,81.12,155.37Z" style="fill:#ebebeb"></path><rect x="406.62" width="1" height="106.23" style="fill:#c7c7c7"></rect><polygon points="369.89 142.12 372.88 148.71 441.37 148.71 444.35 142.12 415.2 121.94 399.04 121.94 369.89 142.12" style="fill:#ebebeb"></polygon><polygon points="397.02 102.5 399.04 121.94 415.2 121.94 417.22 102.5 397.02 102.5" style="fill:#dbdbdb"></polygon><polygon points="369.89 142.13 372.88 148.71 441.37 148.71 444.36 142.13 369.89 142.13" style="fill:#dbdbdb"></polygon><rect x="342.66" width="1" height="63.74" style="fill:#c7c7c7"></rect><polygon points="305.92 99.63 308.92 106.22 377.4 106.22 380.39 99.63 351.23 79.45 335.08 79.45 305.92 99.63" style="fill:#ebebeb"></polygon><polygon points="333.06 60.01 335.08 79.45 351.23 79.45 353.25 60.01 333.06 60.01" style="fill:#dbdbdb"></polygon><polygon points="305.92 99.64 308.92 106.22 377.41 106.22 380.39 99.64 305.92 99.64" style="fill:#dbdbdb"></polygon><path d="M87.59,315.93l-13.12.28-6.66.11c-2.23.05-4.47,0-6.7.05h-.44v-.45l-.06-11.19v-.5h.5l13.24.06c4.42,0,8.83.12,13.24.17h.28v.27c0,1.9-.09,3.79-.13,5.65Zm0,0-.14-5.65c0-1.87-.11-3.71-.13-5.54l.27.27c-4.41.05-8.82.16-13.24.17l-13.24.06.5-.5,0,11.19-.45-.45c2.18,0,4.36,0,6.55.06l6.58.11Z" style="fill:#ebebeb"></path><path d="M72.82,330l-13.12.28-6.66.11c-2.23.05-4.47,0-6.7.05H45.9V330l-.06-11.19v-.5h.5l13.24.06c4.41,0,8.83.11,13.24.17h.28v.27c0,1.9-.08,3.79-.13,5.65Zm0,0-.14-5.65c-.05-1.87-.11-3.71-.13-5.54l.27.27c-4.41.05-8.83.16-13.24.17l-13.24.06.5-.5L46.79,330l-.45-.45c2.18,0,4.36,0,6.55.06l6.58.11Z" style="fill:#ebebeb"></path><path d="M298.4,112.91l-13.13.28-6.66.11c-2.22,0-4.46,0-6.69.06h-.45v-.45l-.05-11.19v-.5h.51l13.24.07c4.41,0,8.82.11,13.24.16h.27v.27c0,1.9-.09,3.79-.13,5.66Zm0,0-.14-5.65c-.05-1.87-.12-3.71-.14-5.54l.28.27c-4.42.06-8.83.16-13.24.17l-13.24.06.5-.5-.06,11.19-.44-.44c2.18,0,4.35,0,6.54,0l6.58.11Z" style="fill:#ebebeb"></path><path d="M283.63,127l-13.13.28-6.66.11c-2.23,0-4.46,0-6.69.06h-.45V127l-.05-11.19v-.5h.51l13.24.06c4.41,0,8.82.12,13.24.17h.27v.27c0,1.9-.09,3.79-.13,5.66Zm0,0-.15-5.65c0-1.87-.11-3.71-.13-5.54l.28.27c-4.42.06-8.83.16-13.24.17l-13.24.06.49-.5L257.59,127l-.44-.44c2.18,0,4.35,0,6.54,0l6.58.11Z" style="fill:#ebebeb"></path><path d="M313.39,127l-13.12.28-6.66.11c-2.23,0-4.46,0-6.7.06h-.44V127l-.06-11.19v-.5h.5l13.24.06c4.42,0,8.83.12,13.24.17h.28v.27c0,1.9-.09,3.79-.13,5.66Zm0,0-.14-5.65c0-1.87-.11-3.71-.13-5.54l.27.27c-4.41.06-8.82.16-13.24.17l-13.24.06.5-.5L287.36,127l-.45-.44c2.19,0,4.36,0,6.55,0l6.58.11Z" style="fill:#ebebeb"></path><path d="M453.66,330l-13.13.28-6.66.11c-2.22.05-4.46,0-6.69.05h-.45V330l-.05-11.19v-.5h.5l13.24.06c4.41,0,8.83.11,13.24.17h.27v.27c0,1.9-.08,3.79-.13,5.65Zm0,0-.14-5.65c0-1.87-.12-3.71-.13-5.54l.27.27c-4.41.05-8.83.16-13.24.17l-13.24.06.5-.5L427.62,330l-.44-.45c2.18,0,4.36,0,6.54.06l6.58.11Z" style="fill:#ebebeb"></path><path d="M438.89,54.2l-13.13.28-6.66.11c-2.22,0-4.46,0-6.69.06H412V54.2l0-11.19v-.5h.51l13.24.06c4.41,0,8.82.12,13.24.17h.27V43c0,1.9-.09,3.79-.13,5.65Zm0,0-.14-5.65c-.05-1.87-.12-3.71-.14-5.54l.28.27c-4.42,0-8.83.16-13.24.17l-13.24.06.5-.5-.06,11.19-.44-.45c2.18,0,4.35,0,6.54.06l6.58.11Z" style="fill:#ebebeb"></path><path d="M453.66,68.31l-13.13.28-6.66.11c-2.22,0-4.46,0-6.69.06h-.45v-.45l-.05-11.19v-.5h.5l13.24.06c4.41,0,8.83.12,13.24.17h.27v.27c0,1.9-.08,3.79-.13,5.65Zm0,0-.14-5.65c0-1.87-.12-3.71-.13-5.54l.27.27c-4.41,0-8.83.16-13.24.17l-13.24.06.5-.5-.06,11.19-.44-.45c2.18,0,4.36,0,6.54.06l6.58.11Z" style="fill:#ebebeb"></path><path d="M87.59,54.2l-13.12.28-6.66.11c-2.23,0-4.47,0-6.7.06h-.44V54.2L60.61,43v-.5h.5l13.24.06c4.42,0,8.83.12,13.24.17h.28V43c0,1.9-.09,3.79-.13,5.65Zm0,0-.14-5.65c0-1.87-.11-3.71-.13-5.54l.27.27c-4.41,0-8.82.16-13.24.17l-13.24.06.5-.5,0,11.19-.45-.45c2.18,0,4.36,0,6.55.06l6.58.11Z" style="fill:#ebebeb"></path><polygon points="259.96 356.2 446.65 356.2 450.54 279.6 256.07 279.6 259.96 356.2" style="fill:#ebebeb"></polygon><path d="M437.81,314.67H359.75l-1.46-26.6h81.22Zm-77.17-.95h76.28L438.51,289H359.28Z" style="fill:#dbdbdb"></path><path d="M436.37,345.26H362.81l-1.2-24h76.26Zm-72.66-.94h71.77l1.38-22.12H362.61Z" style="fill:#dbdbdb"></path><path d="M406.29,304.25H393.18l-.83-6.41h14.77ZM394,303.31h11.46l.58-4.53H393.42Z" style="fill:#dbdbdb"></path><path d="M406.29,336.46H393.18l-.83-6.41h14.77ZM394,335.52h11.46l.58-4.53H393.42Z" style="fill:#dbdbdb"></path><path d="M346,314.67H267.94l-1.46-26.6H347.7Zm-77.17-.95h76.28L346.7,289H267.47Z" style="fill:#dbdbdb"></path><path d="M344.55,345.26H271l-1.2-24h76.26Zm-72.65-.94h71.77l1.38-22.12H270.79Z" style="fill:#dbdbdb"></path><path d="M314.48,304.25H301.37l-.83-6.41h14.77Zm-12.28-.94h11.46l.58-4.53H301.61Z" style="fill:#dbdbdb"></path><path d="M314.48,336.46H301.37l-.83-6.41h14.77Zm-12.28-.94h11.46l.58-4.53H301.61Z" style="fill:#dbdbdb"></path><polygon points="276.7 356.2 275.53 364.55 273.17 381.32 268.56 381.32 268.56 356.2 276.7 356.2" style="fill:#ebebeb"></polygon><polygon points="276.7 356.2 275.53 364.55 268.56 364.55 268.56 356.2 276.7 356.2" style="fill:#dbdbdb"></polygon><polygon points="429.91 356.2 431.08 364.55 433.44 381.32 438.05 381.32 438.05 356.2 429.91 356.2" style="fill:#ebebeb"></polygon><polygon points="429.91 356.2 431.08 364.55 438.05 364.55 438.05 356.2 429.91 356.2" style="fill:#dbdbdb"></polygon></g><g id="freepik--Floor--inject-11"><polygon points="44.38 381.32 95.79 381.07 147.19 380.99 250 380.82 352.81 380.99 404.21 381.07 455.62 381.32 404.21 381.56 352.81 381.65 250 381.82 147.19 381.65 95.79 381.56 44.38 381.32" style="fill:#263238"></polygon></g><g id="freepik--Shadow--inject-11"><ellipse cx="250" cy="440.65" rx="179.78" ry="25.31" style="fill:#ebebeb"></ellipse></g><g id="freepik--Plant--inject-11"><path d="M402.31,295.85a68.27,68.27,0,0,1,2.21,12.49c-.11.21-.09,1,0,.77,0,.68,1.07.56,1.07-.12,0-.44,0-.88,0-1.31,2.44-3,6-4.94,8.84-7.58a16.5,16.5,0,0,0,4.85-7.71c2.37-8.18.15-16.85,3-25,2.47-7,6.88-13.15,10.62-19.53,3.94-6.74,6.85-13.83,7.15-21.73.23-6.05-.49-14.1-5.1-18.64-4.88-4.8-10.93-1.2-14.68,3.09-10.83,12.44-15.85,28.16-17.88,44.23-1.12,8.9-2.28,17.85-2,26.83A72.42,72.42,0,0,0,402.31,295.85Z" style="fill:#E12424"></path><path d="M404.47,311.6a153.64,153.64,0,0,1,.3-25.2s0,0,0-.09c-.14-6.81-.68-13.6-.41-20.42a120.72,120.72,0,0,1,3-21.9c0-.09.15-.07.13,0a142.67,142.67,0,0,0-2.37,21.42q-.21,5.77.09,11.54c.07,1.26.18,2.52.27,3.78h0a134.6,134.6,0,0,1,20.27-53.64c.14-.22.53,0,.39.24a140.11,140.11,0,0,0-16.5,39.77c5.22-9.66,13.09-17.6,18.93-26.88,0,0,.12,0,.09.06-5.25,10.33-13.92,18.48-19.44,28.65-1,4.15-1.75,8.34-2.33,12.55a141.48,141.48,0,0,0-1.26,17.44c3.18-5.94,6.47-11.62,9.07-17.89.07-.17.31-.06.25.11-2.21,6.52-5.18,13.54-9.33,19.1,0,4.13.1,8.26.34,12.38.65,11,2.53,21.86,3.4,32.83a.26.26,0,0,1-.51.05A252.56,252.56,0,0,1,404.47,311.6Z" style="fill:#263238"></path><path d="M416.16,226.74c0-.08.15,0,.12.06-2,5.56-3.15,11.19-4.6,16.89a.21.21,0,0,1-.41-.07C411.86,237.84,413.92,232.07,416.16,226.74Z" style="fill:#263238"></path><path d="M365.12,250a83.94,83.94,0,0,0,4.62,9.49c3.62,6.58,7.4,12.6,8.08,20.25.31,3.42.41,6.85,1.45,10.14a30.53,30.53,0,0,0,4.05,7.94c3.92,5.72,8.82,10.64,12.46,16.57a69.86,69.86,0,0,1,8.28,20c.09.39.69.28.6-.1a.24.24,0,0,1,0-.09.29.29,0,0,0,0-.08c.57-16.41-.74-32.95-5.74-48.66a167.46,167.46,0,0,0-8-20.25c-2.68-5.7-6-11.18-10.73-15.44-3.05-2.75-9.67-8-14-5.2C364.14,245.9,364.3,248,365.12,250Z" style="fill:#E12424"></path><path d="M381.61,287.24A134.78,134.78,0,0,0,391.15,301c1.59,2.07,3.2,4.13,4.78,6.2.75,1,1.59,2,2.28,3q-.65-2.6-1.3-5.18c-2.11-8.29-4.15-16.66-7.3-24.63A164.64,164.64,0,0,0,378.21,258c-.11-.19.2-.33.31-.15,3.47,5.71,7,11.4,9.9,17.41a92.4,92.4,0,0,1,4.21,10.33,159.26,159.26,0,0,0-5.6-22.07c0-.06.07-.11.1-.05a75.82,75.82,0,0,1,5.81,23s0,0,0,0c.71,2.13,1.36,4.28,2,6.45,2.59,9.18,4.86,18.46,7,27.76a99.73,99.73,0,0,0-1.58-18.24c0-.14.18-.17.21,0a57.75,57.75,0,0,1,1.59,19.24q1.19,5.31,2.32,10.63c1.61,7.56,3.6,15.26,4.54,22.94a.15.15,0,0,1-.3.05c-1.13-4.14-1.81-8.43-2.73-12.62s-1.87-8.41-2.85-12.6q-2.15-9.15-4.44-18.27c-1-2.23-3-4.21-4.45-6.08-1.62-2.06-3.24-4.11-4.81-6.2a91.82,91.82,0,0,1-7.89-12.21A.08.08,0,1,1,381.61,287.24Z" style="fill:#263238"></path><path d="M380.91,280.22a85.2,85.2,0,0,1,9.33,14.83c0,.06-.07.13-.11.07-3.14-4.92-6.23-9.88-9.36-14.81C380.71,280.23,380.85,280.14,380.91,280.22Z" style="fill:#263238"></path><path d="M450.76,265.6c-2.12,3.66-4.55,8.06-3.64,12.45.58,2.79,2.62,5.05,3,7.89.82,6.26-5.43,10.41-9.95,13.37-11.26,7.39-26.72,14-28.76,29.08-.08.53-1,.4-.94-.12a.3.3,0,0,1,0-.1s-.05-.05-.05-.09a57.76,57.76,0,0,1,.21-23.06c1.68-7.78,5.08-14.77,9.08-21.61,6.78-11.57,14-23.41,24.22-32.28,2.84-2.45,8.65-6.86,10.91-1.32C457,255.19,453.37,261.13,450.76,265.6Z" style="fill:#E12424"></path><path d="M440.45,290.12c-7.47,8.09-19.35,12.62-25.78,21.68a90.64,90.64,0,0,1,19.82-37.21.29.29,0,0,0-.42-.41,73.52,73.52,0,0,0-16.19,23.44,105.13,105.13,0,0,1,7-17.83.2.2,0,0,0-.34-.19,68,68,0,0,0-7.51,20c-8.47,20.51-9.26,44.57-7.48,66.19a.25.25,0,0,0,.49,0c-.49-17-.22-34.37,3.87-51,.08-.35.18-.69.27-1,7-9.75,18.82-14.27,26.42-23.53C440.65,290.16,440.53,290,440.45,290.12Z" style="fill:#263238"></path><path d="M442.18,283.18c-3.92,3.59-7.78,7.27-11.71,10.87,0,0,0,.11.06.07a57.16,57.16,0,0,0,11.89-10.71A.17.17,0,0,0,442.18,283.18Z" style="fill:#263238"></path><path d="M442.8,267.59a122.82,122.82,0,0,1-11.73,16.14c-.06.06,0,.16.1.1A56.89,56.89,0,0,0,443,267.71.12.12,0,1,0,442.8,267.59Z" style="fill:#263238"></path><polygon points="425.15 381.08 390.8 381.08 395.43 334.86 419.86 334.86 425.15 381.08" style="fill:#455a64"></polygon><polygon points="420.72 342.38 394.67 342.38 395.42 334.86 419.86 334.86 420.72 342.38" style="fill:#263238"></polygon><rect x="391.87" y="329.74" width="32.2" height="7.38" style="fill:#455a64"></rect></g><g id="freepik--musical-notes--inject-11"><path d="M237.58,115.46a4.74,4.74,0,1,1-3.78-5.55A4.75,4.75,0,0,1,237.58,115.46Z" style="fill:#455a64"></path><rect x="236.22" y="91.43" width="3.62" height="23.85" transform="translate(23.5 -42.65) rotate(10.77)" style="fill:#455a64"></rect><path d="M254,111.55a4.74,4.74,0,1,1-3.77-5.55A4.74,4.74,0,0,1,254,111.55Z" style="fill:#455a64"></path><rect x="252.6" y="87.52" width="3.62" height="23.85" transform="translate(23.05 -45.77) rotate(10.77)" style="fill:#455a64"></rect><polygon points="258.41 88.11 237.89 94.43 238.48 91.3 259.01 84.98 258.41 88.11" style="fill:#455a64"></polygon><polygon points="257.29 94.02 236.76 100.33 237.36 97.2 257.88 90.88 257.29 94.02" style="fill:#455a64"></polygon><path d="M239.1,195.53a2.64,2.64,0,1,1-2.1-3.09A2.65,2.65,0,0,1,239.1,195.53Z" style="fill:#455a64"></path><rect x="238.35" y="182.15" width="2.02" height="13.28" transform="translate(39.47 -41.38) rotate(10.76)" style="fill:#455a64"></rect><path d="M248.22,193.35a2.64,2.64,0,1,1-2.11-3.09A2.65,2.65,0,0,1,248.22,193.35Z" style="fill:#455a64"></path><rect x="247.46" y="179.97" width="2.02" height="13.28" transform="translate(39.24 -43.13) rotate(10.77)" style="fill:#455a64"></rect><polygon points="250.7 180.31 239.27 183.82 239.6 182.08 251.03 178.56 250.7 180.31" style="fill:#455a64"></polygon><path d="M221.91,163a4.74,4.74,0,1,1-3.78-5.55A4.75,4.75,0,0,1,221.91,163Z" style="fill:#455a64"></path><rect x="220.55" y="138.98" width="3.62" height="23.85" transform="translate(32.11 -38.89) rotate(10.77)" style="fill:#455a64"></rect><rect x="235.37" y="135.4" width="3.62" height="6.89" transform="translate(30.12 -41.87) rotate(10.77)" style="fill:#455a64"></rect><polygon points="239.44 136.69 222.22 141.98 222.81 138.85 240.03 133.56 239.44 136.69" style="fill:#455a64"></polygon><polygon points="238.32 142.6 221.09 147.89 221.69 144.75 238.91 139.47 238.32 142.6" style="fill:#455a64"></polygon></g><g id="freepik--Character--inject-11"><polygon points="204.39 292.26 207.42 310.44 227.97 421.37 231.28 421.37 216.34 310.44 214.13 292.26 204.39 292.26" style="fill:#c7c7c7"></polygon><polygon points="214.13 292.26 204.39 292.26 207.42 310.44 216.34 310.44 214.13 292.26" style="fill:#a6a6a6"></polygon><polygon points="139.88 421.37 143.2 421.37 163.74 310.44 166.77 292.26 157.03 292.26 154.82 310.44 139.88 421.37" style="fill:#c7c7c7"></polygon><polygon points="157.03 292.26 154.82 310.44 163.74 310.44 166.77 292.26 157.03 292.26" style="fill:#a6a6a6"></polygon><polygon points="78.27 421.37 81.58 421.37 102.12 310.44 105.16 292.26 95.42 292.26 93.21 310.44 78.27 421.37" style="fill:#c7c7c7"></polygon><polygon points="93.21 310.44 102.12 310.44 105.16 292.26 95.42 292.26 93.21 310.44" style="fill:#a6a6a6"></polygon><polygon points="83.52 300.8 234.04 300.8 234.04 284.94 177.7 284.94 158.76 174.76 89.26 174.76 83.52 300.8" style="fill:#c7c7c7"></polygon><polygon points="83.52 300.8 91.73 300.8 97.08 174.76 89.26 174.76 83.52 300.8" style="fill:#a6a6a6"></polygon><path d="M364.33,430.19c-2.7.95-82.27-.16-85.25-2-.36-.2-.89-15.42-.89-15.42,0-1.49-1.61-10.88-1.61-10.88-7.12-17.1-24.07-47.26-24.07-47.26L306.83,356l22.3,48.51s10.83,4.32,20.27,8.64l0,0c5.82,2.64,10.88,5.06,12.05,6C364.51,421.5,367,429.26,364.33,430.19Z" style="fill:#eb9481"></path><path d="M365.21,431c-2.81.91-83.36-.13-86.38-2.1-1.16-.73-2.25-26.76-2.25-26.91l52.56.1,0,.87S359.5,417,362.58,419.56,368,430.12,365.21,431Z" style="fill:#455a64"></path><path d="M364.34,427.9c-13.46-.5-67.78-1.27-81.12-.75-.11,0-.11.08,0,.09,13.32.79,67.65,1.12,81.12.88C364.62,428.12,364.63,427.91,364.34,427.9Z" style="fill:#263238"></path><path d="M334.87,402.32c-5.28-1.06-11.77-.33-15.87,3.39-.16.14.05.37.22.32a74,74,0,0,1,15.62-3A.34.34,0,0,0,334.87,402.32Z" style="fill:#263238"></path><path d="M338.67,404.67c-5.29-1.06-11.78-.33-15.87,3.39-.16.15,0,.37.22.32a74.56,74.56,0,0,1,15.62-3A.34.34,0,0,0,338.67,404.67Z" style="fill:#263238"></path><path d="M342.46,407c-5.29-1-11.77-.32-15.87,3.4-.16.14.05.37.22.31a74.68,74.68,0,0,1,15.62-3A.34.34,0,0,0,342.46,407Z" style="fill:#263238"></path><path d="M341.91,390.85c-2-2.89-5.94-1.65-8.17.18a28.25,28.25,0,0,0-8.32,12,.14.14,0,0,0,.12.19.66.66,0,0,0,.83.67c4.39-1.56,9.28-2.69,13.07-5.55C341.65,396.69,343.84,393.59,341.91,390.85Zm-9.36,9.34c-2.15.82-4.32,1.53-6.43,2.43,1.63-2.34,3.15-4.74,5-6.92a28.77,28.77,0,0,1,2.85-3c1.59-1.42,7.87-4.39,6.86,1.41C340.29,397.32,335.1,399.21,332.55,400.19Z" style="fill:#263238"></path><path d="M312,401.5c4.34,1.92,9.36,1.89,14,2.4.48.05.72-.45.64-.85a.14.14,0,0,0,.08-.21,28.31,28.31,0,0,0-10.86-9.8c-2.6-1.26-6.67-1.57-8,1.71C306.59,397.86,309.44,400.38,312,401.5Zm-2.35-3.81c-2.31-5.41,4.48-4,6.36-3a32.6,32.6,0,0,1,3.46,2.26c2.31,1.69,4.34,3.68,6.47,5.58-2.27-.39-4.54-.58-6.82-.89C316.39,401.32,310.91,400.67,309.63,397.69Z" style="fill:#263238"></path><path d="M330.42,402.3l-61.82.52s-40.25-96.24-44.19-101.47c-2-2.62-93.06-16.1-109-29.6C94.74,254.23,110,221.58,110,221.58l58.43-.23s-2.61,12.55-.43,14.31c1.44,1.18,85.8,20.88,100.6,39.28C289.84,301.35,330.42,402.3,330.42,402.3Z" style="fill:#263238"></path><path d="M257.65,456.31c-2.71.91-80.28-.18-83.23-2.07-3.23-3.08,7-69.76,7-69.76l49.9-.42-8.45,46.05s10.77,4.49,20.15,8.95l0,0c5.78,2.73,10.81,5.22,12,6.14C258,447.62,260.36,455.42,257.65,456.31Z" style="fill:#eb9481"></path><path d="M259.48,456.81c-2.8.91-82.66-.13-85.67-2.1-1.16-.73,1.29-26.76,1.28-26.91l48.33.1,0,.87s30.4,14.07,33.48,16.59S262.29,455.92,259.48,456.81Z" style="fill:#455a64"></path><path d="M258.62,453.7c-13.46-.5-67.78-1.27-81.13-.75-.1,0-.11.08,0,.09,13.33.79,67.66,1.12,81.13.88C258.9,453.92,258.9,453.71,258.62,453.7Z" style="fill:#263238"></path><path d="M229.15,428.12c-5.29-1.06-11.77-.33-15.87,3.39-.16.14.05.37.22.32a74,74,0,0,1,15.62-3A.34.34,0,0,0,229.15,428.12Z" style="fill:#263238"></path><path d="M232.94,430.47c-5.28-1.06-11.77-.33-15.87,3.39-.16.15.05.37.22.32a74.68,74.68,0,0,1,15.62-3A.34.34,0,0,0,232.94,430.47Z" style="fill:#263238"></path><path d="M236.74,432.82c-5.29-1.05-11.78-.32-15.87,3.4-.16.14,0,.37.22.31a74.56,74.56,0,0,1,15.62-3A.34.34,0,0,0,236.74,432.82Z" style="fill:#263238"></path><path d="M236.19,416.65c-2.05-2.89-5.94-1.65-8.18.18a28.23,28.23,0,0,0-8.31,12c0,.1,0,.17.12.19,0,.4.37.83.82.67,4.4-1.56,9.29-2.69,13.08-5.55C235.93,422.49,238.12,419.39,236.19,416.65ZM226.82,426c-2.14.82-4.31,1.53-6.42,2.43a84.46,84.46,0,0,1,5-6.92,29.76,29.76,0,0,1,2.84-3c1.6-1.42,7.88-4.39,6.87,1.41C234.56,423.12,229.38,425,226.82,426Z" style="fill:#263238"></path><path d="M206.25,427.3c4.35,1.92,9.37,1.89,14,2.4a.67.67,0,0,0,.65-.85.14.14,0,0,0,.07-.21,28.17,28.17,0,0,0-10.86-9.8c-2.59-1.26-6.67-1.57-8,1.71C200.87,423.66,203.72,426.18,206.25,427.3Zm-2.34-3.81c-2.32-5.41,4.48-4,6.36-3a32.6,32.6,0,0,1,3.46,2.26c2.31,1.69,4.34,3.68,6.46,5.58-2.26-.39-4.53-.58-6.81-.88C210.67,427.12,205.19,426.47,203.91,423.49Z" style="fill:#263238"></path><path d="M231.22,428.22l-59.08.3S183.32,314,178.91,308.38c-5.88-7.51-57.49-7.34-75.14-31.83-15.85-22,0-55.2,0-55.2h59.89a131.85,131.85,0,0,1-5.84,19.83S207.34,255,228.37,278C242.56,293.52,231.22,428.22,231.22,428.22Z" style="fill:#263238"></path><path d="M168.79,236.91a29.78,29.78,0,0,0-5.28,1.69c-1.79.68-3.55,1.46-5.27,2.3a102.57,102.57,0,0,0-9.86,5.56c-.1.07,0,.2.1.15,3.37-1.75,6.85-3.32,10.34-4.82l5-2.17a51.32,51.32,0,0,0,5.09-2.24C169.15,237.26,169,236.87,168.79,236.91Z" style="fill:#37474f"></path><path d="M165.06,221.55c-.72,2.84-1.34,5.71-2.16,8.52-.37,1.29-.74,2.61-1.23,3.86-.41,1.06-1,2.26-2.26,2.5-1.41.27-1.82-.94-1.7-2.1s.46-2.6.72-3.88c.29-1.48,1.92-8.64,1.68-8.9a.12.12,0,0,0-.13,0,13,13,0,0,0-1,3c-.4,1.35-.78,2.71-1.13,4.08s-.68,2.74-1,4.11a6.27,6.27,0,0,0-.28,3.15,2.41,2.41,0,0,0,2.23,1.82c0,.09-.1.18-.15.28-.12.28-.21.57-.32.86s-.2.59-.29.89a3.11,3.11,0,0,0-.08.44c0,.16,0,.32,0,.49a.24.24,0,0,0,.44.16c.07-.15.18-.26.26-.4a2.91,2.91,0,0,0,.21-.48c.09-.28.17-.56.25-.86s.16-.57.21-.86a4.53,4.53,0,0,0,0-.53A3.12,3.12,0,0,0,161,237a5.45,5.45,0,0,0,1.7-2.59c.43-1.19.76-2.41,1.1-3.62a53.79,53.79,0,0,0,1.81-9.16A.26.26,0,0,0,165.06,221.55Z" style="fill:#37474f"></path><path d="M128,228.5c-.26,1.41-.42,2.84-.75,4.24s-.69,2.73-1.14,4.06a14.45,14.45,0,0,1-1.73,3.66,13.87,13.87,0,0,1-2.76,2.81,23.54,23.54,0,0,1-6.68,3.71,30.8,30.8,0,0,1-3.71,1.09c-.66.15-1.32.26-2,.35a4.2,4.2,0,0,0-1.6.37.32.32,0,0,0,0,.55,5.7,5.7,0,0,0,3,.09,21.44,21.44,0,0,0,9.12-3.06,18.73,18.73,0,0,0,5-4.08,14,14,0,0,0,2.66-5.83,28.72,28.72,0,0,0,.87-7.93A.14.14,0,0,0,128,228.5Z" style="fill:#37474f"></path><path d="M234.35,200c-2.83-4.63-21.89-19.26-27.78-24.07s-44-20.8-52.59-23.2c-14-3.92-13.78,3.16-6.92,8.8s34.51,27.69,38,30.74,17.49,19.25,20.46,24.16C208.09,220.57,237.63,205.31,234.35,200Z" style="fill:#eb9481"></path><path d="M232.88,196.63l-30.13,20.3S187.06,194.59,185,193.05s-28.58-21.6-39.09-30.73-4.12-13.87,10.22-9.41,43.87,18.21,48.31,20.5S232.88,196.63,232.88,196.63Z" style="fill:#ebebeb"></path><path d="M200.2,209c3.8-3,20.28-13.23,24.49-15.45.12-.07.21.14.11.21-3.92,2.92-20.23,13.39-24.5,15.45C200.18,209.26,200.1,209.07,200.2,209Z" style="fill:#263238"></path><path d="M146,162.31c9.22,8,30.78,24.43,37.31,29.38l-35.19-40.43C139.86,150.7,137.71,155.17,146,162.31Z" style="fill:#dbdbdb"></path><path d="M170.06,232.13l-10.2,4-3.74-7.7-3.47,7.7s-54.42.36-54.65,0c-1-1.32,10.5-59.59,39.56-83.72,5.12-4.25,15.59-2.49,19.38,2C165.43,164.52,170.52,231.79,170.06,232.13Z" style="fill:#ebebeb"></path><path d="M155.25,199.27q-.09-6.81-.14-13.64c0-2.23-.05-4.47-.09-6.71s0-4.77,0-7.16c0-.08.07-.09.08,0,.16,2.38.35,4.75.46,7.15q.15,3.34.29,6.71.27,6.93.39,13.85c.14,9.13.13,18.25-.31,27.3,0,.18-.2.14-.21,0C155.42,217.58,155.35,208.42,155.25,199.27Z" style="fill:#263238"></path><path d="M151.35,220.55a1.34,1.34,0,1,0,1.31-1.36A1.33,1.33,0,0,0,151.35,220.55Z" style="fill:#263238"></path><path d="M151.35,208.9a1.33,1.33,0,0,0,1.37,1.3,1.33,1.33,0,0,0-.06-2.66A1.34,1.34,0,0,0,151.35,208.9Z" style="fill:#263238"></path><path d="M151.35,197.26a1.34,1.34,0,1,0,1.31-1.37A1.34,1.34,0,0,0,151.35,197.26Z" style="fill:#263238"></path><path d="M151.35,185.61a1.34,1.34,0,1,0,1.31-1.37A1.35,1.35,0,0,0,151.35,185.61Z" style="fill:#263238"></path><path d="M139.3,161.92c-2.63,7-26.31,63.91-30.56,64.34-12.52,1.27-24.17,3.2-22.74-6.77,2.24-15.64,26.49-46.37,43.13-60.47C139.09,150.58,141.89,155,139.3,161.92Z" style="fill:#eb9481"></path><path d="M138.91,164.66c-4.17,10.27-25.36,60.22-28.45,61.85s-22.56,4.42-25.3-3.17c-3.08-8.54,22.41-47.17,42-64.4C138.91,148.67,143.72,152.84,138.91,164.66Z" style="fill:#ebebeb"></path><path d="M124.14,196.75c2.88-6.58,5.85-13.11,8.85-19.63,1.72-3.75,3.43-7.5,5.29-11.18a.1.1,0,0,1,.18.07c-1.28,3.35-2.65,6.66-4.05,10q1.4-2.19,2.87-4.32c0-.06.12,0,.09.07-1.27,2.08-2.55,4.16-3.82,6.25-1.13,2.64-2.28,5.27-3.41,7.9q-4.26,9.9-8.81,19.65c-1.74,3.74-3.54,7.45-5.29,11.18-.06.13-.26.05-.2-.08C118.61,210,121.27,203.33,124.14,196.75Z" style="fill:#263238"></path><path d="M153.53,164.4c-4.3.5-10.75-6.73-13-12.24-.15-.38,3-14.41,3.32-17.25.06-.59,17.35,6.42,17.35,6.42a45.74,45.74,0,0,0-3,10.72C158.18,152.46,157.69,163.91,153.53,164.4Z" style="fill:#eb9481"></path><path d="M161.23,141.32v0c0,.08-.18.42-.39,1-.35.93-.91,2.44-1.41,4.18a31.66,31.66,0,0,0-1.19,5.57,2.72,2.72,0,0,0,0,.39v.06c0,.24,0,.55-.07.92a12.08,12.08,0,0,1-1.75-.1c-9.7-1.36-11.58-13.67-12-18.36l.31.09c.46.13,1.06.33,1.79.58.18.07.36.14.56.2,1.16.42,2.53.94,4,1.48.47.18.94.35,1.42.55l3,1.17c.41.18.82.34,1.2.48l1.23.49.57.22a1.83,1.83,0,0,0,.26.11l1.44.58.68.27.29.13h.06Z" style="fill:#263238"></path><path d="M145,113.48c-3.08,5.91-3.15,24.61.56,29.47,5.37,7.06,15.85,9.59,22.28,2.75,6.22-6.62,5.87-31,1.58-35.59C163,103.35,149.5,104.76,145,113.48Z" style="fill:#eb9481"></path><path d="M144.16,129.81c4.81-.63,4.63-9.48,4.63-9.48s8.08-2.41,8.49-8.78c0,0,8.48,4,14.36,1s3.69-9.83,2.82-11.23-3.94,1.8-3.94,1.8-.89-3.89-2-4.16-1.94,2.27-1.94,2.27-8.29-1.65-15.47-.53-9.82,8.85-9.82,8.85-3.74,1.31-4.65,4.16S141.1,130.22,144.16,129.81Z" style="fill:#263238"></path><path d="M146.85,120.64c6.5,0,10.19-4.75,10.34-11a.06.06,0,0,1,.12,0c.54,5.73-4,12.76-10.49,11.29C146.67,120.89,146.68,120.64,146.85,120.64Z" style="fill:#263238"></path><path d="M141.45,109.39c.07,0,.13.08.06.12-1.68,1.06-3.65,1.94-4.7,3.73-1.27,2.16-.61,4.7.24,6.87,1.32,3.35,3.69,7.63,7,9.27.2.09,0,.37-.15.29-4-1.72-6.9-7.28-7.94-11.3C134.84,113.88,137.35,110.91,141.45,109.39Z" style="fill:#263238"></path><path d="M164.51,112.44a9.48,9.48,0,0,0,9.72-1.4c3.06-2.78,1.85-6.56,0-9.6-.1-.15.11-.35.24-.21,2.35,2.58,3.07,6.87.63,9.67s-7.46,3.43-10.8,2C164,112.74,164.23,112.32,164.51,112.44Z" style="fill:#263238"></path><path d="M146.24,129s-3.13-6.55-6-5.53-1.23,10,1.71,11.73a3.23,3.23,0,0,0,4.55-1Z" style="fill:#eb9481"></path><path d="M140.74,126c-.05,0-.07,0,0,.08,2,1.25,2.87,3.47,3.33,5.71a1.78,1.78,0,0,0-2.55-.91c-.06,0,0,.13,0,.13a2,2,0,0,1,2,1,9.22,9.22,0,0,1,.74,1.91c.08.21.45.16.41-.07v-.06C145.23,131.06,143.7,126.78,140.74,126Z" style="fill:#263238"></path><path d="M158.43,122.93c.56-.13,1.06-.34,1.6-.52a2.74,2.74,0,0,0,1.52-.84.86.86,0,0,0-.11-1,2.14,2.14,0,0,0-2.16-.27,3.11,3.11,0,0,0-1.84,1.31A.92.92,0,0,0,158.43,122.93Z" style="fill:#263238"></path><path d="M170.87,122.89a15,15,0,0,1-1.54-.68,2.67,2.67,0,0,1-1.43-1,.88.88,0,0,1,.22-1,2.16,2.16,0,0,1,2.17,0,3.11,3.11,0,0,1,1.7,1.49A.92.92,0,0,1,170.87,122.89Z" style="fill:#263238"></path><path d="M159.07,137.93c.3.3.59.71,1.05.76a3.43,3.43,0,0,0,1.37-.28s.08,0,0,.06a1.69,1.69,0,0,1-1.62.65,1.34,1.34,0,0,1-1-1.14C158.93,137.91,159,137.88,159.07,137.93Z" style="fill:#263238"></path><path d="M160.49,134.17a4.3,4.3,0,0,0,2.83,2,5,5,0,0,0,1.55.11,1.45,1.45,0,0,0,.3,0l.28,0a.32.32,0,0,0,.26-.28h0a.57.57,0,0,0,0-.13h0v-.11c.05-1,0-2.46,0-2.46.35.19,2.15,1.05,2.13.54a65,65,0,0,0-1.36-13.09.12.12,0,0,0-.23,0c0,4.06.68,8.1.73,12.18a7.55,7.55,0,0,0-2-.66c-.14,0,.17,2.86.11,3.3a.18.18,0,0,1,0,.05,6,6,0,0,1-4.43-1.49C160.52,134,160.42,134.06,160.49,134.17Z" style="fill:#263238"></path><path d="M164.31,135.75a5.07,5.07,0,0,1-2.09,1.54,2.27,2.27,0,0,1-1.39.06c-1-.29-1-1.22-.81-2a5.92,5.92,0,0,1,.48-1.21A6.64,6.64,0,0,0,164.31,135.75Z" style="fill:#263238"></path><path d="M162.22,137.29a2.27,2.27,0,0,1-1.39.06c-1-.29-1-1.22-.81-2A2.37,2.37,0,0,1,162.22,137.29Z" style="fill:#ff99ba"></path><path d="M158.46,127.84a1.92,1.92,0,0,0,.49.89,1.39,1.39,0,0,0,1.05.37,1.25,1.25,0,0,0,.95-.59,2.18,2.18,0,0,0,.29-1,4.14,4.14,0,0,0,0-.61,2.76,2.76,0,0,0-.37-1.2,4,4,0,0,1,0,.91,4.27,4.27,0,0,1-.11.82c-.13.55-.41,1-.84,1s-.81-.3-1-.82a8.53,8.53,0,0,1-.47-1.69A4,4,0,0,0,158.46,127.84Z" style="fill:#263238"></path><path d="M170.78,128.11a1.9,1.9,0,0,1-.53.87,1.36,1.36,0,0,1-1.06.33,1.25,1.25,0,0,1-.92-.63,2.21,2.21,0,0,1-.26-1,4,4,0,0,1,0-.6,2.69,2.69,0,0,1,.41-1.18,4.64,4.64,0,0,0-.06.91,7.34,7.34,0,0,0,.08.82c.11.55.37,1,.79,1.06s.83-.26,1.07-.78a9,9,0,0,0,.54-1.66A3.84,3.84,0,0,1,170.78,128.11Z" style="fill:#263238"></path><path d="M158.21,154.3,153,164.67,140.81,150l-4.13,4.05s11.26,22.63,11.42,21.67l5.18-8.89,5.86,7L160,157.6Z" style="fill:#ebebeb"></path><path d="M160,165.81c0-2.68.16-5.37.08-8.05a.09.09,0,0,0-.18,0c-.74,2.53-.85,12.77-1.07,15.21l0,0c-.25-.3-5.45-6.15-5.52-6.07-1.07,1.39-4.87,7.86-5.14,8.45-1.79-3.59-8.66-16.69-10.84-20.13a.09.09,0,0,0-.17.08c1.53,3.76,10.61,21.39,10.77,21.36a105.21,105.21,0,0,0,5.43-9.4c.86,1.25,6.06,7.79,6.11,7.4A83.1,83.1,0,0,0,160,165.81Z" style="fill:#263238"></path><path d="M152.93,168.36s-7.77-8.72-8.81-5.19a5.54,5.54,0,0,0,1.07,5.52s-2.06,3.92-.36,4.68,8.06-1.8,8.2-2.78A8.12,8.12,0,0,0,152.93,168.36Z" style="fill:#E12424"></path><path d="M153.4,169.32c0,.59-.83,1.13-1.93,1.2s-2-.35-2.06-1,.82-1.13,1.92-1.2S153.36,168.72,153.4,169.32Z" style="opacity:0.1"></path><path d="M154.55,168.22s4.64-8.7,5.6-5.48a6.64,6.64,0,0,1-.33,5.24s1.69,3.51.59,4.34-5.6-1.11-5.76-2A10.33,10.33,0,0,1,154.55,168.22Z" style="fill:#E12424"></path><path d="M158.31,168.92c0,.59-.82,1.13-1.92,1.2s-2-.35-2.06-1,.82-1.13,1.92-1.2S158.27,168.32,158.31,168.92Z" style="opacity:0.1"></path><path d="M151.4,169.65a2.65,2.65,0,1,0,2.53-2.77A2.65,2.65,0,0,0,151.4,169.65Z" style="fill:#E12424"></path><polygon points="269.41 418.13 265.42 419.89 274.85 456.23 276.23 455.57 269.41 418.13" style="fill:#a6a6a6"></polygon><rect x="120.12" y="128.79" width="10.01" height="4.51" transform="translate(157.84 -47.16) rotate(54.08)" style="fill:#263238"></rect><rect x="118.77" y="130.85" width="3.1" height="7.36" transform="matrix(0.59, 0.81, -0.81, 0.59, 158.67, -41.83)" style="fill:#263238"></rect><path d="M160.75,262.44c3.62-2,14.55-21.24,3.6-44.78l16.51,34.77Z" style="fill:#E12424"></path><path d="M141.36,292.29c4.32,15.9,15.59,29.5,14.65,36.43,0,0,14.55.44,18.59,16.69s-8.91,27.42-8.91,27.42,10.82,7.9,14.93,19.33S186.69,424.09,196,431s29.48,11.1,64.28-6h0c.61-.23,1.24-.48,1.85-.75s1.19-.52,1.78-.81a13.48,13.48,0,0,0,1.22-.58c.78-.38,1.55-.78,2.3-1.19.5-.25,1-.51,1.44-.79.21-.12.41-.26.62-.37.65-.38,1.28-.79,1.92-1.2s1.39-.92,2.07-1.42c.51-.36,1-.73,1.51-1.11l.52-.41c.65-.51,1.29-1,1.9-1.58a47.55,47.55,0,0,0,3.61-3.49.32.32,0,0,1,.1-.1c.51-.56,1-1.14,1.5-1.73s1.16-1.42,1.72-2.17.93-1.29,1.38-2a40.39,40.39,0,0,0,2.5-4.34.8.8,0,0,0,.14-.26c.36-.72.72-1.49,1-2.24,14-32.87-15-53.39-20.27-62.67s-5.25-15.72-5.25-15.72-11.68-2.28-18.33-11.93-.24-19.88-.24-19.88c-7.74-1.74-12.23-10.2-18.35-23.82s-25.44-31.11-45.35-23.82c-.6.23-1.18.43-1.75.68s-.86.34-1.27.53-.86.37-1.28.57c-.57.26-1.12.54-1.66.82l-.56.3c-7.91,3.65-19.86,9.5-23.9,12.84C145.69,261,137.07,276.41,141.36,292.29Z" style="fill:#E12424"></path><path d="M141.36,292.29c4.32,15.9,15.59,29.5,14.65,36.43,0,0,14.55.44,18.59,16.69s-8.91,27.42-8.91,27.42,10.82,7.9,14.93,19.33S186.69,424.09,196,431s29.5,11.09,64.32-6c-19,7.43-40.83,5.82-49.36-3.25-14.1-15-2.55-38.72-27.15-56.54,0,0,10.83-17.48,5.32-31.2s-16.72-13.54-16.72-13.54,1.35-4.76-5.49-15.34c-6.41-9.93-21.67-45.61,8.21-61.59-7.91,3.65-19.86,9.5-23.9,12.84C145.69,261,137.07,276.41,141.36,292.29Z" style="opacity:0.2"></path><polygon points="229.35 299.68 207.78 309.11 127.51 139.67 139.51 135.91 229.35 299.68" style="fill:#263238"></polygon><polygon points="257.76 367.95 241.5 375.29 264.15 425.37 271.56 420.56 257.76 367.95" style="fill:#263238"></polygon><path d="M238.35,311.55s.71,4.15-3.46,4.09-5.14-8.36,1.12-9.42c5.75-1,10.32,2.85,12.09,11.62s3,21.5,7.53,22.08a4.57,4.57,0,0,0,5.31-3.21,2.79,2.79,0,0,1-2-3.26c.31-2.74,4.9-3.77,6.58.67,1.43,3.79-.94,10.09-8.29,10.58-6.78.45-9.87-4.61-11.59-12.26C243.88,324.45,245.14,312.25,238.35,311.55Z" style="fill:#263238"></path><path d="M208.05,325.23s2.86,3.32,5.67-.15-3.22-9.73-8.37-5.29c-4.73,4.08-4.78,10.37,1.08,17.6s15.31,16.61,12.66,20.74a5,5,0,0,1-6.24,2.26,2.89,2.89,0,0,0-1.28-3.78c-2.43-1.55-6.41,1.54-4,5.86,2.07,3.66,8.79,5.87,14.22.15,5-5.28,3.06-11.15-1.94-17.6C214.66,338.28,204,331.27,208.05,325.23Z" style="fill:#263238"></path><path d="M257.76,376.07l-16.67-48.44v0l0,0L218.23,285l-23-42.53c-15.38-28.33-42.13-77.69-57.83-105.84,15,28.54,41.43,78.07,56.75,106.43l23,42.51,23.2,42.42,0-.07Z" style="fill:#fff"></path><polygon points="247.51 381.12 230.03 343.13 217.56 316.87 192.41 264.44 167 212.13 142.95 164.93 130.02 138.88 142.37 165.21 166.09 212.57 191.24 265 216.65 317.31 229.46 343.41 247.51 381.12" style="fill:#fff"></polygon><path d="M132.53,138.1l12.8,26.06,24.17,47.11,26,51.9,26.31,51.77,6.63,12.93c1.07,2.16,2.26,4.28,3.25,6.48l2.86,6.67,16.68,38.3-16.11-38.56-2.77-6.71c-1-2.22-2.12-4.35-3.17-6.53l-6.46-13-26-51.91L170.4,210.82l-24.5-46.94Z" style="fill:#fff"></path><polygon points="254.67 377.57 236.52 330.11 236.51 330.09 236.5 330.07 214.23 287.01 191.78 244.04 157.92 180.06 135.06 137.31 157.13 180.47 190.69 244.61 213.18 287.56 235.83 330.42 235.81 330.38 254.67 377.57" style="fill:#fff"></polygon><path d="M98.22,136.52c.27.58.57,1.15.87,1.68s.61,1.08.92,1.57.65,1,1,1.46.65.89,1,1.31a22.4,22.4,0,0,0,1.89,2.09,7.14,7.14,0,0,0,.56.54,8.24,8.24,0,0,0,.84.74,15.43,15.43,0,0,0,1.34,1.08c.23.17.46.36.7.51a26.65,26.65,0,0,0,7.89,3.71c.42.13.83.23,1.26.33a31.66,31.66,0,0,0,3.67.67c.32,0,.67.09,1,.11l1.31.11c.38,0,.76,0,1.13,0l.74,0c.48,0,1,0,1.4,0,.62,0,1.22,0,1.78-.09a.17.17,0,0,0,.1,0c.53,0,1-.08,1.49-.14l1.35-.17c1.65-.24,2.61-.49,2.61-.49l-5.55-11.91,12-3.76c-29.42,3.07-27-10.11-27-10.11a33.89,33.89,0,0,0,9.75-2.75c4.76-2.22,6.79-7,5.29-14.16s-10.66-9.43-12-9.46-7.49,1-13.33,3.78S87.91,115,98.22,136.52Z" style="fill:#E12424"></path><path d="M98.22,136.52c8.26,17.26,25.64,16.53,32.23,15.56l2.61-.49-5.55-11.91c-22.89,2.43-23.69-15.31-23.69-15.31,7.73,3.7,13.11-.64,12.37-10s-9.44-12.32-14-11.18C96.41,106,87.91,115,98.22,136.52Z" style="opacity:0.1"></path><path d="M127.51,139.68l12-3.76c-29.42,3.07-27-10.11-27-10.11a14.36,14.36,0,0,1-3.4-.11,13.14,13.14,0,0,1-5.31-1.32.36.36,0,0,1,0,.1C103.94,125.94,105.65,142,127.51,139.68Z" style="opacity:0.2"></path><path d="M103.82,124.38a6,6,0,0,1-1.95-2.72,15.87,15.87,0,0,1-.92-3.25,13.11,13.11,0,0,1,.27-6.59,4.49,4.49,0,0,1,1.92-2.42,4.44,4.44,0,0,1,3-.34c2.1.45,3.49,2.45,4,4.52a8.47,8.47,0,0,1-.4,6.31,2.41,2.41,0,0,1-2.47,1.27,3.64,3.64,0,0,1-2.41-1.79,7.3,7.3,0,0,1-1.09-3.06c-.12-1-.08-2.33.74-2.9a1.77,1.77,0,0,1,2.57,1,4,4,0,0,1,0,3.27,4.15,4.15,0,0,0,.22-3.35,2.27,2.27,0,0,0-1.16-1.33,2.23,2.23,0,0,0-1.82.06,2.26,2.26,0,0,0-1,1.54,5.92,5.92,0,0,0-.09,1.78,8,8,0,0,0,1.07,3.36,4.18,4.18,0,0,0,2.87,2.18,3.1,3.1,0,0,0,1.89-.29,3.6,3.6,0,0,0,1.37-1.31,9.24,9.24,0,0,0,.56-7,8.48,8.48,0,0,0-1.65-3.16,5.45,5.45,0,0,0-3.07-1.89,5.22,5.22,0,0,0-3.59.45,5,5,0,0,0-2.18,2.86,13.56,13.56,0,0,0-.06,6.9,16.1,16.1,0,0,0,1.15,3.25A6.13,6.13,0,0,0,103.82,124.38Z" style="fill:#263238"></path><rect x="102.32" y="149.04" width="10.01" height="4.51" transform="translate(48.61 327.25) rotate(-126.2)" style="fill:#263238"></rect><rect x="110.56" y="144.11" width="3.1" height="7.36" transform="translate(59.06 325.54) rotate(-126.2)" style="fill:#263238"></rect><rect x="89.23" y="133.85" width="10.01" height="4.51" transform="translate(12.75 280.21) rotate(-115.82)" style="fill:#263238"></rect><rect x="98.03" y="129.84" width="3.1" height="7.36" transform="translate(22.74 281.3) rotate(-115.82)" style="fill:#263238"></rect><path d="M105.81,195.93s9.13-9,15.29-14.66c3.44-3.17,9.81-8.09,13.41-9.26,5.37-1.76,29-5.7,30,0,1,5.16-19.72,6-19.72,6s20.81-2.66,20.85,3.77S142.19,186,142.19,186s21.45-2.25,20.43,4.38c-.77,5-22.17,4.22-22.17,4.22s18.45-1.81,17.88,3.38c-.62,5.74-20.42,6.25-20.42,6.25-3.67,12.94-10.49,19.23-17.72,20.63C118.75,225.1,105.81,195.93,105.81,195.93Z" style="fill:#eb9481"></path><path d="M137.57,178.43c2.43-.4,4.89-.82,7.35-1s4.93-.28,7.4-.24a42.48,42.48,0,0,1,9.58,1.1c-5.67-.89-14.49-.37-17-.19s-4.92.25-7.38.43C137.51,178.53,137.51,178.44,137.57,178.43Z" style="fill:#263238"></path><path d="M138.07,187.33c3.13-.38,6.22-.87,9.37-1.11s6.12-.19,9.26-.21c.24,0,.16.13-.08.14-3.14.15-6,.53-9.16.71s-6.28.25-9.39.55C138,187.41,138,187.34,138.07,187.33Z" style="fill:#263238"></path><path d="M137.12,195a70.62,70.62,0,0,1,14.46-.59c.24,0,.12.16-.13.17-4.81.11-8.58.16-14.3.59C137.06,195.22,137,195.06,137.12,195Z" style="fill:#263238"></path><path d="M106,195.78c-4.91,3.86-19.59,18.69-16,26.1s15.52,6.52,32.05,2.5Z" style="fill:#eb9481"></path><path d="M105.35,196,118,227.69s-18.6,1.84-24.25,0-7.31-9-1.26-17.23A103,103,0,0,1,105.35,196Z" style="fill:#ebebeb"></path><path d="M104.57,196.66a48.3,48.3,0,0,0-4.87,4.24l-1.14,1.22c-.17.1-.34.22-.5.33-.7.47-1.39,1-2,1.49a39,39,0,0,0-3.55,3.37c-.08.09,0,.21.14.13a31,31,0,0,1,3.79-3.16l.53-.37c-.64.73-1.26,1.47-1.84,2.24a61.83,61.83,0,0,0-4.26,6.36c-.06.1.1.19.16.09,2.37-3.91,12.77-14.41,13.91-15.66S105.44,195.94,104.57,196.66Z" style="fill:#263238"></path><path d="M101.27,202.36c2.06,3.92,8.33,20.44,9.6,24.6,0,.12-.15.17-.2.06-1.93-4-8.48-20.42-9.6-24.6C101,202.3,101.22,202.25,101.27,202.36Z" style="fill:#263238"></path><path d="M97.25,228.24c3.06.12,8.37.16,11.44,0,1.56-.08,7.59-.56,8.82-.67-.07-.36-.34-1.51-.47-2-.06-.2.11-.27.19-.06a17.34,17.34,0,0,1,1,2.75c-1.29.45-7.78.45-9.29.51a79.41,79.41,0,0,1-11.74-.49S97.2,228.24,97.25,228.24Z" style="fill:#263238"></path><path d="M237.41,239.06c-9.35,4.6-18.63,9.32-27.9,14.06S191,262.7,181.77,267.48l-27.62,14.59C145,287,135.8,291.92,126.69,297h0l-2.57-.9,2.52,1h0l0,0c9.33-4.62,18.61-9.35,27.88-14.09l27.73-14.38c9.2-4.88,18.43-9.69,27.6-14.62S228.3,244.12,237.41,239.06Z" style="fill:#fff"></path><path d="M269.06,203.94c-2.21,1-148.33,90.39-148.33,90.39l3,1.78,104.87-60.43s10.28,4.58,11,4.09,14-8.41,14-8.41l-3.74-8L272,210.78Z" style="fill:#E12424"></path><path d="M269.06,203.94c-2.21,1-148.33,90.39-148.33,90.39l3,1.78,104.87-60.43s10.28,4.58,11,4.09,14-8.41,14-8.41l-3.74-8L272,210.78Z" style="opacity:0.1"></path><path d="M232,252.42c3.45-.86,3.67-4.54,3.67-4.54a7.57,7.57,0,0,0,5.15-.19c2.84-1.3,2-6.32,2-6.32a9.33,9.33,0,0,0,5.4-1.07c2.59-1.52,2.5-6.7,2.5-6.7a8.24,8.24,0,0,0,4.17-3.93c2.13-4.82-2.38-11.48-5.2-15.74S235,200.22,232.85,198.19l-27.51,17.87s7.21,22.71,11.24,27.25C220,247.14,228.17,253.39,232,252.42Z" style="fill:#eb9481"></path><path d="M235.14,248c-4.58-3.2-8-7.59-11.6-11.77-.08-.09.07-.22.15-.12,3.56,4.2,7.91,7.64,11.63,11.69C235.42,247.89,235.27,248.06,235.14,248Z" style="fill:#263238"></path><path d="M242.48,241.51a14,14,0,0,1-2.55-2.83c-.84-1.06-1.65-2.14-2.45-3.23q-2.4-3.27-4.63-6.66c-.06-.1.08-.23.15-.13,1.6,2.17,3.22,4.32,4.91,6.42.84,1.06,1.7,2.1,2.56,3.14a17.37,17.37,0,0,1,2.29,3.05A.19.19,0,0,1,242.48,241.51Z" style="fill:#263238"></path><path d="M250.73,233.51a10.65,10.65,0,0,1-2.16-2.68c-.7-1-1.42-2-2.14-3-1.43-2-2.87-4-4.38-6-.07-.1.07-.22.15-.12,1.54,2,3.11,3.93,4.63,5.91.75,1,1.49,2,2.23,2.95a9.57,9.57,0,0,1,1.78,2.84A.07.07,0,0,1,250.73,233.51Z" style="fill:#263238"></path></g><g id="freepik--music-sheet--inject-11"><rect x="342.74" y="239.51" width="4.44" height="155.77" transform="translate(689.93 634.78) rotate(180)" style="fill:#a6a6a6"></rect><polygon points="353.45 395.4 347.97 395.4 386.98 449.95 392.45 449.95 353.45 395.4" style="fill:#a6a6a6"></polygon><polygon points="333.68 395.4 339.15 395.4 300.15 449.95 294.67 449.95 333.68 395.4" style="fill:#a6a6a6"></polygon><polygon points="338.85 395.4 344.33 395.4 319.04 456.3 313.56 456.3 338.85 395.4" style="fill:#a6a6a6"></polygon><rect x="331.54" y="393.2" width="27.38" height="4.41" transform="translate(690.47 790.81) rotate(180)" style="fill:#a6a6a6"></rect><polygon points="346.04 236.37 383.21 233.12 401.79 180.21 360.53 188.04 320.92 187.28 306.55 239.82 346.04 236.37" style="fill:#fff"></polygon><polygon points="346.04 236.37 383.21 233.12 401.79 180.21 360.53 188.04 320.92 187.28 306.55 239.82 346.04 236.37" style="fill:#E12424;opacity:0.2"></polygon><polygon points="358.83 188.08 362.23 187.78 346.55 236.33 343.16 236.62 358.83 188.08" style="fill:#a6a6a6"></polygon><polygon points="305.99 244.52 383.72 237.72 383.72 233.07 305.99 239.88 305.99 244.52" style="fill:#a6a6a6"></polygon><path d="M383.21,233.12c-1.82-3.52-3.73-7-5.61-10.47s-3.8-6.94-5.72-10.41l-5.81-10.34-5.89-10.29-.55-1-.9.81q-13.25,11.85-26.32,23.92-6.53,6-13,12.14c-4.3,4.08-8.61,8.16-12.86,12.31,4.55-3.8,9-7.67,13.54-11.54s8.94-7.78,13.39-11.7q13.31-11.78,26.46-23.75l-1.44-.15,6.05,10.19L370.67,213c2.06,3.37,4.11,6.75,6.22,10.09S381.06,229.81,383.21,233.12Z" style="fill:#a6a6a6"></path></g></svg>