<svg xmlns="http://www.w3.org/2000/svg" viewBox="0 0 500 500"><g id="freepik--background-simple--inject-2"><path d="M492.55,363.16A282.54,282.54,0,0,0,477.19,308c-6.87-25-17.34-49.69-23.47-74.51-13.17-53.4-12.48-80.44-29.12-113s-63.11-52.7-63.11-52.7-63.1-30.51-147-7.63c-14.56,4-26.06,8.65-35.32,14l0-.78L155.55,86.48s15.25-23.58-2.78-24.27S88.28,115.6,80,148.89s36.06-6.24,31.21,8.32,13.17,11.1-22.19,45.07c-33.6,32.28-58.42,60.18-59.63,89.64a108.07,108.07,0,0,0-.7,19.93c3.46,68.65,48.54,84.59,70.73,96.38S181.2,481,231.82,480.35s81.83-27,117.89-29.12c21.51-1.25,52.66-.27,79.73-11.36-4.83,3.6-10.22,7.78-15.24,12.05-13.87,11.79,7.62,22.19,36.75,4.16S498.79,399.91,492.55,363.16Z" style="fill:#407BFF"></path><path d="M492.55,363.16A282.54,282.54,0,0,0,477.19,308c-6.87-25-17.34-49.69-23.47-74.51-13.17-53.4-12.48-80.44-29.12-113s-63.11-52.7-63.11-52.7-63.1-30.51-147-7.63c-14.56,4-26.06,8.65-35.32,14l0-.78L155.55,86.48s15.25-23.58-2.78-24.27S88.28,115.6,80,148.89s36.06-6.24,31.21,8.32,13.17,11.1-22.19,45.07c-33.6,32.28-58.42,60.18-59.63,89.64a108.07,108.07,0,0,0-.7,19.93c3.46,68.65,48.54,84.59,70.73,96.38S181.2,481,231.82,480.35s81.83-27,117.89-29.12c21.51-1.25,52.66-.27,79.73-11.36-4.83,3.6-10.22,7.78-15.24,12.05-13.87,11.79,7.62,22.19,36.75,4.16S498.79,399.91,492.55,363.16Z" style="fill:#fff;opacity:0.7000000000000001"></path></g><g id="freepik--DNA--inject-2"><path d="M240.44,458.44c3.83,5.93,10.1,10.33,18.37,12.82A52.22,52.22,0,0,0,272,473.4h.58a52.36,52.36,0,0,0,13.27-1.88c8.32-2.32,14.67-6.59,18.63-12.44,3.83,5.93,10.1,10.33,18.37,12.82a50.57,50.57,0,0,0,13.81,2.14l0-4a42.45,42.45,0,0,1-6.44-.6l.29-29A41.92,41.92,0,0,1,337,440l.13-4a50.67,50.67,0,0,0-13.85,1.87c-8.32,2.31-14.68,6.58-18.63,12.44-3.84-5.94-10.1-10.33-18.37-12.82A51.68,51.68,0,0,0,273,435.36h-.55a51.67,51.67,0,0,0-13.28,1.88c-8.32,2.32-14.68,6.59-18.63,12.44-3.84-5.93-10.1-10.33-18.37-12.82a50.62,50.62,0,0,0-13.82-2.14l0,4a41,41,0,0,1,5.43.44l-.29,29.27a42.55,42.55,0,0,1-5.45.33l-.12,4a50.67,50.67,0,0,0,13.85-1.87C230.13,468.56,236.48,464.3,240.44,458.44ZM265,440.05l-.29,28.51a42.9,42.9,0,0,1-8.84-2.64l.24-23.41A43.51,43.51,0,0,1,265,440.05Zm7.68-.69a39.92,39.92,0,0,1,4,.28l-.3,29.56a39.77,39.77,0,0,1-4.08.2,44.46,44.46,0,0,1-5.21-.44l.29-29.26A41.93,41.93,0,0,1,272.67,439.36Zm6.08,29.55.3-28.94a44.77,44.77,0,0,1,10.13,2.88L289,466.24A44.15,44.15,0,0,1,278.75,468.91Zm49.09.1a43.35,43.35,0,0,1-7.54-2.31l.24-23.67a42.92,42.92,0,0,1,7.59-2.16Zm-9.69-24.95-.22,21.56a24.43,24.43,0,0,1-11.29-10.9A24.46,24.46,0,0,1,318.15,444.06Zm-15.66,10.62a24.36,24.36,0,0,1-11.16,10.5l.22-21.21A24.31,24.31,0,0,1,302.49,454.68Zm-48.78-11.1-.22,21.22a24.36,24.36,0,0,1-10.93-10.72A24.29,24.29,0,0,1,253.71,443.58ZM238.41,454a24.22,24.22,0,0,1-11.08,10.45l.22-21.13A24.28,24.28,0,0,1,238.41,454Zm-22.36-14.52a43.85,43.85,0,0,1,9.13,2.71l-.24,23.34a43.7,43.7,0,0,1-9.18,2.54Z" style="fill:none;stroke:#263238;stroke-miterlimit:10"></path></g><g id="freepik--Symbol--inject-2"><g id="freepik--p0fIIB--inject-2"><path d="M451.42,389.24c-1.31-6.65-2.16-8.06-7.31-12L459.23,351c11.42,3.85,24.89,26.86,22.3,38.2Z" style="fill:none;stroke:#263238;stroke-miterlimit:10"></path><path d="M430.3,401.1c5.27,2.44,6.92,2.49,13.79.45q7.56,13.06,15.13,26.18c-12.91,7.93-31.5,7.71-44.1-.38Z" style="fill:none;stroke:#263238;stroke-miterlimit:10"></path><path d="M415.1,351.38l15,25.88c-1.59,1.9-3.34,3.5-4.45,5.45s-1.53,4.21-2.33,6.54H393.37C391.91,376.29,403.41,356.2,415.1,351.38Z" style="fill:none;stroke:#263238;stroke-miterlimit:10"></path><path d="M437.41,398.3c-4.73,0-8.87-3.81-8.7-9.49a8.83,8.83,0,1,1,8.7,9.49Z" style="fill:#263238;stroke:#263238;stroke-miterlimit:10"></path></g></g><g id="freepik--Tube--inject-2"><path d="M471.73,207.52v84.11a13.27,13.27,0,1,1-26.53,0V207.52Z" style="fill:none;stroke:#263238;stroke-miterlimit:10"></path><path d="M447.06,222.05V290a11.42,11.42,0,1,0,22.81,0V222.05Z" style="fill:none;stroke:#263238;stroke-miterlimit:10"></path><path d="M477.77,203.7a3.82,3.82,0,0,1-3.83,3.82H443a3.82,3.82,0,0,1-3.82-3.82,3.83,3.83,0,0,1,3.82-3.82h31a3.82,3.82,0,0,1,3.83,3.82Z" style="fill:none;stroke:#263238;stroke-miterlimit:10"></path><polyline points="466.43 216.7 460.31 216.7 460.31 286.26 466.43 286.26" style="fill:none;stroke:#263238;stroke-miterlimit:10"></polyline><line x1="466.43" y1="226.64" x2="460.32" y2="226.64" style="fill:none;stroke:#263238;stroke-miterlimit:10"></line><line x1="466.43" y1="236.57" x2="460.32" y2="236.57" style="fill:none;stroke:#263238;stroke-miterlimit:10"></line><line x1="466.43" y1="246.51" x2="460.32" y2="246.51" style="fill:none;stroke:#263238;stroke-miterlimit:10"></line><line x1="466.43" y1="256.45" x2="460.32" y2="256.45" style="fill:none;stroke:#263238;stroke-miterlimit:10"></line><line x1="466.43" y1="266.39" x2="460.32" y2="266.39" style="fill:none;stroke:#263238;stroke-miterlimit:10"></line><line x1="466.43" y1="276.33" x2="460.32" y2="276.33" style="fill:none;stroke:#263238;stroke-miterlimit:10"></line></g><g id="freepik--molecules-2--inject-2"><path d="M417.26,104.82a7.85,7.85,0,1,0,7.85,7.84A7.84,7.84,0,0,0,417.26,104.82Z" style="fill:#263238"></path><ellipse cx="417.65" cy="112.17" rx="22.22" ry="53.83" style="fill:none;stroke:#263238;stroke-linecap:round;stroke-linejoin:round"></ellipse><ellipse cx="417.65" cy="112.17" rx="53.83" ry="22.22" transform="translate(43.01 328.18) rotate(-45)" style="fill:none;stroke:#263238;stroke-linecap:round;stroke-linejoin:round"></ellipse><ellipse cx="417.65" cy="112.17" rx="22.22" ry="53.83" transform="translate(43.01 328.18) rotate(-45)" style="fill:none;stroke:#263238;stroke-linecap:round;stroke-linejoin:round"></ellipse><ellipse cx="417.65" cy="112.17" rx="53.83" ry="22.22" style="fill:none;stroke:#263238;stroke-linecap:round;stroke-linejoin:round"></ellipse><circle cx="376.51" cy="87.78" r="2.89" style="fill:#263238"></circle><path d="M408.83,143.49a2.89,2.89,0,1,0,2.89,2.88A2.88,2.88,0,0,0,408.83,143.49Z" style="fill:#263238"></path><circle cx="436.13" cy="82.01" r="2.89" style="fill:#263238"></circle><circle cx="467.3" cy="120.4" r="2.89" style="fill:#263238"></circle></g><g id="freepik--magnifying-glass--inject-2"><circle cx="251.57" cy="47.7" r="25.36" transform="translate(39.95 191.86) rotate(-45)" style="fill:none;stroke:#263238;stroke-miterlimit:10"></circle><circle cx="251.57" cy="47.7" r="18.6" style="fill:none;stroke:#263238;stroke-miterlimit:10"></circle><path d="M309.91,76.81,285,67.45l4.23-11.23,24.89,9.36a6,6,0,0,1,3.5,7.73h0A6,6,0,0,1,309.91,76.81Z" style="fill:#263238;stroke:#263238;stroke-miterlimit:10"></path><path d="M276,54.45A25,25,0,0,1,273.74,60l12.34,4.64L288.19,59Z" style="fill:none;stroke:#263238;stroke-miterlimit:10"></path></g><g id="freepik--molecules-1--inject-2"><circle cx="116.02" cy="114.35" r="12.82" transform="translate(-21.82 201.17) rotate(-76.79)" style="fill:#263238;stroke:#263238;stroke-miterlimit:10"></circle><path d="M74.79,66.19a6.93,6.93,0,1,1-6.93,6.93A6.93,6.93,0,0,1,74.79,66.19Z" style="fill:none;stroke:#263238;stroke-miterlimit:10"></path><path d="M76.52,123a4.51,4.51,0,1,1-4.5,4.51A4.51,4.51,0,0,1,76.52,123Z" style="fill:none;stroke:#263238;stroke-miterlimit:10"></path><path d="M162.79,68.27a5.55,5.55,0,1,1-5.54,5.54A5.54,5.54,0,0,1,162.79,68.27Z" style="fill:none;stroke:#263238;stroke-miterlimit:10"></path><circle cx="140.62" cy="149.35" r="4.85" style="fill:none;stroke:#263238;stroke-miterlimit:10"></circle><circle cx="150.01" cy="115.86" r="4.85" style="fill:none;stroke:#263238;stroke-miterlimit:10"></circle><path d="M110.27,140a10.29,10.29,0,1,1-3.47-2.69" style="fill:none;stroke:#263238;stroke-miterlimit:10"></path><circle cx="92.57" cy="68.67" r="4.46" style="fill:none;stroke:#263238;stroke-miterlimit:10"></circle><line x1="80.67" y1="126.01" x2="103.3" y2="119.07" style="fill:none;stroke:#263238;stroke-miterlimit:10"></line><line x1="88.56" y1="85.98" x2="79.77" y2="77.62" style="fill:none;stroke:#263238;stroke-miterlimit:10"></line><line x1="107.55" y1="104.06" x2="90.93" y2="88.24" style="fill:none;stroke:#263238;stroke-miterlimit:10"></line><line x1="125.98" y1="106.62" x2="158.63" y2="78.29" style="fill:none;stroke:#263238;stroke-miterlimit:10"></line><line x1="137.35" y1="145.28" x2="124.36" y2="124.22" style="fill:none;stroke:#263238;stroke-miterlimit:10"></line></g><g id="freepik--Clipboard--inject-2"><polygon points="89.25 204.03 89.25 285.21 26.39 285.21 26.39 204.03 44.59 204.03 44.59 208.62 71.04 208.62 71.04 204.03 89.25 204.03" style="fill:none;stroke:#263238;stroke-miterlimit:10"></polygon><polyline points="44.44 206.78 31.86 206.78 31.86 278.13 83.78 278.13 83.78 206.78 71.37 206.78" style="fill:none;stroke:#263238;stroke-miterlimit:10"></polyline><path d="M71,202.9v5.72H44.59V202.9a3,3,0,0,1,2.95-3h7.3c.69-.85,1.21-1.92.24-2.69a3.78,3.78,0,0,1,.74-6.19c2.54-1.27,4.91,0,5.45,2.19S59.45,198,59.45,198a5.8,5.8,0,0,0,.61,1.95h8A3,3,0,0,1,71,202.9Z" style="fill:#263238;stroke:#263238;stroke-miterlimit:10"></path><path d="M46.08,255.29V242.52h2.31v5.34H51v-5.34h2.34v12.77H51v-5.77h-2.6v5.77Z" style="fill:#263238"></path><path d="M54.73,260.77v-1l2-3.11.42-.66a3.19,3.19,0,0,0,.32-.64,2,2,0,0,0,.13-.74,1.23,1.23,0,0,0-.16-.7.58.58,0,0,0-.51-.24.68.68,0,0,0-.5.18.92.92,0,0,0-.24.47,2.64,2.64,0,0,0-.07.65v.34H54.76V255a3.31,3.31,0,0,1,.22-1.27,1.75,1.75,0,0,1,.69-.87,2.24,2.24,0,0,1,1.23-.31,2,2,0,0,1,1.57.57,2.21,2.21,0,0,1,.53,1.57,2.9,2.9,0,0,1-.14.91,4,4,0,0,1-.38.78c-.15.25-.32.5-.5.76l-1.67,2.54h2.48v1.11Z" style="fill:#263238"></path><path d="M63.75,255.46a4,4,0,0,1-2.16-.51,2.72,2.72,0,0,1-1.15-1.44,6.59,6.59,0,0,1-.35-2.24v-4.78a6.33,6.33,0,0,1,.35-2.21,2.72,2.72,0,0,1,1.15-1.41,4.16,4.16,0,0,1,2.16-.49,4.21,4.21,0,0,1,2.18.49,2.82,2.82,0,0,1,1.15,1.41,6.1,6.1,0,0,1,.35,2.21v4.79a6.23,6.23,0,0,1-.35,2.22A2.92,2.92,0,0,1,65.93,255,4,4,0,0,1,63.75,255.46Zm0-1.72a1.24,1.24,0,0,0,.86-.25,1.36,1.36,0,0,0,.37-.69,4.89,4.89,0,0,0,.09-1V246a4.61,4.61,0,0,0-.09-1,1.25,1.25,0,0,0-.37-.67,1.3,1.3,0,0,0-.86-.25,1.28,1.28,0,0,0-.84.25,1.2,1.2,0,0,0-.38.67,4.61,4.61,0,0,0-.09,1v5.88a4.89,4.89,0,0,0,.09,1,1.17,1.17,0,0,0,.37.69A1.23,1.23,0,0,0,63.75,253.74Z" style="fill:#263238"></path><path d="M74.94,253.57c0,10.66-8.21,19.29-18.35,19.29s-18.36-8.63-18.36-19.29S56.59,227,56.59,227,74.94,242.91,74.94,253.57Z" style="fill:none;stroke:#263238;stroke-miterlimit:10"></path><path d="M80.25,227.22a7,7,0,1,1-14,0c0-4.07,7-10.16,7-10.16S80.25,223.15,80.25,227.22Z" style="fill:none;stroke:#263238;stroke-miterlimit:10"></path><path d="M50.78,222.81a4,4,0,1,1-7.93,0c0-2.3,4-5.75,4-5.75S50.78,220.51,50.78,222.81Z" style="fill:none;stroke:#263238;stroke-miterlimit:10"></path></g><g id="freepik--Cell--inject-2"><path d="M118.59,389.15a30.36,30.36,0,0,0-3.25-2.48,27.56,27.56,0,0,1-10.57-14.45,20.92,20.92,0,0,0-8.5-10.89,21.2,21.2,0,0,0-19.51-1.75,21.2,21.2,0,0,0-11.35,16,20.93,20.93,0,0,0,2.74,13.53,27.66,27.66,0,0,1,4.11,17.43A29.09,29.09,0,0,0,112.39,437a29.1,29.1,0,0,0,6.2-47.82Z" style="fill:none;stroke:#263238;stroke-miterlimit:10"></path><circle cx="100.62" cy="412.36" r="13.54" transform="matrix(0.36, -0.93, 0.93, 0.36, -320.38, 358.27)" style="fill:#263238"></circle><path d="M90.43,376.93a5.56,5.56,0,1,0-2.73,7.38A5.58,5.58,0,0,0,90.43,376.93Z" style="fill:none;stroke:#263238;stroke-miterlimit:10"></path><line x1="126.63" y1="399.9" x2="131.56" y2="397.63" style="fill:none;stroke:#263238;stroke-miterlimit:10"></line><line x1="119.58" y1="390.03" x2="123.6" y2="387.03" style="fill:none;stroke:#263238;stroke-miterlimit:10"></line><line x1="113.33" y1="384.82" x2="116.52" y2="380.45" style="fill:none;stroke:#263238;stroke-miterlimit:10"></line><line x1="106.33" y1="375.89" x2="110.89" y2="372.83" style="fill:none;stroke:#263238;stroke-miterlimit:10"></line><line x1="102.85" y1="367.08" x2="105.69" y2="364.04" style="fill:none;stroke:#263238;stroke-miterlimit:10"></line><line x1="96.27" y1="361.33" x2="98.85" y2="357.55" style="fill:none;stroke:#263238;stroke-miterlimit:10"></line><line x1="87.69" y1="358.45" x2="87.64" y2="352.88" style="fill:none;stroke:#263238;stroke-miterlimit:10"></line><line x1="77.17" y1="354.42" x2="78.91" y2="358.63" style="fill:none;stroke:#263238;stroke-miterlimit:10"></line><line x1="67.77" y1="359.14" x2="71.81" y2="362.48" style="fill:none;stroke:#263238;stroke-miterlimit:10"></line><line x1="67.84" y1="368.93" x2="63.36" y2="367.14" style="fill:none;stroke:#263238;stroke-miterlimit:10"></line><line x1="65.41" y1="375.54" x2="60.54" y2="374.42" style="fill:none;stroke:#263238;stroke-miterlimit:10"></line><line x1="65.46" y1="382.18" x2="59.9" y2="384.35" style="fill:none;stroke:#263238;stroke-miterlimit:10"></line><line x1="68.15" y1="389.07" x2="63.68" y2="391.29" style="fill:none;stroke:#263238;stroke-miterlimit:10"></line><line x1="72.1" y1="397.43" x2="67.02" y2="399.39" style="fill:none;stroke:#263238;stroke-miterlimit:10"></line><line x1="72.26" y1="406.5" x2="67.67" y2="408.34" style="fill:none;stroke:#263238;stroke-miterlimit:10"></line><line x1="72.15" y1="415.14" x2="68.49" y2="416.83" style="fill:none;stroke:#263238;stroke-miterlimit:10"></line><line x1="76.58" y1="426.02" x2="72.7" y2="429.74" style="fill:none;stroke:#263238;stroke-miterlimit:10"></line><line x1="83.91" y1="434.41" x2="80.8" y2="441.05" style="fill:none;stroke:#263238;stroke-miterlimit:10"></line><line x1="92.65" y1="437.9" x2="91.12" y2="444.2" style="fill:none;stroke:#263238;stroke-miterlimit:10"></line><line x1="101.53" y1="439.6" x2="102.05" y2="445.33" style="fill:none;stroke:#263238;stroke-miterlimit:10"></line><line x1="112.39" y1="436.97" x2="115.31" y2="442.31" style="fill:none;stroke:#263238;stroke-miterlimit:10"></line><line x1="120.37" y1="431.12" x2="125.37" y2="436.53" style="fill:none;stroke:#263238;stroke-miterlimit:10"></line><line x1="126.46" y1="422.14" x2="132.49" y2="424.77" style="fill:none;stroke:#263238;stroke-miterlimit:10"></line><line x1="128.26" y1="410.14" x2="135.16" y2="410.04" style="fill:none;stroke:#263238;stroke-miterlimit:10"></line></g><g id="freepik--Character--inject-2"><path d="M425.06,269.41v-.1a16.46,16.46,0,0,0-.74-4.1,11.48,11.48,0,0,0-1.62-3.27,8.42,8.42,0,0,0-2.48-2.16,9.62,9.62,0,0,0,3.39-5.92,16.63,16.63,0,0,0,.13-4.16v-.09s0,0-.1-.74-.09-.73-.09-.74V248a13.33,13.33,0,0,0-1.25-4,9.5,9.5,0,0,0-4.76-4.84,9.34,9.34,0,0,0,2.49-6.32,15.65,15.65,0,0,0-.07-2.63,15.28,15.28,0,0,0-.3-1.52l0,0v0l-.2-.71c-.2-.7-.2-.71-.2-.72v0l0-.05a16.54,16.54,0,0,0-1.74-3.78,9.46,9.46,0,0,0-5.42-4.15,8.31,8.31,0,0,0,1.43-2.94,10.67,10.67,0,0,0,.22-3.66,16.57,16.57,0,0,0-.91-4.07l0-.05v0s0,0-.29-.69l-.3-.68,0,0,0,0a16.65,16.65,0,0,0-2.28-3.49,9,9,0,0,0-5.91-3.39,9.29,9.29,0,0,0,.78-6.78,16.21,16.21,0,0,0-1.49-3.88l0-.05v0l-.38-.65-.37-.64,0,0,0,0a14.23,14.23,0,0,0-2.74-3.15,9.1,9.1,0,0,0-6.28-2.58,9.6,9.6,0,0,0-.14-6.81,15.21,15.21,0,0,0-2-3.65l0,0,0,0-.46-.58-.46-.59,0,0,0,0a13.23,13.23,0,0,0-3.1-2.78,9.5,9.5,0,0,0-6.57-1.73,9.33,9.33,0,0,0-1.07-6.7,14.56,14.56,0,0,0-1.41-2.22c-.46-.56-.85-1-1-1.15l0,0,0,0-.54-.51-.54-.51,0,0,0,0a16.29,16.29,0,0,0-3.41-2.36,9.64,9.64,0,0,0-6.78-.81,7.87,7.87,0,0,0-.27-3.25,11.47,11.47,0,0,0-1.67-3.26,16,16,0,0,0-2.85-3.05l0,0,0,0-.61-.43-.6-.43,0,0,0,0a16.7,16.7,0,0,0-3.73-1.86,13.6,13.6,0,0,0-1.84-.49,10.91,10.91,0,0,0-1.78-.11,8.35,8.35,0,0,0-3.19.69,9.11,9.11,0,0,0-2.78-6.22,16.72,16.72,0,0,0-3.25-2.61l0,0,0,0-.65-.37-.64-.37,0,0-.05,0a16.07,16.07,0,0,0-4-1.31,11.46,11.46,0,0,0-3.66-.15,8.26,8.26,0,0,0-3.07,1.13,9.57,9.57,0,0,0-3.57-5.82,16.3,16.3,0,0,0-3.59-2.1l-.05,0,0,0-.69-.27-.69-.27,0,0-.05,0c-.25-.09-.77-.27-1.48-.45a13.76,13.76,0,0,0-2.61-.35,9.42,9.42,0,0,0-6.53,1.85,9.48,9.48,0,0,0-4.34-5.22A12.76,12.76,0,0,0,303.2,115l-.05,0h0l-.73-.16-.72-.17h-.09a16.8,16.8,0,0,0-4.15-.3,9.69,9.69,0,0,0-6.24,2.78,8.35,8.35,0,0,0-1.9-2.67,11.3,11.3,0,0,0-3.1-1.94,16.7,16.7,0,0,0-4-1.16H282c-.09,0-.27,0-.64-.07l-.74,0h-.09a16.53,16.53,0,0,0-4.15.33,10.6,10.6,0,0,0-3.43,1.3,8.41,8.41,0,0,0-2.38,2.25,9.49,9.49,0,0,0-5.56-4,16.54,16.54,0,0,0-4.13-.54h-.09l-.74,0-.74,0h-.09a13.08,13.08,0,0,0-4.08.85,9.48,9.48,0,0,0-5.29,4.25,9.36,9.36,0,0,0-6-3.11,16.43,16.43,0,0,0-2.63-.2,13.92,13.92,0,0,0-1.54.15h-.09l-.73.14-.73.13H238a16.81,16.81,0,0,0-3.94,1.36,9.43,9.43,0,0,0-4.67,5,9,9,0,0,0-6.4-2.31,16.78,16.78,0,0,0-4.14.5l0,0h0l-.71.2-.71.23h0l-.05,0a16.79,16.79,0,0,0-3.69,1.93,10.72,10.72,0,0,0-2.65,2.53,8.24,8.24,0,0,0-1.32,3,9.45,9.45,0,0,0-6.67-1.46,16.46,16.46,0,0,0-4,1.1l0,0,0,0-.68.31-.68.3,0,0,0,0a14.44,14.44,0,0,0-1.36.75A16.09,16.09,0,0,0,194,128a9.22,9.22,0,0,0-3.21,6,9.55,9.55,0,0,0-6.78-.52,13.48,13.48,0,0,0-3.83,1.62l0,0,0,0-.63.4-.62.4,0,0,0,0a14.3,14.3,0,0,0-3.08,2.8,9.51,9.51,0,0,0-2.36,6.38,9.2,9.2,0,0,0-6.79.39,13.57,13.57,0,0,0-3.6,2.09l0,0,0,0-.57.49-.56.48,0,0,0,0a17,17,0,0,0-2.68,3.18,9.44,9.44,0,0,0-1.48,6.66,8.15,8.15,0,0,0-3.27-.06,11,11,0,0,0-3.41,1.33,17.11,17.11,0,0,0-3.31,2.54l0,0,0,0-.08.07c-.06.07-.19.2-.42.48l-.49.56,0,0,0,0a16.39,16.39,0,0,0-2.21,3.53,9.08,9.08,0,0,0-.6,6.78,8.24,8.24,0,0,0-3.23.39,10.1,10.1,0,0,0-3.24,1.75,16.54,16.54,0,0,0-2.91,3l0,0,0,0-.43.61-.43.61,0,0,0,0a14.59,14.59,0,0,0-1.71,3.81,9.07,9.07,0,0,0,.29,6.79,9.57,9.57,0,0,0-6.13,3,15.61,15.61,0,0,0-2.46,3.35l0,.05v0l-.34.66-.34.67,0,0,0,.05a13,13,0,0,0-1.22,4,9.47,9.47,0,0,0,1.19,6.69,9.41,9.41,0,0,0-5.63,3.79,13.24,13.24,0,0,0-1.42,2.22,14.17,14.17,0,0,0-.61,1.42l0,.05v0s0,0-.24.7l-.24.71v0l0,.05a17.12,17.12,0,0,0-.71,4.1,9.56,9.56,0,0,0,2.14,6.49,8.33,8.33,0,0,0-2.85,1.62,11.58,11.58,0,0,0-2.25,2.89,16.94,16.94,0,0,0-1.55,3.87v.09l0,.1a4.94,4.94,0,0,0-.13.63c-.13.71-.13.72-.13.73v.09a16.93,16.93,0,0,0-.09,4.17,9,9,0,0,0,3,6.13,9.44,9.44,0,0,0-4.48,5.15,16.61,16.61,0,0,0-1,4.05v.09s0,0-.06.74,0,.73,0,.74v.09c0,.27,0,.82,0,1.55a16.77,16.77,0,0,0,.46,2.59,9.47,9.47,0,0,0,3.69,5.69,9.47,9.47,0,0,0-3.69,5.69,16.77,16.77,0,0,0-.46,2.59c0,.72,0,1.28,0,1.55v.09s0,0,0,.74l.06.74v.09a16.61,16.61,0,0,0,1,4.05,9.38,9.38,0,0,0,4.48,5.14,9.06,9.06,0,0,0-3,6.14,16.93,16.93,0,0,0,.09,4.17v.09s0,0,.13.73a4.94,4.94,0,0,0,.13.63l0,.1v.09a16.94,16.94,0,0,0,1.55,3.87,11.58,11.58,0,0,0,2.25,2.89,8.33,8.33,0,0,0,2.85,1.62,9.55,9.55,0,0,0-2.14,6.48,17,17,0,0,0,.71,4.1l0,.05v0l.24.7c.23.69.23.7.24.71v0l0,.05a14.17,14.17,0,0,0,.61,1.42,13.2,13.2,0,0,0,1.42,2.21,9.39,9.39,0,0,0,5.63,3.8,9.47,9.47,0,0,0-1.19,6.69,13,13,0,0,0,1.22,4l0,.05,0,0,.34.66a6.47,6.47,0,0,0,.34.66v0l0,.05a15.61,15.61,0,0,0,2.46,3.35,9.62,9.62,0,0,0,6.13,3,9.07,9.07,0,0,0-.29,6.79,14.76,14.76,0,0,0,1.71,3.81l0,0,0,0,.43.61c.42.59.42.6.43.6l0,0,0,0a16.88,16.88,0,0,0,2.91,3,10.06,10.06,0,0,0,3.24,1.74,7.89,7.89,0,0,0,3.23.39,9.11,9.11,0,0,0,.6,6.79,16.67,16.67,0,0,0,2.21,3.53l0,0,0,0s0,0,.49.56a6,6,0,0,0,.42.47l.08.08,0,0,0,0a16.33,16.33,0,0,0,3.31,2.54,10.79,10.79,0,0,0,3.41,1.34,8.53,8.53,0,0,0,3.27-.06,9.43,9.43,0,0,0,1.48,6.65,17,17,0,0,0,2.68,3.18l0,0,0,0,.56.49.57.49,0,0,0,0a13.35,13.35,0,0,0,3.6,2.08,9.16,9.16,0,0,0,6.79.4,9.51,9.51,0,0,0,2.36,6.38,14.3,14.3,0,0,0,3.08,2.8l0,0,0,0,.62.4.63.4,0,0,0,0a13.48,13.48,0,0,0,3.83,1.62,9.49,9.49,0,0,0,6.78-.53,9.22,9.22,0,0,0,3.21,6,16.84,16.84,0,0,0,2.05,1.64,13,13,0,0,0,1.36.76l0,0h0l.68.31.68.31h0l0,0a15.87,15.87,0,0,0,4,1.11,9.45,9.45,0,0,0,6.67-1.46,8.24,8.24,0,0,0,1.32,3,10.9,10.9,0,0,0,2.65,2.53,17.27,17.27,0,0,0,3.69,1.93h.05l0,0,.71.23.71.2h.09a16.61,16.61,0,0,0,4.14.51,9,9,0,0,0,6.4-2.32,9.48,9.48,0,0,0,4.67,5,16.15,16.15,0,0,0,3.94,1.35h.09l.73.13.73.13h.09a13.92,13.92,0,0,0,1.54.15,16.43,16.43,0,0,0,2.63-.2,9.36,9.36,0,0,0,6-3.11,9.42,9.42,0,0,0,5.29,4.24,12.78,12.78,0,0,0,4.08.85h.09l.74,0,.74,0h.09a17,17,0,0,0,4.13-.54,9.53,9.53,0,0,0,5.56-4,8.38,8.38,0,0,0,2.38,2.24,10.39,10.39,0,0,0,3.43,1.31,16.36,16.36,0,0,0,4.15.32h.09l.74-.06c.37,0,.55-.05.64-.06h.19a16.51,16.51,0,0,0,4-1.15,11.54,11.54,0,0,0,3.1-1.94,8.28,8.28,0,0,0,1.9-2.68,9.59,9.59,0,0,0,6.24,2.78,16.46,16.46,0,0,0,4.15-.29h.09l.72-.17.73-.17h.08a13,13,0,0,0,3.83-1.64,9.48,9.48,0,0,0,4.34-5.22,9.42,9.42,0,0,0,6.53,1.84,14.7,14.7,0,0,0,2.61-.34,12.66,12.66,0,0,0,1.48-.46H322l0,0,.69-.27.69-.27,0,0,.05,0a16.94,16.94,0,0,0,3.59-2.11,9.55,9.55,0,0,0,3.57-5.81,8.26,8.26,0,0,0,3.07,1.13,11.46,11.46,0,0,0,3.66-.15,16.53,16.53,0,0,0,4-1.31l.05,0,0,0,.64-.37.65-.37,0,0,0,0a15.94,15.94,0,0,0,3.25-2.61,9.09,9.09,0,0,0,2.78-6.22,8.18,8.18,0,0,0,3.19.7,10.94,10.94,0,0,0,1.78-.12,11.18,11.18,0,0,0,1.84-.49,15.85,15.85,0,0,0,3.73-1.86l0,0,0,0,.6-.43.61-.43,0,0,0,0a15.51,15.51,0,0,0,2.85-3,11.47,11.47,0,0,0,1.67-3.26,7.92,7.92,0,0,0,.27-3.26,9.58,9.58,0,0,0,6.78-.8,15.82,15.82,0,0,0,3.41-2.37l0,0,0,0,.54-.51.54-.52,0,0,0,0c.19-.19.58-.59,1-1.15a14.56,14.56,0,0,0,1.41-2.22,9.35,9.35,0,0,0,1.07-6.71,9.48,9.48,0,0,0,6.57-1.72,13.23,13.23,0,0,0,3.1-2.78l0,0,0,0,.46-.59.46-.58,0,0,0-.05a15.07,15.07,0,0,0,2-3.64,9.6,9.6,0,0,0,.14-6.81,9.06,9.06,0,0,0,6.28-2.59,14.26,14.26,0,0,0,2.74-3.14l0-.05,0,0,.37-.65.38-.64v0l0-.05a16.35,16.35,0,0,0,1.49-3.89,9.25,9.25,0,0,0-.78-6.77,9.07,9.07,0,0,0,5.91-3.39,16.65,16.65,0,0,0,2.28-3.49l0,0,0,0,.3-.68c.29-.67.29-.69.29-.69v0l0,0a16.57,16.57,0,0,0,.91-4.07,10.67,10.67,0,0,0-.22-3.66,8.23,8.23,0,0,0-1.43-2.94,9.5,9.5,0,0,0,5.42-4.15,16.54,16.54,0,0,0,1.74-3.78l0-.05v0l.2-.71.2-.72v0l0-.06a14.9,14.9,0,0,0,.3-1.51,15.74,15.74,0,0,0,.07-2.64,9.31,9.31,0,0,0-2.49-6.31,9.5,9.5,0,0,0,4.76-4.84,13.28,13.28,0,0,0,1.25-4v-.09s0,0,.09-.73.1-.73.1-.74v-.09a16.63,16.63,0,0,0-.13-4.16,9.64,9.64,0,0,0-3.39-5.93,8.38,8.38,0,0,0,2.48-2.15,11.42,11.42,0,0,0,1.62-3.28,16.32,16.32,0,0,0,.74-4.1v-.09s0,0,0-.74Zm-1.52-2.35-8.56.25a12.87,12.87,0,0,1,.67-2.63l7-.32A12.89,12.89,0,0,1,423.54,267.06Zm-1.21-3.42L416,264a7.92,7.92,0,0,1,3-3.48A6.82,6.82,0,0,1,422.33,263.64Zm-3.49-4.39a7.46,7.46,0,0,1-3.39-3.05l6.35-.52A7.24,7.24,0,0,1,418.84,259.25Zm3.24-4.33-7,.61a17.08,17.08,0,0,1-1-2.52l8.52-.88A10.65,10.65,0,0,1,422.08,254.92Zm.26-6.63s0,0,.09.74l.1.74c0,.22.07.81.07,1.62l-8.75,1a23,23,0,0,1-.54-4.26L422,246.7A13.88,13.88,0,0,1,422.34,248.29Zm-1.82-4.85a13.43,13.43,0,0,1,1.27,2.55l-8.46,1.38a12.6,12.6,0,0,1,.27-2.68Zm-.45-.66L413.8,244a7.51,7.51,0,0,1,2.51-3.85A7.1,7.1,0,0,1,420.07,242.78Zm-4-3.9a7.69,7.69,0,0,1-3.83-2.56l6.23-1.36A7,7,0,0,1,416.08,238.88Zm2.57-4.71-6.87,1.54a12.85,12.85,0,0,1-1.3-2.37l8.33-2A14.19,14.19,0,0,1,418.65,234.17ZM417.47,226c.32.74.5,1.31.57,1.51,0,0,0,0,.2.73s.2.71.21.72a15.6,15.6,0,0,1,.3,1.58l-8.53,2.11a16.47,16.47,0,0,1-.69-2,15.7,15.7,0,0,1-.49-2.09Zm-.32-.67-8.2,2.5a15.34,15.34,0,0,1,0-2.72l6.69-2.17A11.71,11.71,0,0,1,417.15,225.37Zm-2.07-3-6.06,2a7.43,7.43,0,0,1,1.93-4.13A7.23,7.23,0,0,1,415.08,222.39Zm-4.53-3.31a8,8,0,0,1-4.09-2l6-2.19A6.82,6.82,0,0,1,410.55,219.08Zm1.95-5-6.6,2.44a12.8,12.8,0,0,1-1.64-2.15l8-3.12A13.7,13.7,0,0,1,412.5,214.06ZM411,207.57s0,0,.31.69.28.69.28.69a12.86,12.86,0,0,1,.47,1.55l-8.17,3.24a17.5,17.5,0,0,1-.89-2,14.91,14.91,0,0,1-.79-2l8-3.63A14.1,14.1,0,0,1,411,207.57Zm-1.2-2L402,209.12a12.3,12.3,0,0,1-.4-2.69l6.34-3.05A14,14,0,0,1,409.82,205.54Zm-2.45-2.67-5.73,2.79A7.74,7.74,0,0,1,403,201.3,6.91,6.91,0,0,1,407.37,202.87Zm-4.94-2.68a7.4,7.4,0,0,1-4.3-1.48l5.64-3A7.18,7.18,0,0,1,402.43,200.19Zm1.3-5.25-6.21,3.3a12.2,12.2,0,0,1-1.95-1.9l7.5-4.15A12.89,12.89,0,0,1,403.73,194.94Zm-2.36-6.21s0,0,.37.65.37.64.37.65a11.2,11.2,0,0,1,.69,1.46l-7.67,4.3A15.76,15.76,0,0,1,394,194c-.46-.78-.69-1.27-1-1.9l7.45-4.67A9.51,9.51,0,0,1,401.37,188.73Zm-1.45-1.87-7.24,4.59a13.46,13.46,0,0,1-.78-2.59l5.88-3.87A13,13,0,0,1,399.92,186.86Zm-2.82-2.3-5.3,3.53a7.8,7.8,0,0,1,.8-4.52A6.77,6.77,0,0,1,397.1,184.56Zm-5.22-2a7.49,7.49,0,0,1-4.49-.87l5.19-3.7A7,7,0,0,1,391.88,182.55Zm-.43-8a10.1,10.1,0,0,1,1,2.66l-5.71,4.1a19.12,19.12,0,0,1-2.15-1.64Zm-2.18-3.18.46.59.47.59a15.39,15.39,0,0,1,.89,1.35l-7,5.28a15.3,15.3,0,0,1-1.41-1.62,14.5,14.5,0,0,1-1.24-1.75l6.76-5.62C388.75,170.73,389.13,171.19,389.27,171.35Zm-1.65-1.68-6.56,5.51a14.13,14.13,0,0,1-1.13-2.46l5.31-4.61A12.11,12.11,0,0,1,387.62,169.67Zm-3.11-1.89-4.79,4.2a7.46,7.46,0,0,1,.19-4.58A7,7,0,0,1,384.51,167.78Zm-5.42-1.32a7.59,7.59,0,0,1-4.6-.25l4.66-4.35A7.05,7.05,0,0,1,379.09,166.46Zm-.2-5.36-5.12,4.83a12.57,12.57,0,0,1-2.32-1.37l6.13-6A13.19,13.19,0,0,1,378.89,161.1Zm-3.9-5.37.54.51.55.52a14.43,14.43,0,0,1,1.07,1.21l-6.27,6.17a14.47,14.47,0,0,1-1.62-1.41,16.05,16.05,0,0,1-1.49-1.55l6-6.47A12.32,12.32,0,0,1,375,155.73Zm-1.87-1.44-5.78,6.33a17.4,17.4,0,0,1-1.41-2.31l4.65-5.28A10.75,10.75,0,0,1,373.12,154.29Zm-7.94-1.23a7.19,7.19,0,0,1,4.63-.26l-4.19,4.81A7.46,7.46,0,0,1,365.18,153.06Zm-1.47-5.41a8.42,8.42,0,0,1,.67,2.17,6.66,6.66,0,0,1-.14,2.42,8,8,0,0,1-4.57.34Zm-.36-.71-4.43,5.46a12.48,12.48,0,0,1-2.51-1l5.29-6.74A13.44,13.44,0,0,1,363.35,146.94Zm-4.57-4.82.61.43.61.44a9.74,9.74,0,0,1,1.19,1.09L355.8,151c-.61-.37-1-.7-1.78-1.21a15.41,15.41,0,0,1-1.68-1.33l5-7.2A15.79,15.79,0,0,1,358.78,142.12ZM354,140a13.78,13.78,0,0,1,2.68.92l-4.89,7a12.8,12.8,0,0,1-1.7-2.12Zm-5.35.75a7.28,7.28,0,0,1,4.57-.9l-3.52,5.32A7.35,7.35,0,0,1,348.69,140.79Zm-2.16-5.19a7.12,7.12,0,0,1,1.11,4.52,7.53,7.53,0,0,1-4.46.9Zm-.46-.65-3.67,6a12.78,12.78,0,0,1-2.63-.66l4.34-7.39A13.33,13.33,0,0,1,346.07,135Zm-5.17-4.18.65.37.65.37a12.88,12.88,0,0,1,1.34.93L339.11,140a14.94,14.94,0,0,1-1.9-1c-.78-.47-1.27-.69-1.85-1.1l4-7.81A12.59,12.59,0,0,1,340.9,130.77Zm-2.21-.85-3.9,7.63a12.85,12.85,0,0,1-2-1.85l3.1-6.32A13.57,13.57,0,0,1,338.69,129.92Zm-5.83-.26a8.25,8.25,0,0,1,2.25-.31l-2.78,5.75a8.6,8.6,0,0,1-1.09-2,6.62,6.62,0,0,1-.52-2.31A6.85,6.85,0,0,1,332.86,129.66Zm-5-3.67a7.07,7.07,0,0,1,1.71,4.31,7.47,7.47,0,0,1-4.31,1.51Zm-.53-.61-2.83,6.43a15.36,15.36,0,0,1-2.7-.3l3.32-7.9A11.06,11.06,0,0,1,327.34,125.38Zm-5.7-3.41a6.42,6.42,0,0,1,.7.27l.7.28a14.84,14.84,0,0,1,1.45.71l-3.37,8.13a16.29,16.29,0,0,1-2-.69,17.73,17.73,0,0,1-2-.89l3-8.28A12.26,12.26,0,0,1,321.64,122Zm-2.28-.61-2.84,8.08a12.14,12.14,0,0,1-2.22-1.53l2.22-6.67A13.62,13.62,0,0,1,319.36,121.36Zm-3.64,0-2,6.06a7.57,7.57,0,0,1-2.17-4.06A7.05,7.05,0,0,1,315.72,121.32ZM310.38,123a7.63,7.63,0,0,1-4.08,2.12l1.79-6.12A7.07,7.07,0,0,1,310.38,123Zm-2.9-4.52-1.94,6.76a12.79,12.79,0,0,1-2.7,0l2.23-8.27A13,13,0,0,1,307.48,118.44Zm-6.1-2.63.73.17.73.17a12.42,12.42,0,0,1,1.54.49l-2.24,8.5a15.61,15.61,0,0,1-2.11-.38,16.13,16.13,0,0,1-2.07-.58l1.82-8.6A12.58,12.58,0,0,1,301.38,115.81Zm-2.34-.28-1.73,8.39a18.23,18.23,0,0,1-2.4-1.27l1.3-6.91A10.09,10.09,0,0,1,299,115.53Zm-3.61.41-1.15,6.27a7.49,7.49,0,0,1-2.7-3.69A7.22,7.22,0,0,1,295.43,115.94Zm-6.19.21a6.77,6.77,0,0,1,1.12,2.15,6.63,6.63,0,0,1-1.74,1.62,8.88,8.88,0,0,1-2,1l1-6.31A8.09,8.09,0,0,1,289.24,116.15Zm-2.36-2-1,7a12.53,12.53,0,0,1-2.68.4l1.1-8.5A13.66,13.66,0,0,1,286.88,114.2Zm-8-1.8a15.37,15.37,0,0,1,1.62,0l.75.06a4,4,0,0,1,.63.07H282a16.07,16.07,0,0,1,1.59.33l-1.09,8.73c-.71,0-1.24-.07-2.14-.15a16.19,16.19,0,0,1-2.13-.27Zm-3.52.64a13.54,13.54,0,0,1,2.78-.58l-.6,8.55a13.4,13.4,0,0,1-2.55-.94Zm-.74.28-.31,6.37a7.8,7.8,0,0,1-3.16-3.29A6.88,6.88,0,0,1,274.61,113.32Zm-8-.26a7.21,7.21,0,0,1,3.26,3.31,7.39,7.39,0,0,1-3.37,3.07Zm-.72-.35-.1,7a14.82,14.82,0,0,1-2.6.79l0-8.57A11.23,11.23,0,0,1,265.91,112.71Zm-6.58-.91.75,0,.75,0a15.06,15.06,0,0,1,1.61.1l.08,8.79a18.22,18.22,0,0,1-2.14.16,16.23,16.23,0,0,1-2.15,0l-.51-8.78A15,15,0,0,1,259.33,111.8Zm-2.33.32.53,8.56a12.91,12.91,0,0,1-2.64-.54l-.56-7A14,14,0,0,1,257,112.12Zm-3.37,1.39.53,6.36a7.58,7.58,0,0,1-3.57-2.89A7.06,7.06,0,0,1,253.63,113.51Zm-4.28,3.58a7.66,7.66,0,0,1-2.94,3.55l-.72-6.34A7,7,0,0,1,249.35,117.09Zm-4.43-3,.84,7a13.37,13.37,0,0,1-2.48,1.06l-1.17-8.49A13.89,13.89,0,0,1,244.92,114.06Zm-6.64-.06.74-.13.73-.13a15,15,0,0,1,1.61-.15l1.24,8.71a21.54,21.54,0,0,1-4.22.75l-1.67-8.63A14,14,0,0,1,238.28,114Zm-2.27.66,1.67,8.41a12.82,12.82,0,0,1-2.71-.26l-1.49-6.88A12.74,12.74,0,0,1,236,114.66Zm-3.17,1.76,1.38,6.23a7.36,7.36,0,0,1-3.91-2.33A7.22,7.22,0,0,1,232.84,116.42Zm-3.75,4.18a7.79,7.79,0,0,1-2.44,3.85l-1.57-6.18A6.86,6.86,0,0,1,229.09,120.6Zm-4.8-2.45,1.76,6.81a12.5,12.5,0,0,1-2.3,1.42l-2.29-8.26A13.48,13.48,0,0,1,224.29,118.15Zm-6.6.81.71-.23.73-.21c.2,0,.78-.19,1.59-.31l2.39,8.46a16.47,16.47,0,0,1-2,.69,18.72,18.72,0,0,1-2.07.58l-2.81-8.33A15.1,15.1,0,0,1,217.69,119Zm-2.15,1,2.78,8.11a12.25,12.25,0,0,1-2.7.13l-2.4-6.61A13.17,13.17,0,0,1,215.54,120Zm-2.9,2.18,2.2,6a8,8,0,0,1-4.2-1.81A6.88,6.88,0,0,1,212.64,122.13Zm-3.16,4.64a7.42,7.42,0,0,1-1.9,4.14L205.19,125A7.08,7.08,0,0,1,209.48,126.77Zm-5.1-1.82,2.67,6.51A14.14,14.14,0,0,1,205,133.2l-3.38-7.87A12.38,12.38,0,0,1,204.38,125ZM198,126.69l.68-.31.69-.31a13,13,0,0,1,1.52-.55l3.51,8.07a24,24,0,0,1-3.91,1.77l-3.9-7.88A12.22,12.22,0,0,1,198,126.69Zm-2,1.23,3.84,7.66a13.49,13.49,0,0,1-2.65.53l-3.26-6.24A13.26,13.26,0,0,1,196,127.92Zm-2.56,2.58,3,5.64a7.67,7.67,0,0,1-4.43-1.27A7,7,0,0,1,193.4,130.5Zm-2.53,5a7.5,7.5,0,0,1-1.32,4.39l-3.15-5.54A7.12,7.12,0,0,1,190.87,135.49Zm-5.27-1.07,3.51,6.09a16.91,16.91,0,0,1-1.86,2l-4.41-7.35A11.13,11.13,0,0,1,185.6,134.42ZM179.47,137l.63-.41.63-.4a14.7,14.7,0,0,1,1.43-.76l4.56,7.52a15.74,15.74,0,0,1-1.75,1.25,15.18,15.18,0,0,1-1.87,1.07L178.18,138A15.47,15.47,0,0,1,179.47,137Zm-1.84,1.48,4.83,7.08a18.68,18.68,0,0,1-2.56.86l-4.07-5.74A10.51,10.51,0,0,1,177.63,138.46Zm-2.2,2.89,3.71,5.19a7.5,7.5,0,0,1-4.54-.64A7.23,7.23,0,0,1,175.43,141.35Zm-1.84,5.27a7.83,7.83,0,0,1-.71,4.55L169,146.1A6.88,6.88,0,0,1,173.59,146.62Zm-5.36-.34,4.29,5.57a12.25,12.25,0,0,1-1.58,2.19l-5.34-6.7A13.34,13.34,0,0,1,168.23,146.28Zm-5.74,3.34.57-.49.57-.49a11.36,11.36,0,0,1,1.32-.94l5.51,6.85a21.43,21.43,0,0,1-1.57,1.48,14.92,14.92,0,0,1-1.68,1.32l-5.85-6.57C161.9,150.18,162.33,149.77,162.49,149.62Zm-1.6,1.73,5.72,6.38a13.45,13.45,0,0,1-2.46,1.16l-4.79-5.16A12.35,12.35,0,0,1,160.89,151.35Zm-1.83,3.13,4.37,4.65a7.32,7.32,0,0,1-4.56,0A7.26,7.26,0,0,1,159.06,154.48ZM158,160a7.91,7.91,0,0,1-.12,4.56L153.33,160A6.8,6.8,0,0,1,158,160Zm-5.37.34,5,5a13.1,13.1,0,0,1-1.26,2.4l-6.18-5.94A13.74,13.74,0,0,1,152.59,160.33Zm-5.25,4.07s0,0,.49-.57c.23-.27.36-.4.43-.47l.07-.08a15.87,15.87,0,0,1,1.21-1.08l6.37,6.06a17.69,17.69,0,0,1-1.39,1.63,15,15,0,0,1-1.48,1.55l-6.66-5.73A12.44,12.44,0,0,1,147.34,164.4ZM146,166.34l6.52,5.56a12.75,12.75,0,0,1-2.27,1.49l-5.43-4.47A12.85,12.85,0,0,1,146,166.34Zm-1.4,3.34,4.94,4a7.67,7.67,0,0,1-4.52.6A7.06,7.06,0,0,1,144.59,169.68Zm-.35,5.61a7.32,7.32,0,0,1,.45,4.52l-5.06-3.87A7.27,7.27,0,0,1,144.24,175.29Zm-5.31,1,5.61,4.25a13.13,13.13,0,0,1-.91,2.56l-6.92-5.06A13.85,13.85,0,0,1,138.93,176.32Zm-4.65,4.74.43-.61.43-.61c.13-.17.5-.65,1.05-1.24l7.12,5.16a16.65,16.65,0,0,1-1.16,1.81c-.53.73-.85,1.16-1.29,1.71l-7.37-4.8A9.2,9.2,0,0,1,134.28,181.06Zm-1.09,2.1,7.2,4.65a11.67,11.67,0,0,1-2,1.79l-6-3.71A14.24,14.24,0,0,1,133.19,183.16Zm-.91,3.52,5.44,3.34a8,8,0,0,1-4.44,1.17A6.83,6.83,0,0,1,132.28,186.68Zm.38,5.59a7.55,7.55,0,0,1,1.08,4.44l-5.53-3.17A7.17,7.17,0,0,1,132.66,192.27ZM127.55,194l6.12,3.47a18.6,18.6,0,0,1-.58,2.64L125.56,196A9.94,9.94,0,0,1,127.55,194Zm-3.29,4a12.71,12.71,0,0,1,.86-1.37l7.74,4.16a15.69,15.69,0,0,1-.88,2,15.88,15.88,0,0,1-1.08,1.86L123,200.83a13,13,0,0,1,.62-1.49s0,0,.34-.67Zm-1.53,3.54,7.76,3.64a12.54,12.54,0,0,1-1.74,2.06l-6.42-2.88A13.68,13.68,0,0,1,122.73,201.54Zm-.39,3.62,5.83,2.58a7.6,7.6,0,0,1-4.25,1.75A7,7,0,0,1,122.34,205.16Zm1.08,5.47a7.67,7.67,0,0,1,1.71,4.28l-5.91-2.4A7,7,0,0,1,123.42,210.63Zm-4.78,2.43,6.53,2.62a12.72,12.72,0,0,1-.27,2.68l-8-3A12.94,12.94,0,0,1,118.64,213.06Zm-2.76,4.39a15.53,15.53,0,0,1,.65-1.49l8.23,3.09a15.33,15.33,0,0,1-.59,2.07,16.13,16.13,0,0,1-.78,2L115,220.44c.16-.79.33-1.37.39-1.57,0,0,0,0,.24-.71Zm-1,3.72,8.18,2.57a15.65,15.65,0,0,1-1.52,2.25l-6.74-2A10.91,10.91,0,0,1,114.89,221.17Zm0,3.63,6.12,1.78a7.47,7.47,0,0,1-3.93,2.31A7.22,7.22,0,0,1,114.93,224.8Zm1.85,5.29a8,8,0,0,1,2.23,4l-6.18-1.59A6.77,6.77,0,0,1,116.78,230.09Zm-4.44,3,6.82,1.72a12.8,12.8,0,0,1,.14,2.7L111,235.61A13.32,13.32,0,0,1,112.34,233.13ZM110.15,238l0-.11a14.56,14.56,0,0,1,.49-1.54l8.57,1.95a19.6,19.6,0,0,1-.36,2.12,16.34,16.34,0,0,1-.48,2.09l-8.66-1.53a14.13,14.13,0,0,1,.16-1.62l.13-.73C110.09,238.22,110.13,238,110.15,238Zm-.42,3.72,8.45,1.45a13.26,13.26,0,0,1-1.19,2.44l-7-1.07A13.9,13.9,0,0,1,109.73,241.67Zm.51,3.59,6.31.94A7.85,7.85,0,0,1,113,249,6.91,6.91,0,0,1,110.24,245.26Zm2.56,5a7.33,7.33,0,0,1,2.72,3.66l-6.34-.75A7.27,7.27,0,0,1,112.8,250.26Zm-4,3.6,7,.79a13.15,13.15,0,0,1,.53,2.66l-8.53-.81A12.12,12.12,0,0,1,108.76,253.86Zm-1.55,6.46s0,0,.05-.75.06-.74.06-.75a14.72,14.72,0,0,1,.26-1.6l8.75.8a14.55,14.55,0,0,1-.06,2.14,16.32,16.32,0,0,1-.26,2.13l-8.79-.36A12.06,12.06,0,0,1,107.21,260.32Zm.1,2.35,8.57.31a12.63,12.63,0,0,1-.81,2.58l-7-.14A14.1,14.1,0,0,1,107.31,262.67Zm1,3.49,6.37.1a7.7,7.7,0,0,1-3.23,3.27A7,7,0,0,1,108.36,266.16Zm3.14,4.61a7.64,7.64,0,0,1,3.23,3.27l-6.37.1A7,7,0,0,1,111.5,270.77Zm-3.46,4.1,7-.13a12.37,12.37,0,0,1,.81,2.57l-8.57.32A14.18,14.18,0,0,1,108,274.87Zm-.72,6.61s0,0-.06-.75-.05-.74-.05-.75a12.06,12.06,0,0,1,0-1.61L116,278a16.32,16.32,0,0,1,.26,2.13,14.72,14.72,0,0,1,.06,2.15l-8.75.8A14.72,14.72,0,0,1,107.32,281.48Zm.43,2.32,8.53-.82a13.1,13.1,0,0,1-.53,2.67l-7,.79A12.12,12.12,0,0,1,107.75,283.8Zm1.43,3.32,6.34-.74A7.37,7.37,0,0,1,112.8,290,7.23,7.23,0,0,1,109.18,287.12Zm3.78,4.16a7.85,7.85,0,0,1,3.59,2.82l-6.31.94A6.91,6.91,0,0,1,113,291.28ZM110,295.81l7-1.07a13.19,13.19,0,0,1,1.19,2.43l-8.45,1.46A13.83,13.83,0,0,1,110,295.81Zm.15,6.65,0-.11c0-.09-.06-.27-.12-.63l-.13-.74a13.59,13.59,0,0,1-.16-1.61l8.66-1.53a16,16,0,0,1,.48,2.09,19.88,19.88,0,0,1,.36,2.11l-8.57,2C110.39,303.24,110.23,302.66,110.18,302.46Zm2.16,4.71a13.65,13.65,0,0,1-1.39-2.48l8.35-1.94a12.8,12.8,0,0,1-.14,2.7Zm.49.63,6.18-1.59a8,8,0,0,1-2.23,4A6.82,6.82,0,0,1,112.83,307.8Zm4.29,3.61a7.41,7.41,0,0,1,3.93,2.31l-6.12,1.78A7.19,7.19,0,0,1,117.12,311.41Zm-2.31,4.88,6.74-2a15.7,15.7,0,0,1,1.52,2.26l-8.18,2.57A11,11,0,0,1,114.81,316.29Zm1.72,8c-.36-.72-.57-1.28-.65-1.48,0,0,0,0-.24-.71s-.23-.7-.24-.71c-.06-.2-.23-.78-.39-1.57l8.38-2.68a15.53,15.53,0,0,1,.78,2,15.23,15.23,0,0,1,.59,2.06Zm.37.65,8-3.05a12.88,12.88,0,0,1,.27,2.69l-6.53,2.61A12.53,12.53,0,0,1,116.9,325Zm2.32,2.81,5.91-2.4a7.67,7.67,0,0,1-1.71,4.27A7,7,0,0,1,119.22,327.79Zm4.7,3a7.59,7.59,0,0,1,4.25,1.74l-5.83,2.59A7,7,0,0,1,123.92,330.81Zm-1.19,7.95a13.68,13.68,0,0,1-.4-2.82l6.42-2.88a12.14,12.14,0,0,1,1.74,2.06Zm1.53,3.54s0,0-.34-.67-.34-.66-.34-.67a13,13,0,0,1-.62-1.49l7.94-3.78a15.88,15.88,0,0,1,1.08,1.86,15.06,15.06,0,0,1,.88,2l-7.74,4.16A12.71,12.71,0,0,1,124.26,342.3Zm1.3,2,7.53-4.1a19.07,19.07,0,0,1,.58,2.65l-6.12,3.47A9.94,9.94,0,0,1,125.56,344.27Zm2.65,2.48,5.53-3.17a7.56,7.56,0,0,1-1.08,4.45A7.12,7.12,0,0,1,128.21,346.75Zm5.07,2.36a7.93,7.93,0,0,1,4.44,1.17l-5.44,3.34A6.81,6.81,0,0,1,133.28,349.11Zm-.09,8a14.35,14.35,0,0,1-.8-2.72l6-3.71a11.67,11.67,0,0,1,2,1.79Zm1.95,3.33-.43-.61-.43-.62a8.44,8.44,0,0,1-.79-1.41l7.37-4.8c.44.55.76,1,1.29,1.71a16.61,16.61,0,0,1,1.16,1.8l-7.12,5.16A15.18,15.18,0,0,1,135.14,360.46Zm1.57,1.76,6.92-5.06a13.37,13.37,0,0,1,.91,2.56L138.93,364A13.34,13.34,0,0,1,136.71,362.22Zm2.92,2.14,5.06-3.88a7.35,7.35,0,0,1-.45,4.53A7.27,7.27,0,0,1,139.63,364.36ZM145,366a7.75,7.75,0,0,1,4.52.59l-4.94,4A7.06,7.06,0,0,1,145,366Zm-.2,5.39,5.43-4.47a12.73,12.73,0,0,1,2.27,1.48L146,374A12.85,12.85,0,0,1,144.81,371.38Zm3.52,5.64-.07-.08a6,6,0,0,1-.43-.48l-.49-.56a13.7,13.7,0,0,1-1-1.31l6.66-5.74a16.11,16.11,0,0,1,1.48,1.55,19.11,19.11,0,0,1,1.39,1.64l-6.37,6A14.43,14.43,0,0,1,148.33,377Zm1.81,1.53,6.18-5.94a12.78,12.78,0,0,1,1.26,2.4l-5,5A13.74,13.74,0,0,1,150.14,378.55Zm7.82,1.76a6.8,6.8,0,0,1-4.63-.05l4.51-4.52A8,8,0,0,1,158,380.31Zm.91.86a7.47,7.47,0,0,1,4.56,0l-4.37,4.65A7.25,7.25,0,0,1,158.87,381.17Zm2,7.78a12.14,12.14,0,0,1-1.53-2.39l4.79-5.15a13.45,13.45,0,0,1,2.46,1.16Zm2.74,2.7-.57-.49-.57-.49a14.47,14.47,0,0,1-1.13-1.16l5.85-6.56a14.92,14.92,0,0,1,1.68,1.32c.69.59,1.07,1,1.57,1.47L165,392.59A9.28,9.28,0,0,1,163.63,391.65Zm2,1.3,5.34-6.7a12.62,12.62,0,0,1,1.58,2.19L168.23,394A13.34,13.34,0,0,1,165.6,393Zm8,.72a6.89,6.89,0,0,1-4.58.53l3.87-5.07A7.79,7.79,0,0,1,173.59,393.67Zm1.84,5.27a7.19,7.19,0,0,1-.83-4.54,7.5,7.5,0,0,1,4.54-.64Zm.4.7,4.07-5.74a18.68,18.68,0,0,1,2.56.86l-4.83,7.08A10.77,10.77,0,0,1,175.83,399.64Zm4.9,4.49-.63-.41-.63-.4a15.47,15.47,0,0,1-1.29-1l4.92-7.29a14,14,0,0,1,1.87,1.07,17.21,17.21,0,0,1,1.75,1.24l-4.56,7.53A14.7,14.7,0,0,1,180.73,404.13Zm2.11,1.05,4.41-7.35a16.91,16.91,0,0,1,1.86,2l-3.51,6.09A11.13,11.13,0,0,1,182.84,405.18Zm3.56.77,3.15-5.54a7.54,7.54,0,0,1,1.32,4.4A7,7,0,0,1,186.4,406Zm5.55-.52a7.67,7.67,0,0,1,4.43-1.27l-3,5.63A6.94,6.94,0,0,1,192,405.43Zm4,6.95a13.76,13.76,0,0,1-2.07-1.95l3.26-6.24a12.18,12.18,0,0,1,2.65.53Zm3.38,1.85-.69-.31-.68-.31a12.22,12.22,0,0,1-1.41-.79l3.9-7.88a22,22,0,0,1,3.91,1.77l-3.51,8.06A13.65,13.65,0,0,1,199.34,414.23Zm2.24.74,3.38-7.88a15.51,15.51,0,0,1,2.09,1.74l-2.67,6.51A11.86,11.86,0,0,1,201.58,415Zm3.61.33,2.39-5.91a7.42,7.42,0,0,1,1.9,4.14A7.2,7.2,0,0,1,205.19,415.3Zm5.45-1.31a8,8,0,0,1,4.2-1.81l-2.2,6A6.88,6.88,0,0,1,210.64,414Zm2.58,4.73,2.4-6.62a12.85,12.85,0,0,1,2.7.14l-2.78,8.1A13.63,13.63,0,0,1,213.22,418.72Zm5.91,3-.73-.2-.71-.24a14.13,14.13,0,0,1-1.49-.64l2.81-8.33a18.72,18.72,0,0,1,2.07.58,16.47,16.47,0,0,1,2,.69l-2.39,8.46A13.13,13.13,0,0,1,219.13,421.77Zm2.33.4,2.29-8.25a12,12,0,0,1,2.3,1.42l-1.76,6.81A13.44,13.44,0,0,1,221.46,422.17Zm3.62-.14,1.57-6.19a7.86,7.86,0,0,1,2.44,3.86A6.91,6.91,0,0,1,225.08,422Zm5.23-2a7.36,7.36,0,0,1,3.91-2.33l-1.38,6.22A7.19,7.19,0,0,1,230.31,420Zm3.17,4.39,1.49-6.88a12.82,12.82,0,0,1,2.71-.26l-1.67,8.4A13.22,13.22,0,0,1,233.48,424.37Zm6.27,2.19-.73-.13-.74-.14a13.17,13.17,0,0,1-1.57-.41l1.67-8.63a14.4,14.4,0,0,1,2.13.27,16,16,0,0,1,2.09.48l-1.24,8.7A13.44,13.44,0,0,1,239.75,426.56Zm2.36.12,1.17-8.49a12.14,12.14,0,0,1,2.48,1.06l-.84,7A13.89,13.89,0,0,1,242.11,426.68Zm3.58-.69.72-6.33a7.61,7.61,0,0,1,2.94,3.55A7,7,0,0,1,245.69,426Zm7.94.79a7,7,0,0,1-3-3.46,7.52,7.52,0,0,1,3.57-2.89Zm3.37,1.39a12.8,12.8,0,0,1-2.67-1l.56-7a12.91,12.91,0,0,1,2.64-.54Zm5.44.27a12,12,0,0,1-1.61.09h-.75l-.75,0a15,15,0,0,1-1.61-.18l.51-8.78a16.23,16.23,0,0,1,2.15-.05,14.73,14.73,0,0,1,2.14.16Zm.74-.1,0-8.57a14.82,14.82,0,0,1,2.6.79l.1,7A11.23,11.23,0,0,1,263.18,428.34Zm3.45-1.11-.11-6.37a7.34,7.34,0,0,1,3.37,3.07A7.14,7.14,0,0,1,266.63,427.23Zm4.51-3.33a7.88,7.88,0,0,1,3.16-3.3l.31,6.37A6.86,6.86,0,0,1,271.14,423.9Zm4.21,3.35-.37-7a12.75,12.75,0,0,1,2.55-.94l.6,8.55A13,13,0,0,1,275.35,427.25Zm6.63.53h-.11l-.63.07-.75.05a12.23,12.23,0,0,1-1.62,0l-.66-8.76a14.66,14.66,0,0,1,2.13-.27,20,20,0,0,1,2.14-.15l1.09,8.72A14.35,14.35,0,0,1,282,427.78Zm2.3-.55-1.1-8.5a12.58,12.58,0,0,1,2.68.41l1,7A13,13,0,0,1,284.28,427.23Zm5-3.08a8.09,8.09,0,0,1-1.68,1.53l-1-6.31a8.88,8.88,0,0,1,2,1,6.76,6.76,0,0,1,1.74,1.61A6.82,6.82,0,0,1,289.24,424.15Zm2.34-2.38a7.47,7.47,0,0,1,2.7-3.68l1.15,6.27A7.19,7.19,0,0,1,291.58,421.77Zm4.63,2.79-1.3-6.91a17.11,17.11,0,0,1,2.4-1.27l1.73,8.39A10.48,10.48,0,0,1,296.21,424.56Zm6.63-.41-.73.17-.73.17a14.87,14.87,0,0,1-1.6.23l-1.82-8.6a14.65,14.65,0,0,1,2.07-.58,14.19,14.19,0,0,1,2.11-.38l2.24,8.5A14.56,14.56,0,0,1,302.84,424.15Zm2.23-.78-2.23-8.27a12.79,12.79,0,0,1,2.7,0l1.94,6.76A13,13,0,0,1,305.07,423.37Zm3-2-1.79-6.12a7.56,7.56,0,0,1,4.08,2.12A7.07,7.07,0,0,1,308.09,421.34Zm3.48-4.36a7.63,7.63,0,0,1,2.17-4.07l2,6.07A7.05,7.05,0,0,1,311.57,417Zm4.95,2.08-2.22-6.67a12.23,12.23,0,0,1,2.22-1.54l2.84,8.09A13.62,13.62,0,0,1,316.52,419.06Zm6.52-1.28-.7.28-.7.27a12.26,12.26,0,0,1-1.55.47l-3-8.28a14.67,14.67,0,0,1,2-.89,16.29,16.29,0,0,1,2-.69l3.37,8.12A13.5,13.5,0,0,1,323,417.78Zm2.09-1.09-3.32-7.91a17.53,17.53,0,0,1,2.7-.3l2.83,6.44A11.06,11.06,0,0,1,325.13,416.69Zm2.74-2.38-2.6-5.82a7.47,7.47,0,0,1,4.31,1.51A7.12,7.12,0,0,1,327.87,414.31Zm5-3.68a6.62,6.62,0,0,1-2.14-1.14,6.68,6.68,0,0,1,.52-2.32,8.74,8.74,0,0,1,1.09-2l2.78,5.74A7.54,7.54,0,0,1,332.86,410.63Zm3.05.28-3.1-6.32a12.75,12.75,0,0,1,2-1.84l3.9,7.63A13.59,13.59,0,0,1,335.91,410.91Zm6.29-2.13-.65.38-.65.37a14.68,14.68,0,0,1-1.5.62l-4-7.81c.58-.41,1.07-.63,1.85-1.1a16.59,16.59,0,0,1,1.9-1l4.43,7.6A12.21,12.21,0,0,1,342.2,408.78Zm1.91-1.39L339.77,400a12.17,12.17,0,0,1,2.63-.66l3.67,6A12.79,12.79,0,0,1,344.11,407.39Zm2.42-2.69-3.35-5.43a7.54,7.54,0,0,1,4.46.91A7.15,7.15,0,0,1,346.53,404.7Zm.93-6h0v0a10.26,10.26,0,0,0-6.62-.31,15.12,15.12,0,0,0-4.19,1.76,17.81,17.81,0,0,0-3.74,2.58,11.08,11.08,0,0,0-2.19,2.78,8.52,8.52,0,0,0-1.1,3h0v0a9.72,9.72,0,0,0-6.51-1.17,15.64,15.64,0,0,0-4.41,1.13,21.24,21.24,0,0,0-4,2.09,9.86,9.86,0,0,0-4,5.3l0,0v0a9.77,9.77,0,0,0-6.31-2.1,20.94,20.94,0,0,0-4.51.55,16,16,0,0,0-4.28,1.57,9.74,9.74,0,0,0-4.71,4.64h0v0a8.54,8.54,0,0,0-2.6-1.85,11.36,11.36,0,0,0-3.37-1.05,16.75,16.75,0,0,0-4.55,0,15.78,15.78,0,0,0-4.45.9,12.64,12.64,0,0,0-3.11,1.69,8.43,8.43,0,0,0-2.17,2.33l0,0v0a9.83,9.83,0,0,0-5.54-3.62,15.57,15.57,0,0,0-4.5-.68,20.81,20.81,0,0,0-4.54.35,9.83,9.83,0,0,0-5.77,3.32v0l0,0a10,10,0,0,0-5-4.39,14.46,14.46,0,0,0-2.4-.78c-.73-.21-1.4-.34-2-.45a16.06,16.06,0,0,0-4.55-.24,10,10,0,0,0-6.14,2.46v0l0,0a10.49,10.49,0,0,0-4.38-5,22.62,22.62,0,0,0-8.63-2.67,12.14,12.14,0,0,0-3.52.35,8.31,8.31,0,0,0-2.91,1.29v0h0a9.86,9.86,0,0,0-3.68-5.5,15.66,15.66,0,0,0-3.88-2.38,19.33,19.33,0,0,0-1.88-.75,14.69,14.69,0,0,0-2.43-.71,10.15,10.15,0,0,0-6.6.78v0h0a9.81,9.81,0,0,0-2.9-6,19,19,0,0,0-3.53-2.87,17.91,17.91,0,0,0-4.09-2,9.71,9.71,0,0,0-6.63-.13v0h0a10.23,10.23,0,0,0-2.06-6.32,14,14,0,0,0-1.66-1.9c-.54-.55-1-1-1.48-1.39a15.87,15.87,0,0,0-3.78-2.53,10,10,0,0,0-6.54-1v0h0a8.52,8.52,0,0,0-.06-3.18,11.77,11.77,0,0,0-1.16-3.34,16.34,16.34,0,0,0-2.7-3.66,15.52,15.52,0,0,0-3.37-3,10.38,10.38,0,0,0-6.37-1.87v0h0a8.67,8.67,0,0,0,.38-3.18,13.82,13.82,0,0,0-.74-3.44,15.45,15.45,0,0,0-2.16-4,19.75,19.75,0,0,0-2.95-3.46,10.37,10.37,0,0,0-6.08-2.68v0h0a9.73,9.73,0,0,0,.52-6.6,16.41,16.41,0,0,0-1.57-4.27,20.35,20.35,0,0,0-2.49-3.81,9.87,9.87,0,0,0-5.68-3.47l0,0h0a9.9,9.9,0,0,0,1.45-6.49,20.89,20.89,0,0,0-1-4.44,15.58,15.58,0,0,0-2-4.09,9.74,9.74,0,0,0-5.1-4.22l0,0h0a8.29,8.29,0,0,0,1.58-2.76,11.5,11.5,0,0,0,.71-3.47,16.65,16.65,0,0,0-.45-4.52,15.82,15.82,0,0,0-1.35-4.34,10.44,10.44,0,0,0-4.51-4.85v0h0a9.86,9.86,0,0,0,3.06-5.87,15.64,15.64,0,0,0,.22-4.54,17.2,17.2,0,0,0-.24-2,15.26,15.26,0,0,0-.55-2.47,9.86,9.86,0,0,0-3.87-5.42h0v0a9.8,9.8,0,0,0,3.87-5.41,15.74,15.74,0,0,0,.55-2.47,17.2,17.2,0,0,0,.24-2,15.71,15.71,0,0,0-.22-4.55,9.83,9.83,0,0,0-3.06-5.86h0v0a10.42,10.42,0,0,0,4.51-4.86,15.62,15.62,0,0,0,1.35-4.34,16.61,16.61,0,0,0,.45-4.52,11.5,11.5,0,0,0-.71-3.46,8.43,8.43,0,0,0-1.58-2.77h0a9.74,9.74,0,0,0,5.1-4.22,15.47,15.47,0,0,0,2-4.1,20.64,20.64,0,0,0,1-4.43,9.9,9.9,0,0,0-1.45-6.49h0l0,0a9.77,9.77,0,0,0,5.68-3.47,20.65,20.65,0,0,0,2.49-3.8,16.41,16.41,0,0,0,1.57-4.27,9.73,9.73,0,0,0-.52-6.6h0v0a10.37,10.37,0,0,0,6.08-2.68,19.75,19.75,0,0,0,2.95-3.46,15.62,15.62,0,0,0,2.16-4,13.82,13.82,0,0,0,.74-3.44,8.67,8.67,0,0,0-.38-3.18h0v0a10.38,10.38,0,0,0,6.37-1.87,15.78,15.78,0,0,0,3.37-3,16.34,16.34,0,0,0,2.7-3.66,11.88,11.88,0,0,0,1.16-3.34,8.52,8.52,0,0,0,.06-3.18h0v0a10,10,0,0,0,6.54-1,15.57,15.57,0,0,0,3.78-2.54c.44-.37.94-.84,1.48-1.38a14.14,14.14,0,0,0,1.66-1.91,10.21,10.21,0,0,0,2.06-6.32h0v0a9.71,9.71,0,0,0,6.63-.13,17.48,17.48,0,0,0,4.09-2,18.59,18.59,0,0,0,3.53-2.87,9.76,9.76,0,0,0,2.9-6h0v0a10.09,10.09,0,0,0,6.6.79,14.69,14.69,0,0,0,2.43-.71c.72-.25,1.35-.51,1.88-.75a15.66,15.66,0,0,0,3.88-2.38,9.86,9.86,0,0,0,3.68-5.5h0v0a8.5,8.5,0,0,0,2.91,1.29,12.14,12.14,0,0,0,3.52.35,16,16,0,0,0,4.45-.91,15.26,15.26,0,0,0,4.18-1.77,10.42,10.42,0,0,0,4.38-5h0v0a9.92,9.92,0,0,0,6.14,2.46,15.35,15.35,0,0,0,4.55-.24,18.67,18.67,0,0,0,2-.44,14.56,14.56,0,0,0,2.4-.79,9.9,9.9,0,0,0,5-4.39l0,0v0a9.82,9.82,0,0,0,5.77,3.31,20.91,20.91,0,0,0,4.54.36,15.93,15.93,0,0,0,4.5-.68,9.83,9.83,0,0,0,5.54-3.62v0l0,0a8.53,8.53,0,0,0,2.17,2.32,12.64,12.64,0,0,0,3.11,1.69,15.44,15.44,0,0,0,4.45.9,16.69,16.69,0,0,0,4.55,0,11.09,11.09,0,0,0,3.37-1.06,8.68,8.68,0,0,0,2.6-1.84v0a9.72,9.72,0,0,0,4.71,4.65,15.62,15.62,0,0,0,4.28,1.56,20.85,20.85,0,0,0,4.51.56,9.83,9.83,0,0,0,6.31-2.1v0h0a9.9,9.9,0,0,0,4,5.3,21.24,21.24,0,0,0,4,2.09,15.64,15.64,0,0,0,4.41,1.13,9.78,9.78,0,0,0,6.51-1.17v0h0a8.67,8.67,0,0,0,1.1,3,11.08,11.08,0,0,0,2.19,2.78,17.81,17.81,0,0,0,3.74,2.58,15.43,15.43,0,0,0,4.19,1.76,10.33,10.33,0,0,0,6.62-.31v0h0a8.38,8.38,0,0,0,.68,3.12,9.74,9.74,0,0,0,.78,1.5,12.31,12.31,0,0,0,1,1.51,15.59,15.59,0,0,0,3.35,3.08,19.21,19.21,0,0,0,3.92,2.3,11,11,0,0,0,3.43.83,8.82,8.82,0,0,0,3.18-.27v0h0a9.73,9.73,0,0,0,1.68,6.4,15.84,15.84,0,0,0,2.88,3.53,20.48,20.48,0,0,0,3.6,2.78,9.89,9.89,0,0,0,6.49,1.42v0h0a9.82,9.82,0,0,0,.77,6.61,19.93,19.93,0,0,0,2.41,3.86,17.2,17.2,0,0,0,3.21,3.22,9.72,9.72,0,0,0,6.22,2.29v0h0a10.23,10.23,0,0,0-.11,6.65,20.63,20.63,0,0,0,1.89,4.13,15.55,15.55,0,0,0,2.74,3.63,10,10,0,0,0,5.85,3.1v0h0a10.47,10.47,0,0,0-1,6.56,15.7,15.7,0,0,0,1.35,4.34,16.32,16.32,0,0,0,2.18,4,12.24,12.24,0,0,0,2.54,2.46,8.58,8.58,0,0,0,2.87,1.39l0,0h0a9.9,9.9,0,0,0-1.82,6.36,15.51,15.51,0,0,0,.69,4.49c.16.56.36,1.21.64,1.92a14.6,14.6,0,0,0,1,2.31,10,10,0,0,0,4.86,4.54v0h0a9.84,9.84,0,0,0-2.72,6.07,21,21,0,0,0,.1,4.55,15.5,15.5,0,0,0,1.13,4.41,9.71,9.71,0,0,0,4.14,5.15v0h0a8.2,8.2,0,0,0-2.09,2.4,11.3,11.3,0,0,0-1.39,3.26,22.93,22.93,0,0,0,0,9,11.3,11.3,0,0,0,1.39,3.26,8.2,8.2,0,0,0,2.09,2.4h0a9.74,9.74,0,0,0-4.14,5.15,15.64,15.64,0,0,0-1.13,4.42,20.94,20.94,0,0,0-.1,4.54,9.84,9.84,0,0,0,2.72,6.07h0v0a10,10,0,0,0-4.86,4.53,15.45,15.45,0,0,0-1,2.31c-.28.71-.48,1.36-.64,1.92a15.59,15.59,0,0,0-.69,4.5,9.92,9.92,0,0,0,1.82,6.36h0l0,0a8.39,8.39,0,0,0-2.87,1.39,12,12,0,0,0-2.54,2.46,16,16,0,0,0-2.18,4,15.7,15.7,0,0,0-1.35,4.34,10.48,10.48,0,0,0,1,6.56h0v0a10.12,10.12,0,0,0-5.85,3.11,15.55,15.55,0,0,0-2.74,3.63,20.36,20.36,0,0,0-1.89,4.13,10.2,10.2,0,0,0,.11,6.64h0v0a9.66,9.66,0,0,0-6.22,2.29,17.2,17.2,0,0,0-3.21,3.22,19.93,19.93,0,0,0-2.41,3.86,9.8,9.8,0,0,0-.77,6.6h0v0a10,10,0,0,0-6.49,1.42,21,21,0,0,0-3.6,2.79,15.75,15.75,0,0,0-2.88,3.52,9.77,9.77,0,0,0-1.68,6.41h0v0a8.82,8.82,0,0,0-3.18-.28,11.59,11.59,0,0,0-3.43.83,19.18,19.18,0,0,0-3.92,2.31,15.51,15.51,0,0,0-3.35,3.07,14.05,14.05,0,0,0-1,1.51,10.22,10.22,0,0,0-.78,1.5A8.43,8.43,0,0,0,347.46,398.72Zm1.23.79a7.38,7.38,0,0,1,1.05-4.43l3.52,5.32A7.27,7.27,0,0,1,348.69,399.51Zm5.35.75-3.91-5.85a12.8,12.8,0,0,1,1.7-2.12l4.89,7A13.14,13.14,0,0,1,354,400.26Zm6-2.95-.61.43-.61.44a14.2,14.2,0,0,1-1.4.82l-5-7.2a15.43,15.43,0,0,1,1.68-1.32c.75-.51,1.17-.84,1.78-1.21l5.39,6.94A10.16,10.16,0,0,1,360,397.31Zm1.7-1.64-5.29-6.75a13.1,13.1,0,0,1,2.51-1l4.43,5.46A13.44,13.44,0,0,1,361.7,395.67Zm2.68-5.19a8.42,8.42,0,0,1-.67,2.17l-4-4.93a8,8,0,0,1,4.57.34A6.64,6.64,0,0,1,364.38,390.48Zm.8-3.24a7.45,7.45,0,0,1,.44-4.55l4.19,4.8A7.12,7.12,0,0,1,365.18,387.24Zm5.4,0L365.93,382a17.55,17.55,0,0,1,1.41-2.32l5.78,6.34A10.75,10.75,0,0,1,370.58,387.27Zm5.5-3.74-.55.52-.54.52a13.94,13.94,0,0,1-1.26,1l-6-6.47a17.29,17.29,0,0,1,1.49-1.56,15.38,15.38,0,0,1,1.62-1.4l6.27,6.17A13.69,13.69,0,0,1,376.08,383.53Zm1.5-1.81-6.13-6a12.57,12.57,0,0,1,2.32-1.37l5.12,4.82A13,13,0,0,1,377.58,381.72Zm1.57-3.28-4.66-4.35a7.66,7.66,0,0,1,4.6-.26A7.08,7.08,0,0,1,379.15,378.44Zm.76-5.54a7.49,7.49,0,0,1-.19-4.59l4.79,4.21A7.11,7.11,0,0,1,379.91,372.9Zm5.33-.71-5.31-4.62a14.36,14.36,0,0,1,1.13-2.45l6.56,5.51A12.57,12.57,0,0,1,385.24,372.19Zm5-4.42s0,0-.47.59l-.46.59c-.14.16-.52.62-1.1,1.18l-6.76-5.62a15.37,15.37,0,0,1,1.24-1.76,16.38,16.38,0,0,1,1.41-1.62l7,5.29A15.39,15.39,0,0,1,390.2,367.77Zm1.25-2-6.88-5.12a19.13,19.13,0,0,1,2.15-1.65l5.71,4.11A10.38,10.38,0,0,1,391.45,365.77Zm1.13-3.46-5.19-3.69a7.5,7.5,0,0,1,4.49-.88A7,7,0,0,1,392.58,362.31Zm0-5.58a7.83,7.83,0,0,1-.8-4.53l5.3,3.54A6.83,6.83,0,0,1,392.6,356.73Zm5.18-1.42-5.88-3.87a13.24,13.24,0,0,1,.78-2.59l7.24,4.59A13.45,13.45,0,0,1,397.78,355.31Zm4.33-5-.37.65-.37.65a10.18,10.18,0,0,1-.95,1.31L393,348.21c.32-.63.55-1.12,1-1.9a14.92,14.92,0,0,1,1.15-1.8l7.67,4.29A12.36,12.36,0,0,1,402.11,350.27Zm1-2.16-7.5-4.16a12.61,12.61,0,0,1,1.95-1.89l6.21,3.3A12.89,12.89,0,0,1,403.07,348.11Zm-4.94-6.52a7.4,7.4,0,0,1,4.3-1.49,7.19,7.19,0,0,1,1.34,4.46ZM403,339a7.74,7.74,0,0,1-1.36-4.35l5.73,2.79A6.84,6.84,0,0,1,403,339Zm5-2.08-6.34-3.05a12.2,12.2,0,0,1,.4-2.68l7.78,3.58A13.52,13.52,0,0,1,408,336.91Zm3-4.19a13.84,13.84,0,0,1-.79,1.42l-8-3.64a14.83,14.83,0,0,1,.79-2,17.5,17.5,0,0,1,.89-1.95l8.17,3.23a13.24,13.24,0,0,1-.47,1.56s0,0-.28.69S411,332.71,411,332.72Zm1.22-3.65-8-3.12a12.41,12.41,0,0,1,1.64-2.15l6.6,2.44A13.7,13.7,0,0,1,412.24,329.07Zm.21-3.62-6-2.19a7.91,7.91,0,0,1,4.09-2A6.79,6.79,0,0,1,412.45,325.45ZM411,320a7.46,7.46,0,0,1-1.93-4.13l6.06,2A7.25,7.25,0,0,1,411,320Zm4.68-2.72-6.69-2.17a15.34,15.34,0,0,1,0-2.72l8.2,2.5A11.71,11.71,0,0,1,415.63,317.32Zm2.41-4.58c-.07.21-.25.78-.57,1.52L409,311.73a15.7,15.7,0,0,1,.49-2.09,15.39,15.39,0,0,1,.69-2l8.53,2.1a16,16,0,0,1-.3,1.59s0,0-.21.72S418,312.73,418,312.74Zm.77-3.77-8.33-2a12.48,12.48,0,0,1,1.3-2.36l6.87,1.54A14.19,14.19,0,0,1,418.81,309Zm-.33-3.63L412.25,304a7.62,7.62,0,0,1,3.83-2.56A7,7,0,0,1,418.48,305.34Zm-2.17-5.15a7.48,7.48,0,0,1-2.51-3.84l6.27,1.17A7,7,0,0,1,416.31,300.19Zm4.21-3.33-6.92-1.26a12.48,12.48,0,0,1-.27-2.68l8.46,1.38A13.5,13.5,0,0,1,420.52,296.86Zm2-6.34-.1.75c-.09.72-.09.73-.09.74a13.88,13.88,0,0,1-.34,1.58l-8.69-1.37a22.71,22.71,0,0,1,.54-4.26l8.75,1C422.6,289.71,422.55,290.31,422.53,290.52Zm0-2.36-8.52-.88a17.44,17.44,0,0,1,1-2.51l7,.6A10.8,10.8,0,0,1,422.57,288.16Zm-.77-3.54-6.35-.52a7.4,7.4,0,0,1,3.39-3.05A7.16,7.16,0,0,1,421.8,284.62Zm-2.87-4.82a7.9,7.9,0,0,1-3-3.47l6.37.32A6.77,6.77,0,0,1,418.93,279.8Zm3.75-3.86-7-.32A13,13,0,0,1,415,273l8.56.25A13.08,13.08,0,0,1,422.68,275.94Zm1.17-5a12,12,0,0,1-.17,1.61l-8.79-.22a16.08,16.08,0,0,1-.05-2.14,16.28,16.28,0,0,1,.05-2.15l8.79-.21a11.84,11.84,0,0,1,.17,1.61s0,0,0,.75S423.85,270.89,423.85,270.9Z" style="fill:#263238;stroke:#263238;stroke-miterlimit:10;stroke-width:0.5px"></path><path d="M314.31,150.49s14.71,15.5,15.5,30.2-8.34,25.05-8.34,25.05L294,198.18l7.55-50.87S312.33,147.31,314.31,150.49Z" style="fill:#263238;stroke:#263238;stroke-linecap:round;stroke-linejoin:round"></path><path d="M192.87,273.7V403.61a10.34,10.34,0,0,1,5.79-.43,14.69,14.69,0,0,1,2.43.71,19.33,19.33,0,0,1,1.88.75,15.66,15.66,0,0,1,3.88,2.38,9.86,9.86,0,0,1,3.68,5.5h0v0a8.31,8.31,0,0,1,2.91-1.29,12.14,12.14,0,0,1,3.52-.35,22.62,22.62,0,0,1,8.63,2.67,10.49,10.49,0,0,1,4.38,5l0,0v0a10,10,0,0,1,6.14-2.46,16.06,16.06,0,0,1,4.55.24c.57.11,1.24.24,2,.45a14.46,14.46,0,0,1,2.4.78,10,10,0,0,1,5,4.39l0,0v0a9.83,9.83,0,0,1,5.77-3.32,20.81,20.81,0,0,1,4.54-.35,15.57,15.57,0,0,1,4.5.68,9.83,9.83,0,0,1,5.54,3.62v0l0,0a8.43,8.43,0,0,1,2.17-2.33,12.64,12.64,0,0,1,3.11-1.69,15.78,15.78,0,0,1,4.45-.9,16.75,16.75,0,0,1,4.55,0,11.36,11.36,0,0,1,3.37,1.05,8.54,8.54,0,0,1,2.6,1.85v0h0a9.74,9.74,0,0,1,4.71-4.64,16,16,0,0,1,4.28-1.57,20.94,20.94,0,0,1,4.51-.55,9.77,9.77,0,0,1,6.31,2.1v0l0,0a9.86,9.86,0,0,1,4-5.3,21.24,21.24,0,0,1,4-2.09,15.64,15.64,0,0,1,4.41-1.13,9.72,9.72,0,0,1,6.51,1.17v0h0a8.52,8.52,0,0,1,1.1-3,11.08,11.08,0,0,1,2.19-2.78,17.81,17.81,0,0,1,3.74-2.58,15.12,15.12,0,0,1,4.19-1.76,14.14,14.14,0,0,1,2.55-.37V320.62l29.77,7-10.14-60c-3.38-20-6.2-42.53-8.45-45.63s-57.18-33.52-57.18-33.52l-51.27-7s-37.46,1.12-50.7,6.19c-2.38.91-36.46.66-59.55,10.52-31,13.24-30.4,29.19-26.92,39.62,5.73,17.22,28.59,23,44.24,26.15C157.34,264.79,192.87,270.41,192.87,273.7Z" style="fill:#fff;stroke:#263238;stroke-linecap:round;stroke-linejoin:round"></path><path d="M185,193.49s-24.25-1.54-37.72,3.08" style="fill:none;stroke:#263238;stroke-linecap:round;stroke-linejoin:round"></path><path d="M179.44,203.18s-5.41,22.48-2.79,37.32S182.18,260,182.18,260s15.7-23.86,15.7-44.51S183.67,198.15,179.44,203.18Z" style="fill:#263238;stroke:#263238;stroke-linecap:round;stroke-linejoin:round"></path><path d="M182.18,260s-41-.88-54.4-4.37" style="fill:#fff;stroke:#263238;stroke-linecap:round;stroke-linejoin:round"></path><path d="M309,212.49c-3.64,17.3-12.7,49.33-32.89,73" style="fill:none;stroke:#263238;stroke-linecap:round;stroke-linejoin:round"></path><path d="M311.18,200.18s-.2,1.78-.73,4.89" style="fill:none;stroke:#263238;stroke-linecap:round;stroke-linejoin:round"></path><path d="M229.09,192.39s14.5,60.16,31.84,89.18" style="fill:none;stroke:#263238;stroke-linecap:round;stroke-linejoin:round"></path><line x1="270.47" y1="406.58" x2="270.47" y2="421.5" style="fill:#fff;stroke:#263238;stroke-linecap:round;stroke-linejoin:round"></line><line x1="270.47" y1="294.32" x2="270.47" y2="400.07" style="fill:#fff;stroke:#263238;stroke-linecap:round;stroke-linejoin:round"></line><path d="M343.94,246.55c1.34-1.85,2.73-3.65,4.13-5.37" style="fill:none;stroke:#263238;stroke-linecap:round;stroke-linejoin:round"></path><path d="M326.38,275.55A243.93,243.93,0,0,1,341.49,250" style="fill:none;stroke:#263238;stroke-linecap:round;stroke-linejoin:round"></path><path d="M352.36,285.11a37.33,37.33,0,0,1,9.51-2.24" style="fill:none;stroke:#263238;stroke-linecap:round;stroke-linejoin:round"></path><path d="M336,294.14a69.3,69.3,0,0,1,11.78-7.1" style="fill:none;stroke:#263238;stroke-linecap:round;stroke-linejoin:round"></path><path d="M363.56,290.76a76,76,0,0,0-15.77,4.5" style="fill:none;stroke:#263238;stroke-linecap:round;stroke-linejoin:round"></path><polyline points="192.65 248.93 192.87 273.7 189.16 260.28" style="fill:#fff;stroke:#263238;stroke-linecap:round;stroke-linejoin:round"></polyline><path d="M246.36,192.39s7.63,22.31,13,37.81a167.77,167.77,0,0,0,13,28.16s14-25.77,19.36-40.7a156.67,156.67,0,0,0,7.12-26.9l-51-3.38Z" style="fill:#407BFF;stroke:#263238;stroke-linecap:round;stroke-linejoin:round"></path><line x1="274.34" y1="229.55" x2="280.71" y2="235.93" style="fill:none;stroke:#263238;stroke-linecap:round;stroke-linejoin:round"></line><line x1="272.56" y1="226.72" x2="262.64" y2="234.51" style="fill:none;stroke:#263238;stroke-linecap:round;stroke-linejoin:round"></line><path d="M257.32,205.1s6,9.92,9.93,14.53a54.13,54.13,0,0,1,5.31,7.09s10.28-11.34,12.76-21.62Z" style="fill:#fff;stroke:#263238;stroke-linecap:round;stroke-linejoin:round"></path><path d="M290.9,109.71s-14.08-9.21-24.32-8.45-35.83,24.58-38.13,33.28,5.88,15.1,5.88,15.1l4.35,8.71L241,153s14.59-5.12,19.45-7.42S273,133.77,273,133.77s5.12,8.19,12.29,13.57,20.48,11,20.48,11l.51,4.86,4.61-5.63s12.8-6.91,12.8-20.48-13.06-22-18.43-23.8S290.9,109.71,290.9,109.71Z" style="fill:#263238;stroke:#263238;stroke-linecap:round;stroke-linejoin:round"></path><path d="M238.68,155.53s-4.09-5.89-7.93,1.28,3.07,14.08,5.37,16.13a51.82,51.82,0,0,0,6.15,4.35Z" style="fill:#fff;stroke:#263238;stroke-linecap:round;stroke-linejoin:round"></path><path d="M306.77,156.81s4.87-2.05,6.91,0,2.56,7.68-.76,13.31-10.24,10.24-10.24,10.24Z" style="fill:#fff;stroke:#263238;stroke-linecap:round;stroke-linejoin:round"></path><path d="M237.92,152s3.84,31.74,8.44,40.44,17.92,23,23.81,23.55,9.73-2.05,10.49-2.82,16.64-14.59,20.22-25.34,5.89-33.27,5.89-33.27-22.2-12.3-27.83-17.93a93.46,93.46,0,0,1-8.75-9.94,26,26,0,0,1-12.56,15.84c-10.5,5.88-15.87,6.65-15.87,6.65Z" style="fill:#fff;stroke:#263238;stroke-linecap:round;stroke-linejoin:round"></path><path d="M262.23,170c0,1.91-1.09,3.46-2.43,3.46s-2.43-1.55-2.43-3.46,1.09-3.45,2.43-3.45S262.23,168.08,262.23,170Z" style="fill:#263238"></path><path d="M287.32,170c0,1.91-1.09,3.46-2.43,3.46s-2.44-1.55-2.44-3.46,1.09-3.45,2.44-3.45S287.32,168.08,287.32,170Z" style="fill:#263238"></path><path d="M254.55,172.42s5.38,2.31,9.22,1" style="fill:none;stroke:#263238;stroke-linecap:round;stroke-linejoin:round"></path><path d="M281.43,173.19a22.1,22.1,0,0,0,9.22-1.28" style="fill:none;stroke:#263238;stroke-linecap:round;stroke-linejoin:round"></path><path d="M265.56,188.29s4.61,5.38,7.68,5.12,7.93-4.6,7.93-4.6" style="fill:none;stroke:#263238;stroke-linecap:round;stroke-linejoin:round"></path><path d="M264.28,199a19.18,19.18,0,0,0,18.17,0" style="fill:none;stroke:#263238;stroke-linecap:round;stroke-linejoin:round"></path><path d="M237.24,158.94s30.77-6.46,70.45.2l-3,17.89s-10.23,6.14-17.4,6.66-15.36-12-15.36-12-6.39,11.63-11,11.77c-8.19.26-20.79-8.72-20.79-8.72Z" style="fill:none;stroke:#263238;stroke-linecap:round;stroke-linejoin:round"></path><path d="M248.41,159.53s5.38-6.4,15.36-.26" style="fill:none;stroke:#263238;stroke-linecap:round;stroke-linejoin:round;stroke-width:2px"></path><path d="M280.41,159.27s8.44-5.12,14.84,1" style="fill:none;stroke:#263238;stroke-linecap:round;stroke-linejoin:round;stroke-width:2px"></path><path d="M312.3,301.74s-10.14,20.57-13.8,28.73c0,0,20.28-13,27-18.87s-1.41-14.93-1.41-14.93A20.21,20.21,0,0,0,312.3,301.74Z" style="fill:#263238;stroke:#263238;stroke-linecap:round;stroke-linejoin:round"></path><polygon points="310.33 302.59 315.4 314.42 333.99 296.95 331.17 290.48 310.33 302.59" style="fill:#fff;stroke:#263238;stroke-linecap:round;stroke-linejoin:round"></polygon><path d="M290.84,316.2l-19.38-53.46v-20.1H254.33v20.1L235,316.2a4.68,4.68,0,0,0,4.3,6.53h47.28A4.68,4.68,0,0,0,290.84,316.2Z" style="fill:#fff;stroke:#263238;stroke-linecap:round;stroke-linejoin:round"></path><path d="M276.34,282.44H249.45l-12.28,32.74a4.18,4.18,0,0,0,4,5.81h43.54a4.18,4.18,0,0,0,4-5.81Z" style="fill:#407BFF;stroke:#263238;stroke-linecap:round;stroke-linejoin:round"></path><path d="M271.29,244H254.56a1.5,1.5,0,0,1-1.5-1.5h0a1.5,1.5,0,0,1,1.5-1.49h16.73a1.5,1.5,0,0,1,1.5,1.49h0A1.5,1.5,0,0,1,271.29,244Z" style="fill:#fff;stroke:#263238;stroke-linecap:round;stroke-linejoin:round"></path><path d="M159.6,244.79l48.5-10.88L255.91,240l1.9-14.85L210,219.06l-44.2-22.71a4.09,4.09,0,0,0-6.14,3l-5.23,41A4.08,4.08,0,0,0,159.6,244.79Z" style="fill:#fff;stroke:#263238;stroke-linecap:round;stroke-linejoin:round"></path><path d="M254.41,236.16,206.31,230l-28.79-25.25-11.09-6.34a3.64,3.64,0,0,0-5.47,2.78l-4.83,37.75a3.65,3.65,0,0,0,4.6,4.08l46.42-10.94,47.26,6.31Z" style="fill:#bababa;stroke:#263238;stroke-linecap:round;stroke-linejoin:round"></path><path d="M254.75,239.73l1.85-14.51a1.31,1.31,0,0,1,1.46-1.13h0a1.3,1.3,0,0,1,1.13,1.46l-1.85,14.51a1.31,1.31,0,0,1-1.46,1.13h0A1.31,1.31,0,0,1,254.75,239.73Z" style="fill:#fff;stroke:#263238;stroke-linecap:round;stroke-linejoin:round"></path><path d="M331.17,290.48s-8.17-21.41-11-28.74-6.19-9.85-10.42-11.26-24.79-7.33-29.57-7.33-25.35,2.82-25.35,5.36,3.38,3.09,6.76,3.09,13.8.85,13.8.85-17.75,6.76-17.75,8.17,2.54,2.53,4,2.81a19.26,19.26,0,0,0,4.22,0s-3.38,4.51-1.13,5.07,14.65.29,14.65.29-5.91,3.94-2.25,5.35a26.44,26.44,0,0,0,8.17,1.41s0,5.91,8.17,9.86l8.16,3.94,7.33,16.34a33.79,33.79,0,0,0,13-3.1C334,297.24,331.17,290.48,331.17,290.48Z" style="fill:#407BFF;stroke:#263238;stroke-linecap:round;stroke-linejoin:round"></path><path d="M297.93,282.87s2.54,7.89,9.58,9.58,9.29-1.69,9.29-1.69" style="fill:none;stroke:#263238;stroke-linecap:round;stroke-linejoin:round"></path><path d="M306.66,261.46s-18.87,2.26-27.32,7.33" style="fill:none;stroke:#263238;stroke-linecap:round;stroke-linejoin:round"></path><path d="M285.26,275.55s15.49.56,24.5-2.26" style="fill:none;stroke:#263238;stroke-linecap:round;stroke-linejoin:round"></path><path d="M299.34,254.7s-20.56,2.54-33.52,8.73" style="fill:none;stroke:#263238;stroke-linecap:round;stroke-linejoin:round"></path><path d="M275.4,252.45s8.45-3.1,13.24-4.51" style="fill:none;stroke:#263238;stroke-linecap:round;stroke-linejoin:round"></path><path d="M332,292.45l-33.52,38s30.14,25.64,44.78,29.86,27.89-1.69,32.4-12.67-2.54-25.64-6.76-29.86S332,292.45,332,292.45Z" style="fill:#fff;stroke:#263238;stroke-linecap:round;stroke-linejoin:round"></path><path d="M191.87,209.68s2.19,7.51,7,11.17,9.57,3.1,9.85.28a10.47,10.47,0,0,0-.56-4.79s3.94,9.3,7.89,10.15,5.35,0,5.91-1.69-.28-5.64-.28-5.64,4.51,8.73,7.89,7.33,3.66-5.36,3.66-6.48S231,205.36,231,205.36a64.78,64.78,0,0,0,3.66,6.2c2.25,3.38,3.94,11,5.35,13.52s4.23,4.79,5.92,3.1,1.12-14.37-.29-17.47-9.57-20-12.95-23.38-18.31-4.79-24.79-3.38-15.21,3.38-20.28,7.61-8.14,11.62-8.14,11.62l8.28,4.24Z" style="fill:#407BFF;stroke:#263238;stroke-linecap:round;stroke-linejoin:round"></path><path d="M208.14,216.34s-5.91-16.33-8.73-21.4" style="fill:none;stroke:#263238;stroke-linecap:round;stroke-linejoin:round"></path><path d="M221.66,219.16s-5.91-19.15-8.17-24.22" style="fill:none;stroke:#263238;stroke-linecap:round;stroke-linejoin:round"></path><path d="M231,205.36s-4.23-10.42-6.2-13.52" style="fill:none;stroke:#263238;stroke-linecap:round;stroke-linejoin:round"></path><line x1="191.87" y1="209.68" x2="187.86" y2="199.73" style="fill:none;stroke:#263238;stroke-linecap:round;stroke-linejoin:round"></line></g></svg>
